<?xml version="1.0" encoding="utf-8"?>
<!-- Generator: Adobe Illustrator 16.0.0, SVG Export Plug-In . SVG Version: 6.00 Build 0)  -->
<!DOCTYPE svg PUBLIC "-//W3C//DTD SVG 1.1//EN" "http://www.w3.org/Graphics/SVG/1.1/DTD/svg11.dtd">
<svg version="1.1" id="Layer_1" xmlns="http://www.w3.org/2000/svg" xmlns:xlink="http://www.w3.org/1999/xlink" x="0px" y="0px"
	 width="516.794px" height="359.479px" viewBox="0 0 516.794 359.479" enable-background="new 0 0 516.794 359.479"
	 xml:space="preserve">
<line fill="none" stroke="#000000" stroke-width="2.25" stroke-linejoin="round" stroke-miterlimit="10" x1="43.068" y1="44.35" x2="43.068" y2="55.8"/>
<line fill="none" stroke="#000000" stroke-width="1.5" stroke-linejoin="round" stroke-miterlimit="10" stroke-dasharray="1.5,1.5" x1="43.068" y1="55.8" x2="43.068" y2="359.479"/>
<line fill="none" stroke="#000000" stroke-width="2.25" stroke-linejoin="round" stroke-miterlimit="10" x1="129.205" y1="44.35" x2="129.205" y2="55.8"/>
<line fill="none" stroke="#000000" stroke-width="1.5" stroke-linejoin="round" stroke-miterlimit="10" stroke-dasharray="1.5,1.5" x1="129.205" y1="55.8" x2="129.205" y2="359.479"/>
<line fill="none" stroke="#000000" stroke-width="2.25" stroke-linejoin="round" stroke-miterlimit="10" x1="215.335" y1="44.35" x2="215.335" y2="55.8"/>
<line fill="none" stroke="#000000" stroke-width="1.5" stroke-linejoin="round" stroke-miterlimit="10" stroke-dasharray="1.5,1.5" x1="215.335" y1="55.8" x2="215.335" y2="359.479"/>
<line fill="none" stroke="#000000" stroke-width="2.25" stroke-linejoin="round" stroke-miterlimit="10" x1="301.455" y1="44.35" x2="301.455" y2="55.8"/>
<line fill="none" stroke="#000000" stroke-width="1.5" stroke-linejoin="round" stroke-miterlimit="10" stroke-dasharray="1.5,1.5" x1="301.455" y1="55.8" x2="301.455" y2="359.479"/>
<line fill="none" stroke="#000000" stroke-width="2.25" stroke-linejoin="round" stroke-miterlimit="10" x1="387.584" y1="44.35" x2="387.584" y2="55.8"/>
<line fill="none" stroke="#000000" stroke-width="1.5" stroke-linejoin="round" stroke-miterlimit="10" stroke-dasharray="1.5,1.5" x1="387.584" y1="55.8" x2="387.584" y2="359.479"/>
<line fill="none" stroke="#000000" stroke-width="2.25" stroke-linejoin="round" stroke-miterlimit="10" x1="473.725" y1="44.35" x2="473.725" y2="55.8"/>
<line fill="none" stroke="#000000" stroke-width="1.5" stroke-linejoin="round" stroke-miterlimit="10" stroke-dasharray="1.5,1.5" x1="473.725" y1="55.8" x2="473.725" y2="359.479"/>
<line fill="none" stroke="#000000" stroke-width="4.5" stroke-linejoin="round" stroke-miterlimit="10" x1="0" y1="12.59" x2="516.794" y2="12.59"/>
<line fill="none" stroke="#000000" stroke-width="4.5" stroke-linejoin="round" stroke-miterlimit="10" x1="0" y1="46.6" x2="516.794" y2="46.6"/>
<line fill="none" stroke="#000000" stroke-width="4.5" stroke-linejoin="round" stroke-miterlimit="10" x1="0" y1="357.229" x2="516.794" y2="357.229"/>
<text transform="matrix(1 0 0 1 31.021 34.1001)" font-family="'TimesNewRomanPS-BoldMT'" font-size="12">1990</text>
<text transform="matrix(1 0 0 1 55.021 34.1001)" font-family="'TimesNewRomanPS-BoldMT'" font-size="12"> </text>
<text transform="matrix(1 0 0 1 117.1548 34.1001)" font-family="'TimesNewRomanPS-BoldMT'" font-size="12">1995</text>
<text transform="matrix(1 0 0 1 141.1846 34.1001)" font-family="'TimesNewRomanPS-BoldMT'" font-size="12"> </text>
<text transform="matrix(1 0 0 1 203.3149 34.1001)" font-family="'TimesNewRomanPS-BoldMT'" font-size="12">2000</text>
<text transform="matrix(1 0 0 1 227.3149 34.1001)" font-family="'TimesNewRomanPS-BoldMT'" font-size="12"> </text>
<text transform="matrix(1 0 0 1 289.4546 34.1001)" font-family="'TimesNewRomanPS-BoldMT'" font-size="12">2005</text>
<text transform="matrix(1 0 0 1 313.4546 34.1001)" font-family="'TimesNewRomanPS-BoldMT'" font-size="12"> </text>
<text transform="matrix(1 0 0 1 375.6147 34.1001)" font-family="'TimesNewRomanPS-BoldMT'" font-size="12">2010</text>
<text transform="matrix(1 0 0 1 399.6147 34.1001)" font-family="'TimesNewRomanPS-BoldMT'" font-size="12"> </text>
<text transform="matrix(1 0 0 1 461.7446 34.1001)" font-family="'TimesNewRomanPS-BoldMT'" font-size="12">2015</text>
<text transform="matrix(1 0 0 1 485.7749 34.1001)" font-family="'TimesNewRomanPS-BoldMT'" font-size="12"> </text>
<rect x="231.735" y="159.241" fill-rule="evenodd" clip-rule="evenodd" fill="#FFFF99" width="285.058" height="85.039"/>
<line fill="none" stroke="#663300" stroke-width="3" stroke-linejoin="round" stroke-miterlimit="10" x1="231.735" y1="157.74" x2="231.735" y2="245.78"/>
<line fill="none" stroke="#663300" stroke-width="3" stroke-linejoin="round" stroke-miterlimit="10" x1="230.235" y1="159.24" x2="516.794" y2="159.24"/>
<line fill="none" stroke="#663300" stroke-width="3" stroke-linejoin="round" stroke-miterlimit="10" x1="230.235" y1="244.28" x2="516.794" y2="244.28"/>
<text transform="matrix(1 0 0 1 242.9243 177.7495)"><tspan x="0" y="0" font-family="'TimesNewRomanPS-BoldMT'" font-size="12">Ado</tspan><tspan x="21.34" y="0" font-family="'TimesNewRomanPS-BoldMT'" font-size="12">p</tspan><tspan x="28.062" y="0" font-family="'TimesNewRomanPS-BoldMT'" font-size="12">tion</tspan><tspan x="48.065" y="0" font-family="'TimesNewRomanPS-BoldMT'" font-size="12"> </tspan><tspan x="50.861" y="0" font-family="'TimesNewRomanPS-BoldMT'" font-size="12">o</tspan><tspan x="56.861" y="0" font-family="'TimesNewRomanPS-BoldMT'" font-size="12">f</tspan><tspan x="60.918" y="0" font-family="'TimesNewRomanPS-BoldMT'" font-size="12"> </tspan><tspan x="63.81" y="0" font-family="'TimesNewRomanPS-BoldMT'" font-size="12">lo</tspan><tspan x="73.144" y="0" font-family="'TimesNewRomanPS-BoldMT'" font-size="12">w</tspan><tspan x="81.905" y="0" font-family="'TimesNewRomanPS-BoldMT'" font-size="12"> </tspan><tspan x="84.558" y="0" font-family="'TimesNewRomanPS-BoldMT'" font-size="12">V</tspan><tspan x="92.96" y="0" font-family="'TimesNewRomanPS-BoldMT'" font-size="12">OC </tspan><tspan x="113.96" y="0" font-family="'TimesNewRomanPS-BoldMT'" font-size="12">p</tspan><tspan x="120.657" y="0" font-family="'TimesNewRomanPS-BoldMT'" font-size="12">ai</tspan><tspan x="129.991" y="0" font-family="'TimesNewRomanPS-BoldMT'" font-size="12">n</tspan><tspan x="136.713" y="0" font-family="'TimesNewRomanPS-BoldMT'" font-size="12">t </tspan></text>
<text transform="matrix(1 0 0 1 383.7749 178.2495)" font-family="'TimesNewRomanPS-BoldMT'" font-size="12"> </text>
<text transform="matrix(1 0 0 1 242.9849 198.6499)" font-family="'ArialMT'" font-size="12">←</text>
<text transform="matrix(1 0 0 1 254.9849 198.6499)" font-family="'TimesNewRomanPSMT'" font-size="11.04"> </text>
<text transform="matrix(1 0 0 1 257.7446 198.6499)"><tspan x="0" y="0" font-family="'TimesNewRomanPSMT'" font-size="11.04">D</tspan><tspan x="7.917" y="0" font-family="'TimesNewRomanPSMT'" font-size="11.04">e</tspan><tspan x="12.817" y="0" font-family="'TimesNewRomanPSMT'" font-size="11.04">cr</tspan><tspan x="21.439" y="0" font-family="'TimesNewRomanPSMT'" font-size="11.04">e</tspan><tspan x="26.34" y="0" font-family="'TimesNewRomanPSMT'" font-size="11.04">a</tspan><tspan x="31.262" y="0" font-family="'TimesNewRomanPSMT'" font-size="11.04">s</tspan><tspan x="35.558" y="0" font-family="'TimesNewRomanPSMT'" font-size="11.04">e</tspan><tspan x="40.491" y="0" font-family="'TimesNewRomanPSMT'" font-size="11.04"> </tspan><tspan x="42.897" y="0" font-family="'TimesNewRomanPSMT'" font-size="11.04">i</tspan><tspan x="46.01" y="0" font-family="'TimesNewRomanPSMT'" font-size="11.04">n</tspan><tspan x="51.529" y="0" font-family="'TimesNewRomanPSMT'" font-size="11.04"> </tspan><tspan x="54.179" y="0" font-family="'TimesNewRomanPSMT'" font-size="11.04">so</tspan><tspan x="63.994" y="0" font-family="'TimesNewRomanPSMT'" font-size="11.04">l</tspan><tspan x="67.127" y="0" font-family="'TimesNewRomanPSMT'" font-size="11.04">v</tspan><tspan x="72.536" y="0" font-family="'TimesNewRomanPSMT'" font-size="11.04">en</tspan><tspan x="82.956" y="0" font-family="'TimesNewRomanPSMT'" font-size="11.04">t</tspan><tspan x="86.079" y="0" font-family="'TimesNewRomanPSMT'" font-size="11.04"> </tspan></text>
<text transform="matrix(1 0 0 1 346.3345 198.6499)"><tspan x="0" y="0" font-family="'TimesNewRomanPSMT'" font-size="11.04">con</tspan><tspan x="15.939" y="0" font-family="'TimesNewRomanPSMT'" font-size="11.04">t</tspan><tspan x="19.063" y="0" font-family="'TimesNewRomanPSMT'" font-size="11.04">en</tspan><tspan x="29.482" y="0" font-family="'TimesNewRomanPSMT'" font-size="11.04">t</tspan><tspan x="32.604" y="0" font-family="'TimesNewRomanPSMT'" font-size="11.04">,</tspan></text>
<text transform="matrix(1 0 0 1 381.7349 198.6499)" font-family="'TimesNewRomanPSMT'" font-size="11.04"> </text>
<text transform="matrix(1 0 0 1 259.4243 208.9702)"><tspan x="0" y="0" font-family="'TimesNewRomanPSMT'" font-size="11.04">o</tspan><tspan x="5.52" y="0" font-family="'TimesNewRomanPSMT'" font-size="11.04">r</tspan><tspan x="9.219" y="0" font-family="'TimesNewRomanPSMT'" font-size="11.04"> </tspan></text>
<text transform="matrix(1 0 0 1 271.3052 208.9702)"><tspan x="0" y="0" font-family="'TimesNewRomanPSMT'" font-size="11.04">r</tspan><tspan x="3.699" y="0" font-family="'TimesNewRomanPSMT'" font-size="11.04">edu</tspan><tspan x="19.639" y="0" font-family="'TimesNewRomanPSMT'" font-size="11.04">c</tspan><tspan x="24.561" y="0" font-family="'TimesNewRomanPSMT'" font-size="11.04">ti</tspan><tspan x="30.784" y="0" font-family="'TimesNewRomanPSMT'" font-size="11.04">o</tspan><tspan x="36.193" y="0" font-family="'TimesNewRomanPSMT'" font-size="11.04">n</tspan><tspan x="41.713" y="0" font-family="'TimesNewRomanPSMT'" font-size="11.04"> </tspan><tspan x="44.119" y="0" font-family="'TimesNewRomanPSMT'" font-size="11.04">o</tspan><tspan x="49.639" y="0" font-family="'TimesNewRomanPSMT'" font-size="11.04">f</tspan><tspan x="53.337" y="0" font-family="'TimesNewRomanPSMT'" font-size="11.04"> </tspan><tspan x="55.976" y="0" font-family="'TimesNewRomanPSMT'" font-size="11.04">t</tspan><tspan x="59.087" y="0" font-family="'TimesNewRomanPSMT'" font-size="11.04">o</tspan><tspan x="64.606" y="0" font-family="'TimesNewRomanPSMT'" font-size="11.04">l</tspan><tspan x="67.719" y="0" font-family="'TimesNewRomanPSMT'" font-size="11.04">uen</tspan><tspan x="83.658" y="0" font-family="'TimesNewRomanPSMT'" font-size="11.04">e</tspan><tspan x="88.58" y="0" font-family="'TimesNewRomanPSMT'" font-size="11.04"> </tspan><tspan x="90.976" y="0" font-family="'TimesNewRomanPSMT'" font-size="11.04">and</tspan><tspan x="106.915" y="0" font-family="'TimesNewRomanPSMT'" font-size="11.04"> </tspan><tspan x="109.575" y="0" font-family="'TimesNewRomanPSMT'" font-size="11.04">x</tspan><tspan x="115.095" y="0" font-family="'TimesNewRomanPSMT'" font-size="11.04">y</tspan><tspan x="120.504" y="0" font-family="'TimesNewRomanPSMT'" font-size="11.04">l</tspan><tspan x="123.616" y="0" font-family="'TimesNewRomanPSMT'" font-size="11.04">en</tspan><tspan x="134.036" y="0" font-family="'TimesNewRomanPSMT'" font-size="11.04">e</tspan><tspan x="138.958" y="0" font-family="'TimesNewRomanPSMT'" font-size="11.04"> </tspan></text>
<text transform="matrix(1 0 0 1 413.0552 208.9702)" font-family="'ArialMT'" font-size="12">→</text>
<text transform="matrix(1 0 0 1 425.0552 208.9702)" font-family="'TimesNewRomanPSMT'" font-size="12"> </text>
<text transform="matrix(1 0 0 1 242.9849 223.0103)" font-family="'ArialMT'" font-size="12">←</text>
<text transform="matrix(1 0 0 1 254.9849 223.0103)" font-family="'TimesNewRomanPSMT'" font-size="11.04"> </text>
<text transform="matrix(1 0 0 1 257.7446 223.0103)"><tspan x="0" y="0" font-family="'TimesNewRomanPSMT'" font-size="11.04">A</tspan><tspan x="7.917" y="0" font-family="'TimesNewRomanPSMT'" font-size="11.04">dop</tspan><tspan x="24.476" y="0" font-family="'TimesNewRomanPSMT'" font-size="11.04">ti</tspan><tspan x="30.699" y="0" font-family="'TimesNewRomanPSMT'" font-size="11.04">on </tspan></text>
<text transform="matrix(1 0 0 1 302.0249 223.0103)" font-family="'TimesNewRomanPSMT'" font-size="11.04">of</text>
<text transform="matrix(1 0 0 1 311.2651 223.0103)" font-family="'TimesNewRomanPSMT'" font-size="11.04"> </text>
<text transform="matrix(1 0 0 1 259.4243 233.3296)"><tspan x="0" y="0" font-family="'TimesNewRomanPSMT'" font-size="11.04">w</tspan><tspan x="7.917" y="0" font-family="'TimesNewRomanPSMT'" font-size="11.04">a</tspan><tspan x="12.817" y="0" font-family="'TimesNewRomanPSMT'" font-size="11.04">t</tspan><tspan x="15.94" y="0" font-family="'TimesNewRomanPSMT'" font-size="11.04">er</tspan></text>
<text transform="matrix(1 0 0 1 284.0249 233.3296)" font-family="'TimesNewRomanPSMT'" font-size="11.04">-</text>
<text transform="matrix(1 0 0 1 287.5044 233.3296)"><tspan x="0" y="0" font-family="'TimesNewRomanPSMT'" font-size="11.04">ba</tspan><tspan x="10.42" y="0" font-family="'TimesNewRomanPSMT'" font-size="11.04">s</tspan><tspan x="14.738" y="0" font-family="'TimesNewRomanPSMT'" font-size="11.04">ed </tspan></text>
<text transform="matrix(1 0 0 1 315.2251 233.3296)"><tspan x="0" y="0" font-family="'TimesNewRomanPSMT'" font-size="11.04">co</tspan><tspan x="10.42" y="0" font-family="'TimesNewRomanPSMT'" font-size="11.04">a</tspan><tspan x="15.343" y="0" font-family="'TimesNewRomanPSMT'" font-size="11.04">ti</tspan><tspan x="21.565" y="0" font-family="'TimesNewRomanPSMT'" font-size="11.04">n</tspan><tspan x="27.085" y="0" font-family="'TimesNewRomanPSMT'" font-size="11.04">g</tspan><tspan x="32.494" y="0" font-family="'TimesNewRomanPSMT'" font-size="11.04"> </tspan></text>
<text transform="matrix(1 0 0 1 350.2944 233.3296)" font-family="'ArialMT'" font-size="12">→</text>
<text transform="matrix(1 0 0 1 362.2944 233.3296)" font-family="'TimesNewRomanPSMT'" font-size="12"> </text>
<rect x="258.385" y="253.481" fill-rule="evenodd" clip-rule="evenodd" fill="#CCFFCC" width="258.407" height="85.039"/>
<line fill="none" stroke="#003300" stroke-width="3" stroke-linejoin="round" stroke-miterlimit="10" x1="258.385" y1="251.98" x2="258.385" y2="340.02"/>
<line fill="none" stroke="#003300" stroke-width="3" stroke-linejoin="round" stroke-miterlimit="10" x1="256.885" y1="253.48" x2="516.794" y2="253.48"/>
<line fill="none" stroke="#003300" stroke-width="3" stroke-linejoin="round" stroke-miterlimit="10" x1="256.885" y1="338.52" x2="516.794" y2="338.52"/>
<text transform="matrix(1 0 0 1 270.5151 272.1401)"><tspan x="0" y="0" font-family="'TimesNewRomanPS-BoldMT'" font-size="12">I</tspan><tspan x="4.67" y="0" font-family="'TimesNewRomanPS-BoldMT'" font-size="12">n</tspan><tspan x="11.38" y="0" font-family="'TimesNewRomanPS-BoldMT'" font-size="12">n</tspan><tspan x="18.077" y="0" font-family="'TimesNewRomanPS-BoldMT'" font-size="12">ovatio</tspan><tspan x="49.407" y="0" font-family="'TimesNewRomanPS-BoldMT'" font-size="12">n</tspan><tspan x="56.094" y="0" font-family="'TimesNewRomanPS-BoldMT'" font-size="12"> </tspan><tspan x="58.854" y="0" font-family="'TimesNewRomanPS-BoldMT'" font-size="12">i</tspan><tspan x="62.188" y="0" font-family="'TimesNewRomanPS-BoldMT'" font-size="12">n</tspan><tspan x="68.909" y="0" font-family="'TimesNewRomanPS-BoldMT'" font-size="12"> </tspan><tspan x="71.789" y="0" font-family="'TimesNewRomanPS-BoldMT'" font-size="12">c</tspan><tspan x="77.079" y="0" font-family="'TimesNewRomanPS-BoldMT'" font-size="12">oati</tspan><tspan x="96.409" y="0" font-family="'TimesNewRomanPS-BoldMT'" font-size="12">n</tspan><tspan x="103.096" y="0" font-family="'TimesNewRomanPS-BoldMT'" font-size="12">g </tspan><tspan x="112.096" y="0" font-family="'TimesNewRomanPS-BoldMT'" font-size="12">p</tspan><tspan x="118.793" y="0" font-family="'TimesNewRomanPS-BoldMT'" font-size="12">r</tspan><tspan x="123.844" y="0" font-family="'TimesNewRomanPS-BoldMT'" font-size="12">o</tspan><tspan x="129.844" y="0" font-family="'TimesNewRomanPS-BoldMT'" font-size="12">ce</tspan><tspan x="140.424" y="0" font-family="'TimesNewRomanPS-BoldMT'" font-size="12">ss</tspan></text>
<text transform="matrix(1 0 0 1 420.4243 272.1401)" font-family="'TimesNewRomanPS-BoldMT'" font-size="12"> </text>
<text transform="matrix(1 0 0 1 270.5151 292.5396)" font-family="'ArialMT'" font-size="12">←</text>
<text transform="matrix(1 0 0 1 282.5151 292.5396)" font-family="'TimesNewRomanPSMT'" font-size="11.04"> </text>
<text transform="matrix(1 0 0 1 285.2749 292.5396)"><tspan x="0" y="0" font-family="'TimesNewRomanPSMT'" font-size="11.04">A</tspan><tspan x="7.917" y="0" font-family="'TimesNewRomanPSMT'" font-size="11.04">dop</tspan><tspan x="24.476" y="0" font-family="'TimesNewRomanPSMT'" font-size="11.04">ti</tspan><tspan x="30.699" y="0" font-family="'TimesNewRomanPSMT'" font-size="11.04">on</tspan><tspan x="41.738" y="0" font-family="'TimesNewRomanPSMT'" font-size="11.04"> </tspan><tspan x="44.267" y="0" font-family="'TimesNewRomanPSMT'" font-size="11.04">o</tspan><tspan x="49.786" y="0" font-family="'TimesNewRomanPSMT'" font-size="11.04">f</tspan><tspan x="53.484" y="0" font-family="'TimesNewRomanPSMT'" font-size="11.04"> </tspan><tspan x="56.123" y="0" font-family="'TimesNewRomanPSMT'" font-size="11.04">so</tspan><tspan x="65.938" y="0" font-family="'TimesNewRomanPSMT'" font-size="11.04">l</tspan><tspan x="69.072" y="0" font-family="'TimesNewRomanPSMT'" font-size="11.04">v</tspan><tspan x="74.47" y="0" font-family="'TimesNewRomanPSMT'" font-size="11.04">en</tspan><tspan x="84.89" y="0" font-family="'TimesNewRomanPSMT'" font-size="11.04">t</tspan><tspan x="88.013" y="0" font-family="'TimesNewRomanPSMT'" font-size="11.04"> </tspan><tspan x="90.419" y="0" font-family="'TimesNewRomanPSMT'" font-size="11.04">pa</tspan><tspan x="100.839" y="0" font-family="'TimesNewRomanPSMT'" font-size="11.04">i</tspan><tspan x="103.962" y="0" font-family="'TimesNewRomanPSMT'" font-size="11.04">n</tspan><tspan x="109.481" y="0" font-family="'TimesNewRomanPSMT'" font-size="11.04">t</tspan><tspan x="112.593" y="0" font-family="'TimesNewRomanPSMT'" font-size="11.04"> </tspan><tspan x="114.999" y="0" font-family="'TimesNewRomanPSMT'" font-size="11.04">t</tspan><tspan x="118.11" y="0" font-family="'TimesNewRomanPSMT'" font-size="11.04">y</tspan><tspan x="123.52" y="0" font-family="'TimesNewRomanPSMT'" font-size="11.04">pe</tspan></text>
<text transform="matrix(1 0 0 1 419.3452 292.5396)" font-family="'TimesNewRomanPSMT'" font-size="11.04"> </text>
<text transform="matrix(1 0 0 1 388.145 302.8599)" font-family="'TimesNewRomanPSMT'" font-size="11.04">3-wet coating</text>
<text transform="matrix(1 0 0 1 450.9243 302.8599)" font-family="'ArialMT'" font-size="12">→</text>
<text transform="matrix(1 0 0 1 462.9243 302.8599)" font-family="'TimesNewRomanPSMT'" font-size="12"> </text>
<text transform="matrix(1 0 0 1 313.3052 316.896)"><tspan x="0" y="0" font-family="'ArialMT'" font-size="12">← </tspan><tspan x="15.334" y="0" font-family="'TimesNewRomanPSMT'" font-size="11.04">A</tspan><tspan x="23.251" y="0" font-family="'TimesNewRomanPSMT'" font-size="11.04">dop</tspan><tspan x="39.81" y="0" font-family="'TimesNewRomanPSMT'" font-size="11.04">ti</tspan><tspan x="46.033" y="0" font-family="'TimesNewRomanPSMT'" font-size="11.04">on</tspan><tspan x="57.072" y="0" font-family="'TimesNewRomanPSMT'" font-size="11.04"> </tspan><tspan x="59.601" y="0" font-family="'TimesNewRomanPSMT'" font-size="11.04">o</tspan><tspan x="65.12" y="0" font-family="'TimesNewRomanPSMT'" font-size="11.04">f</tspan><tspan x="68.818" y="0" font-family="'TimesNewRomanPSMT'" font-size="11.04"> </tspan><tspan x="71.457" y="0" font-family="'TimesNewRomanPSMT'" font-size="11.04">w</tspan><tspan x="79.374" y="0" font-family="'TimesNewRomanPSMT'" font-size="11.04">a</tspan><tspan x="84.274" y="0" font-family="'TimesNewRomanPSMT'" font-size="11.04">t</tspan><tspan x="87.397" y="0" font-family="'TimesNewRomanPSMT'" font-size="11.04">er-ba</tspan><tspan x="110.071" y="0" font-family="'TimesNewRomanPSMT'" font-size="11.04">s</tspan><tspan x="114.389" y="0" font-family="'TimesNewRomanPSMT'" font-size="11.04">ed</tspan></text>
<text transform="matrix(1 0 0 1 433.7651 316.896)" font-family="'TimesNewRomanPSMT'" font-size="11.04"> </text>
<text transform="matrix(1 0 0 1 341.9448 327.2163)"><tspan x="0" y="0" font-family="'TimesNewRomanPSMT'" font-size="11.04">pa</tspan><tspan x="10.42" y="0" font-family="'TimesNewRomanPSMT'" font-size="11.04">i</tspan><tspan x="13.543" y="0" font-family="'TimesNewRomanPSMT'" font-size="11.04">n</tspan><tspan x="19.063" y="0" font-family="'TimesNewRomanPSMT'" font-size="11.04">t</tspan><tspan x="22.174" y="0" font-family="'TimesNewRomanPSMT'" font-size="11.04"> </tspan><tspan x="24.58" y="0" font-family="'TimesNewRomanPSMT'" font-size="11.04">t</tspan><tspan x="27.691" y="0" font-family="'TimesNewRomanPSMT'" font-size="11.04">y</tspan><tspan x="33.101" y="0" font-family="'TimesNewRomanPSMT'" font-size="11.04">pe</tspan><tspan x="43.521" y="0" font-family="'TimesNewRomanPSMT'" font-size="11.04"> </tspan><tspan x="46.181" y="0" font-family="'TimesNewRomanPSMT'" font-size="11.04">3-wet coating</tspan></text>
<text transform="matrix(1 0 0 1 450.9243 327.2163)" font-family="'ArialMT'" font-size="12">→</text>
<text transform="matrix(1 0 0 1 462.9243 327.2163)" font-family="'TimesNewRomanPSMT'" font-size="12"> </text>
<rect x="86.135" y="65" fill-rule="evenodd" clip-rule="evenodd" fill="#66FFFF" width="430.658" height="85.039"/>
<line fill="none" stroke="#000099" stroke-width="3" stroke-linejoin="round" stroke-miterlimit="10" x1="86.135" y1="63.5" x2="86.135" y2="151.54"/>
<line fill="none" stroke="#000099" stroke-width="3" stroke-linejoin="round" stroke-miterlimit="10" x1="84.635" y1="65" x2="516.794" y2="65"/>
<line fill="none" stroke="#000099" stroke-width="3" stroke-linejoin="round" stroke-miterlimit="10" x1="84.635" y1="150.04" x2="516.794" y2="150.04"/>
<text transform="matrix(1 0 0 1 100.3848 84.3599)"><tspan x="0" y="0" font-family="'TimesNewRomanPS-BoldMT'" font-size="12">R</tspan><tspan x="8.666" y="0" font-family="'TimesNewRomanPS-BoldMT'" font-size="12">e</tspan><tspan x="13.932" y="0" font-family="'TimesNewRomanPS-BoldMT'" font-size="12">du</tspan><tspan x="27.328" y="0" font-family="'TimesNewRomanPS-BoldMT'" font-size="12">c</tspan><tspan x="32.618" y="0" font-family="'TimesNewRomanPS-BoldMT'" font-size="12">tion </tspan><tspan x="55.622" y="0" font-family="'TimesNewRomanPS-BoldMT'" font-size="12">o</tspan><tspan x="61.646" y="0" font-family="'TimesNewRomanPS-BoldMT'" font-size="12">f</tspan><tspan x="65.702" y="0" font-family="'TimesNewRomanPS-BoldMT'" font-size="12"> </tspan><tspan x="68.582" y="0" font-family="'TimesNewRomanPS-BoldMT'" font-size="12">p</tspan><tspan x="75.28" y="0" font-family="'TimesNewRomanPS-BoldMT'" font-size="12">ai</tspan><tspan x="84.614" y="0" font-family="'TimesNewRomanPS-BoldMT'" font-size="12">n</tspan><tspan x="91.335" y="0" font-family="'TimesNewRomanPS-BoldMT'" font-size="12">t usage </tspan></text>
<text transform="matrix(1 0 0 1 227.3647 84.3599)" font-family="'TimesNewRomanPS-BoldMT'" font-size="12"> </text>
<text transform="matrix(1 0 0 1 106.145 104.7603)"><tspan x="0" y="0" font-family="'ArialMT'" font-size="12">← </tspan><tspan x="15.334" y="0" font-family="'TimesNewRomanPSMT'" font-size="11.04">I</tspan><tspan x="18.812" y="0" font-family="'TimesNewRomanPSMT'" font-size="11.04">m</tspan><tspan x="27.222" y="0" font-family="'TimesNewRomanPSMT'" font-size="11.04">p</tspan><tspan x="32.742" y="0" font-family="'TimesNewRomanPSMT'" font-size="11.04">r</tspan><tspan x="36.44" y="0" font-family="'TimesNewRomanPSMT'" font-size="11.04">o</tspan><tspan x="41.96" y="0" font-family="'TimesNewRomanPSMT'" font-size="11.04">v</tspan><tspan x="47.359" y="0" font-family="'TimesNewRomanPSMT'" font-size="11.04">e</tspan><tspan x="52.259" y="0" font-family="'TimesNewRomanPSMT'" font-size="11.04">m</tspan><tspan x="60.692" y="0" font-family="'TimesNewRomanPSMT'" font-size="11.04">en</tspan><tspan x="71.112" y="0" font-family="'TimesNewRomanPSMT'" font-size="11.04">t</tspan><tspan x="74.234" y="0" font-family="'TimesNewRomanPSMT'" font-size="11.04"> of pa</tspan><tspan x="99.37" y="0" font-family="'TimesNewRomanPSMT'" font-size="11.04">i</tspan><tspan x="102.493" y="0" font-family="'TimesNewRomanPSMT'" font-size="11.04">nt</tspan></text>
<text transform="matrix(1 0 0 1 186.085 104.7603)" font-family="'TimesNewRomanPSMT'" font-size="11.04"> </text>
<text transform="matrix(1 0 0 1 210.9248 104.7603)" font-family="'TimesNewRomanPSMT'" font-size="11.04"> </text>
<text transform="matrix(1 0 0 1 131.3647 115.0796)"><tspan x="0" y="0" font-family="'TimesNewRomanPSMT'" font-size="11.04">t</tspan><tspan x="3.111" y="0" font-family="'TimesNewRomanPSMT'" font-size="11.04">r</tspan><tspan x="6.81" y="0" font-family="'TimesNewRomanPSMT'" font-size="11.04">an</tspan><tspan x="17.23" y="0" font-family="'TimesNewRomanPSMT'" font-size="11.04">sf</tspan><tspan x="25.247" y="0" font-family="'TimesNewRomanPSMT'" font-size="11.04">e</tspan><tspan x="30.058" y="0" font-family="'TimesNewRomanPSMT'" font-size="11.04">r</tspan><tspan x="33.657" y="0" font-family="'TimesNewRomanPSMT'" font-size="11.04"> e</tspan><tspan x="41.317" y="0" font-family="'TimesNewRomanPSMT'" font-size="11.04">f</tspan><tspan x="45.037" y="0" font-family="'TimesNewRomanPSMT'" font-size="11.04">f</tspan><tspan x="48.736" y="0" font-family="'TimesNewRomanPSMT'" font-size="11.04">i</tspan><tspan x="51.847" y="0" font-family="'TimesNewRomanPSMT'" font-size="11.04">c</tspan><tspan x="56.747" y="0" font-family="'TimesNewRomanPSMT'" font-size="11.04">i</tspan><tspan x="59.771" y="0" font-family="'TimesNewRomanPSMT'" font-size="11.04">e</tspan><tspan x="64.67" y="0" font-family="'TimesNewRomanPSMT'" font-size="11.04">n</tspan><tspan x="70.091" y="0" font-family="'TimesNewRomanPSMT'" font-size="11.04">c</tspan><tspan x="74.991" y="0" font-family="'TimesNewRomanPSMT'" font-size="11.04">y</tspan><tspan x="80.412" y="0" font-family="'TimesNewRomanPSMT'" font-size="11.04"> </tspan><tspan x="83.173" y="0" font-family="'ArialMT'" font-size="12">→</tspan></text>
<text transform="matrix(1 0 0 1 226.0449 115.0796)" font-family="'TimesNewRomanPSMT'" font-size="12"> </text>
<text transform="matrix(1 0 0 1 153.2046 129.2397)"><tspan x="0" y="0" font-family="'ArialMT'" font-size="12">← </tspan><tspan x="15.334" y="0" font-family="'TimesNewRomanPSMT'" font-size="11.04">R</tspan><tspan x="22.665" y="0" font-family="'TimesNewRomanPSMT'" font-size="11.04">edu</tspan><tspan x="38.604" y="0" font-family="'TimesNewRomanPSMT'" font-size="11.04">c</tspan><tspan x="43.526" y="0" font-family="'TimesNewRomanPSMT'" font-size="11.04">e</tspan><tspan x="48.426" y="0" font-family="'TimesNewRomanPSMT'" font-size="11.04"> </tspan><tspan x="50.977" y="0" font-family="'TimesNewRomanPSMT'" font-size="11.04">us</tspan><tspan x="60.793" y="0" font-family="'TimesNewRomanPSMT'" font-size="11.04">a</tspan><tspan x="65.726" y="0" font-family="'TimesNewRomanPSMT'" font-size="11.04">g</tspan><tspan x="71.125" y="0" font-family="'TimesNewRomanPSMT'" font-size="11.04">e of</tspan></text>
<text transform="matrix(1 0 0 1 243.9448 129.2397)" font-family="'TimesNewRomanPSMT'" font-size="11.04"> </text>
<text transform="matrix(1 0 0 1 221.125 139.4399)"><tspan x="0" y="0" font-family="'TimesNewRomanPSMT'" font-size="11.04">w</tspan><tspan x="7.917" y="0" font-family="'TimesNewRomanPSMT'" font-size="11.04">a</tspan><tspan x="12.817" y="0" font-family="'TimesNewRomanPSMT'" font-size="11.04">s</tspan><tspan x="17.136" y="0" font-family="'TimesNewRomanPSMT'" font-size="11.04">h</tspan><tspan x="22.656" y="0" font-family="'TimesNewRomanPSMT'" font-size="11.04">i</tspan><tspan x="25.768" y="0" font-family="'TimesNewRomanPSMT'" font-size="11.04">n</tspan><tspan x="31.288" y="0" font-family="'TimesNewRomanPSMT'" font-size="11.04">g</tspan><tspan x="36.686" y="0" font-family="'TimesNewRomanPSMT'" font-size="11.04"> </tspan><tspan x="39.335" y="0" font-family="'TimesNewRomanPSMT'" font-size="11.04">t</tspan><tspan x="42.447" y="0" font-family="'TimesNewRomanPSMT'" font-size="11.04">h</tspan><tspan x="47.966" y="0" font-family="'TimesNewRomanPSMT'" font-size="11.04">i</tspan><tspan x="51.078" y="0" font-family="'TimesNewRomanPSMT'" font-size="11.04">nne</tspan><tspan x="67.017" y="0" font-family="'TimesNewRomanPSMT'" font-size="11.04">r</tspan><tspan x="70.739" y="0" font-family="'TimesNewRomanPSMT'" font-size="11.04"> </tspan><tspan x="73.499" y="0" font-family="'ArialMT'" font-size="12">→</tspan></text>
<text transform="matrix(1 0 0 1 306.3452 139.4399)" font-family="'TimesNewRomanPSMT'" font-size="12"> </text>
<line fill="none" stroke="#000000" stroke-width="0.75" stroke-miterlimit="10" x1="100.385" y1="85.44" x2="227.365" y2="85.44"/>
<line fill="none" stroke="#000000" stroke-width="0.75" stroke-miterlimit="10" x1="242.924" y1="179.25" x2="383.775" y2="179.25"/>
<line fill="none" stroke="#000000" stroke-width="0.75" stroke-miterlimit="10" x1="271.305" y1="274.115" x2="420.424" y2="274.115"/>
</svg>
