<?xml version="1.0" encoding="utf-8"?>
<!-- Generator: Adobe Illustrator 16.0.0, SVG Export Plug-In . SVG Version: 6.00 Build 0)  -->
<!DOCTYPE svg PUBLIC "-//W3C//DTD SVG 1.1//EN" "http://www.w3.org/Graphics/SVG/1.1/DTD/svg11.dtd">
<svg version="1.1" id="Layer_1" xmlns="http://www.w3.org/2000/svg" xmlns:xlink="http://www.w3.org/1999/xlink" x="0px" y="0px"
	 width="516.794px" height="353.039px" viewBox="0 0 516.794 353.039" enable-background="new 0 0 516.794 353.039"
	 xml:space="preserve">
<line fill="none" stroke="#000000" stroke-width="2.25" stroke-linejoin="round" stroke-miterlimit="10" x1="43.068" y1="37.91" x2="43.068" y2="49.36"/>
<line fill="none" stroke="#000000" stroke-width="1.5" stroke-linejoin="round" stroke-miterlimit="10" stroke-dasharray="1.5,1.5" x1="43.068" y1="49.36" x2="43.068" y2="353.039"/>
<line fill="none" stroke="#000000" stroke-width="2.25" stroke-linejoin="round" stroke-miterlimit="10" x1="129.205" y1="37.91" x2="129.205" y2="49.36"/>
<line fill="none" stroke="#000000" stroke-width="1.5" stroke-linejoin="round" stroke-miterlimit="10" stroke-dasharray="1.5,1.5" x1="129.205" y1="49.36" x2="129.205" y2="353.039"/>
<line fill="none" stroke="#000000" stroke-width="2.25" stroke-linejoin="round" stroke-miterlimit="10" x1="215.335" y1="37.91" x2="215.335" y2="49.36"/>
<line fill="none" stroke="#000000" stroke-width="1.5" stroke-linejoin="round" stroke-miterlimit="10" stroke-dasharray="1.5,1.5" x1="215.335" y1="49.36" x2="215.335" y2="353.039"/>
<line fill="none" stroke="#000000" stroke-width="2.25" stroke-linejoin="round" stroke-miterlimit="10" x1="301.455" y1="37.91" x2="301.455" y2="49.36"/>
<line fill="none" stroke="#000000" stroke-width="1.5" stroke-linejoin="round" stroke-miterlimit="10" stroke-dasharray="1.5,1.5" x1="301.455" y1="49.36" x2="301.455" y2="353.039"/>
<line fill="none" stroke="#000000" stroke-width="2.25" stroke-linejoin="round" stroke-miterlimit="10" x1="387.584" y1="37.91" x2="387.584" y2="49.36"/>
<line fill="none" stroke="#000000" stroke-width="1.5" stroke-linejoin="round" stroke-miterlimit="10" stroke-dasharray="1.5,1.5" x1="387.584" y1="49.36" x2="387.584" y2="353.039"/>
<line fill="none" stroke="#000000" stroke-width="2.25" stroke-linejoin="round" stroke-miterlimit="10" x1="473.725" y1="37.91" x2="473.725" y2="49.36"/>
<line fill="none" stroke="#000000" stroke-width="1.5" stroke-linejoin="round" stroke-miterlimit="10" stroke-dasharray="1.5,1.5" x1="473.725" y1="49.36" x2="473.725" y2="353.039"/>
<line fill="none" stroke="#000000" stroke-width="4.5" stroke-linejoin="round" stroke-miterlimit="10" x1="0" y1="6.15" x2="516.794" y2="6.15"/>
<line fill="none" stroke="#000000" stroke-width="4.5" stroke-linejoin="round" stroke-miterlimit="10" x1="0" y1="40.16" x2="516.794" y2="40.16"/>
<line fill="none" stroke="#000000" stroke-width="4.5" stroke-linejoin="round" stroke-miterlimit="10" x1="0" y1="350.789" x2="516.794" y2="350.789"/>
<path d="M34.323,20.083v7.125c0,0.251,0.078,0.438,0.234,0.563c0.156,0.125,0.375,0.188,0.656,0.188h0.469v0.281H32.26v-0.281h0.422
	c0.312,0,0.531-0.063,0.656-0.188c0.156-0.124,0.234-0.312,0.234-0.563v-5.672c0-0.124-0.047-0.234-0.141-0.328
	c-0.063-0.063-0.172-0.094-0.328-0.094H32.26v-0.281h0.422c0.375,0,0.671-0.063,0.891-0.188c0.25-0.124,0.437-0.312,0.563-0.563
	H34.323z"/>
<path fill="none" stroke="#000000" stroke-width="0.3429" stroke-linejoin="round" stroke-miterlimit="10" d="M34.323,20.083v7.125
	c0,0.251,0.078,0.438,0.234,0.563c0.156,0.125,0.375,0.188,0.656,0.188h0.469v0.281H32.26v-0.281h0.422
	c0.312,0,0.531-0.063,0.656-0.188c0.156-0.124,0.234-0.312,0.234-0.563v-5.672c0-0.124-0.047-0.234-0.141-0.328
	c-0.063-0.063-0.172-0.094-0.328-0.094H32.26v-0.281h0.422c0.375,0,0.671-0.063,0.891-0.188c0.25-0.124,0.437-0.312,0.563-0.563
	H34.323z"/>
<path d="M40.771,24.864c-0.313,0.251-0.703,0.375-1.172,0.375c-0.594,0-1.094-0.203-1.5-0.609c-0.375-0.375-0.563-1-0.563-1.875
	c0-0.75,0.203-1.375,0.609-1.875c0.406-0.499,0.984-0.75,1.734-0.75c0.781,0,1.39,0.313,1.828,0.938
	c0.437,0.626,0.656,1.531,0.656,2.719c0,1.313-0.266,2.391-0.797,3.234c-0.5,0.875-1.204,1.313-2.109,1.313
	c-0.407,0-0.766-0.094-1.078-0.281c-0.281-0.188-0.422-0.438-0.422-0.75c0-0.124,0.031-0.25,0.094-0.375
	c0.094-0.124,0.234-0.188,0.422-0.188s0.312,0.063,0.375,0.188c0.062,0.157,0.094,0.328,0.094,0.516
	c0,0.125,0.015,0.219,0.047,0.281c0.031,0.094,0.062,0.157,0.094,0.188c0.031,0.031,0.078,0.047,0.141,0.047
	c0.094,0.031,0.188,0.047,0.281,0.047c0.563,0,1.015-0.312,1.359-0.938c0.343-0.625,0.546-1.671,0.609-3.141
	C41.317,24.302,41.083,24.614,40.771,24.864L40.771,24.864z M38.708,21.067c-0.25,0.438-0.375,0.984-0.375,1.641
	c0,0.688,0.125,1.203,0.375,1.547c0.281,0.375,0.625,0.563,1.031,0.563c0.469,0,0.875-0.218,1.219-0.656
	c0.343-0.438,0.516-0.844,0.516-1.219c0-0.75-0.125-1.359-0.375-1.828c-0.25-0.438-0.656-0.656-1.219-0.656
	C39.349,20.458,38.958,20.662,38.708,21.067L38.708,21.067z"/>
<path fill="none" stroke="#000000" stroke-width="0.3429" stroke-linejoin="round" stroke-miterlimit="10" d="M40.771,24.864
	c-0.313,0.251-0.703,0.375-1.172,0.375c-0.594,0-1.094-0.203-1.5-0.609c-0.375-0.375-0.563-1-0.563-1.875
	c0-0.75,0.203-1.375,0.609-1.875c0.406-0.499,0.984-0.75,1.734-0.75c0.781,0,1.39,0.313,1.828,0.938
	c0.437,0.626,0.656,1.531,0.656,2.719c0,1.313-0.266,2.391-0.797,3.234c-0.5,0.875-1.204,1.313-2.109,1.313
	c-0.407,0-0.766-0.094-1.078-0.281c-0.281-0.188-0.422-0.438-0.422-0.75c0-0.124,0.031-0.25,0.094-0.375
	c0.094-0.124,0.234-0.188,0.422-0.188s0.312,0.063,0.375,0.188c0.062,0.157,0.094,0.328,0.094,0.516
	c0,0.125,0.015,0.219,0.047,0.281c0.031,0.094,0.062,0.157,0.094,0.188c0.031,0.031,0.078,0.047,0.141,0.047
	c0.094,0.031,0.188,0.047,0.281,0.047c0.563,0,1.015-0.312,1.359-0.938c0.343-0.625,0.546-1.671,0.609-3.141
	C41.317,24.302,41.083,24.614,40.771,24.864L40.771,24.864z M38.708,21.067c-0.25,0.438-0.375,0.984-0.375,1.641
	c0,0.688,0.125,1.203,0.375,1.547c0.281,0.375,0.625,0.563,1.031,0.563c0.469,0,0.875-0.218,1.219-0.656
	c0.343-0.438,0.516-0.844,0.516-1.219c0-0.75-0.125-1.359-0.375-1.828c-0.25-0.438-0.656-0.656-1.219-0.656
	C39.349,20.458,38.958,20.662,38.708,21.067L38.708,21.067z"/>
<path d="M46.891,24.864c-0.313,0.251-0.703,0.375-1.172,0.375c-0.594,0-1.094-0.203-1.5-0.609c-0.375-0.375-0.563-1-0.563-1.875
	c0-0.75,0.203-1.375,0.609-1.875c0.406-0.499,0.984-0.75,1.734-0.75c0.781,0,1.39,0.313,1.828,0.938
	c0.438,0.626,0.656,1.531,0.656,2.719c0,1.313-0.266,2.391-0.797,3.234c-0.5,0.875-1.203,1.313-2.109,1.313
	c-0.406,0-0.766-0.094-1.078-0.281c-0.281-0.188-0.422-0.438-0.422-0.75c0-0.124,0.031-0.25,0.094-0.375
	c0.094-0.124,0.234-0.188,0.422-0.188s0.312,0.063,0.375,0.188c0.063,0.157,0.094,0.328,0.094,0.516
	c0,0.125,0.016,0.219,0.047,0.281c0.031,0.094,0.063,0.157,0.094,0.188c0.031,0.031,0.078,0.047,0.141,0.047
	c0.094,0.031,0.188,0.047,0.281,0.047c0.563,0,1.015-0.312,1.359-0.938c0.344-0.625,0.546-1.671,0.609-3.141
	C47.437,24.302,47.203,24.614,46.891,24.864L46.891,24.864z M44.828,21.067c-0.25,0.438-0.375,0.984-0.375,1.641
	c0,0.688,0.125,1.203,0.375,1.547c0.281,0.375,0.625,0.563,1.031,0.563c0.469,0,0.875-0.218,1.219-0.656
	c0.344-0.438,0.516-0.844,0.516-1.219c0-0.75-0.125-1.359-0.375-1.828c-0.25-0.438-0.656-0.656-1.219-0.656
	C45.468,20.458,45.078,20.662,44.828,21.067L44.828,21.067z"/>
<path fill="none" stroke="#000000" stroke-width="0.3429" stroke-linejoin="round" stroke-miterlimit="10" d="M46.891,24.864
	c-0.313,0.251-0.703,0.375-1.172,0.375c-0.594,0-1.094-0.203-1.5-0.609c-0.375-0.375-0.563-1-0.563-1.875
	c0-0.75,0.203-1.375,0.609-1.875c0.406-0.499,0.984-0.75,1.734-0.75c0.781,0,1.39,0.313,1.828,0.938
	c0.438,0.626,0.656,1.531,0.656,2.719c0,1.313-0.266,2.391-0.797,3.234c-0.5,0.875-1.203,1.313-2.109,1.313
	c-0.406,0-0.766-0.094-1.078-0.281c-0.281-0.188-0.422-0.438-0.422-0.75c0-0.124,0.031-0.25,0.094-0.375
	c0.094-0.124,0.234-0.188,0.422-0.188s0.312,0.063,0.375,0.188c0.063,0.157,0.094,0.328,0.094,0.516
	c0,0.125,0.016,0.219,0.047,0.281c0.031,0.094,0.063,0.157,0.094,0.188c0.031,0.031,0.078,0.047,0.141,0.047
	c0.094,0.031,0.188,0.047,0.281,0.047c0.563,0,1.015-0.312,1.359-0.938c0.344-0.625,0.546-1.671,0.609-3.141
	C47.437,24.302,47.203,24.614,46.891,24.864L46.891,24.864z M44.828,21.067c-0.25,0.438-0.375,0.984-0.375,1.641
	c0,0.688,0.125,1.203,0.375,1.547c0.281,0.375,0.625,0.563,1.031,0.563c0.469,0,0.875-0.218,1.219-0.656
	c0.344-0.438,0.516-0.844,0.516-1.219c0-0.75-0.125-1.359-0.375-1.828c-0.25-0.438-0.656-0.656-1.219-0.656
	C45.468,20.458,45.078,20.662,44.828,21.067L44.828,21.067z"/>
<path d="M53.948,27.208c-0.469,0.75-1.031,1.125-1.688,1.125c-0.688,0-1.266-0.358-1.734-1.078
	c-0.469-0.719-0.703-1.734-0.703-3.047c0-1.249,0.218-2.233,0.656-2.953c0.469-0.75,1.062-1.125,1.781-1.125
	c0.687,0,1.25,0.359,1.688,1.078c0.469,0.75,0.703,1.751,0.703,3C54.651,25.458,54.417,26.458,53.948,27.208L53.948,27.208z
	 M53.386,21.489c-0.25-0.656-0.625-0.984-1.125-0.984c-0.469,0-0.844,0.328-1.125,0.984c-0.281,0.626-0.422,1.531-0.422,2.719
	c0,1.219,0.141,2.141,0.422,2.766c0.312,0.656,0.687,0.984,1.125,0.984c0.469,0,0.828-0.328,1.078-0.984
	c0.281-0.687,0.422-1.609,0.422-2.766C53.761,23.083,53.636,22.177,53.386,21.489L53.386,21.489z"/>
<path fill="none" stroke="#000000" stroke-width="0.3429" stroke-linejoin="round" stroke-miterlimit="10" d="M53.948,27.208
	c-0.469,0.75-1.031,1.125-1.688,1.125c-0.688,0-1.266-0.358-1.734-1.078c-0.469-0.719-0.703-1.734-0.703-3.047
	c0-1.249,0.218-2.233,0.656-2.953c0.469-0.75,1.062-1.125,1.781-1.125c0.687,0,1.25,0.359,1.688,1.078
	c0.469,0.75,0.703,1.751,0.703,3C54.651,25.458,54.417,26.458,53.948,27.208L53.948,27.208z M53.386,21.489
	c-0.25-0.656-0.625-0.984-1.125-0.984c-0.469,0-0.844,0.328-1.125,0.984c-0.281,0.626-0.422,1.531-0.422,2.719
	c0,1.219,0.141,2.141,0.422,2.766c0.312,0.656,0.687,0.984,1.125,0.984c0.469,0,0.828-0.328,1.078-0.984
	c0.281-0.687,0.422-1.609,0.422-2.766C53.761,23.083,53.636,22.177,53.386,21.489L53.386,21.489z"/>
<path d="M120.457,20.083v7.125c0,0.251,0.078,0.438,0.234,0.563c0.156,0.125,0.375,0.188,0.656,0.188h0.469v0.281h-3.422v-0.281
	h0.422c0.312,0,0.531-0.063,0.656-0.188c0.156-0.124,0.234-0.312,0.234-0.563v-5.672c0-0.124-0.047-0.234-0.141-0.328
	c-0.063-0.063-0.172-0.094-0.328-0.094h-0.844v-0.281h0.422c0.375,0,0.672-0.063,0.891-0.188c0.25-0.124,0.438-0.312,0.563-0.563
	H120.457z"/>
<path fill="none" stroke="#000000" stroke-width="0.3429" stroke-linejoin="round" stroke-miterlimit="10" d="M120.457,20.083v7.125
	c0,0.251,0.078,0.438,0.234,0.563c0.156,0.125,0.375,0.188,0.656,0.188h0.469v0.281h-3.422v-0.281h0.422
	c0.312,0,0.531-0.063,0.656-0.188c0.156-0.124,0.234-0.312,0.234-0.563v-5.672c0-0.124-0.047-0.234-0.141-0.328
	c-0.063-0.063-0.172-0.094-0.328-0.094h-0.844v-0.281h0.422c0.375,0,0.672-0.063,0.891-0.188c0.25-0.124,0.438-0.312,0.563-0.563
	H120.457z"/>
<path d="M126.905,24.864c-0.313,0.251-0.703,0.375-1.172,0.375c-0.594,0-1.094-0.203-1.5-0.609c-0.375-0.375-0.563-1-0.563-1.875
	c0-0.75,0.203-1.375,0.609-1.875c0.406-0.499,0.984-0.75,1.734-0.75c0.781,0,1.39,0.313,1.828,0.938
	c0.438,0.626,0.656,1.531,0.656,2.719c0,1.313-0.266,2.391-0.797,3.234c-0.5,0.875-1.203,1.313-2.109,1.313
	c-0.406,0-0.766-0.094-1.078-0.281c-0.281-0.188-0.422-0.438-0.422-0.75c0-0.124,0.031-0.25,0.094-0.375
	c0.094-0.124,0.234-0.188,0.422-0.188s0.312,0.063,0.375,0.188c0.063,0.157,0.094,0.328,0.094,0.516
	c0,0.125,0.016,0.219,0.047,0.281c0.031,0.094,0.063,0.157,0.094,0.188c0.031,0.031,0.078,0.047,0.141,0.047
	c0.094,0.031,0.188,0.047,0.281,0.047c0.563,0,1.015-0.312,1.359-0.938c0.344-0.625,0.546-1.671,0.609-3.141
	C127.451,24.302,127.217,24.614,126.905,24.864L126.905,24.864z M124.842,21.067c-0.25,0.438-0.375,0.984-0.375,1.641
	c0,0.688,0.125,1.203,0.375,1.547c0.281,0.375,0.625,0.563,1.031,0.563c0.469,0,0.875-0.218,1.219-0.656
	c0.344-0.438,0.516-0.844,0.516-1.219c0-0.75-0.125-1.359-0.375-1.828c-0.25-0.438-0.656-0.656-1.219-0.656
	C125.482,20.458,125.092,20.662,124.842,21.067L124.842,21.067z"/>
<path fill="none" stroke="#000000" stroke-width="0.3429" stroke-linejoin="round" stroke-miterlimit="10" d="M126.905,24.864
	c-0.313,0.251-0.703,0.375-1.172,0.375c-0.594,0-1.094-0.203-1.5-0.609c-0.375-0.375-0.563-1-0.563-1.875
	c0-0.75,0.203-1.375,0.609-1.875c0.406-0.499,0.984-0.75,1.734-0.75c0.781,0,1.39,0.313,1.828,0.938
	c0.438,0.626,0.656,1.531,0.656,2.719c0,1.313-0.266,2.391-0.797,3.234c-0.5,0.875-1.203,1.313-2.109,1.313
	c-0.406,0-0.766-0.094-1.078-0.281c-0.281-0.188-0.422-0.438-0.422-0.75c0-0.124,0.031-0.25,0.094-0.375
	c0.094-0.124,0.234-0.188,0.422-0.188s0.312,0.063,0.375,0.188c0.063,0.157,0.094,0.328,0.094,0.516
	c0,0.125,0.016,0.219,0.047,0.281c0.031,0.094,0.063,0.157,0.094,0.188c0.031,0.031,0.078,0.047,0.141,0.047
	c0.094,0.031,0.188,0.047,0.281,0.047c0.563,0,1.015-0.312,1.359-0.938c0.344-0.625,0.546-1.671,0.609-3.141
	C127.451,24.302,127.217,24.614,126.905,24.864L126.905,24.864z M124.842,21.067c-0.25,0.438-0.375,0.984-0.375,1.641
	c0,0.688,0.125,1.203,0.375,1.547c0.281,0.375,0.625,0.563,1.031,0.563c0.469,0,0.875-0.218,1.219-0.656
	c0.344-0.438,0.516-0.844,0.516-1.219c0-0.75-0.125-1.359-0.375-1.828c-0.25-0.438-0.656-0.656-1.219-0.656
	C125.482,20.458,125.092,20.662,124.842,21.067L124.842,21.067z"/>
<path d="M133.025,24.864c-0.313,0.251-0.703,0.375-1.172,0.375c-0.594,0-1.094-0.203-1.5-0.609c-0.375-0.375-0.563-1-0.563-1.875
	c0-0.75,0.203-1.375,0.609-1.875c0.406-0.499,0.984-0.75,1.734-0.75c0.781,0,1.39,0.313,1.828,0.938
	c0.437,0.626,0.656,1.531,0.656,2.719c0,1.313-0.266,2.391-0.797,3.234c-0.5,0.875-1.204,1.313-2.109,1.313
	c-0.407,0-0.766-0.094-1.078-0.281c-0.281-0.188-0.422-0.438-0.422-0.75c0-0.124,0.031-0.25,0.094-0.375
	c0.094-0.124,0.234-0.188,0.422-0.188s0.312,0.063,0.375,0.188c0.062,0.157,0.094,0.328,0.094,0.516
	c0,0.125,0.015,0.219,0.047,0.281c0.031,0.094,0.062,0.157,0.094,0.188c0.031,0.031,0.078,0.047,0.141,0.047
	c0.094,0.031,0.188,0.047,0.281,0.047c0.563,0,1.015-0.312,1.359-0.938c0.343-0.625,0.546-1.671,0.609-3.141
	C133.571,24.302,133.337,24.614,133.025,24.864L133.025,24.864z M130.962,21.067c-0.25,0.438-0.375,0.984-0.375,1.641
	c0,0.688,0.125,1.203,0.375,1.547c0.281,0.375,0.625,0.563,1.031,0.563c0.469,0,0.875-0.218,1.219-0.656
	c0.343-0.438,0.516-0.844,0.516-1.219c0-0.75-0.125-1.359-0.375-1.828c-0.25-0.438-0.656-0.656-1.219-0.656
	C131.603,20.458,131.212,20.662,130.962,21.067L130.962,21.067z"/>
<path fill="none" stroke="#000000" stroke-width="0.3429" stroke-linejoin="round" stroke-miterlimit="10" d="M133.025,24.864
	c-0.313,0.251-0.703,0.375-1.172,0.375c-0.594,0-1.094-0.203-1.5-0.609c-0.375-0.375-0.563-1-0.563-1.875
	c0-0.75,0.203-1.375,0.609-1.875c0.406-0.499,0.984-0.75,1.734-0.75c0.781,0,1.39,0.313,1.828,0.938
	c0.437,0.626,0.656,1.531,0.656,2.719c0,1.313-0.266,2.391-0.797,3.234c-0.5,0.875-1.204,1.313-2.109,1.313
	c-0.407,0-0.766-0.094-1.078-0.281c-0.281-0.188-0.422-0.438-0.422-0.75c0-0.124,0.031-0.25,0.094-0.375
	c0.094-0.124,0.234-0.188,0.422-0.188s0.312,0.063,0.375,0.188c0.062,0.157,0.094,0.328,0.094,0.516
	c0,0.125,0.015,0.219,0.047,0.281c0.031,0.094,0.062,0.157,0.094,0.188c0.031,0.031,0.078,0.047,0.141,0.047
	c0.094,0.031,0.188,0.047,0.281,0.047c0.563,0,1.015-0.312,1.359-0.938c0.343-0.625,0.546-1.671,0.609-3.141
	C133.571,24.302,133.337,24.614,133.025,24.864L133.025,24.864z M130.962,21.067c-0.25,0.438-0.375,0.984-0.375,1.641
	c0,0.688,0.125,1.203,0.375,1.547c0.281,0.375,0.625,0.563,1.031,0.563c0.469,0,0.875-0.218,1.219-0.656
	c0.343-0.438,0.516-0.844,0.516-1.219c0-0.75-0.125-1.359-0.375-1.828c-0.25-0.438-0.656-0.656-1.219-0.656
	C131.603,20.458,131.212,20.662,130.962,21.067L130.962,21.067z"/>
<path d="M137.692,23.224c0.312-0.094,0.625-0.141,0.938-0.141c0.593,0,1.078,0.219,1.453,0.656c0.375,0.469,0.563,1.078,0.563,1.828
	c0,0.813-0.204,1.484-0.609,2.016c-0.375,0.5-0.969,0.75-1.781,0.75c-0.532,0-1.031-0.171-1.5-0.516
	c-0.438-0.312-0.656-0.703-0.656-1.172c0-0.188,0.047-0.358,0.141-0.516c0.125-0.124,0.281-0.188,0.469-0.188
	s0.312,0.063,0.375,0.188c0.062,0.125,0.094,0.234,0.094,0.328c0,0.188-0.047,0.328-0.141,0.422
	c-0.094,0.125-0.141,0.251-0.141,0.375c0,0.251,0.141,0.438,0.422,0.563c0.312,0.125,0.64,0.188,0.984,0.188
	c0.5,0,0.875-0.203,1.125-0.609c0.281-0.438,0.422-1.015,0.422-1.734c0-0.625-0.125-1.141-0.375-1.547
	c-0.219-0.375-0.563-0.563-1.031-0.563c-0.344,0-0.641,0.063-0.891,0.188c-0.25,0.125-0.485,0.392-0.703,0.797l-0.422-0.047
	l0.234-4.266h3.844l-0.141,0.703h-3.375l-0.188,3.094C137.113,23.583,137.411,23.317,137.692,23.224L137.692,23.224z"/>
<path fill="none" stroke="#000000" stroke-width="0.3429" stroke-linejoin="round" stroke-miterlimit="10" d="M137.692,23.224
	c0.312-0.094,0.625-0.141,0.938-0.141c0.593,0,1.078,0.219,1.453,0.656c0.375,0.469,0.563,1.078,0.563,1.828
	c0,0.813-0.204,1.484-0.609,2.016c-0.375,0.5-0.969,0.75-1.781,0.75c-0.532,0-1.031-0.171-1.5-0.516
	c-0.438-0.312-0.656-0.703-0.656-1.172c0-0.188,0.047-0.358,0.141-0.516c0.125-0.124,0.281-0.188,0.469-0.188
	s0.312,0.063,0.375,0.188c0.062,0.125,0.094,0.234,0.094,0.328c0,0.188-0.047,0.328-0.141,0.422
	c-0.094,0.125-0.141,0.251-0.141,0.375c0,0.251,0.141,0.438,0.422,0.563c0.312,0.125,0.64,0.188,0.984,0.188
	c0.5,0,0.875-0.203,1.125-0.609c0.281-0.438,0.422-1.015,0.422-1.734c0-0.625-0.125-1.141-0.375-1.547
	c-0.219-0.375-0.563-0.563-1.031-0.563c-0.344,0-0.641,0.063-0.891,0.188c-0.25,0.125-0.485,0.392-0.703,0.797l-0.422-0.047
	l0.234-4.266h3.844l-0.141,0.703h-3.375l-0.188,3.094C137.113,23.583,137.411,23.317,137.692,23.224L137.692,23.224z"/>
<path d="M207.179,23.505c0.25-0.469,0.375-0.906,0.375-1.313c0-0.563-0.125-1-0.375-1.313c-0.25-0.281-0.625-0.422-1.125-0.422
	c-0.407,0-0.735,0.094-0.984,0.281c-0.25,0.188-0.375,0.453-0.375,0.797c0,0.188,0.047,0.345,0.141,0.469
	c0.125,0.125,0.188,0.251,0.188,0.375c0,0.157-0.047,0.266-0.141,0.328c-0.063,0.094-0.172,0.141-0.328,0.141
	c-0.188,0-0.344-0.063-0.469-0.188c-0.094-0.094-0.141-0.265-0.141-0.516c0-0.656,0.234-1.155,0.703-1.5
	c0.469-0.344,0.968-0.516,1.5-0.516c0.75,0,1.296,0.188,1.641,0.563c0.375,0.406,0.563,0.875,0.563,1.406
	c0,0.345-0.094,0.72-0.281,1.125c-0.188,0.406-0.454,0.767-0.797,1.078c-1.094,1.063-1.797,1.766-2.109,2.109
	c-0.438,0.5-0.719,0.875-0.844,1.125h2.766c0.281,0,0.516-0.109,0.703-0.328c0.188-0.218,0.312-0.546,0.375-0.984h0.281
	l-0.281,2.016h-4.359V27.63c0.188-0.344,0.437-0.703,0.75-1.078c0.281-0.344,0.765-0.859,1.453-1.547
	C206.538,24.474,206.929,23.974,207.179,23.505L207.179,23.505z"/>
<path fill="none" stroke="#000000" stroke-width="0.3429" stroke-linejoin="round" stroke-miterlimit="10" d="M207.179,23.505
	c0.25-0.469,0.375-0.906,0.375-1.313c0-0.563-0.125-1-0.375-1.313c-0.25-0.281-0.625-0.422-1.125-0.422
	c-0.407,0-0.735,0.094-0.984,0.281c-0.25,0.188-0.375,0.453-0.375,0.797c0,0.188,0.047,0.345,0.141,0.469
	c0.125,0.125,0.188,0.251,0.188,0.375c0,0.157-0.047,0.266-0.141,0.328c-0.063,0.094-0.172,0.141-0.328,0.141
	c-0.188,0-0.344-0.063-0.469-0.188c-0.094-0.094-0.141-0.265-0.141-0.516c0-0.656,0.234-1.155,0.703-1.5
	c0.469-0.344,0.968-0.516,1.5-0.516c0.75,0,1.296,0.188,1.641,0.563c0.375,0.406,0.563,0.875,0.563,1.406
	c0,0.345-0.094,0.72-0.281,1.125c-0.188,0.406-0.454,0.767-0.797,1.078c-1.094,1.063-1.797,1.766-2.109,2.109
	c-0.438,0.5-0.719,0.875-0.844,1.125h2.766c0.281,0,0.516-0.109,0.703-0.328c0.188-0.218,0.312-0.546,0.375-0.984h0.281
	l-0.281,2.016h-4.359V27.63c0.188-0.344,0.437-0.703,0.75-1.078c0.281-0.344,0.765-0.859,1.453-1.547
	C206.538,24.474,206.929,23.974,207.179,23.505L207.179,23.505z"/>
<path d="M214.002,27.208c-0.469,0.75-1.031,1.125-1.688,1.125c-0.688,0-1.266-0.358-1.734-1.078
	c-0.469-0.719-0.703-1.734-0.703-3.047c0-1.249,0.218-2.233,0.656-2.953c0.469-0.75,1.062-1.125,1.781-1.125
	c0.687,0,1.25,0.359,1.688,1.078c0.469,0.75,0.703,1.751,0.703,3C214.706,25.458,214.471,26.458,214.002,27.208L214.002,27.208z
	 M213.44,21.489c-0.25-0.656-0.625-0.984-1.125-0.984c-0.469,0-0.844,0.328-1.125,0.984c-0.281,0.626-0.422,1.531-0.422,2.719
	c0,1.219,0.141,2.141,0.422,2.766c0.312,0.656,0.687,0.984,1.125,0.984c0.469,0,0.828-0.328,1.078-0.984
	c0.281-0.687,0.422-1.609,0.422-2.766C213.815,23.083,213.689,22.177,213.44,21.489L213.44,21.489z"/>
<path fill="none" stroke="#000000" stroke-width="0.3429" stroke-linejoin="round" stroke-miterlimit="10" d="M214.002,27.208
	c-0.469,0.75-1.031,1.125-1.688,1.125c-0.688,0-1.266-0.358-1.734-1.078c-0.469-0.719-0.703-1.734-0.703-3.047
	c0-1.249,0.218-2.233,0.656-2.953c0.469-0.75,1.062-1.125,1.781-1.125c0.687,0,1.25,0.359,1.688,1.078
	c0.469,0.75,0.703,1.751,0.703,3C214.706,25.458,214.471,26.458,214.002,27.208L214.002,27.208z M213.44,21.489
	c-0.25-0.656-0.625-0.984-1.125-0.984c-0.469,0-0.844,0.328-1.125,0.984c-0.281,0.626-0.422,1.531-0.422,2.719
	c0,1.219,0.141,2.141,0.422,2.766c0.312,0.656,0.687,0.984,1.125,0.984c0.469,0,0.828-0.328,1.078-0.984
	c0.281-0.687,0.422-1.609,0.422-2.766C213.815,23.083,213.689,22.177,213.44,21.489L213.44,21.489z"/>
<path d="M220.122,27.208c-0.469,0.75-1.031,1.125-1.688,1.125c-0.688,0-1.266-0.358-1.734-1.078
	c-0.469-0.719-0.703-1.734-0.703-3.047c0-1.249,0.218-2.233,0.656-2.953c0.469-0.75,1.062-1.125,1.781-1.125
	c0.687,0,1.25,0.359,1.688,1.078c0.469,0.75,0.703,1.751,0.703,3C220.825,25.458,220.591,26.458,220.122,27.208L220.122,27.208z
	 M219.56,21.489c-0.25-0.656-0.625-0.984-1.125-0.984c-0.469,0-0.844,0.328-1.125,0.984c-0.281,0.626-0.422,1.531-0.422,2.719
	c0,1.219,0.141,2.141,0.422,2.766c0.312,0.656,0.687,0.984,1.125,0.984c0.469,0,0.828-0.328,1.078-0.984
	c0.281-0.687,0.422-1.609,0.422-2.766C219.935,23.083,219.81,22.177,219.56,21.489L219.56,21.489z"/>
<path fill="none" stroke="#000000" stroke-width="0.3429" stroke-linejoin="round" stroke-miterlimit="10" d="M220.122,27.208
	c-0.469,0.75-1.031,1.125-1.688,1.125c-0.688,0-1.266-0.358-1.734-1.078c-0.469-0.719-0.703-1.734-0.703-3.047
	c0-1.249,0.218-2.233,0.656-2.953c0.469-0.75,1.062-1.125,1.781-1.125c0.687,0,1.25,0.359,1.688,1.078
	c0.469,0.75,0.703,1.751,0.703,3C220.825,25.458,220.591,26.458,220.122,27.208L220.122,27.208z M219.56,21.489
	c-0.25-0.656-0.625-0.984-1.125-0.984c-0.469,0-0.844,0.328-1.125,0.984c-0.281,0.626-0.422,1.531-0.422,2.719
	c0,1.219,0.141,2.141,0.422,2.766c0.312,0.656,0.687,0.984,1.125,0.984c0.469,0,0.828-0.328,1.078-0.984
	c0.281-0.687,0.422-1.609,0.422-2.766C219.935,23.083,219.81,22.177,219.56,21.489L219.56,21.489z"/>
<path d="M226.242,27.208c-0.469,0.75-1.031,1.125-1.688,1.125c-0.688,0-1.266-0.358-1.734-1.078
	c-0.469-0.719-0.703-1.734-0.703-3.047c0-1.249,0.218-2.233,0.656-2.953c0.469-0.75,1.062-1.125,1.781-1.125
	c0.687,0,1.25,0.359,1.688,1.078c0.469,0.75,0.703,1.751,0.703,3C226.945,25.458,226.711,26.458,226.242,27.208L226.242,27.208z
	 M225.68,21.489c-0.25-0.656-0.625-0.984-1.125-0.984c-0.469,0-0.844,0.328-1.125,0.984c-0.281,0.626-0.422,1.531-0.422,2.719
	c0,1.219,0.141,2.141,0.422,2.766c0.312,0.656,0.687,0.984,1.125,0.984c0.469,0,0.828-0.328,1.078-0.984
	c0.281-0.687,0.422-1.609,0.422-2.766C226.055,23.083,225.93,22.177,225.68,21.489L225.68,21.489z"/>
<path fill="none" stroke="#000000" stroke-width="0.3429" stroke-linejoin="round" stroke-miterlimit="10" d="M226.242,27.208
	c-0.469,0.75-1.031,1.125-1.688,1.125c-0.688,0-1.266-0.358-1.734-1.078c-0.469-0.719-0.703-1.734-0.703-3.047
	c0-1.249,0.218-2.233,0.656-2.953c0.469-0.75,1.062-1.125,1.781-1.125c0.687,0,1.25,0.359,1.688,1.078
	c0.469,0.75,0.703,1.751,0.703,3C226.945,25.458,226.711,26.458,226.242,27.208L226.242,27.208z M225.68,21.489
	c-0.25-0.656-0.625-0.984-1.125-0.984c-0.469,0-0.844,0.328-1.125,0.984c-0.281,0.626-0.422,1.531-0.422,2.719
	c0,1.219,0.141,2.141,0.422,2.766c0.312,0.656,0.687,0.984,1.125,0.984c0.469,0,0.828-0.328,1.078-0.984
	c0.281-0.687,0.422-1.609,0.422-2.766C226.055,23.083,225.93,22.177,225.68,21.489L225.68,21.489z"/>
<path d="M293.319,23.505c0.25-0.469,0.375-0.906,0.375-1.313c0-0.563-0.125-1-0.375-1.313c-0.25-0.281-0.625-0.422-1.125-0.422
	c-0.406,0-0.734,0.094-0.984,0.281s-0.375,0.453-0.375,0.797c0,0.188,0.047,0.345,0.141,0.469c0.125,0.125,0.188,0.251,0.188,0.375
	c0,0.157-0.047,0.266-0.141,0.328c-0.063,0.094-0.172,0.141-0.328,0.141c-0.188,0-0.344-0.063-0.469-0.188
	c-0.094-0.094-0.141-0.265-0.141-0.516c0-0.656,0.234-1.155,0.703-1.5c0.469-0.344,0.969-0.516,1.5-0.516
	c0.75,0,1.297,0.188,1.641,0.563c0.375,0.406,0.563,0.875,0.563,1.406c0,0.345-0.094,0.72-0.281,1.125
	c-0.188,0.406-0.453,0.767-0.797,1.078c-1.094,1.063-1.797,1.766-2.109,2.109c-0.438,0.5-0.719,0.875-0.844,1.125h2.766
	c0.281,0,0.516-0.109,0.703-0.328c0.188-0.218,0.313-0.546,0.375-0.984h0.281l-0.281,2.016h-4.359V27.63
	c0.188-0.344,0.438-0.703,0.75-1.078c0.281-0.344,0.766-0.859,1.453-1.547C292.678,24.474,293.069,23.974,293.319,23.505
	L293.319,23.505z"/>
<path fill="none" stroke="#000000" stroke-width="0.3429" stroke-linejoin="round" stroke-miterlimit="10" d="M293.319,23.505
	c0.25-0.469,0.375-0.906,0.375-1.313c0-0.563-0.125-1-0.375-1.313c-0.25-0.281-0.625-0.422-1.125-0.422
	c-0.406,0-0.734,0.094-0.984,0.281s-0.375,0.453-0.375,0.797c0,0.188,0.047,0.345,0.141,0.469c0.125,0.125,0.188,0.251,0.188,0.375
	c0,0.157-0.047,0.266-0.141,0.328c-0.063,0.094-0.172,0.141-0.328,0.141c-0.188,0-0.344-0.063-0.469-0.188
	c-0.094-0.094-0.141-0.265-0.141-0.516c0-0.656,0.234-1.155,0.703-1.5c0.469-0.344,0.969-0.516,1.5-0.516
	c0.75,0,1.297,0.188,1.641,0.563c0.375,0.406,0.563,0.875,0.563,1.406c0,0.345-0.094,0.72-0.281,1.125
	c-0.188,0.406-0.453,0.767-0.797,1.078c-1.094,1.063-1.797,1.766-2.109,2.109c-0.438,0.5-0.719,0.875-0.844,1.125h2.766
	c0.281,0,0.516-0.109,0.703-0.328c0.188-0.218,0.313-0.546,0.375-0.984h0.281l-0.281,2.016h-4.359V27.63
	c0.188-0.344,0.438-0.703,0.75-1.078c0.281-0.344,0.766-0.859,1.453-1.547C292.678,24.474,293.069,23.974,293.319,23.505
	L293.319,23.505z"/>
<path d="M300.142,27.208c-0.469,0.75-1.031,1.125-1.688,1.125c-0.688,0-1.266-0.358-1.734-1.078
	c-0.469-0.719-0.703-1.734-0.703-3.047c0-1.249,0.219-2.233,0.656-2.953c0.469-0.75,1.063-1.125,1.781-1.125
	c0.688,0,1.25,0.359,1.688,1.078c0.469,0.75,0.703,1.751,0.703,3C300.845,25.458,300.611,26.458,300.142,27.208L300.142,27.208z
	 M299.58,21.489c-0.25-0.656-0.625-0.984-1.125-0.984c-0.469,0-0.844,0.328-1.125,0.984c-0.281,0.626-0.422,1.531-0.422,2.719
	c0,1.219,0.141,2.141,0.422,2.766c0.313,0.656,0.688,0.984,1.125,0.984c0.469,0,0.828-0.328,1.078-0.984
	c0.281-0.687,0.422-1.609,0.422-2.766C299.955,23.083,299.83,22.177,299.58,21.489L299.58,21.489z"/>
<path fill="none" stroke="#000000" stroke-width="0.3429" stroke-linejoin="round" stroke-miterlimit="10" d="M300.142,27.208
	c-0.469,0.75-1.031,1.125-1.688,1.125c-0.688,0-1.266-0.358-1.734-1.078c-0.469-0.719-0.703-1.734-0.703-3.047
	c0-1.249,0.219-2.233,0.656-2.953c0.469-0.75,1.063-1.125,1.781-1.125c0.688,0,1.25,0.359,1.688,1.078
	c0.469,0.75,0.703,1.751,0.703,3C300.845,25.458,300.611,26.458,300.142,27.208L300.142,27.208z M299.58,21.489
	c-0.25-0.656-0.625-0.984-1.125-0.984c-0.469,0-0.844,0.328-1.125,0.984c-0.281,0.626-0.422,1.531-0.422,2.719
	c0,1.219,0.141,2.141,0.422,2.766c0.313,0.656,0.688,0.984,1.125,0.984c0.469,0,0.828-0.328,1.078-0.984
	c0.281-0.687,0.422-1.609,0.422-2.766C299.955,23.083,299.83,22.177,299.58,21.489L299.58,21.489z"/>
<path d="M306.262,27.208c-0.469,0.75-1.031,1.125-1.688,1.125c-0.688,0-1.266-0.358-1.734-1.078
	c-0.469-0.719-0.703-1.734-0.703-3.047c0-1.249,0.219-2.233,0.656-2.953c0.469-0.75,1.063-1.125,1.781-1.125
	c0.688,0,1.25,0.359,1.688,1.078c0.469,0.75,0.703,1.751,0.703,3C306.965,25.458,306.731,26.458,306.262,27.208L306.262,27.208z
	 M305.7,21.489c-0.25-0.656-0.625-0.984-1.125-0.984c-0.469,0-0.844,0.328-1.125,0.984c-0.281,0.626-0.422,1.531-0.422,2.719
	c0,1.219,0.141,2.141,0.422,2.766c0.313,0.656,0.688,0.984,1.125,0.984c0.469,0,0.828-0.328,1.078-0.984
	c0.281-0.687,0.422-1.609,0.422-2.766C306.075,23.083,305.95,22.177,305.7,21.489L305.7,21.489z"/>
<path fill="none" stroke="#000000" stroke-width="0.3429" stroke-linejoin="round" stroke-miterlimit="10" d="M306.262,27.208
	c-0.469,0.75-1.031,1.125-1.688,1.125c-0.688,0-1.266-0.358-1.734-1.078c-0.469-0.719-0.703-1.734-0.703-3.047
	c0-1.249,0.219-2.233,0.656-2.953c0.469-0.75,1.063-1.125,1.781-1.125c0.688,0,1.25,0.359,1.688,1.078
	c0.469,0.75,0.703,1.751,0.703,3C306.965,25.458,306.731,26.458,306.262,27.208L306.262,27.208z M305.7,21.489
	c-0.25-0.656-0.625-0.984-1.125-0.984c-0.469,0-0.844,0.328-1.125,0.984c-0.281,0.626-0.422,1.531-0.422,2.719
	c0,1.219,0.141,2.141,0.422,2.766c0.313,0.656,0.688,0.984,1.125,0.984c0.469,0,0.828-0.328,1.078-0.984
	c0.281-0.687,0.422-1.609,0.422-2.766C306.075,23.083,305.95,22.177,305.7,21.489L305.7,21.489z"/>
<path d="M309.992,23.224c0.312-0.094,0.625-0.141,0.938-0.141c0.593,0,1.078,0.219,1.453,0.656c0.375,0.469,0.563,1.078,0.563,1.828
	c0,0.813-0.204,1.484-0.609,2.016c-0.375,0.5-0.969,0.75-1.781,0.75c-0.532,0-1.031-0.171-1.5-0.516
	c-0.438-0.312-0.656-0.703-0.656-1.172c0-0.188,0.047-0.358,0.141-0.516c0.124-0.124,0.281-0.188,0.469-0.188
	s0.312,0.063,0.375,0.188c0.063,0.125,0.094,0.234,0.094,0.328c0,0.188-0.047,0.328-0.141,0.422
	c-0.094,0.125-0.141,0.251-0.141,0.375c0,0.251,0.141,0.438,0.422,0.563c0.312,0.125,0.64,0.188,0.984,0.188
	c0.499,0,0.874-0.203,1.125-0.609c0.281-0.438,0.422-1.015,0.422-1.734c0-0.625-0.125-1.141-0.375-1.547
	c-0.219-0.375-0.563-0.563-1.031-0.563c-0.345,0-0.641,0.063-0.891,0.188c-0.251,0.125-0.485,0.392-0.703,0.797l-0.422-0.047
	l0.234-4.266h3.844l-0.141,0.703h-3.375l-0.188,3.094C309.413,23.583,309.71,23.317,309.992,23.224L309.992,23.224z"/>
<path fill="none" stroke="#000000" stroke-width="0.3429" stroke-linejoin="round" stroke-miterlimit="10" d="M309.992,23.224
	c0.312-0.094,0.625-0.141,0.938-0.141c0.593,0,1.078,0.219,1.453,0.656c0.375,0.469,0.563,1.078,0.563,1.828
	c0,0.813-0.204,1.484-0.609,2.016c-0.375,0.5-0.969,0.75-1.781,0.75c-0.532,0-1.031-0.171-1.5-0.516
	c-0.438-0.312-0.656-0.703-0.656-1.172c0-0.188,0.047-0.358,0.141-0.516c0.124-0.124,0.281-0.188,0.469-0.188
	s0.312,0.063,0.375,0.188c0.063,0.125,0.094,0.234,0.094,0.328c0,0.188-0.047,0.328-0.141,0.422
	c-0.094,0.125-0.141,0.251-0.141,0.375c0,0.251,0.141,0.438,0.422,0.563c0.312,0.125,0.64,0.188,0.984,0.188
	c0.499,0,0.874-0.203,1.125-0.609c0.281-0.438,0.422-1.015,0.422-1.734c0-0.625-0.125-1.141-0.375-1.547
	c-0.219-0.375-0.563-0.563-1.031-0.563c-0.345,0-0.641,0.063-0.891,0.188c-0.251,0.125-0.485,0.392-0.703,0.797l-0.422-0.047
	l0.234-4.266h3.844l-0.141,0.703h-3.375l-0.188,3.094C309.413,23.583,309.71,23.317,309.992,23.224L309.992,23.224z"/>
<path d="M379.479,23.505c0.25-0.469,0.375-0.906,0.375-1.313c0-0.563-0.125-1-0.375-1.313c-0.25-0.281-0.625-0.422-1.125-0.422
	c-0.406,0-0.734,0.094-0.984,0.281s-0.375,0.453-0.375,0.797c0,0.188,0.047,0.345,0.141,0.469c0.125,0.125,0.188,0.251,0.188,0.375
	c0,0.157-0.047,0.266-0.141,0.328c-0.063,0.094-0.172,0.141-0.328,0.141c-0.188,0-0.344-0.063-0.469-0.188
	c-0.094-0.094-0.141-0.265-0.141-0.516c0-0.656,0.234-1.155,0.703-1.5c0.469-0.344,0.969-0.516,1.5-0.516
	c0.75,0,1.297,0.188,1.641,0.563c0.375,0.406,0.563,0.875,0.563,1.406c0,0.345-0.094,0.72-0.281,1.125
	c-0.188,0.406-0.453,0.767-0.797,1.078c-1.094,1.063-1.797,1.766-2.109,2.109c-0.438,0.5-0.719,0.875-0.844,1.125h2.766
	c0.281,0,0.516-0.109,0.703-0.328c0.188-0.218,0.313-0.546,0.375-0.984h0.281l-0.281,2.016h-4.359V27.63
	c0.188-0.344,0.438-0.703,0.75-1.078c0.281-0.344,0.766-0.859,1.453-1.547C378.838,24.474,379.229,23.974,379.479,23.505
	L379.479,23.505z"/>
<path fill="none" stroke="#000000" stroke-width="0.3429" stroke-linejoin="round" stroke-miterlimit="10" d="M379.479,23.505
	c0.25-0.469,0.375-0.906,0.375-1.313c0-0.563-0.125-1-0.375-1.313c-0.25-0.281-0.625-0.422-1.125-0.422
	c-0.406,0-0.734,0.094-0.984,0.281s-0.375,0.453-0.375,0.797c0,0.188,0.047,0.345,0.141,0.469c0.125,0.125,0.188,0.251,0.188,0.375
	c0,0.157-0.047,0.266-0.141,0.328c-0.063,0.094-0.172,0.141-0.328,0.141c-0.188,0-0.344-0.063-0.469-0.188
	c-0.094-0.094-0.141-0.265-0.141-0.516c0-0.656,0.234-1.155,0.703-1.5c0.469-0.344,0.969-0.516,1.5-0.516
	c0.75,0,1.297,0.188,1.641,0.563c0.375,0.406,0.563,0.875,0.563,1.406c0,0.345-0.094,0.72-0.281,1.125
	c-0.188,0.406-0.453,0.767-0.797,1.078c-1.094,1.063-1.797,1.766-2.109,2.109c-0.438,0.5-0.719,0.875-0.844,1.125h2.766
	c0.281,0,0.516-0.109,0.703-0.328c0.188-0.218,0.313-0.546,0.375-0.984h0.281l-0.281,2.016h-4.359V27.63
	c0.188-0.344,0.438-0.703,0.75-1.078c0.281-0.344,0.766-0.859,1.453-1.547C378.838,24.474,379.229,23.974,379.479,23.505
	L379.479,23.505z"/>
<path d="M386.302,27.208c-0.469,0.75-1.031,1.125-1.688,1.125c-0.688,0-1.266-0.358-1.734-1.078
	c-0.469-0.719-0.703-1.734-0.703-3.047c0-1.249,0.219-2.233,0.656-2.953c0.469-0.75,1.063-1.125,1.781-1.125
	c0.688,0,1.25,0.359,1.688,1.078c0.469,0.75,0.703,1.751,0.703,3C387.005,25.458,386.771,26.458,386.302,27.208L386.302,27.208z
	 M385.74,21.489c-0.25-0.656-0.625-0.984-1.125-0.984c-0.469,0-0.844,0.328-1.125,0.984c-0.281,0.626-0.422,1.531-0.422,2.719
	c0,1.219,0.141,2.141,0.422,2.766c0.313,0.656,0.688,0.984,1.125,0.984c0.469,0,0.828-0.328,1.078-0.984
	c0.281-0.687,0.422-1.609,0.422-2.766C386.115,23.083,385.99,22.177,385.74,21.489L385.74,21.489z"/>
<path fill="none" stroke="#000000" stroke-width="0.3429" stroke-linejoin="round" stroke-miterlimit="10" d="M386.302,27.208
	c-0.469,0.75-1.031,1.125-1.688,1.125c-0.688,0-1.266-0.358-1.734-1.078c-0.469-0.719-0.703-1.734-0.703-3.047
	c0-1.249,0.219-2.233,0.656-2.953c0.469-0.75,1.063-1.125,1.781-1.125c0.688,0,1.25,0.359,1.688,1.078
	c0.469,0.75,0.703,1.751,0.703,3C387.005,25.458,386.771,26.458,386.302,27.208L386.302,27.208z M385.74,21.489
	c-0.25-0.656-0.625-0.984-1.125-0.984c-0.469,0-0.844,0.328-1.125,0.984c-0.281,0.626-0.422,1.531-0.422,2.719
	c0,1.219,0.141,2.141,0.422,2.766c0.313,0.656,0.688,0.984,1.125,0.984c0.469,0,0.828-0.328,1.078-0.984
	c0.281-0.687,0.422-1.609,0.422-2.766C386.115,23.083,385.99,22.177,385.74,21.489L385.74,21.489z"/>
<path d="M391.157,20.083v7.125c0,0.251,0.077,0.438,0.234,0.563c0.156,0.125,0.375,0.188,0.656,0.188h0.469v0.281h-3.422v-0.281
	h0.422c0.312,0,0.531-0.063,0.656-0.188c0.156-0.124,0.234-0.312,0.234-0.563v-5.672c0-0.124-0.047-0.234-0.141-0.328
	c-0.063-0.063-0.172-0.094-0.328-0.094h-0.844v-0.281h0.422c0.375,0,0.672-0.063,0.891-0.188c0.25-0.124,0.438-0.312,0.563-0.563
	H391.157z"/>
<path fill="none" stroke="#000000" stroke-width="0.3429" stroke-linejoin="round" stroke-miterlimit="10" d="M391.157,20.083v7.125
	c0,0.251,0.077,0.438,0.234,0.563c0.156,0.125,0.375,0.188,0.656,0.188h0.469v0.281h-3.422v-0.281h0.422
	c0.312,0,0.531-0.063,0.656-0.188c0.156-0.124,0.234-0.312,0.234-0.563v-5.672c0-0.124-0.047-0.234-0.141-0.328
	c-0.063-0.063-0.172-0.094-0.328-0.094h-0.844v-0.281h0.422c0.375,0,0.672-0.063,0.891-0.188c0.25-0.124,0.438-0.312,0.563-0.563
	H391.157z"/>
<path d="M398.542,27.208c-0.469,0.75-1.031,1.125-1.688,1.125c-0.688,0-1.266-0.358-1.734-1.078
	c-0.469-0.719-0.703-1.734-0.703-3.047c0-1.249,0.218-2.233,0.656-2.953c0.469-0.75,1.062-1.125,1.781-1.125
	c0.687,0,1.249,0.359,1.688,1.078c0.469,0.75,0.703,1.751,0.703,3C399.246,25.458,399.011,26.458,398.542,27.208L398.542,27.208z
	 M397.98,21.489c-0.251-0.656-0.626-0.984-1.125-0.984c-0.469,0-0.844,0.328-1.125,0.984c-0.281,0.626-0.422,1.531-0.422,2.719
	c0,1.219,0.141,2.141,0.422,2.766c0.312,0.656,0.687,0.984,1.125,0.984c0.469,0,0.827-0.328,1.078-0.984
	c0.281-0.687,0.422-1.609,0.422-2.766C398.355,23.083,398.23,22.177,397.98,21.489L397.98,21.489z"/>
<path fill="none" stroke="#000000" stroke-width="0.3429" stroke-linejoin="round" stroke-miterlimit="10" d="M398.542,27.208
	c-0.469,0.75-1.031,1.125-1.688,1.125c-0.688,0-1.266-0.358-1.734-1.078c-0.469-0.719-0.703-1.734-0.703-3.047
	c0-1.249,0.218-2.233,0.656-2.953c0.469-0.75,1.062-1.125,1.781-1.125c0.687,0,1.249,0.359,1.688,1.078
	c0.469,0.75,0.703,1.751,0.703,3C399.246,25.458,399.011,26.458,398.542,27.208L398.542,27.208z M397.98,21.489
	c-0.251-0.656-0.626-0.984-1.125-0.984c-0.469,0-0.844,0.328-1.125,0.984c-0.281,0.626-0.422,1.531-0.422,2.719
	c0,1.219,0.141,2.141,0.422,2.766c0.312,0.656,0.687,0.984,1.125,0.984c0.469,0,0.827-0.328,1.078-0.984
	c0.281-0.687,0.422-1.609,0.422-2.766C398.355,23.083,398.23,22.177,397.98,21.489L397.98,21.489z"/>
<path d="M465.609,23.505c0.25-0.469,0.375-0.906,0.375-1.313c0-0.563-0.125-1-0.375-1.313c-0.25-0.281-0.625-0.422-1.125-0.422
	c-0.406,0-0.734,0.094-0.984,0.281s-0.375,0.453-0.375,0.797c0,0.188,0.047,0.345,0.141,0.469c0.125,0.125,0.188,0.251,0.188,0.375
	c0,0.157-0.047,0.266-0.141,0.328c-0.063,0.094-0.172,0.141-0.328,0.141c-0.188,0-0.344-0.063-0.469-0.188
	c-0.094-0.094-0.141-0.265-0.141-0.516c0-0.656,0.234-1.155,0.703-1.5c0.469-0.344,0.969-0.516,1.5-0.516
	c0.75,0,1.297,0.188,1.641,0.563c0.375,0.406,0.563,0.875,0.563,1.406c0,0.345-0.094,0.72-0.281,1.125
	c-0.188,0.406-0.453,0.767-0.797,1.078c-1.094,1.063-1.797,1.766-2.109,2.109c-0.438,0.5-0.719,0.875-0.844,1.125h2.766
	c0.281,0,0.516-0.109,0.703-0.328c0.188-0.218,0.313-0.546,0.375-0.984h0.281l-0.281,2.016h-4.359V27.63
	c0.188-0.344,0.438-0.703,0.75-1.078c0.281-0.344,0.766-0.859,1.453-1.547C464.968,24.474,465.359,23.974,465.609,23.505
	L465.609,23.505z"/>
<path fill="none" stroke="#000000" stroke-width="0.3429" stroke-linejoin="round" stroke-miterlimit="10" d="M465.609,23.505
	c0.25-0.469,0.375-0.906,0.375-1.313c0-0.563-0.125-1-0.375-1.313c-0.25-0.281-0.625-0.422-1.125-0.422
	c-0.406,0-0.734,0.094-0.984,0.281s-0.375,0.453-0.375,0.797c0,0.188,0.047,0.345,0.141,0.469c0.125,0.125,0.188,0.251,0.188,0.375
	c0,0.157-0.047,0.266-0.141,0.328c-0.063,0.094-0.172,0.141-0.328,0.141c-0.188,0-0.344-0.063-0.469-0.188
	c-0.094-0.094-0.141-0.265-0.141-0.516c0-0.656,0.234-1.155,0.703-1.5c0.469-0.344,0.969-0.516,1.5-0.516
	c0.75,0,1.297,0.188,1.641,0.563c0.375,0.406,0.563,0.875,0.563,1.406c0,0.345-0.094,0.72-0.281,1.125
	c-0.188,0.406-0.453,0.767-0.797,1.078c-1.094,1.063-1.797,1.766-2.109,2.109c-0.438,0.5-0.719,0.875-0.844,1.125h2.766
	c0.281,0,0.516-0.109,0.703-0.328c0.188-0.218,0.313-0.546,0.375-0.984h0.281l-0.281,2.016h-4.359V27.63
	c0.188-0.344,0.438-0.703,0.75-1.078c0.281-0.344,0.766-0.859,1.453-1.547C464.968,24.474,465.359,23.974,465.609,23.505
	L465.609,23.505z"/>
<path d="M472.432,27.208c-0.469,0.75-1.031,1.125-1.688,1.125c-0.688,0-1.266-0.358-1.734-1.078
	c-0.469-0.719-0.703-1.734-0.703-3.047c0-1.249,0.219-2.233,0.656-2.953c0.469-0.75,1.063-1.125,1.781-1.125
	c0.688,0,1.25,0.359,1.688,1.078c0.469,0.75,0.703,1.751,0.703,3C473.135,25.458,472.901,26.458,472.432,27.208L472.432,27.208z
	 M471.87,21.489c-0.25-0.656-0.625-0.984-1.125-0.984c-0.469,0-0.844,0.328-1.125,0.984c-0.281,0.626-0.422,1.531-0.422,2.719
	c0,1.219,0.141,2.141,0.422,2.766c0.313,0.656,0.688,0.984,1.125,0.984c0.469,0,0.828-0.328,1.078-0.984
	c0.281-0.687,0.422-1.609,0.422-2.766C472.245,23.083,472.12,22.177,471.87,21.489L471.87,21.489z"/>
<path fill="none" stroke="#000000" stroke-width="0.3429" stroke-linejoin="round" stroke-miterlimit="10" d="M472.432,27.208
	c-0.469,0.75-1.031,1.125-1.688,1.125c-0.688,0-1.266-0.358-1.734-1.078c-0.469-0.719-0.703-1.734-0.703-3.047
	c0-1.249,0.219-2.233,0.656-2.953c0.469-0.75,1.063-1.125,1.781-1.125c0.688,0,1.25,0.359,1.688,1.078
	c0.469,0.75,0.703,1.751,0.703,3C473.135,25.458,472.901,26.458,472.432,27.208L472.432,27.208z M471.87,21.489
	c-0.25-0.656-0.625-0.984-1.125-0.984c-0.469,0-0.844,0.328-1.125,0.984c-0.281,0.626-0.422,1.531-0.422,2.719
	c0,1.219,0.141,2.141,0.422,2.766c0.313,0.656,0.688,0.984,1.125,0.984c0.469,0,0.828-0.328,1.078-0.984
	c0.281-0.687,0.422-1.609,0.422-2.766C472.245,23.083,472.12,22.177,471.87,21.489L471.87,21.489z"/>
<path d="M477.287,20.083v7.125c0,0.251,0.078,0.438,0.234,0.563c0.156,0.125,0.375,0.188,0.656,0.188h0.469v0.281h-3.422v-0.281
	h0.422c0.313,0,0.531-0.063,0.656-0.188c0.156-0.124,0.234-0.312,0.234-0.563v-5.672c0-0.124-0.047-0.234-0.141-0.328
	c-0.063-0.063-0.172-0.094-0.328-0.094h-0.844v-0.281h0.422c0.375,0,0.672-0.063,0.891-0.188c0.25-0.124,0.438-0.312,0.563-0.563
	H477.287z"/>
<path fill="none" stroke="#000000" stroke-width="0.3429" stroke-linejoin="round" stroke-miterlimit="10" d="M477.287,20.083v7.125
	c0,0.251,0.078,0.438,0.234,0.563c0.156,0.125,0.375,0.188,0.656,0.188h0.469v0.281h-3.422v-0.281h0.422
	c0.313,0,0.531-0.063,0.656-0.188c0.156-0.124,0.234-0.312,0.234-0.563v-5.672c0-0.124-0.047-0.234-0.141-0.328
	c-0.063-0.063-0.172-0.094-0.328-0.094h-0.844v-0.281h0.422c0.375,0,0.672-0.063,0.891-0.188c0.25-0.124,0.438-0.312,0.563-0.563
	H477.287z"/>
<path d="M482.282,23.224c0.312-0.094,0.625-0.141,0.938-0.141c0.593,0,1.078,0.219,1.453,0.656c0.375,0.469,0.563,1.078,0.563,1.828
	c0,0.813-0.204,1.484-0.609,2.016c-0.375,0.5-0.969,0.75-1.781,0.75c-0.532,0-1.031-0.171-1.5-0.516
	c-0.438-0.312-0.656-0.703-0.656-1.172c0-0.188,0.047-0.358,0.141-0.516c0.124-0.124,0.281-0.188,0.469-0.188
	s0.312,0.063,0.375,0.188c0.063,0.125,0.094,0.234,0.094,0.328c0,0.188-0.047,0.328-0.141,0.422
	c-0.094,0.125-0.141,0.251-0.141,0.375c0,0.251,0.141,0.438,0.422,0.563c0.312,0.125,0.64,0.188,0.984,0.188
	c0.499,0,0.874-0.203,1.125-0.609c0.281-0.438,0.422-1.015,0.422-1.734c0-0.625-0.125-1.141-0.375-1.547
	c-0.219-0.375-0.563-0.563-1.031-0.563c-0.345,0-0.641,0.063-0.891,0.188c-0.251,0.125-0.485,0.392-0.703,0.797l-0.422-0.047
	l0.234-4.266h3.844l-0.141,0.703h-3.375l-0.188,3.094C481.703,23.583,482,23.317,482.282,23.224L482.282,23.224z"/>
<path fill="none" stroke="#000000" stroke-width="0.3429" stroke-linejoin="round" stroke-miterlimit="10" d="M482.282,23.224
	c0.312-0.094,0.625-0.141,0.938-0.141c0.593,0,1.078,0.219,1.453,0.656c0.375,0.469,0.563,1.078,0.563,1.828
	c0,0.813-0.204,1.484-0.609,2.016c-0.375,0.5-0.969,0.75-1.781,0.75c-0.532,0-1.031-0.171-1.5-0.516
	c-0.438-0.312-0.656-0.703-0.656-1.172c0-0.188,0.047-0.358,0.141-0.516c0.124-0.124,0.281-0.188,0.469-0.188
	s0.312,0.063,0.375,0.188c0.063,0.125,0.094,0.234,0.094,0.328c0,0.188-0.047,0.328-0.141,0.422
	c-0.094,0.125-0.141,0.251-0.141,0.375c0,0.251,0.141,0.438,0.422,0.563c0.312,0.125,0.64,0.188,0.984,0.188
	c0.499,0,0.874-0.203,1.125-0.609c0.281-0.438,0.422-1.015,0.422-1.734c0-0.625-0.125-1.141-0.375-1.547
	c-0.219-0.375-0.563-0.563-1.031-0.563c-0.345,0-0.641,0.063-0.891,0.188c-0.251,0.125-0.485,0.392-0.703,0.797l-0.422-0.047
	l0.234-4.266h3.844l-0.141,0.703h-3.375l-0.188,3.094C481.703,23.583,482,23.317,482.282,23.224L482.282,23.224z"/>
<rect x="86.135" y="58.561" fill-rule="evenodd" clip-rule="evenodd" fill="#66FFFF" width="430.658" height="85.039"/>
<line fill="none" stroke="#000099" stroke-width="3" stroke-linejoin="round" stroke-miterlimit="10" x1="86.135" y1="57.06" x2="86.135" y2="145.1"/>
<line fill="none" stroke="#000099" stroke-width="3" stroke-linejoin="round" stroke-miterlimit="10" x1="84.635" y1="58.56" x2="516.794" y2="58.56"/>
<line fill="none" stroke="#000099" stroke-width="3" stroke-linejoin="round" stroke-miterlimit="10" x1="84.635" y1="143.6" x2="516.794" y2="143.6"/>
<text transform="matrix(1 0 0 1 100.3848 88.6504)" font-family="'KozGoPr6N-Regular-90ms-RKSJ-H'" font-size="12">塗</text>
<text transform="matrix(1 0 0 1 100.3848 88.6504)" fill="none" stroke="#000000" stroke-width="0.3429" stroke-linejoin="round" stroke-miterlimit="10" font-family="'KozGoPr6N-Regular-90ms-RKSJ-H'" font-size="12">塗</text>
<text transform="matrix(1 0 0 1 112.4927 88.6504)" font-family="'KozGoPr6N-Regular-90ms-RKSJ-H'" font-size="12">料</text>
<text transform="matrix(1 0 0 1 112.4927 88.6504)" fill="none" stroke="#000000" stroke-width="0.3429" stroke-linejoin="round" stroke-miterlimit="10" font-family="'KozGoPr6N-Regular-90ms-RKSJ-H'" font-size="12">料</text>
<text transform="matrix(1 0 0 1 124.6011 88.6504)" font-family="'KozGoPr6N-Regular-90ms-RKSJ-H'" font-size="12">使</text>
<text transform="matrix(1 0 0 1 124.6011 88.6504)" fill="none" stroke="#000000" stroke-width="0.3429" stroke-linejoin="round" stroke-miterlimit="10" font-family="'KozGoPr6N-Regular-90ms-RKSJ-H'" font-size="12">使</text>
<text transform="matrix(1 0 0 1 136.709 88.6504)" font-family="'KozGoPr6N-Regular-90ms-RKSJ-H'" font-size="12">用</text>
<text transform="matrix(1 0 0 1 136.709 88.6504)" fill="none" stroke="#000000" stroke-width="0.3429" stroke-linejoin="round" stroke-miterlimit="10" font-family="'KozGoPr6N-Regular-90ms-RKSJ-H'" font-size="12">用</text>
<text transform="matrix(1 0 0 1 148.709 88.6504)" font-family="'KozGoPr6N-Regular-90ms-RKSJ-H'" font-size="12">量</text>
<text transform="matrix(1 0 0 1 148.709 88.6504)" fill="none" stroke="#000000" stroke-width="0.3429" stroke-linejoin="round" stroke-miterlimit="10" font-family="'KozGoPr6N-Regular-90ms-RKSJ-H'" font-size="12">量</text>
<text transform="matrix(1 0 0 1 160.709 88.6504)" font-family="'KozGoPr6N-Regular-90ms-RKSJ-H'" font-size="12">の</text>
<text transform="matrix(1 0 0 1 160.709 88.6504)" fill="none" stroke="#000000" stroke-width="0.3429" stroke-linejoin="round" stroke-miterlimit="10" font-family="'KozGoPr6N-Regular-90ms-RKSJ-H'" font-size="12">の</text>
<text transform="matrix(1 0 0 1 172.2168 88.6504)" font-family="'KozGoPr6N-Regular-90ms-RKSJ-H'" font-size="12">削</text>
<text transform="matrix(1 0 0 1 172.2168 88.6504)" fill="none" stroke="#000000" stroke-width="0.3429" stroke-linejoin="round" stroke-miterlimit="10" font-family="'KozGoPr6N-Regular-90ms-RKSJ-H'" font-size="12">削</text>
<text transform="matrix(1 0 0 1 184.2168 88.6504)" font-family="'KozGoPr6N-Regular-90ms-RKSJ-H'" font-size="12">減</text>
<text transform="matrix(1 0 0 1 184.2168 88.6504)" fill="none" stroke="#000000" stroke-width="0.3429" stroke-linejoin="round" stroke-miterlimit="10" font-family="'KozGoPr6N-Regular-90ms-RKSJ-H'" font-size="12">減</text>
<polygon fill-rule="evenodd" clip-rule="evenodd" points="100.365,89.79 148.305,89.79 196.245,89.79 196.245,90.39 148.305,90.39 
	100.365,90.39 "/>
<text transform="matrix(1 0 0 1 128.3647 109.0703)"><tspan x="0" y="0" font-family="'ArialMT'" font-size="12">← </tspan><tspan x="15.334" y="0" font-family="'KozGoPr6N-Regular-90ms-RKSJ-H'" font-size="12">塗着効率向上 </tspan><tspan x="90.13" y="0" font-family="'ArialMT'" font-size="12">→</tspan></text>
<text transform="matrix(1 0 0 1 168.4448 123.4697)"><tspan x="0" y="0" font-family="'ArialMT'" font-size="12">← </tspan><tspan x="15.334" y="0" font-family="'KozGoPr6N-Regular-90ms-RKSJ-H'" font-size="12">洗浄シ</tspan><tspan x="51.334" y="0" font-family="'KozGoPr6N-Regular-90ms-RKSJ-H'" font-size="12">ン</tspan><tspan x="63.274" y="0" font-family="'KozGoPr6N-Regular-90ms-RKSJ-H'" font-size="12">ナ</tspan><tspan x="75.274" y="0" font-family="'KozGoPr6N-Regular-90ms-RKSJ-H'" font-size="12">ー</tspan><tspan x="87.238" y="0" font-family="'KozGoPr6N-Regular-90ms-RKSJ-H'" font-size="12">使用量削減 </tspan><tspan x="150.034" y="0" font-family="'ArialMT'" font-size="12">→</tspan></text>
<rect x="231.735" y="152.801" fill-rule="evenodd" clip-rule="evenodd" fill="#FFFF99" width="285.06" height="85.039"/>
<line fill="none" stroke="#663300" stroke-width="3" stroke-linejoin="round" stroke-miterlimit="10" x1="231.735" y1="151.3" x2="231.735" y2="239.34"/>
<line fill="none" stroke="#663300" stroke-width="3" stroke-linejoin="round" stroke-miterlimit="10" x1="230.235" y1="152.8" x2="516.794" y2="152.8"/>
<line fill="none" stroke="#663300" stroke-width="3" stroke-linejoin="round" stroke-miterlimit="10" x1="230.235" y1="237.84" x2="516.794" y2="237.84"/>
<text transform="matrix(1 0 0 1 242.9849 175.1201)" font-family="'KozGoPr6N-Regular-90ms-RKSJ-H'" font-size="12">低</text>
<text transform="matrix(1 0 0 1 242.9849 175.1201)" fill="none" stroke="#000000" stroke-width="0.3429" stroke-linejoin="round" stroke-miterlimit="10" font-family="'KozGoPr6N-Regular-90ms-RKSJ-H'" font-size="12">低</text>
<path d="M262.933,167.245h-0.188c-0.157,0-0.281,0.063-0.375,0.188c-0.063,0.125-0.141,0.281-0.234,0.469l-3,7.172h-0.281
	l-2.906-7.172c-0.063-0.188-0.157-0.344-0.281-0.469c-0.094-0.125-0.219-0.188-0.375-0.188h-0.141v-0.281h2.109v0.281h-0.188
	c-0.157,0-0.281,0.047-0.375,0.141c-0.063,0.094-0.063,0.219,0,0.375l2.531,6.094h0.094l2.438-5.953
	c0.063-0.156,0.063-0.313,0-0.469c-0.063-0.125-0.188-0.188-0.375-0.188h-0.234v-0.281h1.781V167.245z"/>
<path fill="none" stroke="#000000" stroke-width="0.3429" stroke-linejoin="round" stroke-miterlimit="10" d="M262.933,167.245
	h-0.188c-0.157,0-0.281,0.063-0.375,0.188c-0.063,0.125-0.141,0.281-0.234,0.469l-3,7.172h-0.281l-2.906-7.172
	c-0.063-0.188-0.157-0.344-0.281-0.469c-0.094-0.125-0.219-0.188-0.375-0.188h-0.141v-0.281h2.109v0.281h-0.188
	c-0.157,0-0.281,0.047-0.375,0.141c-0.063,0.094-0.063,0.219,0,0.375l2.531,6.094h0.094l2.438-5.953
	c0.063-0.156,0.063-0.313,0-0.469c-0.063-0.125-0.188-0.188-0.375-0.188h-0.234v-0.281h1.781V167.245z"/>
<path d="M270.54,168.042c0.656,0.813,0.984,1.781,0.984,2.906c0,1.25-0.36,2.25-1.078,3c-0.72,0.75-1.626,1.125-2.719,1.125
	c-1.063,0-1.969-0.375-2.719-1.125c-0.72-0.719-1.078-1.719-1.078-3c0-1.219,0.343-2.203,1.031-2.953
	c0.687-0.75,1.608-1.125,2.766-1.125C268.946,166.87,269.883,167.261,270.54,168.042L270.54,168.042z M269.79,173.901
	c0.563-0.563,0.844-1.547,0.844-2.953c0-1.125-0.251-2.031-0.75-2.719c-0.501-0.688-1.219-1.031-2.156-1.031
	c-0.782,0-1.47,0.313-2.063,0.938c-0.563,0.594-0.844,1.531-0.844,2.813c0,1.344,0.296,2.313,0.891,2.906
	c0.593,0.625,1.266,0.938,2.016,0.938C268.539,174.792,269.227,174.495,269.79,173.901L269.79,173.901z"/>
<path fill="none" stroke="#000000" stroke-width="0.3429" stroke-linejoin="round" stroke-miterlimit="10" d="M270.54,168.042
	c0.656,0.813,0.984,1.781,0.984,2.906c0,1.25-0.36,2.25-1.078,3c-0.72,0.75-1.626,1.125-2.719,1.125
	c-1.063,0-1.969-0.375-2.719-1.125c-0.72-0.719-1.078-1.719-1.078-3c0-1.219,0.343-2.203,1.031-2.953
	c0.687-0.75,1.608-1.125,2.766-1.125C268.946,166.87,269.883,167.261,270.54,168.042L270.54,168.042z M269.79,173.901
	c0.563-0.563,0.844-1.547,0.844-2.953c0-1.125-0.251-2.031-0.75-2.719c-0.501-0.688-1.219-1.031-2.156-1.031
	c-0.782,0-1.47,0.313-2.063,0.938c-0.563,0.594-0.844,1.531-0.844,2.813c0,1.344,0.296,2.313,0.891,2.906
	c0.593,0.625,1.266,0.938,2.016,0.938C268.539,174.792,269.227,174.495,269.79,173.901L269.79,173.901z"/>
<path d="M280.075,172.823c-0.219,0.625-0.579,1.156-1.078,1.594c-0.5,0.438-1.203,0.656-2.109,0.656
	c-0.938,0-1.798-0.344-2.578-1.031c-0.75-0.656-1.125-1.672-1.125-3.047c0-1.219,0.344-2.203,1.031-2.953
	c0.719-0.781,1.671-1.172,2.859-1.172c0.469,0,0.859,0.031,1.172,0.094c0.438,0.094,0.733,0.141,0.891,0.141
	c0.124,0,0.218-0.016,0.281-0.047c0.094-0.031,0.171-0.094,0.234-0.188l0.422,2.063l-0.281,0.094
	c-0.188-0.594-0.516-1.047-0.984-1.359s-1.078-0.469-1.828-0.469c-0.938,0-1.657,0.359-2.156,1.078
	c-0.469,0.719-0.703,1.609-0.703,2.672c0,1.156,0.265,2.063,0.797,2.719c0.563,0.688,1.234,1.031,2.016,1.031
	c0.813,0,1.437-0.188,1.875-0.563c0.469-0.375,0.797-0.859,0.984-1.453L280.075,172.823z"/>
<path fill="none" stroke="#000000" stroke-width="0.3429" stroke-linejoin="round" stroke-miterlimit="10" d="M280.075,172.823
	c-0.219,0.625-0.579,1.156-1.078,1.594c-0.5,0.438-1.203,0.656-2.109,0.656c-0.938,0-1.798-0.344-2.578-1.031
	c-0.75-0.656-1.125-1.672-1.125-3.047c0-1.219,0.344-2.203,1.031-2.953c0.719-0.781,1.671-1.172,2.859-1.172
	c0.469,0,0.859,0.031,1.172,0.094c0.438,0.094,0.733,0.141,0.891,0.141c0.124,0,0.218-0.016,0.281-0.047
	c0.094-0.031,0.171-0.094,0.234-0.188l0.422,2.063l-0.281,0.094c-0.188-0.594-0.516-1.047-0.984-1.359s-1.078-0.469-1.828-0.469
	c-0.938,0-1.657,0.359-2.156,1.078c-0.469,0.719-0.703,1.609-0.703,2.672c0,1.156,0.265,2.063,0.797,2.719
	c0.563,0.688,1.234,1.031,2.016,1.031c0.813,0,1.437-0.188,1.875-0.563c0.469-0.375,0.797-0.859,0.984-1.453L280.075,172.823z"/>
<text transform="matrix(1 0 0 1 281.0249 175.1201)" font-family="'KozGoPr6N-Regular-90ms-RKSJ-H'" font-size="12">塗</text>
<text transform="matrix(1 0 0 1 281.0249 175.1201)" fill="none" stroke="#000000" stroke-width="0.3429" stroke-linejoin="round" stroke-miterlimit="10" font-family="'KozGoPr6N-Regular-90ms-RKSJ-H'" font-size="12">塗</text>
<text transform="matrix(1 0 0 1 293.1333 175.1201)" font-family="'KozGoPr6N-Regular-90ms-RKSJ-H'" font-size="12">料</text>
<text transform="matrix(1 0 0 1 293.1333 175.1201)" fill="none" stroke="#000000" stroke-width="0.3429" stroke-linejoin="round" stroke-miterlimit="10" font-family="'KozGoPr6N-Regular-90ms-RKSJ-H'" font-size="12">料</text>
<text transform="matrix(1 0 0 1 305.1333 175.1201)" font-family="'KozGoPr6N-Regular-90ms-RKSJ-H'" font-size="12">の</text>
<text transform="matrix(1 0 0 1 305.1333 175.1201)" fill="none" stroke="#000000" stroke-width="0.3429" stroke-linejoin="round" stroke-miterlimit="10" font-family="'KozGoPr6N-Regular-90ms-RKSJ-H'" font-size="12">の</text>
<text transform="matrix(1 0 0 1 316.5444 175.1201)" font-family="'KozGoPr6N-Regular-90ms-RKSJ-H'" font-size="12">採</text>
<text transform="matrix(1 0 0 1 316.5444 175.1201)" fill="none" stroke="#000000" stroke-width="0.3429" stroke-linejoin="round" stroke-miterlimit="10" font-family="'KozGoPr6N-Regular-90ms-RKSJ-H'" font-size="12">採</text>
<text transform="matrix(1 0 0 1 328.5444 175.1201)" font-family="'KozGoPr6N-Regular-90ms-RKSJ-H'" font-size="12">用</text>
<text transform="matrix(1 0 0 1 328.5444 175.1201)" fill="none" stroke="#000000" stroke-width="0.3429" stroke-linejoin="round" stroke-miterlimit="10" font-family="'KozGoPr6N-Regular-90ms-RKSJ-H'" font-size="12">用</text>
<polygon fill-rule="evenodd" clip-rule="evenodd" points="242.925,176.23 275.445,176.23 307.964,176.23 340.485,176.23 
	340.485,176.83 307.964,176.83 275.445,176.83 242.925,176.83 "/>
<text transform="matrix(1 0 0 1 243.9849 195.5195)"><tspan x="0" y="0" font-family="'ArialMT'" font-size="12">←</tspan><tspan x="12" y="0" font-family="'KozGoPr6N-Regular-90ms-RKSJ-H'" font-size="12">溶剤含有率ダウン</tspan></text>
<text transform="matrix(1 0 0 1 254.9849 209.9199)"><tspan x="0" y="0" font-family="'KozGoPr6N-Regular-90ms-RKSJ-H'" font-size="12">ま</tspan><tspan x="11.952" y="0" font-family="'KozGoPr6N-Regular-90ms-RKSJ-H'" font-size="12">た</tspan><tspan x="23.976" y="0" font-family="'KozGoPr6N-Regular-90ms-RKSJ-H'" font-size="12">はトルエン</tspan><tspan x="83.976" y="0" font-family="'KozGoPr6N-Regular-90ms-RKSJ-H'" font-size="12">, </tspan><tspan x="89.244" y="0" font-family="'KozGoPr6N-Regular-90ms-RKSJ-H'" font-size="12">キ</tspan><tspan x="101.268" y="0" font-family="'KozGoPr6N-Regular-90ms-RKSJ-H'" font-size="12">シ</tspan><tspan x="113.268" y="0" font-family="'KozGoPr6N-Regular-90ms-RKSJ-H'" font-size="12">レ</tspan><tspan x="125.22" y="0" font-family="'KozGoPr6N-Regular-90ms-RKSJ-H'" font-size="12">ン</tspan><tspan x="137.184" y="0" font-family="'KozGoPr6N-Regular-90ms-RKSJ-H'" font-size="12">削減 </tspan><tspan x="163.979" y="0" font-family="'ArialMT'" font-size="12">→</tspan></text>
<text transform="matrix(1 0 0 1 243.9849 224.3203)"><tspan x="0" y="0" font-family="'ArialMT'" font-size="12">←</tspan><tspan x="12" y="0" font-family="'KozGoPr6N-Regular-90ms-RKSJ-H'" font-size="12">水性塗装の採用 </tspan><tspan x="98.796" y="0" font-family="'ArialMT'" font-size="12">→</tspan></text>
<rect x="258.385" y="247.041" fill-rule="evenodd" clip-rule="evenodd" fill="#CCFFCC" width="258.407" height="85.039"/>
<line fill="none" stroke="#003300" stroke-width="3" stroke-linejoin="round" stroke-miterlimit="10" x1="258.385" y1="245.54" x2="258.385" y2="333.58"/>
<line fill="none" stroke="#003300" stroke-width="3" stroke-linejoin="round" stroke-miterlimit="10" x1="256.885" y1="247.04" x2="516.794" y2="247.04"/>
<line fill="none" stroke="#003300" stroke-width="3" stroke-linejoin="round" stroke-miterlimit="10" x1="256.885" y1="332.08" x2="516.794" y2="332.08"/>
<text transform="matrix(1 0 0 1 270.5151 276.7402)" font-family="'KozGoPr6N-Regular-90ms-RKSJ-H'" font-size="12">塗</text>
<text transform="matrix(1 0 0 1 270.5151 276.7402)" fill="none" stroke="#000000" stroke-width="0.3429" stroke-linejoin="round" stroke-miterlimit="10" font-family="'KozGoPr6N-Regular-90ms-RKSJ-H'" font-size="12">塗</text>
<text transform="matrix(1 0 0 1 282.6226 276.7402)" font-family="'KozGoPr6N-Regular-90ms-RKSJ-H'" font-size="12">装</text>
<text transform="matrix(1 0 0 1 282.6226 276.7402)" fill="none" stroke="#000000" stroke-width="0.3429" stroke-linejoin="round" stroke-miterlimit="10" font-family="'KozGoPr6N-Regular-90ms-RKSJ-H'" font-size="12">装</text>
<text transform="matrix(1 0 0 1 294.731 276.7402)" font-family="'KozGoPr6N-Regular-90ms-RKSJ-H'" font-size="12">プ</text>
<text transform="matrix(1 0 0 1 294.731 276.7402)" fill="none" stroke="#000000" stroke-width="0.3429" stroke-linejoin="round" stroke-miterlimit="10" font-family="'KozGoPr6N-Regular-90ms-RKSJ-H'" font-size="12">プ</text>
<text transform="matrix(1 0 0 1 306.2388 276.7402)" font-family="'KozGoPr6N-Regular-90ms-RKSJ-H'" font-size="12">ロ</text>
<text transform="matrix(1 0 0 1 306.2388 276.7402)" fill="none" stroke="#000000" stroke-width="0.3429" stroke-linejoin="round" stroke-miterlimit="10" font-family="'KozGoPr6N-Regular-90ms-RKSJ-H'" font-size="12">ロ</text>
<text transform="matrix(1 0 0 1 315.7075 276.7402)" font-family="'KozGoPr6N-Regular-90ms-RKSJ-H'" font-size="12">セ</text>
<text transform="matrix(1 0 0 1 315.7075 276.7402)" fill="none" stroke="#000000" stroke-width="0.3429" stroke-linejoin="round" stroke-miterlimit="10" font-family="'KozGoPr6N-Regular-90ms-RKSJ-H'" font-size="12">セ</text>
<text transform="matrix(1 0 0 1 326.9751 276.7402)" font-family="'KozGoPr6N-Regular-90ms-RKSJ-H'" font-size="12">ス</text>
<text transform="matrix(1 0 0 1 326.9751 276.7402)" fill="none" stroke="#000000" stroke-width="0.3429" stroke-linejoin="round" stroke-miterlimit="10" font-family="'KozGoPr6N-Regular-90ms-RKSJ-H'" font-size="12">ス</text>
<text transform="matrix(1 0 0 1 336.8149 276.7402)" font-family="'KozGoPr6N-Regular-90ms-RKSJ-H'" font-size="12">の</text>
<text transform="matrix(1 0 0 1 336.8149 276.7402)" fill="none" stroke="#000000" stroke-width="0.3429" stroke-linejoin="round" stroke-miterlimit="10" font-family="'KozGoPr6N-Regular-90ms-RKSJ-H'" font-size="12">の</text>
<text transform="matrix(1 0 0 1 348.3228 276.7402)" font-family="'KozGoPr6N-Regular-90ms-RKSJ-H'" font-size="12">革</text>
<text transform="matrix(1 0 0 1 348.3228 276.7402)" fill="none" stroke="#000000" stroke-width="0.3429" stroke-linejoin="round" stroke-miterlimit="10" font-family="'KozGoPr6N-Regular-90ms-RKSJ-H'" font-size="12">革</text>
<text transform="matrix(1 0 0 1 360.3228 276.7402)" font-family="'KozGoPr6N-Regular-90ms-RKSJ-H'" font-size="12">新</text>
<text transform="matrix(1 0 0 1 360.3228 276.7402)" fill="none" stroke="#000000" stroke-width="0.3429" stroke-linejoin="round" stroke-miterlimit="10" font-family="'KozGoPr6N-Regular-90ms-RKSJ-H'" font-size="12">新</text>
<polygon fill-rule="evenodd" clip-rule="evenodd" points="270.464,277.83 304.424,277.83 338.385,277.83 372.345,277.83 
	372.345,278.43 338.385,278.43 304.424,278.43 270.464,278.43 "/>
<text transform="matrix(1 0 0 1 310.145 297.1396)"><tspan x="0" y="0" font-family="'ArialMT'" font-size="12">← </tspan><tspan x="15.334" y="0" font-family="'KozGoPr6N-Regular-90ms-RKSJ-H'" font-size="12">溶剤３wet 塗装の採用 </tspan><tspan x="137.241" y="0" font-family="'ArialMT'" font-size="12">→</tspan></text>
<text transform="matrix(1 0 0 1 330.5444 311.5361)"><tspan x="0" y="0" font-family="'ArialMT'" font-size="12">← </tspan><tspan x="15.334" y="0" font-family="'KozGoPr6N-Regular-90ms-RKSJ-H'" font-size="12">水性３wet 塗装の採用 </tspan><tspan x="137.241" y="0" font-family="'ArialMT'" font-size="12">→</tspan></text>
</svg>
