<?xml version="1.0" encoding="utf-8"?>
<!-- Generator: Adobe Illustrator 16.0.0, SVG Export Plug-In . SVG Version: 6.00 Build 0)  -->
<!DOCTYPE svg PUBLIC "-//W3C//DTD SVG 1.1//EN" "http://www.w3.org/Graphics/SVG/1.1/DTD/svg11.dtd">
<svg version="1.1" id="Layer_1" xmlns="http://www.w3.org/2000/svg" xmlns:xlink="http://www.w3.org/1999/xlink" x="0px" y="0px"
	 width="476.124px" height="272.205px" viewBox="0 0 476.124 272.205" enable-background="new 0 0 476.124 272.205"
	 xml:space="preserve">
<text transform="matrix(1 0 0 1 8.064 15.8647)"><tspan x="0" y="0" font-family="'TimesNewRomanPS-BoldItalicMT'" font-size="12.024">So</tspan><tspan x="12.699" y="0" font-family="'TimesNewRomanPS-BoldItalicMT'" font-size="12.024">l</tspan><tspan x="16.064" y="0" font-family="'TimesNewRomanPS-BoldItalicMT'" font-size="12.024">ve</tspan><tspan x="26.641" y="0" font-family="'TimesNewRomanPS-BoldItalicMT'" font-size="12.024">nt-bas</tspan><tspan x="57.376" y="0" font-family="'TimesNewRomanPS-BoldItalicMT'" font-size="12.024">e</tspan><tspan x="62.641" y="0" font-family="'TimesNewRomanPS-BoldItalicMT'" font-size="12.024">d</tspan><tspan x="68.653" y="0" font-family="'TimesNewRomanPS-BoldItalicMT'" font-size="12.024"> </tspan><tspan x="71.731" y="0" font-family="'TimesNewRomanPS-BoldItalicMT'" font-size="12.024">t</tspan><tspan x="75.072" y="0" font-family="'TimesNewRomanPS-BoldItalicMT'" font-size="12.024">y</tspan><tspan x="80.385" y="0" font-family="'TimesNewRomanPS-BoldItalicMT'" font-size="12.024">p</tspan><tspan x="86.396" y="0" font-family="'TimesNewRomanPS-BoldItalicMT'" font-size="12.024">e</tspan><tspan x="91.673" y="0" font-family="'TimesNewRomanPS-BoldItalicMT'" font-size="12.024">.</tspan></text>
<text transform="matrix(1 0 0 1 102.7441 15.8647)" font-family="'TimesNewRomanPS-BoldItalicMT'" font-size="12.024"> </text>
<rect x="8.04" y="17.025" fill-rule="evenodd" clip-rule="evenodd" width="94.68" height="0.6"/>
<text transform="matrix(1 0 0 1 8.064 143.0649)"><tspan x="0" y="0" font-family="'TimesNewRomanPS-BoldItalicMT'" font-size="12">W</tspan><tspan x="9.866" y="0" font-family="'TimesNewRomanPS-BoldItalicMT'" font-size="12">ater-base</tspan><tspan x="55.188" y="0" font-family="'TimesNewRomanPS-BoldItalicMT'" font-size="12">d</tspan><tspan x="61.164" y="0" font-family="'TimesNewRomanPS-BoldItalicMT'" font-size="12"> typ</tspan><tspan x="78.824" y="0" font-family="'TimesNewRomanPS-BoldItalicMT'" font-size="12">e</tspan><tspan x="84.09" y="0" font-family="'TimesNewRomanPS-BoldItalicMT'" font-size="12">.</tspan></text>
<text transform="matrix(1 0 0 1 95.064 143.0649)" font-family="'TimesNewRomanPS-BoldItalicMT'" font-size="12"> </text>
<rect x="8.04" y="144.225" fill-rule="evenodd" clip-rule="evenodd" width="87" height="0.6"/>
<path fill-rule="evenodd" clip-rule="evenodd" fill="#000099" d="M123.314,225.325c-7.71-8.93-6.62-22.52,2.45-30.36
	c10.95-9.47,17.23-24.32,18.86-44.56c-1.63,20.24,2.22,35.74,11.53,46.51c7.72,8.92,6.63,22.51-2.44,30.36
	C144.644,235.115,131.034,234.245,123.314,225.325z"/>
<linearGradient id="SVGID_1_" gradientUnits="userSpaceOnUse" x1="253.3447" y1="69.9746" x2="382.3838" y2="69.9746">
	<stop  offset="0" style="stop-color:#CC0000"/>
	<stop  offset="0.225" style="stop-color:#F0B6B6"/>
	<stop  offset="0.5" style="stop-color:#FFFFFF"/>
	<stop  offset="0.5" style="stop-color:#FFFFFF"/>
	<stop  offset="0.775" style="stop-color:#F0B6B6"/>
	<stop  offset="1" style="stop-color:#CC0000"/>
</linearGradient>
<polygon fill-rule="evenodd" clip-rule="evenodd" fill="url(#SVGID_1_)" points="317.864,31.695 382.384,65.755 382.384,74.195 
	317.864,108.255 "/>
<path fill-rule="evenodd" clip-rule="evenodd" fill="#CC0000" d="M132.624,21.075c0-1.32,1.07-2.39,2.39-2.39h14.34
	c1.31,0,2.38,1.07,2.38,2.39v92.42c0,1.32-1.07,2.39-2.38,2.39h-14.34c-1.32,0-2.39-1.07-2.39-2.39V21.075z"/>
<rect x="111.984" y="9.865" fill-rule="evenodd" clip-rule="evenodd" fill="#404040" width="26.337" height="112.74"/>
<rect x="111.984" y="9.865" fill="none" stroke="#000000" stroke-width="1.5" stroke-miterlimit="8" width="26.337" height="112.74"/>
<path fill-rule="evenodd" clip-rule="evenodd" fill="#CC0000" d="M294.064,44.465c0-4.01,3.17-7.26,7.069-7.26
	c3.9,0,7.07,3.25,7.07,7.26c0,4.01-3.17,7.26-7.07,7.26C297.234,51.725,294.064,48.475,294.064,44.465z"/>
<path fill-rule="evenodd" clip-rule="evenodd" fill="#CC0000" d="M268.935,66.115c0-4.01,3.17-7.26,7.069-7.26
	c3.9,0,7.07,3.25,7.07,7.26s-3.17,7.27-7.07,7.27C272.104,73.385,268.935,70.125,268.935,66.115z"/>
<path fill-rule="evenodd" clip-rule="evenodd" fill="#CC0000" d="M290.924,106.115c0-4.01,3.16-7.26,7.07-7.26
	c3.9,0,7.07,3.25,7.07,7.26s-3.17,7.27-7.07,7.27C294.084,113.385,290.924,110.125,290.924,106.115z"/>
<path fill-rule="evenodd" clip-rule="evenodd" fill="#CC0000" d="M205.624,76.435c0-2.6,2.08-4.71,4.65-4.71
	c2.57,0,4.65,2.11,4.65,4.71c0,2.61-2.08,4.72-4.65,4.72C207.704,81.155,205.624,79.045,205.624,76.435z"/>
<path fill-rule="evenodd" clip-rule="evenodd" fill="#CC0000" d="M192.414,47.775c0-1.2,0.96-2.17,2.16-2.17
	c1.19,0,2.15,0.97,2.15,2.17c0,1.2-0.96,2.17-2.15,2.17C193.374,49.945,192.414,48.975,192.414,47.775z"/>
<path fill-rule="evenodd" clip-rule="evenodd" fill="#CC0000" d="M167.804,34.085c0-1.16,0.94-2.11,2.09-2.11
	c1.16,0,2.1,0.95,2.1,2.11c0,1.16-0.94,2.1-2.1,2.1C168.744,36.185,167.804,35.245,167.804,34.085z"/>
<path fill-rule="evenodd" clip-rule="evenodd" fill="#CC0000" d="M166.364,76.565c0-1.2,0.94-2.17,2.09-2.17
	c1.16,0,2.1,0.97,2.1,2.17c0,1.2-0.94,2.17-2.1,2.17C167.304,78.735,166.364,77.765,166.364,76.565z"/>
<path fill-rule="evenodd" clip-rule="evenodd" fill="#CC0000" d="M223.164,100.385c0-1.19,0.97-2.16,2.16-2.16
	c1.2,0,2.16,0.97,2.16,2.16c0,1.2-0.96,2.17-2.16,2.17C224.134,102.555,223.164,101.585,223.164,100.385z"/>
<path fill-rule="evenodd" clip-rule="evenodd" fill="#CC0000" d="M232.854,94.785c0-2.61,2.08-4.72,4.64-4.72
	c2.57,0,4.65,2.11,4.65,4.72c0,2.6-2.08,4.71-4.65,4.71C234.934,99.495,232.854,97.385,232.854,94.785z"/>
<path fill-rule="evenodd" clip-rule="evenodd" fill="#CC0000" d="M246.464,57.075c0-2.6,2.08-4.71,4.641-4.71
	c2.569,0,4.649,2.11,4.649,4.71s-2.08,4.71-4.649,4.71C248.544,61.785,246.464,59.675,246.464,57.075z"/>
<path fill-rule="evenodd" clip-rule="evenodd" fill="#CC0000" d="M212.954,40.765c0-2.6,2.08-4.71,4.65-4.71
	c2.56,0,4.64,2.11,4.64,4.71c0,2.61-2.08,4.72-4.64,4.72C215.034,45.485,212.954,43.375,212.954,40.765z"/>
<polyline fill-rule="evenodd" clip-rule="evenodd" fill="#808080" points="458.714,116.825 460.024,116.565 461.334,116.185 
	463.954,115.295 466.435,114.405 467.744,114.015 469.054,113.765 468.924,113.125 468.924,112.485 468.794,111.854 
	468.534,111.215 468.134,110.455 467.874,109.945 467.614,109.555 467.484,109.045 467.225,108.925 467.094,108.665 
	466.694,108.415 466.435,108.285 466.174,108.035 465.914,107.905 465.784,107.645 465.524,107.395 465.254,106.885 
	464.734,105.995 464.344,105.354 464.214,104.975 464.084,104.715 464.344,104.975 464.475,105.225 464.604,105.354 
	464.475,105.104 464.214,104.975 463.954,104.465 463.424,103.825 463.294,102.805 463.164,102.425 463.034,101.915 
	462.774,101.405 462.514,101.025 462.244,100.645 461.984,100.135 461.594,98.854 461.334,97.325 460.944,95.805 460.674,94.145 
	460.284,92.745 459.895,91.215 459.374,89.945 458.714,88.925 458.324,87.775 457.935,86.625 457.404,85.615 456.884,84.715 
	455.574,82.805 455.054,81.785 454.524,80.765 454.784,80.005 454.924,79.495 455.444,78.475 456.094,77.455 456.494,76.945 
	456.884,76.435 457.014,75.925 457.145,75.295 457.145,74.905 457.145,74.655 457.014,74.275 456.754,73.895 456.354,73.765 
	455.834,73.765 455.314,73.505 454.524,73.255 453.614,73.505 453.084,73.765 452.694,74.015 452.304,74.275 452.044,74.785 
	451.645,75.165 451.514,75.165 451.254,75.165 451.124,75.165 450.994,74.905 450.734,74.395 450.604,73.765 450.334,73.255 
	449.944,72.745 449.424,72.365 449.034,72.104 448.504,71.975 447.594,71.725 446.544,71.465 444.054,71.975 441.574,72.485 
	439.214,73.125 436.725,74.015 436.854,74.655 436.984,75.295 436.984,75.925 437.254,76.435 437.774,77.325 438.424,77.965 
	439.344,78.604 440.264,79.245 442.094,80.005 443.004,80.515 443.794,80.765 444.054,81.405 444.314,82.045 444.444,82.555 
	444.584,83.065 444.714,83.315 444.844,83.575 444.844,83.825 444.975,83.955 444.844,83.825 444.844,83.575 444.714,83.445 
	444.584,83.065 444.584,82.805 444.584,82.685 444.844,82.805 445.104,83.185 445.234,83.575 445.494,83.955 445.754,84.465 
	446.024,85.104 446.284,85.615 446.284,85.995 446.414,86.505 446.544,87.015 446.935,88.035 447.324,88.795 447.594,89.435 
	447.984,89.945 448.244,90.325 448.504,90.835 448.895,91.345 449.294,91.975 449.554,92.745 449.814,93.635 449.944,94.525 
	450.204,95.415 450.475,96.315 450.604,96.945 450.734,97.455 450.734,97.585 450.604,98.225 450.475,98.735 450.475,98.985 
	450.334,99.245 450.334,99.365 450.334,99.495 450.334,99.365 450.204,99.245 449.944,99.245 449.814,99.365 449.554,99.495 
	449.294,99.755 448.895,100.135 448.634,100.515 448.374,100.895 447.984,101.915 448.114,102.805 448.114,103.575 448.114,104.335 
	448.244,104.715 448.374,105.104 448.504,105.225 448.764,105.485 449.554,105.865 450.334,106.115 451.254,106.505 
	452.174,106.755 453.084,107.015 453.874,107.395 454.264,107.395 454.524,107.525 454.924,108.035 455.185,108.665 
	455.574,109.685 455.834,110.325 456.094,110.835 456.494,111.345 456.884,111.854 457.145,112.875 457.404,113.765 
	457.664,114.655 457.794,115.545 458.064,116.185 458.194,116.825 458.324,117.205 458.324,117.585 458.454,117.835 
	458.584,117.965 458.714,117.835 458.714,117.585 458.714,117.205 458.714,116.825 "/>
<rect x="441.964" y="65.61" fill-rule="evenodd" clip-rule="evenodd" fill="#808080" width="19.764" height="8.535"/>
<path fill-rule="evenodd" clip-rule="evenodd" fill="#808080" d="M382.804,64.175c0-0.69,0.551-1.24,1.24-1.24h4.98
	c0.68,0,1.239,0.55,1.239,1.24v11.66c0,0.68-0.56,1.24-1.239,1.24h-4.98c-0.689,0-1.24-0.56-1.24-1.24V64.175z"/>
<polygon fill-rule="evenodd" clip-rule="evenodd" fill="#808080" points="382.145,72.485 374.824,69.685 382.145,66.885 "/>
<path fill-rule="evenodd" clip-rule="evenodd" fill="#808080" d="M390.264,65.285c0-1.3,1.051-2.35,2.351-2.35h47
	c1.3,0,2.35,1.05,2.35,2.35v9.44c0,1.3-1.05,2.35-2.35,2.35h-47c-1.3,0-2.351-1.05-2.351-2.35V65.285z"/>
<polyline fill-rule="evenodd" clip-rule="evenodd" fill="#808080" points="444.185,59.755 444.444,60.645 444.584,61.535 
	444.714,62.555 444.714,63.445 444.844,64.335 444.844,65.225 444.975,66.245 445.234,67.135 445.624,68.665 446.024,70.195 
	446.024,70.575 446.154,70.965 446.414,71.595 446.544,71.854 446.544,72.104 446.674,72.235 446.674,72.365 446.674,72.875 
	446.674,73.255 446.674,74.275 446.674,74.785 446.674,75.165 446.544,75.675 446.414,76.055 446.284,76.315 446.024,76.435 
	445.754,76.565 445.494,76.695 444.844,76.695 444.185,76.825 444.054,76.825 443.924,76.945 443.534,77.075 443.404,77.075 
	443.274,77.075 443.145,77.205 442.874,77.455 442.744,77.715 442.614,77.835 442.484,77.965 442.484,77.835 442.354,77.835 
	442.225,77.965 442.094,77.965 441.834,78.225 441.435,78.345 440.784,78.735 440.264,79.365 439.604,79.875 438.954,80.515 
	438.824,80.765 438.824,81.155 438.554,81.665 438.424,82.045 438.294,82.295 438.294,82.555 438.294,82.805 438.424,83.955 
	438.424,84.975 438.554,86.115 438.694,87.265 438.824,88.415 439.214,89.435 439.475,90.575 439.864,91.725 440.134,92.875 
	440.524,93.895 440.784,95.035 441.044,96.185 440.264,96.695 439.475,96.945 438.694,97.325 437.774,97.715 436.074,98.095 
	434.374,98.735 434.104,98.735 433.975,98.854 433.714,98.854 433.584,98.985 433.454,98.985 433.194,99.115 433.324,99.115 
	433.454,99.115 433.194,99.245 433.064,99.245 432.935,99.365 432.674,99.365 432.534,99.495 432.274,99.495 432.145,99.625 
	432.014,99.625 431.624,99.755 431.494,99.755 431.364,99.755 431.234,99.875 431.094,99.755 430.964,99.755 430.574,99.625 
	430.444,99.495 430.314,99.365 430.185,99.245 430.185,99.115 430.185,98.985 430.314,98.854 430.444,98.854 430.574,98.854 
	430.964,98.854 431.094,98.735 431.234,98.735 431.494,98.604 431.624,98.475 431.754,98.345 431.884,98.345 432.014,98.095 
	432.145,98.095 432.145,97.965 432.014,97.965 431.884,97.965 431.754,97.965 431.884,97.965 432.014,97.965 432.145,97.835 
	432.274,97.835 432.534,97.835 432.804,97.715 433.064,97.585 433.324,97.205 433.584,96.945 433.844,96.825 433.975,96.565 
	434.104,96.435 434.104,96.185 434.244,96.055 434.104,95.805 434.104,95.675 434.104,95.295 433.975,94.905 433.844,94.395 
	433.714,93.895 433.584,93.125 433.454,92.365 433.324,91.345 433.194,90.575 432.935,89.685 432.674,88.665 432.274,87.525 
	431.884,86.505 431.494,85.354 430.964,84.595 430.834,84.205 430.574,83.955 430.444,83.695 430.314,83.315 430.054,82.805 
	429.924,82.425 429.794,82.175 429.794,81.915 429.794,81.665 430.054,81.025 430.314,80.255 430.704,79.625 431.094,78.985 
	431.624,78.475 432.145,77.835 432.674,77.455 433.324,77.205 433.975,76.565 434.634,76.055 435.154,75.675 435.685,75.165 
	436.204,74.785 436.594,74.275 437.124,73.635 437.254,73.255 437.514,72.745 437.645,72.235 437.774,71.854 437.904,71.085 
	437.904,70.575 438.034,70.065 437.904,69.435 437.904,68.665 437.774,68.285 437.774,67.645 437.645,67.015 437.514,66.375 
	437.514,66.115 437.514,65.865 437.254,65.225 437.124,64.715 436.854,64.205 436.725,63.825 436.725,63.445 436.594,63.185 
	436.594,63.065 436.594,62.175 436.594,61.275 436.594,60.515 436.594,59.875 436.725,59.365 436.725,58.854 436.725,58.475 
	436.854,58.225 436.984,57.965 437.254,57.835 437.514,57.715 437.904,57.585 438.294,57.585 438.954,57.715 439.214,57.715 
	439.604,57.715 439.994,57.715 440.395,57.835 440.784,57.965 441.044,58.095 441.304,58.225 441.435,58.345 441.704,58.345 
	441.964,58.604 442.225,58.735 442.484,58.985 442.614,59.115 442.744,59.245 443.004,59.495 443.274,59.755 443.404,60.005 
	443.664,60.255 443.794,60.385 443.924,60.515 444.054,60.385 444.185,60.255 444.185,60.005 444.185,59.755 "/>
<rect x="461.069" y="116.183" transform="matrix(-0.956 0.2932 -0.2932 -0.956 939.6248 100.0334)" fill-rule="evenodd" clip-rule="evenodd" fill="#808080" width="2.489" height="8.535"/>
<polygon fill-rule="evenodd" clip-rule="evenodd" fill="#808080" points="465.374,114.565 467.754,113.845 470.244,122.005 
	467.874,122.725 "/>
<text transform="matrix(1 0 0 1 255.2744 26.0347)"><tspan x="0" y="0" font-family="'TimesNewRomanPS-BoldMT'" font-size="10">←</tspan><tspan x="10" y="0" font-family="'TimesNewRomanPS-BoldMT'" font-size="10"> </tspan><tspan x="12.51" y="0" font-family="'TimesNewRomanPS-BoldMT'" font-size="10">S</tspan><tspan x="18.071" y="0" font-family="'TimesNewRomanPS-BoldMT'" font-size="10">o</tspan><tspan x="23.102" y="0" font-family="'TimesNewRomanPS-BoldMT'" font-size="10">l</tspan><tspan x="25.88" y="0" font-family="'TimesNewRomanPS-BoldMT'" font-size="10">v</tspan><tspan x="30.91" y="0" font-family="'TimesNewRomanPS-BoldMT'" font-size="10">en</tspan><tspan x="40.91" y="0" font-family="'TimesNewRomanPS-BoldMT'" font-size="10">t</tspan><tspan x="44.26" y="0" font-family="'TimesNewRomanPS-BoldMT'" font-size="10"> e</tspan><tspan x="51.198" y="0" font-family="'TimesNewRomanPS-BoldMT'" font-size="10">v</tspan><tspan x="56.259" y="0" font-family="'TimesNewRomanPS-BoldMT'" font-size="10">a</tspan><tspan x="61.309" y="0" font-family="'TimesNewRomanPS-BoldMT'" font-size="10">p</tspan><tspan x="66.87" y="0" font-family="'TimesNewRomanPS-BoldMT'" font-size="10">o</tspan><tspan x="71.9" y="0" font-family="'TimesNewRomanPS-BoldMT'" font-size="10">r</tspan><tspan x="76.339" y="0" font-family="'TimesNewRomanPS-BoldMT'" font-size="10">a</tspan><tspan x="81.398" y="0" font-family="'TimesNewRomanPS-BoldMT'" font-size="10">t</tspan><tspan x="84.748" y="0" font-family="'TimesNewRomanPS-BoldMT'" font-size="10">es duri</tspan><tspan x="113.918" y="0" font-family="'TimesNewRomanPS-BoldMT'" font-size="10">n</tspan><tspan x="119.45" y="0" font-family="'TimesNewRomanPS-BoldMT'" font-size="10">g</tspan><tspan x="124.5" y="0" font-family="'TimesNewRomanPS-BoldMT'" font-size="10"> </tspan><tspan x="126.92" y="0" font-family="'TimesNewRomanPS-BoldMT'" font-size="10">p</tspan><tspan x="132.481" y="0" font-family="'TimesNewRomanPS-BoldMT'" font-size="10">a</tspan><tspan x="137.501" y="0" font-family="'TimesNewRomanPS-BoldMT'" font-size="10">r</tspan><tspan x="141.939" y="0" font-family="'TimesNewRomanPS-BoldMT'" font-size="10">t</tspan><tspan x="145.31" y="0" font-family="'TimesNewRomanPS-BoldMT'" font-size="10">icle</tspan><tspan x="159.743" y="0" font-family="'TimesNewRomanPS-BoldMT'" font-size="10"> </tspan><tspan x="162.403" y="0" font-family="'TimesNewRomanPS-BoldMT'" font-size="10">f</tspan><tspan x="165.754" y="0" font-family="'TimesNewRomanPS-BoldMT'" font-size="10">l</tspan><tspan x="168.532" y="0" font-family="'TimesNewRomanPS-BoldMT'" font-size="10">o</tspan><tspan x="173.562" y="0" font-family="'TimesNewRomanPS-BoldMT'" font-size="10">a</tspan><tspan x="178.602" y="0" font-family="'TimesNewRomanPS-BoldMT'" font-size="10">t</tspan><tspan x="181.952" y="0" font-family="'TimesNewRomanPS-BoldMT'" font-size="10">ing</tspan></text>
<text transform="matrix(1 0 0 1 443.5244 26.0347)" font-family="'TimesNewRomanPS-BoldMT'" font-size="9.96"> </text>
<polygon fill-rule="evenodd" clip-rule="evenodd" fill="#CC0000" points="174.414,12.655 181.504,1.465 188.594,12.655 
	185.394,12.655 185.394,29.805 177.614,29.805 177.614,12.655 "/>
<polygon fill-rule="evenodd" clip-rule="evenodd" fill="#CC0000" points="229.984,20.325 237.074,9.135 244.164,20.325 
	240.964,20.325 240.964,37.485 233.184,37.485 233.184,20.325 "/>
<linearGradient id="SVGID_2_" gradientUnits="userSpaceOnUse" x1="253.7236" y1="191.875" x2="382.7842" y2="191.875">
	<stop  offset="0" style="stop-color:#000099"/>
	<stop  offset="0.34" style="stop-color:#8B8BD1"/>
	<stop  offset="0.5" style="stop-color:#FFFFFF"/>
	<stop  offset="0.5" style="stop-color:#FFFFFF"/>
	<stop  offset="0.66" style="stop-color:#8B8BD1"/>
	<stop  offset="1" style="stop-color:#000099"/>
</linearGradient>
<polygon fill-rule="evenodd" clip-rule="evenodd" fill="url(#SVGID_2_)" points="318.254,153.595 382.784,187.655 382.784,196.105 
	318.254,230.155 "/>
<path fill-rule="evenodd" clip-rule="evenodd" fill="#000099" d="M132.274,142.975c0-1.32,1.07-2.38,2.39-2.38h14.33
	c1.32,0,2.39,1.06,2.39,2.38v63.26c0,1.32-1.07,2.39-2.39,2.39h-14.33c-1.32,0-2.39-1.07-2.39-2.39V142.975z"/>
<rect x="112.374" y="131.775" fill-rule="evenodd" clip-rule="evenodd" fill="#404040" width="26.337" height="112.74"/>
<rect x="112.374" y="131.775" fill="none" stroke="#000000" stroke-width="1.5" stroke-miterlimit="8" width="26.337" height="112.74"/>
<path fill-rule="evenodd" clip-rule="evenodd" fill="#000099" d="M294.464,166.365c0-4.01,3.16-7.26,7.061-7.26
	c3.91,0,7.069,3.25,7.069,7.26c0,4.01-3.159,7.26-7.069,7.26C297.624,173.625,294.464,170.375,294.464,166.365z"/>
<path fill-rule="evenodd" clip-rule="evenodd" fill="#000099" d="M269.334,188.025c0-4.01,3.16-7.26,7.061-7.26
	c3.909,0,7.069,3.25,7.069,7.26c0,4.01-3.16,7.26-7.069,7.26C272.494,195.285,269.334,192.035,269.334,188.025z"/>
<path fill-rule="evenodd" clip-rule="evenodd" fill="#000099" d="M291.314,216.525c0-4.01,3.17-7.26,7.069-7.26
	c3.91,0,7.07,3.25,7.07,7.26c0,4.01-3.16,7.26-7.07,7.26C294.484,223.785,291.314,220.535,291.314,216.525z"/>
<path fill-rule="evenodd" clip-rule="evenodd" fill="#000099" d="M197.094,198.345c0-2.61,2.08-4.72,4.65-4.72s4.65,2.11,4.65,4.72
	c0,2.6-2.08,4.71-4.65,4.71S197.094,200.945,197.094,198.345z"/>
<path fill-rule="evenodd" clip-rule="evenodd" fill="#000099" d="M192.804,171.055c0-1.96,1.59-3.54,3.54-3.54
	c1.96,0,3.55,1.58,3.55,3.54s-1.59,3.54-3.55,3.54C194.394,174.595,192.804,173.015,192.804,171.055z"/>
<path fill-rule="evenodd" clip-rule="evenodd" fill="#000099" d="M168.194,157.425c0-1.96,1.59-3.54,3.55-3.54
	c1.95,0,3.54,1.58,3.54,3.54s-1.59,3.54-3.54,3.54C169.784,160.965,168.194,159.385,168.194,157.425z"/>
<path fill-rule="evenodd" clip-rule="evenodd" fill="#000099" d="M166.754,200.555c0-2.35,1.91-4.25,4.26-4.25
	c2.34,0,4.25,1.9,4.25,4.25s-1.91,4.25-4.25,4.25C168.664,204.805,166.754,202.905,166.754,200.555z"/>
<path fill-rule="evenodd" clip-rule="evenodd" fill="#000099" d="M233.244,209.395c0-2.6,2.08-4.71,4.65-4.71
	c2.56,0,4.649,2.11,4.649,4.71c0,2.6-2.09,4.71-4.649,4.71C235.324,214.105,233.244,211.995,233.244,209.395z"/>
<path fill-rule="evenodd" clip-rule="evenodd" fill="#000099" d="M242.674,178.975c0-2.6,2.08-4.71,4.641-4.71
	c2.569,0,4.649,2.11,4.649,4.71c0,2.61-2.08,4.72-4.649,4.72C244.754,183.695,242.674,181.585,242.674,178.975z"/>
<path fill-rule="evenodd" clip-rule="evenodd" fill="#000099" d="M209.164,162.675c0-2.61,2.08-4.72,4.65-4.72
	c2.56,0,4.64,2.11,4.64,4.72c0,2.6-2.08,4.71-4.64,4.71C211.244,167.385,209.164,165.275,209.164,162.675z"/>
<polyline fill-rule="evenodd" clip-rule="evenodd" fill="#808080" points="459.114,238.725 460.414,238.465 461.725,238.085 
	464.344,237.195 466.834,236.305 468.145,235.925 469.444,235.665 469.314,235.025 469.314,234.395 469.185,233.755 
	468.924,233.115 468.534,232.355 468.274,231.845 468.014,231.465 467.874,230.955 467.614,230.825 467.484,230.565 
	467.094,230.315 466.834,230.185 466.574,229.935 466.304,229.805 466.174,229.555 465.914,229.295 465.654,228.785 
	465.134,227.895 464.734,227.255 464.604,226.875 464.475,226.625 464.734,226.875 464.864,227.135 464.994,227.255 
	464.864,227.005 464.604,226.875 464.344,226.365 463.824,225.725 463.694,224.715 463.564,224.325 463.424,223.815 
	463.164,223.305 462.904,222.925 462.645,222.545 462.384,222.035 461.984,220.765 461.725,219.235 461.334,217.705 
	461.074,216.045 460.685,214.645 460.284,213.115 459.764,211.845 459.114,210.825 458.714,209.675 458.324,208.535 
	457.804,207.515 457.274,206.625 455.964,204.715 455.444,203.695 454.924,202.675 455.185,201.905 455.314,201.395 
	455.834,200.375 456.494,199.355 456.884,198.855 457.274,198.345 457.404,197.835 457.534,197.195 457.534,196.815 
	457.534,196.555 457.404,196.175 457.145,195.795 456.754,195.665 456.234,195.665 455.704,195.415 454.924,195.155 
	454.004,195.415 453.484,195.665 453.084,195.925 452.694,196.175 452.435,196.685 452.044,197.065 451.914,197.065 
	451.645,197.065 451.514,197.065 451.384,196.815 451.124,196.305 450.994,195.665 450.734,195.155 450.344,194.645 
	449.814,194.265 449.424,194.005 448.904,193.885 447.984,193.625 446.935,193.375 444.454,193.885 441.964,194.395 
	439.604,195.025 437.124,195.925 437.254,196.555 437.384,197.195 437.384,197.835 437.645,198.345 438.164,199.235 
	438.824,199.865 439.734,200.505 440.654,201.145 442.484,201.905 443.404,202.415 444.185,202.675 444.454,203.305 
	444.714,203.945 444.844,204.455 444.975,204.965 445.104,205.215 445.234,205.475 445.234,205.725 445.364,205.855 
	445.234,205.725 445.234,205.475 445.104,205.345 444.975,204.965 444.975,204.715 444.975,204.585 445.234,204.715 
	445.494,205.095 445.624,205.475 445.895,205.855 446.154,206.365 446.414,207.005 446.674,207.515 446.674,207.895 
	446.804,208.405 446.935,208.915 447.334,209.935 447.725,210.695 447.984,211.335 448.374,211.845 448.634,212.225 
	448.904,212.735 449.294,213.245 449.685,213.885 449.944,214.645 450.214,215.535 450.344,216.425 450.604,217.325 
	450.864,218.215 450.994,218.855 451.124,219.355 451.124,219.485 450.994,220.125 450.864,220.635 450.864,220.885 
	450.734,221.145 450.734,221.275 450.734,221.395 450.734,221.275 450.604,221.145 450.344,221.145 450.214,221.275 
	449.944,221.395 449.685,221.655 449.294,222.035 449.034,222.415 448.774,222.795 448.374,223.815 448.504,224.715 
	448.504,225.475 448.504,226.235 448.634,226.625 448.774,227.005 448.904,227.135 449.164,227.385 449.944,227.765 
	450.734,228.025 451.645,228.405 452.564,228.655 453.484,228.915 454.264,229.295 454.664,229.295 454.924,229.425 
	455.314,229.935 455.574,230.565 455.964,231.585 456.234,232.225 456.494,232.735 456.884,233.245 457.274,233.755 
	457.534,234.775 457.804,235.665 458.064,236.555 458.194,237.445 458.454,238.085 458.584,238.725 458.714,239.105 
	458.714,239.485 458.844,239.745 458.975,239.865 459.114,239.745 459.114,239.485 459.114,239.105 459.114,238.725 "/>
<rect x="442.354" y="187.51" fill-rule="evenodd" clip-rule="evenodd" fill="#808080" width="19.763" height="8.535"/>
<path fill-rule="evenodd" clip-rule="evenodd" fill="#808080" d="M383.194,186.075c0-0.68,0.56-1.24,1.24-1.24h4.979
	c0.69,0,1.24,0.56,1.24,1.24v11.66c0,0.69-0.55,1.24-1.24,1.24h-4.979c-0.681,0-1.24-0.55-1.24-1.24V186.075z"/>
<polygon fill-rule="evenodd" clip-rule="evenodd" fill="#808080" points="382.544,194.395 375.214,191.595 382.544,188.785 "/>
<path fill-rule="evenodd" clip-rule="evenodd" fill="#808080" d="M390.654,187.185c0-1.3,1.06-2.35,2.35-2.35h47
	c1.3,0,2.351,1.05,2.351,2.35v9.44c0,1.3-1.051,2.35-2.351,2.35h-47c-1.29,0-2.35-1.05-2.35-2.35V187.185z"/>
<polyline fill-rule="evenodd" clip-rule="evenodd" fill="#808080" points="444.584,181.655 444.844,182.545 444.975,183.435 
	445.104,184.455 445.104,185.345 445.234,186.235 445.234,187.135 445.364,188.145 445.624,189.045 446.024,190.565 
	446.414,192.095 446.414,192.485 446.544,192.865 446.804,193.495 446.935,193.755 446.935,194.005 447.064,194.135 
	447.064,194.265 447.064,194.775 447.064,195.155 447.064,196.175 447.064,196.685 447.064,197.065 446.935,197.575 
	446.804,197.955 446.674,198.215 446.414,198.345 446.154,198.465 445.895,198.595 445.234,198.595 444.584,198.725 
	444.454,198.725 444.324,198.855 443.924,198.975 443.794,198.975 443.664,198.975 443.534,199.105 443.274,199.355 
	443.145,199.615 443.014,199.745 442.884,199.865 442.884,199.745 442.744,199.745 442.614,199.865 442.484,199.865 
	442.225,200.125 441.834,200.255 441.174,200.635 440.654,201.275 440.004,201.785 439.344,202.415 439.214,202.675 
	439.214,203.055 438.954,203.565 438.824,203.945 438.694,204.205 438.694,204.455 438.694,204.705 438.824,205.855 
	438.824,206.875 438.954,208.025 439.084,209.165 439.214,210.315 439.604,211.335 439.874,212.485 440.264,213.625 
	440.524,214.775 440.914,215.795 441.174,216.935 441.444,218.085 440.654,218.595 439.874,218.855 439.084,219.235 
	438.164,219.615 436.464,219.995 434.764,220.635 434.504,220.635 434.374,220.765 434.114,220.765 433.984,220.885 
	433.844,220.885 433.584,221.015 433.714,221.015 433.844,221.015 433.584,221.145 433.454,221.145 433.324,221.275 
	433.064,221.275 432.935,221.395 432.674,221.395 432.544,221.525 432.414,221.525 432.014,221.655 431.884,221.655 
	431.754,221.655 431.624,221.785 431.494,221.655 431.364,221.655 430.975,221.525 430.834,221.395 430.704,221.275 
	430.574,221.145 430.574,221.015 430.574,220.885 430.704,220.765 430.834,220.765 430.975,220.765 431.364,220.765 
	431.494,220.635 431.624,220.635 431.884,220.505 432.014,220.375 432.145,220.255 432.274,220.255 432.414,219.995 
	432.544,219.995 432.544,219.865 432.414,219.865 432.274,219.865 432.145,219.865 432.274,219.865 432.414,219.865 
	432.544,219.745 432.674,219.745 432.935,219.745 433.194,219.615 433.454,219.485 433.714,219.105 433.984,218.855 
	434.244,218.725 434.374,218.465 434.504,218.345 434.504,218.085 434.634,217.955 434.504,217.705 434.504,217.575 
	434.504,217.195 434.374,216.815 434.244,216.305 434.114,215.795 433.984,215.025 433.844,214.265 433.714,213.245 
	433.584,212.485 433.324,211.585 433.064,210.565 432.674,209.425 432.274,208.405 431.884,207.255 431.364,206.495 
	431.234,206.115 430.975,205.855 430.834,205.605 430.704,205.215 430.444,204.705 430.314,204.325 430.185,204.075 
	430.185,203.815 430.185,203.565 430.444,202.925 430.704,202.165 431.104,201.525 431.494,200.885 432.014,200.375 
	432.544,199.745 433.064,199.355 433.714,199.105 434.374,198.465 435.024,197.955 435.554,197.575 436.074,197.065 
	436.594,196.685 436.994,196.175 437.514,195.535 437.645,195.155 437.904,194.645 438.034,194.135 438.164,193.755 
	438.294,192.995 438.294,192.485 438.435,191.975 438.294,191.335 438.294,190.565 438.164,190.185 438.164,189.555 
	438.034,188.915 437.904,188.275 437.904,188.025 437.904,187.765 437.645,187.135 437.514,186.625 437.254,186.115 
	437.124,185.725 437.124,185.345 436.994,185.095 436.994,184.965 436.994,184.075 436.994,183.185 436.994,182.415 
	436.994,181.775 437.124,181.275 437.124,180.765 437.124,180.375 437.254,180.125 437.384,179.865 437.645,179.745 
	437.904,179.615 438.294,179.485 438.694,179.485 439.344,179.615 439.604,179.615 440.004,179.615 440.395,179.615 
	440.784,179.745 441.174,179.865 441.444,179.995 441.704,180.125 441.834,180.255 442.094,180.255 442.354,180.505 
	442.614,180.635 442.884,180.885 443.014,181.015 443.145,181.145 443.404,181.395 443.664,181.655 443.794,181.905 
	444.054,182.165 444.185,182.285 444.324,182.415 444.454,182.285 444.584,182.165 444.584,181.905 444.584,181.655 "/>
<g>
	<text transform="matrix(1 0 0 1 244.9746 147.5049)" font-family="'TimesNewRomanPS-BoldMT'" font-size="10">← Evaporation is difficult while particles are floating</text>
</g>
<text transform="matrix(1 0 0 1 476.6641 147.5049)" font-family="'TimesNewRomanPS-BoldMT'" font-size="9.96"> </text>
<polygon fill-rule="evenodd" clip-rule="evenodd" fill="#000099" points="180.794,140.125 186.464,131.165 192.124,140.125 
	189.574,140.125 189.574,145.345 183.354,145.345 183.354,140.125 "/>
<polygon fill-rule="evenodd" clip-rule="evenodd" fill="#000099" points="230.384,147.795 236.054,138.845 241.714,147.795 
	239.164,147.795 239.164,153.015 232.944,153.015 232.944,147.795 "/>
<polygon fill-rule="evenodd" clip-rule="evenodd" fill="#000099" points="207.684,144.245 213.354,135.285 219.024,144.245 
	216.464,144.245 216.464,149.465 210.244,149.465 210.244,144.245 "/>
<polygon fill-rule="evenodd" clip-rule="evenodd" fill="#CC0000" points="201.764,16.075 208.854,4.885 215.934,16.075 
	212.734,16.075 212.734,33.225 204.964,33.225 204.964,16.075 "/>
<polygon fill-rule="evenodd" clip-rule="evenodd" fill="#000099" points="147.634,202.195 147.634,159.675 158.974,202.195 "/>
<path fill-rule="evenodd" clip-rule="evenodd" fill="#000099" d="M214.104,221.375c0-2.35,1.91-4.25,4.25-4.25
	c2.35,0,4.26,1.9,4.26,4.25c0,2.35-1.91,4.25-4.26,4.25C216.014,225.625,214.104,223.725,214.104,221.375z"/>
<text transform="matrix(1 0 0 1 153.8843 250.2246)"><tspan x="0" y="0" fill="#CC0000" font-family="'TimesNewRomanPS-BoldMT'" font-size="11.04">Wa</tspan><tspan x="16.56" y="0" fill="#CC0000" font-family="'TimesNewRomanPS-BoldMT'" font-size="11.04">t</tspan><tspan x="20.28" y="0" fill="#CC0000" font-family="'TimesNewRomanPS-BoldMT'" font-size="11.04">er</tspan></text>
<text transform="matrix(1 0 0 1 184.0342 250.2246)" fill="#CC0000" font-family="'TimesNewRomanPS-BoldMT'" font-size="11.04">-</text>
<text transform="matrix(1 0 0 1 187.7539 250.2246)"><tspan x="0" y="0" fill="#CC0000" font-family="'TimesNewRomanPS-BoldMT'" font-size="11.04">ba</tspan><tspan x="11.66" y="0" fill="#CC0000" font-family="'TimesNewRomanPS-BoldMT'" font-size="11.04">s</tspan><tspan x="15.846" y="0" fill="#CC0000" font-family="'TimesNewRomanPS-BoldMT'" font-size="11.04">ed</tspan><tspan x="26.886" y="0" fill="#CC0000" font-family="'TimesNewRomanPS-BoldMT'" font-size="11.04"> </tspan><tspan x="29.292" y="0" fill="#CC0000" font-family="'TimesNewRomanPS-BoldMT'" font-size="11.04">pain</tspan><tspan x="50.16" y="0" fill="#CC0000" font-family="'TimesNewRomanPS-BoldMT'" font-size="11.04">t</tspan><tspan x="53.87" y="0" fill="#CC0000" font-family="'TimesNewRomanPS-BoldMT'" font-size="11.04"> </tspan><tspan x="56.387" y="0" fill="#CC0000" font-family="'TimesNewRomanPS-BoldMT'" font-size="11.04">i</tspan><tspan x="59.499" y="0" fill="#CC0000" font-family="'TimesNewRomanPS-BoldMT'" font-size="11.04">s</tspan><tspan x="63.795" y="0" fill="#CC0000" font-family="'TimesNewRomanPS-BoldMT'" font-size="11.04"> </tspan><tspan x="66.345" y="0" fill="#CC0000" font-family="'TimesNewRomanPS-BoldMT'" font-size="11.04">sus</tspan><tspan x="81.076" y="0" fill="#CC0000" font-family="'TimesNewRomanPS-BoldMT'" font-size="11.04">c</tspan><tspan x="86.021" y="0" fill="#CC0000" font-family="'TimesNewRomanPS-BoldMT'" font-size="11.04">ep</tspan><tspan x="97.061" y="0" fill="#CC0000" font-family="'TimesNewRomanPS-BoldMT'" font-size="11.04">t</tspan><tspan x="100.76" y="0" fill="#CC0000" font-family="'TimesNewRomanPS-BoldMT'" font-size="11.04">i</tspan><tspan x="103.871" y="0" fill="#CC0000" font-family="'TimesNewRomanPS-BoldMT'" font-size="11.04">b</tspan><tspan x="110.011" y="0" fill="#CC0000" font-family="'TimesNewRomanPS-BoldMT'" font-size="11.04">l</tspan><tspan x="113.001" y="0" fill="#CC0000" font-family="'TimesNewRomanPS-BoldMT'" font-size="11.04">e</tspan><tspan x="117.813" y="0" fill="#CC0000" font-family="'TimesNewRomanPS-BoldMT'" font-size="11.04"> </tspan><tspan x="120.22" y="0" fill="#CC0000" font-family="'TimesNewRomanPS-BoldMT'" font-size="11.04">t</tspan><tspan x="123.918" y="0" fill="#CC0000" font-family="'TimesNewRomanPS-BoldMT'" font-size="11.04">o</tspan><tspan x="129.438" y="0" fill="#CC0000" font-family="'TimesNewRomanPS-BoldMT'" font-size="11.04"> </tspan><tspan x="132.076" y="0" fill="#CC0000" font-family="'TimesNewRomanPS-BoldMT'" font-size="11.04">sag</tspan><tspan x="147.411" y="0" fill="#CC0000" font-family="'TimesNewRomanPS-BoldMT'" font-size="11.04"> </tspan><tspan x="150.082" y="0" fill="#CC0000" font-family="'TimesNewRomanPS-BoldMT'" font-size="11.04">becaus</tspan><tspan x="181.978" y="0" fill="#CC0000" font-family="'TimesNewRomanPS-BoldMT'" font-size="11.04">e</tspan><tspan x="186.911" y="0" fill="#CC0000" font-family="'TimesNewRomanPS-BoldMT'" font-size="11.04"> </tspan><tspan x="189.429" y="0" fill="#CC0000" font-family="'TimesNewRomanPS-BoldMT'" font-size="11.04">i</tspan><tspan x="192.54" y="0" fill="#CC0000" font-family="'TimesNewRomanPS-BoldMT'" font-size="11.04">t</tspan><tspan x="196.238" y="0" fill="#CC0000" font-family="'TimesNewRomanPS-BoldMT'" font-size="11.04"> </tspan><tspan x="198.888" y="0" fill="#CC0000" font-family="'TimesNewRomanPS-BoldMT'" font-size="11.04">i</tspan><tspan x="202" y="0" fill="#CC0000" font-family="'TimesNewRomanPS-BoldMT'" font-size="11.04">s</tspan><tspan x="206.296" y="0" fill="#CC0000" font-family="'TimesNewRomanPS-BoldMT'" font-size="11.04"> </tspan><tspan x="208.856" y="0" fill="#CC0000" font-family="'TimesNewRomanPS-BoldMT'" font-size="11.04">i</tspan><tspan x="211.968" y="0" fill="#CC0000" font-family="'TimesNewRomanPS-BoldMT'" font-size="11.04">n</tspan><tspan x="218.107" y="0" fill="#CC0000" font-family="'TimesNewRomanPS-BoldMT'" font-size="11.04">f</tspan><tspan x="221.906" y="0" fill="#CC0000" font-family="'TimesNewRomanPS-BoldMT'" font-size="11.04">l</tspan><tspan x="224.918" y="0" fill="#CC0000" font-family="'TimesNewRomanPS-BoldMT'" font-size="11.04">uenc</tspan><tspan x="246.998" y="0" fill="#CC0000" font-family="'TimesNewRomanPS-BoldMT'" font-size="11.04">e</tspan><tspan x="251.811" y="0" fill="#CC0000" font-family="'TimesNewRomanPS-BoldMT'" font-size="11.04">d </tspan></text>
<polygon fill-rule="evenodd" clip-rule="evenodd" fill="#CC0000" points="153.854,251.235 226.814,251.235 299.774,251.235 
	372.734,251.235 445.694,251.235 445.694,251.835 372.734,251.835 299.774,251.835 226.814,251.835 153.854,251.835 "/>
<text transform="matrix(1 0 0 1 153.8843 264.1445)"><tspan x="0" y="0" fill="#CC0000" font-family="'TimesNewRomanPS-BoldMT'" font-size="11.04">by coa</tspan><tspan x="30.36" y="0" fill="#CC0000" font-family="'TimesNewRomanPS-BoldMT'" font-size="11.04">t</tspan><tspan x="34.058" y="0" fill="#CC0000" font-family="'TimesNewRomanPS-BoldMT'" font-size="11.04">i</tspan><tspan x="37.17" y="0" fill="#CC0000" font-family="'TimesNewRomanPS-BoldMT'" font-size="11.04">ng</tspan><tspan x="48.83" y="0" fill="#CC0000" font-family="'TimesNewRomanPS-BoldMT'" font-size="11.04"> </tspan><tspan x="51.226" y="0" fill="#CC0000" font-family="'TimesNewRomanPS-BoldMT'" font-size="11.04">env</tspan><tspan x="67.786" y="0" fill="#CC0000" font-family="'TimesNewRomanPS-BoldMT'" font-size="11.04">i</tspan><tspan x="70.897" y="0" fill="#CC0000" font-family="'TimesNewRomanPS-BoldMT'" font-size="11.04">ron</tspan><tspan x="87.457" y="0" fill="#CC0000" font-family="'TimesNewRomanPS-BoldMT'" font-size="11.04">m</tspan><tspan x="96.697" y="0" fill="#CC0000" font-family="'TimesNewRomanPS-BoldMT'" font-size="11.04">en</tspan><tspan x="107.737" y="0" fill="#CC0000" font-family="'TimesNewRomanPS-BoldMT'" font-size="11.04">t</tspan><tspan x="111.336" y="0" fill="#CC0000" font-family="'TimesNewRomanPS-BoldMT'" font-size="11.04"> </tspan><tspan x="113.743" y="0" fill="#CC0000" font-family="'TimesNewRomanPS-BoldMT'" font-size="11.04">(t</tspan><tspan x="121.141" y="0" fill="#CC0000" font-family="'TimesNewRomanPS-BoldMT'" font-size="11.04">e</tspan><tspan x="126.042" y="0" fill="#CC0000" font-family="'TimesNewRomanPS-BoldMT'" font-size="11.04">m</tspan><tspan x="135.303" y="0" fill="#CC0000" font-family="'TimesNewRomanPS-BoldMT'" font-size="11.04">pe</tspan><tspan x="146.343" y="0" fill="#CC0000" font-family="'TimesNewRomanPS-BoldMT'" font-size="11.04">r</tspan><tspan x="151.156" y="0" fill="#CC0000" font-family="'TimesNewRomanPS-BoldMT'" font-size="11.04">a</tspan><tspan x="156.675" y="0" fill="#CC0000" font-family="'TimesNewRomanPS-BoldMT'" font-size="11.04">t</tspan><tspan x="160.275" y="0" fill="#CC0000" font-family="'TimesNewRomanPS-BoldMT'" font-size="11.04">ure</tspan><tspan x="176.215" y="0" fill="#CC0000" font-family="'TimesNewRomanPS-BoldMT'" font-size="11.04"> </tspan><tspan x="178.632" y="0" fill="#CC0000" font-family="'TimesNewRomanPS-BoldMT'" font-size="11.04">&amp;</tspan><tspan x="187.874" y="0" fill="#CC0000" font-family="'TimesNewRomanPS-BoldMT'" font-size="11.04"> </tspan><tspan x="190.523" y="0" fill="#CC0000" font-family="'TimesNewRomanPS-BoldMT'" font-size="11.04">h</tspan><tspan x="196.663" y="0" fill="#CC0000" font-family="'TimesNewRomanPS-BoldMT'" font-size="11.04">u</tspan><tspan x="202.769" y="0" fill="#CC0000" font-family="'TimesNewRomanPS-BoldMT'" font-size="11.04">mi</tspan><tspan x="215.121" y="0" fill="#CC0000" font-family="'TimesNewRomanPS-BoldMT'" font-size="11.04">di</tspan><tspan x="224.328" y="0" fill="#CC0000" font-family="'TimesNewRomanPS-BoldMT'" font-size="11.04">t</tspan><tspan x="227.96" y="0" fill="#CC0000" font-family="'TimesNewRomanPS-BoldMT'" font-size="11.04">y</tspan><tspan x="233.48" y="0" fill="#CC0000" font-family="'TimesNewRomanPS-BoldMT'" font-size="11.04">)</tspan><tspan x="237.08" y="0" fill="#CC0000" font-family="'TimesNewRomanPS-BoldMT'" font-size="11.04">.</tspan></text>
<text transform="matrix(1 0 0 1 393.8145 264.1445)" fill="#CC0000" font-family="'TimesNewRomanPS-BoldMT'" font-size="11.04"> </text>
<polygon fill-rule="evenodd" clip-rule="evenodd" fill="#CC0000" points="153.854,265.154 213.824,265.154 273.794,265.154 
	333.764,265.154 393.734,265.154 393.734,265.755 333.764,265.755 273.794,265.755 213.824,265.755 153.854,265.755 "/>
</svg>
