<?xml version="1.0" encoding="utf-8"?>
<!-- Generator: Adobe Illustrator 16.0.0, SVG Export Plug-In . SVG Version: 6.00 Build 0)  -->
<!DOCTYPE svg PUBLIC "-//W3C//DTD SVG 1.1//EN" "http://www.w3.org/Graphics/SVG/1.1/DTD/svg11.dtd">
<svg version="1.1" id="Layer_1" xmlns="http://www.w3.org/2000/svg" xmlns:xlink="http://www.w3.org/1999/xlink" x="0px" y="0px"
	 width="437.4px" height="266.88px" viewBox="0 0 437.4 266.88" enable-background="new 0 0 437.4 266.88" xml:space="preserve">
<text transform="matrix(1 0 0 1 4.2402 13.0649)" font-family="'KozGoPr6N-Regular-90ms-RKSJ-H'" font-size="12.024">溶</text>
<text transform="matrix(1 0 0 1 4.2402 13.0649)" fill="none" stroke="#000000" stroke-width="0.3435" stroke-miterlimit="10" font-family="'KozGoPr6N-Regular-90ms-RKSJ-H'" font-size="12.024">溶</text>
<text transform="matrix(1 0 0 1 16.3838 13.0649)" font-family="'KozGoPr6N-Regular-90ms-RKSJ-H'" font-size="12.024">剤</text>
<text transform="matrix(1 0 0 1 16.3838 13.0649)" fill="none" stroke="#000000" stroke-width="0.3435" stroke-miterlimit="10" font-family="'KozGoPr6N-Regular-90ms-RKSJ-H'" font-size="12.024">剤</text>
<text transform="matrix(1 0 0 1 28.5278 13.0649)" font-family="'KozGoPr6N-Regular-90ms-RKSJ-H'" font-size="12.024">系</text>
<text transform="matrix(1 0 0 1 28.5278 13.0649)" fill="none" stroke="#000000" stroke-width="0.3435" stroke-miterlimit="10" font-family="'KozGoPr6N-Regular-90ms-RKSJ-H'" font-size="12.024">系</text>
<rect x="4.216" y="14.225" fill-rule="evenodd" clip-rule="evenodd" width="36.36" height="0.6"/>
<text transform="matrix(1 0 0 1 4.2402 134.2646)" font-family="'KozGoPr6N-Regular-90ms-RKSJ-H'" font-size="12">水</text>
<text transform="matrix(1 0 0 1 4.2402 134.2646)" fill="none" stroke="#000000" stroke-width="0.3429" stroke-miterlimit="10" font-family="'KozGoPr6N-Regular-90ms-RKSJ-H'" font-size="12">水</text>
<text transform="matrix(1 0 0 1 16.3838 134.2646)" font-family="'KozGoPr6N-Regular-90ms-RKSJ-H'" font-size="12">性</text>
<text transform="matrix(1 0 0 1 16.3838 134.2646)" fill="none" stroke="#000000" stroke-width="0.3429" stroke-miterlimit="10" font-family="'KozGoPr6N-Regular-90ms-RKSJ-H'" font-size="12">性</text>
<rect x="4.216" y="135.425" fill-rule="evenodd" clip-rule="evenodd" width="24.24" height="0.6"/>
<path fill-rule="evenodd" clip-rule="evenodd" fill="#000099" d="M87.57,224.325c-7.71-8.93-6.62-22.52,2.45-30.36
	c10.95-9.47,17.23-24.32,18.86-44.56c-1.63,20.24,2.22,35.74,11.53,46.51c7.72,8.92,6.63,22.51-2.44,30.36
	C108.9,234.115,95.29,233.245,87.57,224.325z"/>
<linearGradient id="SVGID_1_" gradientUnits="userSpaceOnUse" x1="217.6006" y1="68.9746" x2="346.6396" y2="68.9746">
	<stop  offset="0" style="stop-color:#CC0000"/>
	<stop  offset="0.225" style="stop-color:#F0B6B6"/>
	<stop  offset="0.5" style="stop-color:#FFFFFF"/>
	<stop  offset="0.5" style="stop-color:#FFFFFF"/>
	<stop  offset="0.775" style="stop-color:#F0B6B6"/>
	<stop  offset="1" style="stop-color:#CC0000"/>
</linearGradient>
<polygon fill-rule="evenodd" clip-rule="evenodd" fill="url(#SVGID_1_)" points="282.12,30.695 346.64,64.755 346.64,73.195 
	282.12,107.255 "/>
<path fill-rule="evenodd" clip-rule="evenodd" fill="#CC0000" d="M96.88,20.075c0-1.32,1.07-2.39,2.39-2.39h14.34
	c1.31,0,2.38,1.07,2.38,2.39v92.42c0,1.32-1.07,2.39-2.38,2.39H99.27c-1.32,0-2.39-1.07-2.39-2.39V20.075z"/>
<rect x="76.24" y="8.865" fill-rule="evenodd" clip-rule="evenodd" fill="#404040" width="26.337" height="112.74"/>
<rect x="76.24" y="8.865" fill="none" stroke="#000000" stroke-width="1.5" stroke-miterlimit="10" width="26.337" height="112.74"/>
<path fill-rule="evenodd" clip-rule="evenodd" fill="#CC0000" d="M258.32,43.465c0-4.01,3.17-7.26,7.069-7.26
	c3.9,0,7.07,3.25,7.07,7.26c0,4.01-3.17,7.26-7.07,7.26C261.49,50.725,258.32,47.475,258.32,43.465z"/>
<path fill-rule="evenodd" clip-rule="evenodd" fill="#CC0000" d="M233.19,65.115c0-4.01,3.17-7.26,7.069-7.26
	c3.9,0,7.07,3.25,7.07,7.26s-3.17,7.27-7.07,7.27C236.36,72.385,233.19,69.125,233.19,65.115z"/>
<path fill-rule="evenodd" clip-rule="evenodd" fill="#CC0000" d="M255.18,105.115c0-4.01,3.16-7.26,7.07-7.26
	c3.9,0,7.07,3.25,7.07,7.26s-3.17,7.27-7.07,7.27C258.34,112.385,255.18,109.125,255.18,105.115z"/>
<path fill-rule="evenodd" clip-rule="evenodd" fill="#CC0000" d="M169.88,75.435c0-2.6,2.08-4.71,4.65-4.71
	c2.57,0,4.65,2.11,4.65,4.71c0,2.61-2.08,4.72-4.65,4.72C171.96,80.155,169.88,78.045,169.88,75.435z"/>
<path fill-rule="evenodd" clip-rule="evenodd" fill="#CC0000" d="M156.67,46.775c0-1.2,0.96-2.17,2.16-2.17
	c1.19,0,2.15,0.97,2.15,2.17c0,1.2-0.96,2.17-2.15,2.17C157.63,48.945,156.67,47.975,156.67,46.775z"/>
<path fill-rule="evenodd" clip-rule="evenodd" fill="#CC0000" d="M132.06,33.085c0-1.16,0.94-2.11,2.09-2.11
	c1.16,0,2.1,0.95,2.1,2.11c0,1.16-0.94,2.1-2.1,2.1C133,35.185,132.06,34.245,132.06,33.085z"/>
<path fill-rule="evenodd" clip-rule="evenodd" fill="#CC0000" d="M130.62,75.565c0-1.2,0.94-2.17,2.09-2.17
	c1.16,0,2.1,0.97,2.1,2.17c0,1.2-0.94,2.17-2.1,2.17C131.56,77.735,130.62,76.765,130.62,75.565z"/>
<path fill-rule="evenodd" clip-rule="evenodd" fill="#CC0000" d="M187.42,99.385c0-1.19,0.97-2.16,2.16-2.16
	c1.2,0,2.16,0.97,2.16,2.16c0,1.2-0.96,2.17-2.16,2.17C188.39,101.555,187.42,100.585,187.42,99.385z"/>
<path fill-rule="evenodd" clip-rule="evenodd" fill="#CC0000" d="M197.11,93.785c0-2.61,2.08-4.72,4.64-4.72
	c2.57,0,4.65,2.11,4.65,4.72c0,2.6-2.08,4.71-4.65,4.71C199.19,98.495,197.11,96.385,197.11,93.785z"/>
<path fill-rule="evenodd" clip-rule="evenodd" fill="#CC0000" d="M210.72,56.075c0-2.6,2.08-4.71,4.641-4.71
	c2.569,0,4.649,2.11,4.649,4.71s-2.08,4.71-4.649,4.71C212.8,60.785,210.72,58.675,210.72,56.075z"/>
<path fill-rule="evenodd" clip-rule="evenodd" fill="#CC0000" d="M177.21,39.765c0-2.6,2.08-4.71,4.65-4.71
	c2.56,0,4.64,2.11,4.64,4.71c0,2.61-2.08,4.72-4.64,4.72C179.29,44.485,177.21,42.375,177.21,39.765z"/>
<polyline fill-rule="evenodd" clip-rule="evenodd" fill="#808080" points="422.97,115.825 424.28,115.565 425.59,115.185 
	428.21,114.295 430.69,113.405 432,113.015 433.31,112.765 433.18,112.125 433.18,111.485 433.05,110.854 432.79,110.215 
	432.39,109.455 432.13,108.945 431.87,108.555 431.74,108.045 431.48,107.925 431.35,107.665 430.95,107.415 430.69,107.285 
	430.43,107.035 430.17,106.905 430.04,106.645 429.78,106.395 429.51,105.885 428.99,104.995 428.6,104.354 428.47,103.975 
	428.34,103.715 428.6,103.975 428.73,104.225 428.86,104.354 428.73,104.104 428.47,103.975 428.21,103.465 427.68,102.825 
	427.55,101.805 427.42,101.425 427.29,100.915 427.03,100.405 426.77,100.025 426.5,99.645 426.24,99.135 425.85,97.854 
	425.59,96.325 425.2,94.805 424.93,93.145 424.54,91.745 424.15,90.215 423.63,88.945 422.97,87.925 422.58,86.775 422.19,85.625 
	421.66,84.615 421.14,83.715 419.83,81.805 419.31,80.785 418.78,79.765 419.04,79.005 419.18,78.495 419.7,77.475 420.35,76.455 
	420.75,75.945 421.14,75.435 421.27,74.925 421.4,74.295 421.4,73.905 421.4,73.655 421.27,73.275 421.01,72.895 420.61,72.765 
	420.09,72.765 419.57,72.505 418.78,72.255 417.87,72.505 417.34,72.765 416.95,73.015 416.56,73.275 416.3,73.785 415.9,74.165 
	415.77,74.165 415.51,74.165 415.38,74.165 415.25,73.905 414.99,73.395 414.86,72.765 414.59,72.255 414.2,71.745 413.68,71.365 
	413.29,71.104 412.76,70.975 411.85,70.725 410.8,70.465 408.31,70.975 405.83,71.485 403.47,72.125 400.98,73.015 401.11,73.655 
	401.24,74.295 401.24,74.925 401.51,75.435 402.03,76.325 402.68,76.965 403.6,77.604 404.52,78.245 406.35,79.005 407.26,79.515 
	408.05,79.765 408.31,80.405 408.57,81.045 408.7,81.555 408.84,82.065 408.97,82.315 409.1,82.575 409.1,82.825 409.23,82.955 
	409.1,82.825 409.1,82.575 408.97,82.445 408.84,82.065 408.84,81.805 408.84,81.685 409.1,81.805 409.36,82.185 409.49,82.575 
	409.75,82.955 410.01,83.465 410.28,84.104 410.54,84.615 410.54,84.995 410.67,85.505 410.8,86.015 411.19,87.035 411.58,87.795 
	411.85,88.435 412.24,88.945 412.5,89.325 412.76,89.835 413.15,90.345 413.55,90.975 413.81,91.745 414.07,92.635 414.2,93.525 
	414.46,94.415 414.73,95.315 414.86,95.945 414.99,96.455 414.99,96.585 414.86,97.225 414.73,97.735 414.73,97.985 414.59,98.245 
	414.59,98.365 414.59,98.495 414.59,98.365 414.46,98.245 414.2,98.245 414.07,98.365 413.81,98.495 413.55,98.755 413.15,99.135 
	412.89,99.515 412.63,99.895 412.24,100.915 412.37,101.805 412.37,102.575 412.37,103.335 412.5,103.715 412.63,104.104 
	412.76,104.225 413.02,104.485 413.81,104.865 414.59,105.115 415.51,105.505 416.43,105.755 417.34,106.015 418.13,106.395 
	418.52,106.395 418.78,106.525 419.18,107.035 419.44,107.665 419.83,108.685 420.09,109.325 420.35,109.835 420.75,110.345 
	421.14,110.854 421.4,111.875 421.66,112.765 421.92,113.655 422.05,114.545 422.32,115.185 422.45,115.825 422.58,116.205 
	422.58,116.585 422.71,116.835 422.84,116.965 422.97,116.835 422.97,116.585 422.97,116.205 422.97,115.825 "/>
<rect x="406.22" y="64.61" fill-rule="evenodd" clip-rule="evenodd" fill="#808080" width="19.764" height="8.535"/>
<path fill-rule="evenodd" clip-rule="evenodd" fill="#808080" d="M347.06,63.175c0-0.69,0.551-1.24,1.24-1.24h4.98
	c0.68,0,1.239,0.55,1.239,1.24v11.66c0,0.68-0.56,1.24-1.239,1.24h-4.98c-0.689,0-1.24-0.56-1.24-1.24V63.175z"/>
<polygon fill-rule="evenodd" clip-rule="evenodd" fill="#808080" points="346.4,71.485 339.08,68.685 346.4,65.885 "/>
<path fill-rule="evenodd" clip-rule="evenodd" fill="#808080" d="M354.52,64.285c0-1.3,1.051-2.35,2.351-2.35h47
	c1.3,0,2.35,1.05,2.35,2.35v9.44c0,1.3-1.05,2.35-2.35,2.35h-47c-1.3,0-2.351-1.05-2.351-2.35V64.285z"/>
<polyline fill-rule="evenodd" clip-rule="evenodd" fill="#808080" points="408.44,58.755 408.7,59.645 408.84,60.535 408.97,61.555 
	408.97,62.445 409.1,63.335 409.1,64.225 409.23,65.245 409.49,66.135 409.88,67.665 410.28,69.195 410.28,69.575 410.41,69.965 
	410.67,70.595 410.8,70.854 410.8,71.104 410.93,71.235 410.93,71.365 410.93,71.875 410.93,72.255 410.93,73.275 410.93,73.785 
	410.93,74.165 410.8,74.675 410.67,75.055 410.54,75.315 410.28,75.435 410.01,75.565 409.75,75.695 409.1,75.695 408.44,75.825 
	408.31,75.825 408.18,75.945 407.79,76.075 407.66,76.075 407.53,76.075 407.4,76.205 407.13,76.455 407,76.715 406.87,76.835 
	406.74,76.965 406.74,76.835 406.61,76.835 406.48,76.965 406.35,76.965 406.09,77.225 405.69,77.345 405.04,77.735 404.52,78.365 
	403.86,78.875 403.21,79.515 403.08,79.765 403.08,80.155 402.81,80.665 402.68,81.045 402.55,81.295 402.55,81.555 402.55,81.805 
	402.68,82.955 402.68,83.975 402.81,85.115 402.95,86.265 403.08,87.415 403.47,88.435 403.73,89.575 404.12,90.725 404.39,91.875 
	404.78,92.895 405.04,94.035 405.3,95.185 404.52,95.695 403.73,95.945 402.95,96.325 402.03,96.715 400.33,97.095 398.63,97.735 
	398.36,97.735 398.23,97.854 397.97,97.854 397.84,97.985 397.71,97.985 397.45,98.115 397.58,98.115 397.71,98.115 397.45,98.245 
	397.32,98.245 397.19,98.365 396.93,98.365 396.79,98.495 396.53,98.495 396.4,98.625 396.27,98.625 395.88,98.755 395.75,98.755 
	395.62,98.755 395.49,98.875 395.35,98.755 395.22,98.755 394.83,98.625 394.7,98.495 394.57,98.365 394.44,98.245 394.44,98.115 
	394.44,97.985 394.57,97.854 394.7,97.854 394.83,97.854 395.22,97.854 395.35,97.735 395.49,97.735 395.75,97.604 395.88,97.475 
	396.01,97.345 396.14,97.345 396.27,97.095 396.4,97.095 396.4,96.965 396.27,96.965 396.14,96.965 396.01,96.965 396.14,96.965 
	396.27,96.965 396.4,96.835 396.53,96.835 396.79,96.835 397.06,96.715 397.32,96.585 397.58,96.205 397.84,95.945 398.1,95.825 
	398.23,95.565 398.36,95.435 398.36,95.185 398.5,95.055 398.36,94.805 398.36,94.675 398.36,94.295 398.23,93.905 398.1,93.395 
	397.97,92.895 397.84,92.125 397.71,91.365 397.58,90.345 397.45,89.575 397.19,88.685 396.93,87.665 396.53,86.525 396.14,85.505 
	395.75,84.354 395.22,83.595 395.09,83.205 394.83,82.955 394.7,82.695 394.57,82.315 394.31,81.805 394.18,81.425 394.05,81.175 
	394.05,80.915 394.05,80.665 394.31,80.025 394.57,79.255 394.96,78.625 395.35,77.985 395.88,77.475 396.4,76.835 396.93,76.455 
	397.58,76.205 398.23,75.565 398.89,75.055 399.41,74.675 399.94,74.165 400.46,73.785 400.85,73.275 401.38,72.635 401.51,72.255 
	401.77,71.745 401.9,71.235 402.03,70.854 402.16,70.085 402.16,69.575 402.29,69.065 402.16,68.435 402.16,67.665 402.03,67.285 
	402.03,66.645 401.9,66.015 401.77,65.375 401.77,65.115 401.77,64.865 401.51,64.225 401.38,63.715 401.11,63.205 400.98,62.825 
	400.98,62.445 400.85,62.185 400.85,62.065 400.85,61.175 400.85,60.275 400.85,59.515 400.85,58.875 400.98,58.365 400.98,57.854 
	400.98,57.475 401.11,57.225 401.24,56.965 401.51,56.835 401.77,56.715 402.16,56.585 402.55,56.585 403.21,56.715 403.47,56.715 
	403.86,56.715 404.25,56.715 404.65,56.835 405.04,56.965 405.3,57.095 405.56,57.225 405.69,57.345 405.96,57.345 406.22,57.604 
	406.48,57.735 406.74,57.985 406.87,58.115 407,58.245 407.26,58.495 407.53,58.755 407.66,59.005 407.92,59.255 408.05,59.385 
	408.18,59.515 408.31,59.385 408.44,59.255 408.44,59.005 408.44,58.755 "/>
<rect x="425.325" y="115.183" transform="matrix(-0.956 0.2932 -0.2932 -0.956 869.4146 108.5591)" fill-rule="evenodd" clip-rule="evenodd" fill="#808080" width="2.489" height="8.535"/>
<polygon fill-rule="evenodd" clip-rule="evenodd" fill="#808080" points="429.63,113.565 432.01,112.845 434.5,121.005 
	432.13,121.725 "/>
<text transform="matrix(1 0 0 1 223.4102 26.2349)"><tspan x="0" y="0" font-family="'ArialMT'" font-size="12">←</tspan><tspan x="12" y="0" font-family="'ArialMT'" font-size="10.56"> </tspan><tspan x="14.934" y="0" font-family="'KozGoPr6N-Regular-90ms-RKSJ-H'" font-size="10.56">粒子飛行中に溶</tspan><tspan x="88.854" y="0" font-family="'KozGoPr6N-Regular-90ms-RKSJ-H'" font-size="10.56">剤</tspan><tspan x="99.298" y="0" font-family="'KozGoPr6N-Regular-90ms-RKSJ-H'" font-size="10.56">が</tspan><tspan x="109.9" y="0" font-family="'KozGoPr6N-Regular-90ms-RKSJ-H'" font-size="10.56">蒸</tspan><tspan x="120.344" y="0" font-family="'KozGoPr6N-Regular-90ms-RKSJ-H'" font-size="10.56">発</tspan></text>
<polygon fill-rule="evenodd" clip-rule="evenodd" fill="#CC0000" points="138.67,11.655 145.76,0.465 152.85,11.655 149.65,11.655 
	149.65,28.805 141.87,28.805 141.87,11.655 "/>
<polygon fill-rule="evenodd" clip-rule="evenodd" fill="#CC0000" points="194.24,19.325 201.33,8.135 208.42,19.325 205.22,19.325 
	205.22,36.485 197.44,36.485 197.44,19.325 "/>
<linearGradient id="SVGID_2_" gradientUnits="userSpaceOnUse" x1="217.9795" y1="190.875" x2="347.04" y2="190.875">
	<stop  offset="0" style="stop-color:#000099"/>
	<stop  offset="0.34" style="stop-color:#8B8BD1"/>
	<stop  offset="0.5" style="stop-color:#FFFFFF"/>
	<stop  offset="0.5" style="stop-color:#FFFFFF"/>
	<stop  offset="0.66" style="stop-color:#8B8BD1"/>
	<stop  offset="1" style="stop-color:#000099"/>
</linearGradient>
<polygon fill-rule="evenodd" clip-rule="evenodd" fill="url(#SVGID_2_)" points="282.51,152.595 347.04,186.655 347.04,195.105 
	282.51,229.155 "/>
<path fill-rule="evenodd" clip-rule="evenodd" fill="#000099" d="M96.53,141.975c0-1.32,1.07-2.38,2.39-2.38h14.33
	c1.32,0,2.39,1.06,2.39,2.38v63.26c0,1.32-1.07,2.39-2.39,2.39H98.92c-1.32,0-2.39-1.07-2.39-2.39V141.975z"/>
<rect x="76.63" y="130.775" fill-rule="evenodd" clip-rule="evenodd" fill="#404040" width="26.337" height="112.74"/>
<rect x="76.63" y="130.775" fill="none" stroke="#000000" stroke-width="1.5" stroke-miterlimit="10" width="26.337" height="112.74"/>
<path fill-rule="evenodd" clip-rule="evenodd" fill="#000099" d="M258.72,165.365c0-4.01,3.16-7.26,7.061-7.26
	c3.91,0,7.069,3.25,7.069,7.26c0,4.01-3.159,7.26-7.069,7.26C261.88,172.625,258.72,169.375,258.72,165.365z"/>
<path fill-rule="evenodd" clip-rule="evenodd" fill="#000099" d="M233.59,187.025c0-4.01,3.16-7.26,7.061-7.26
	c3.909,0,7.069,3.25,7.069,7.26c0,4.01-3.16,7.26-7.069,7.26C236.75,194.285,233.59,191.035,233.59,187.025z"/>
<path fill-rule="evenodd" clip-rule="evenodd" fill="#000099" d="M255.57,215.525c0-4.01,3.17-7.26,7.069-7.26
	c3.91,0,7.07,3.25,7.07,7.26c0,4.01-3.16,7.26-7.07,7.26C258.74,222.785,255.57,219.535,255.57,215.525z"/>
<path fill-rule="evenodd" clip-rule="evenodd" fill="#000099" d="M161.35,197.345c0-2.61,2.08-4.72,4.65-4.72s4.65,2.11,4.65,4.72
	c0,2.6-2.08,4.71-4.65,4.71S161.35,199.945,161.35,197.345z"/>
<path fill-rule="evenodd" clip-rule="evenodd" fill="#000099" d="M157.06,170.055c0-1.96,1.59-3.54,3.54-3.54
	c1.96,0,3.55,1.58,3.55,3.54s-1.59,3.54-3.55,3.54C158.65,173.595,157.06,172.015,157.06,170.055z"/>
<path fill-rule="evenodd" clip-rule="evenodd" fill="#000099" d="M132.45,156.425c0-1.96,1.59-3.54,3.55-3.54
	c1.95,0,3.54,1.58,3.54,3.54s-1.59,3.54-3.54,3.54C134.04,159.965,132.45,158.385,132.45,156.425z"/>
<path fill-rule="evenodd" clip-rule="evenodd" fill="#000099" d="M131.01,199.555c0-2.35,1.91-4.25,4.26-4.25
	c2.34,0,4.25,1.9,4.25,4.25s-1.91,4.25-4.25,4.25C132.92,203.805,131.01,201.905,131.01,199.555z"/>
<path fill-rule="evenodd" clip-rule="evenodd" fill="#000099" d="M178.36,220.375c0-2.35,1.91-4.25,4.25-4.25
	c2.35,0,4.26,1.9,4.26,4.25c0,2.35-1.91,4.25-4.26,4.25C180.27,224.625,178.36,222.725,178.36,220.375z"/>
<path fill-rule="evenodd" clip-rule="evenodd" fill="#000099" d="M197.5,208.395c0-2.6,2.08-4.71,4.65-4.71
	c2.56,0,4.649,2.11,4.649,4.71c0,2.6-2.09,4.71-4.649,4.71C199.58,213.105,197.5,210.995,197.5,208.395z"/>
<path fill-rule="evenodd" clip-rule="evenodd" fill="#000099" d="M206.93,177.975c0-2.6,2.08-4.71,4.641-4.71
	c2.569,0,4.649,2.11,4.649,4.71c0,2.61-2.08,4.72-4.649,4.72C209.01,182.695,206.93,180.585,206.93,177.975z"/>
<path fill-rule="evenodd" clip-rule="evenodd" fill="#000099" d="M173.42,161.675c0-2.61,2.08-4.72,4.65-4.72
	c2.56,0,4.64,2.11,4.64,4.72c0,2.6-2.08,4.71-4.64,4.71C175.5,166.385,173.42,164.275,173.42,161.675z"/>
<polyline fill-rule="evenodd" clip-rule="evenodd" fill="#808080" points="423.37,237.725 424.67,237.465 425.98,237.085 
	428.6,236.195 431.09,235.305 432.4,234.925 433.7,234.665 433.57,234.025 433.57,233.395 433.44,232.755 433.18,232.115 
	432.79,231.355 432.53,230.845 432.27,230.465 432.13,229.955 431.87,229.825 431.74,229.565 431.35,229.315 431.09,229.185 
	430.83,228.935 430.56,228.805 430.43,228.555 430.17,228.295 429.91,227.785 429.39,226.895 428.99,226.255 428.86,225.875 
	428.73,225.625 428.99,225.875 429.12,226.135 429.25,226.255 429.12,226.005 428.86,225.875 428.6,225.365 428.08,224.725 
	427.95,223.715 427.82,223.325 427.68,222.815 427.42,222.305 427.16,221.925 426.9,221.545 426.64,221.035 426.24,219.765 
	425.98,218.235 425.59,216.705 425.33,215.045 424.94,213.645 424.54,212.115 424.02,210.845 423.37,209.825 422.97,208.675 
	422.58,207.535 422.06,206.515 421.53,205.625 420.22,203.715 419.7,202.695 419.18,201.675 419.44,200.905 419.57,200.395 
	420.09,199.375 420.75,198.355 421.14,197.855 421.53,197.345 421.66,196.835 421.79,196.195 421.79,195.815 421.79,195.555 
	421.66,195.175 421.4,194.795 421.01,194.665 420.49,194.665 419.96,194.415 419.18,194.155 418.26,194.415 417.74,194.665 
	417.34,194.925 416.95,195.175 416.69,195.685 416.3,196.065 416.17,196.065 415.9,196.065 415.77,196.065 415.64,195.815 
	415.38,195.305 415.25,194.665 414.99,194.155 414.6,193.645 414.07,193.265 413.68,193.005 413.16,192.885 412.24,192.625 
	411.19,192.375 408.71,192.885 406.22,193.395 403.86,194.025 401.38,194.925 401.51,195.555 401.64,196.195 401.64,196.835 
	401.9,197.345 402.42,198.235 403.08,198.865 403.99,199.505 404.91,200.145 406.74,200.905 407.66,201.415 408.44,201.675 
	408.71,202.305 408.97,202.945 409.1,203.455 409.23,203.965 409.36,204.215 409.49,204.475 409.49,204.725 409.62,204.855 
	409.49,204.725 409.49,204.475 409.36,204.345 409.23,203.965 409.23,203.715 409.23,203.585 409.49,203.715 409.75,204.095 
	409.88,204.475 410.15,204.855 410.41,205.365 410.67,206.005 410.93,206.515 410.93,206.895 411.06,207.405 411.19,207.915 
	411.59,208.935 411.98,209.695 412.24,210.335 412.63,210.845 412.89,211.225 413.16,211.735 413.55,212.245 413.94,212.885 
	414.2,213.645 414.47,214.535 414.6,215.425 414.86,216.325 415.12,217.215 415.25,217.855 415.38,218.355 415.38,218.485 
	415.25,219.125 415.12,219.635 415.12,219.885 414.99,220.145 414.99,220.275 414.99,220.395 414.99,220.275 414.86,220.145 
	414.6,220.145 414.47,220.275 414.2,220.395 413.94,220.655 413.55,221.035 413.29,221.415 413.03,221.795 412.63,222.815 
	412.76,223.715 412.76,224.475 412.76,225.235 412.89,225.625 413.03,226.005 413.16,226.135 413.42,226.385 414.2,226.765 
	414.99,227.025 415.9,227.405 416.82,227.655 417.74,227.915 418.52,228.295 418.92,228.295 419.18,228.425 419.57,228.935 
	419.83,229.565 420.22,230.585 420.49,231.225 420.75,231.735 421.14,232.245 421.53,232.755 421.79,233.775 422.06,234.665 
	422.32,235.555 422.45,236.445 422.71,237.085 422.84,237.725 422.97,238.105 422.97,238.485 423.1,238.745 423.23,238.865 
	423.37,238.745 423.37,238.485 423.37,238.105 423.37,237.725 "/>
<rect x="406.61" y="186.51" fill-rule="evenodd" clip-rule="evenodd" fill="#808080" width="19.763" height="8.535"/>
<path fill-rule="evenodd" clip-rule="evenodd" fill="#808080" d="M347.45,185.075c0-0.68,0.56-1.24,1.24-1.24h4.979
	c0.69,0,1.24,0.56,1.24,1.24v11.66c0,0.69-0.55,1.24-1.24,1.24h-4.979c-0.681,0-1.24-0.55-1.24-1.24V185.075z"/>
<polygon fill-rule="evenodd" clip-rule="evenodd" fill="#808080" points="346.8,193.395 339.47,190.595 346.8,187.785 "/>
<path fill-rule="evenodd" clip-rule="evenodd" fill="#808080" d="M354.91,186.185c0-1.3,1.06-2.35,2.35-2.35h47
	c1.3,0,2.351,1.05,2.351,2.35v9.44c0,1.3-1.051,2.35-2.351,2.35h-47c-1.29,0-2.35-1.05-2.35-2.35V186.185z"/>
<polyline fill-rule="evenodd" clip-rule="evenodd" fill="#808080" points="408.84,180.655 409.1,181.545 409.23,182.435 
	409.36,183.455 409.36,184.345 409.49,185.235 409.49,186.135 409.62,187.145 409.88,188.045 410.28,189.565 410.67,191.095 
	410.67,191.485 410.8,191.865 411.06,192.495 411.19,192.755 411.19,193.005 411.32,193.135 411.32,193.265 411.32,193.775 
	411.32,194.155 411.32,195.175 411.32,195.685 411.32,196.065 411.19,196.575 411.06,196.955 410.93,197.215 410.67,197.345 
	410.41,197.465 410.15,197.595 409.49,197.595 408.84,197.725 408.71,197.725 408.58,197.855 408.18,197.975 408.05,197.975 
	407.92,197.975 407.79,198.105 407.53,198.355 407.4,198.615 407.27,198.745 407.14,198.865 407.14,198.745 407,198.745 
	406.87,198.865 406.74,198.865 406.48,199.125 406.09,199.255 405.43,199.635 404.91,200.275 404.26,200.785 403.6,201.415 
	403.47,201.675 403.47,202.055 403.21,202.565 403.08,202.945 402.95,203.205 402.95,203.455 402.95,203.705 403.08,204.855 
	403.08,205.875 403.21,207.025 403.34,208.165 403.47,209.315 403.86,210.335 404.13,211.485 404.52,212.625 404.78,213.775 
	405.17,214.795 405.43,215.935 405.7,217.085 404.91,217.595 404.13,217.855 403.34,218.235 402.42,218.615 400.72,218.995 
	399.02,219.635 398.76,219.635 398.63,219.765 398.37,219.765 398.24,219.885 398.1,219.885 397.84,220.015 397.97,220.015 
	398.1,220.015 397.84,220.145 397.71,220.145 397.58,220.275 397.32,220.275 397.19,220.395 396.93,220.395 396.8,220.525 
	396.67,220.525 396.27,220.655 396.14,220.655 396.01,220.655 395.88,220.785 395.75,220.655 395.62,220.655 395.23,220.525 
	395.09,220.395 394.96,220.275 394.83,220.145 394.83,220.015 394.83,219.885 394.96,219.765 395.09,219.765 395.23,219.765 
	395.62,219.765 395.75,219.635 395.88,219.635 396.14,219.505 396.27,219.375 396.4,219.255 396.53,219.255 396.67,218.995 
	396.8,218.995 396.8,218.865 396.67,218.865 396.53,218.865 396.4,218.865 396.53,218.865 396.67,218.865 396.8,218.745 
	396.93,218.745 397.19,218.745 397.45,218.615 397.71,218.485 397.97,218.105 398.24,217.855 398.5,217.725 398.63,217.465 
	398.76,217.345 398.76,217.085 398.89,216.955 398.76,216.705 398.76,216.575 398.76,216.195 398.63,215.815 398.5,215.305 
	398.37,214.795 398.24,214.025 398.1,213.265 397.97,212.245 397.84,211.485 397.58,210.585 397.32,209.565 396.93,208.425 
	396.53,207.405 396.14,206.255 395.62,205.495 395.49,205.115 395.23,204.855 395.09,204.605 394.96,204.215 394.7,203.705 
	394.57,203.325 394.44,203.075 394.44,202.815 394.44,202.565 394.7,201.925 394.96,201.165 395.36,200.525 395.75,199.885 
	396.27,199.375 396.8,198.745 397.32,198.355 397.97,198.105 398.63,197.465 399.28,196.955 399.81,196.575 400.33,196.065 
	400.85,195.685 401.25,195.175 401.77,194.535 401.9,194.155 402.16,193.645 402.29,193.135 402.42,192.755 402.55,191.995 
	402.55,191.485 402.69,190.975 402.55,190.335 402.55,189.565 402.42,189.185 402.42,188.555 402.29,187.915 402.16,187.275 
	402.16,187.025 402.16,186.765 401.9,186.135 401.77,185.625 401.51,185.115 401.38,184.725 401.38,184.345 401.25,184.095 
	401.25,183.965 401.25,183.075 401.25,182.185 401.25,181.415 401.25,180.775 401.38,180.275 401.38,179.765 401.38,179.375 
	401.51,179.125 401.64,178.865 401.9,178.745 402.16,178.615 402.55,178.485 402.95,178.485 403.6,178.615 403.86,178.615 
	404.26,178.615 404.65,178.615 405.04,178.745 405.43,178.865 405.7,178.995 405.96,179.125 406.09,179.255 406.35,179.255 
	406.61,179.505 406.87,179.635 407.14,179.885 407.27,180.015 407.4,180.145 407.66,180.395 407.92,180.655 408.05,180.905 
	408.31,181.165 408.44,181.285 408.58,181.415 408.71,181.285 408.84,181.165 408.84,180.905 408.84,180.655 "/>
<polygon fill-rule="evenodd" clip-rule="evenodd" fill="#808080" points="424.53,237.635 426.91,236.905 429.4,245.075 
	427.02,245.795 "/>
<rect x="431.215" y="234.922" transform="matrix(-0.9561 0.2931 -0.2931 -0.9561 916.0373 341.1028)" fill-rule="evenodd" clip-rule="evenodd" fill="#808080" width="2.49" height="8.535"/>
<text transform="matrix(1 0 0 1 223.79 147.7046)"><tspan x="0" y="0" font-family="'ArialMT'" font-size="12">←</tspan><tspan x="12" y="0" font-family="'ArialMT'" font-size="10.56"> </tspan><tspan x="14.934" y="0" font-family="'KozGoPr6N-Regular-90ms-RKSJ-H'" font-size="10.56">粒子飛行中</tspan><tspan x="67.733" y="0" font-family="'KozGoPr6N-Regular-90ms-RKSJ-H'" font-size="10.56">に</tspan><tspan x="78.23" y="0" font-family="'KozGoPr6N-Regular-90ms-RKSJ-H'" font-size="10.56">蒸</tspan><tspan x="88.79" y="0" font-family="'KozGoPr6N-Regular-90ms-RKSJ-H'" font-size="10.56">発</tspan><tspan x="99.245" y="0" font-family="'KozGoPr6N-Regular-90ms-RKSJ-H'" font-size="10.56">し</tspan><tspan x="109.763" y="0" font-family="'KozGoPr6N-Regular-90ms-RKSJ-H'" font-size="10.56">に</tspan><tspan x="120.26" y="0" font-family="'KozGoPr6N-Regular-90ms-RKSJ-H'" font-size="10.56">くい</tspan></text>
<polygon fill-rule="evenodd" clip-rule="evenodd" fill="#000099" points="145.05,139.125 150.72,130.165 156.38,139.125 
	153.83,139.125 153.83,144.345 147.61,144.345 147.61,139.125 "/>
<polygon fill-rule="evenodd" clip-rule="evenodd" fill="#000099" points="194.64,146.795 200.31,137.845 205.97,146.795 
	203.42,146.795 203.42,152.015 197.2,152.015 197.2,146.795 "/>
<polygon fill-rule="evenodd" clip-rule="evenodd" fill="#000099" points="171.94,143.245 177.61,134.285 183.28,143.245 
	180.72,143.245 180.72,148.465 174.5,148.465 174.5,143.245 "/>
<polygon fill-rule="evenodd" clip-rule="evenodd" fill="#CC0000" points="166.02,15.075 173.11,3.885 180.19,15.075 176.99,15.075 
	176.99,32.225 169.22,32.225 169.22,15.075 "/>
<polygon fill-rule="evenodd" clip-rule="evenodd" fill="#000099" points="111.89,201.195 111.89,158.675 123.23,201.195 "/>
<text transform="matrix(1 0 0 1 110.5747 257.7646)" fill="#CC0000" font-family="'KozGoPr6N-Regular-90ms-RKSJ-H'" font-size="12">水性塗料は塗装環境（気温＆湿度）に影響されタレやすい</text>
<polyline fill-rule="evenodd" clip-rule="evenodd" fill="#CC0000" points="423.545,262.385 108.024,262.385 108.024,261.784 
	423.545,261.784 "/>
</svg>
