<?xml version="1.0" standalone="no"?>
<!DOCTYPE svg PUBLIC "-//W3C//DTD SVG 1.1//EN" "http://www.w3.org/Graphics/SVG/1.1/DTD/svg11.dtd" >
<svg xmlns="http://www.w3.org/2000/svg" xmlns:xlink="http://www.w3.org/1999/xlink" version="1.1">
<metadata>
Created by FontForge 20170910 at Wed Jul 12 19:39:13 2017
 By Jimmy Wärting
Copyright (c) 2006 - 2009 by Jeremie Hornus. All rights reserved.
</metadata>
<defs>
<font id="Kefa-Regular" horiz-adv-x="1231" >
  <font-face 
    font-family="Kefa"
    font-weight="400"
    font-stretch="normal"
    units-per-em="2048"
    panose-1="2 0 5 6 0 0 0 2 0 4"
    ascent="1638"
    descent="-410"
    x-height="980"
    cap-height="1365"
    bbox="-185.128 -460 3705 1956"
    underline-thickness="102"
    underline-position="-205"
    unicode-range="U+0020-FB02"
  />
<missing-glyph horiz-adv-x="450" 
 />
    <glyph glyph-name="fi" unicode="fi" horiz-adv-x="1308" 
d="M970 980q79 0 107 -7.5t32 -28t4 -70.5v-445q1 -187 8 -326h106q12 -26 12 -56q0 -27 -11 -37t-42 -10h-393q-13 32 -13 60q0 22 11 32.5t36 10.5h74q8 139 8 326q0 218 -4 294.5t-16.5 105.5t-36.5 36t-59 7h-377v-443q1 -187 8 -326h141q12 -26 12 -56q0 -27 -11 -37
t-42 -10h-428q-13 32 -13 60q0 22 11 32.5t36 10.5h74q8 139 8 326v433h-117q-12 36 -12 70q0 25 11 36.5t37 11.5h81q3 251 109.5 348t384.5 97q254 0 328.5 -25t74.5 -95q0 -80 -68 -136q-251 127 -410 127q-134 0 -174.5 -57.5t-40.5 -209.5v-49h554z" />
    <glyph glyph-name="fl" unicode="fl" horiz-adv-x="1369" 
d="M131 980h81q3 251 101 348t311 97q168 0 364 -50l35 50q84 0 112 -7.5t32 -28t4 -70.5v-837q0 -240 7 -379h111q13 -26 13 -56q0 -27 -11 -37t-43 -10h-398q-12 32 -12 60q0 22 10.5 32.5t36.5 10.5h74q7 139 7 470v638q-234 85 -379 85q-116 0 -143.5 -60t-27.5 -200
v-56h262q12 -33 12 -70q0 -29 -11 -38.5t-44 -9.5h-219v-433q1 -187 8 -326h146q12 -26 12 -56q0 -27 -11 -37t-42 -10h-433q-13 32 -13 60q0 22 11 32.5t36 10.5h74q8 139 8 326v433h-117q-12 36 -12 70q0 25 11 36.5t37 11.5z" />
    <glyph glyph-name=".notdef" horiz-adv-x="450" 
 />
    <glyph glyph-name=".null" horiz-adv-x="0" 
 />
    <glyph glyph-name="nonmarkingreturn" horiz-adv-x="635" 
 />
    <glyph glyph-name="space" unicode=" " horiz-adv-x="525" 
 />
    <glyph glyph-name="exclam" unicode="!" horiz-adv-x="699" 
d="M377 -20q-67 0 -100 29.5t-33 85.5t36.5 86t96.5 30q66 0 99 -30t33 -86t-36.5 -85.5t-95.5 -29.5zM318 356q-37 816 -59 994q53 15 140 15q88 0 93.5 -56t-45.5 -953h-129z" />
    <glyph glyph-name="quotedbl" unicode="&#x22;" horiz-adv-x="859" 
d="M176 983q-19 249 -41 423q48 19 120 19q78 0 83.5 -56t-40.5 -386h-122zM556 983q-19 249 -41 423q48 19 120 19q78 0 83.5 -56t-40.5 -386h-122z" />
    <glyph glyph-name="numbersign" unicode="#" 
d="M993 1385q76 -2 107 -14.5t38 -36.5t-6 -59l-79 -242h149q13 -40 13 -85q0 -35 -15 -51t-55 -16h-141l-113 -348h169q12 -40 12 -85q0 -35 -15 -51t-55 -16h-160l-127 -391q-75 2 -106.5 14t-38 36t5.5 60l91 281h-307l-127 -391q-75 2 -106.5 14t-38 36t5.5 60l91 281
h-149q-12 47 -12 80q0 41 14.5 56.5t43.5 15.5h152l113 348h-168q-13 47 -13 80q0 41 14.5 56.5t44.5 15.5h172l114 352q76 -2 107 -14.5t38 -36.5t-6 -59l-79 -242h308zM409 533h307l113 348h-307z" />
    <glyph glyph-name="dollar" unicode="$" 
d="M602 1242q-118 -3 -172.5 -54t-54.5 -140q0 -90 55.5 -140.5t171.5 -94.5v429zM657 -213q-26 -13 -79 -13q-34 0 -45 15t-11 55v136q-182 2 -281 29t-99 103q0 69 59 122q150 -83 321 -101v485q-205 66 -284.5 152.5t-79.5 228.5q0 176 121.5 274t297.5 107v191
q40 12 73 12q41 0 51.5 -14.5t10.5 -43.5v-141q180 -3 260 -26.5t80 -96.5q0 -67 -54 -119q-149 68 -286 87v-450q180 -59 284.5 -137.5t104.5 -262.5q0 -182 -119.5 -281.5t-324.5 -112.5v-198zM632 582v-456q134 4 193 50t59 146q0 116 -78 171t-174 89z" />
    <glyph glyph-name="percent" unicode="%" horiz-adv-x="2171" 
d="M820 -54l-51 -110q-30 -1 -77 22q-31 14 -35 32t13 55l741 1590q43 -6 73 -20q36 -18 39.5 -35.5t-8.5 -43.5zM491 627q-190 0 -270 84t-80 259q0 186 99.5 300.5t298.5 114.5q188 0 268 -84t80 -265q0 -180 -99.5 -294.5t-296.5 -114.5zM513 1258q-79 0 -109.5 -58
t-30.5 -181q0 -156 34 -209.5t110 -53.5q79 0 108.5 57.5t29.5 173.5q0 157 -34.5 214t-107.5 57zM1635 -13q-190 0 -270 84t-80 258q0 186 99.5 300.5t298.5 114.5q188 0 268 -84t80 -265q0 -180 -99.5 -294t-296.5 -114zM1657 617q-79 0 -109.5 -58t-30.5 -181
q0 -155 34 -209t110 -54q79 0 108.5 58t29.5 173q0 158 -34.5 214.5t-107.5 56.5z" />
    <glyph glyph-name="ampersand" unicode="&#x26;" horiz-adv-x="1452" 
d="M604 1385q173 0 266 -69t93 -188q0 -98 -69 -191.5t-228 -221.5l318 -311q61 119 81 273q77 0 114 -14.5t37 -59.5q0 -96 -83 -242q-17 -31 -39 -60q123 -116 148 -135q44 -34 78.5 -48.5t80.5 -14.5q17 -61 -3.5 -87t-113.5 -26q-128 0 -159 19t-70 62q-16 18 -94 96
q-43 -36 -94 -70q-182 -117 -419 -117q-177 0 -265 70t-88 203q0 168 159 301q103 88 170 142q-98 100 -141 150q-88 104 -88 212q0 150 118 238.5t291 88.5zM523 598q-71 -60 -117 -104q-85 -82 -85 -184q0 -88 59 -142t167 -54q155 0 273 91q29 23 54 47zM458 933
q27 -34 109 -120q46 40 98 92q93 92 93 175q0 77 -51 124t-131 47q-79 0 -127.5 -45t-49.5 -121q0 -74 59 -152z" />
    <glyph glyph-name="quotesingle" unicode="'" horiz-adv-x="478" 
d="M176 983q-19 249 -41 423q48 19 120 19q78 0 83.5 -56t-40.5 -386h-122z" />
    <glyph glyph-name="parenleft" unicode="(" horiz-adv-x="646" 
d="M59 597q0 458 346 972l130 -77q-63 -115 -127 -277.5t-95.5 -322t-31.5 -297.5q0 -139 31.5 -298t95.5 -321.5t127 -277.5l-130 -77q-346 514 -346 976z" />
    <glyph glyph-name="parenright" unicode=")" horiz-adv-x="646" 
d="M587 597q0 -462 -347 -976l-130 77q63 115 127.5 277.5t95.5 321.5t31 298q0 138 -31 297.5t-95.5 322t-127.5 277.5l130 77q347 -514 347 -972z" />
    <glyph glyph-name="asterisk" unicode="*" horiz-adv-x="1283" 
d="M562 1406q47 19 104 19q78 0 84 -56q5 -54 -69 -363q195 84 329 171q32 -39 50 -94q24 -74 -27 -97q-50 -22 -368 -47q141 -160 265 -259q-27 -44 -74 -77q-62 -46 -100 -5q-36 40 -158 336q-109 -184 -166 -332q-49 12 -96 46q-62 46 -35 94q27 47 271 254
q-209 47 -368 55q-3 51 15 106q24 73 78 61q53 -11 326 -177q-21 211 -61 365z" />
    <glyph glyph-name="plus" unicode="+" 
d="M697 609v-411q-45 -12 -98 -12q-34 0 -50 15t-16 55v353h-381q-12 46 -12 79q0 41 14.5 57t43.5 16h335v411q59 12 92 12q41 0 56.5 -14.5t15.5 -43.5v-365h381q13 -39 13 -84q0 -35 -15 -51.5t-55 -16.5h-324z" />
    <glyph glyph-name="comma" unicode="," horiz-adv-x="777" 
d="M398 211q67 0 101 -28.5t34 -92.5q0 -105 -90.5 -241.5t-154.5 -136.5q-48 0 -64 54q104 96 150 213q-118 25 -118 118q0 55 35.5 84.5t106.5 29.5z" />
    <glyph glyph-name="hyphen" unicode="-" horiz-adv-x="756" 
d="M148 602h506q13 -35 13 -86q0 -40 -15 -53.5t-55 -13.5h-495q-12 41 -12 86q0 41 14.5 54t43.5 13z" />
    <glyph glyph-name="period" unicode="." horiz-adv-x="777" 
d="M388 -20q-76 0 -111.5 29.5t-35.5 85.5t39 86t108 30q76 0 112 -30t36 -86t-39 -85.5t-109 -29.5z" />
    <glyph glyph-name="slash" unicode="/" horiz-adv-x="786" 
d="M188 -235l-42 -116q-43 3 -129 34q-32 11 -37.5 29.5t7.5 55.5l652 1788q56 -8 124 -32q38 -14 43 -31t-5 -46z" />
    <glyph glyph-name="zero" unicode="0" 
d="M578 -20q-248 0 -372.5 125t-124.5 485q0 429 146 612t430 183q242 0 366.5 -125t124.5 -500q0 -414 -146 -597t-424 -183zM609 1239q-136 0 -209.5 -112.5t-73.5 -424.5q0 -343 72.5 -459.5t227.5 -116.5q135 0 206 112.5t71 409.5q0 348 -73 469.5t-221 121.5z" />
    <glyph glyph-name="one" unicode="1" 
d="M511 103q8 139 8 778q0 191 -4 232.5t-18 61.5t-44 26t-86 6h-75q-12 22 -12 46q0 55 139 83.5t223 28.5q43 0 63.5 -9.5t27.5 -35.5t7 -81v-435q0 -562 7 -701h228q13 -26 13 -56q0 -27 -11 -37t-43 -10h-646q-13 32 -13 60q0 22 11 32.5t36 10.5h189z" />
    <glyph glyph-name="two" unicode="2" 
d="M892 0h-740q-20 50 -20 119q0 174 103.5 293.5t332.5 286t229 318.5q0 122 -76 177t-197 55q-89 0 -157 -12q-29 -58 -34.5 -62t-54.5 -17.5t-72.5 5t-45 68.5t-21.5 80q0 20 12.5 27t134.5 27t290 20q214 0 338.5 -71.5t124.5 -269.5q0 -118 -63 -225.5t-329 -287.5
t-251 -402h80q322 0 523 92q41 -67 41 -128q0 -52 -29 -72.5t-119 -20.5z" />
    <glyph glyph-name="three" unicode="3" 
d="M589 1385q190 0 307 -75t117 -255q0 -252 -271 -358q310 -63 310 -304q0 -189 -157.5 -301t-448.5 -112q-203 0 -262 18.5t-59 79.5q0 58 44 119q196 -81 339 -81q138 0 219.5 56.5t81.5 175.5q0 133 -95 204t-258 71h-39q-25 0 -37 12t-12 41q0 45 22 83h82
q160 0 229.5 62t69.5 173q0 135 -68.5 195t-178.5 60q-83 0 -149 -12q-29 -58 -34.5 -62t-54.5 -17.5t-72.5 5t-45 68.5t-21.5 80q0 20 12.5 27t134.5 27t295 20z" />
    <glyph glyph-name="four" unicode="4" 
d="M943 103h153q12 -26 12 -56q0 -27 -11 -37t-42 -10h-527q-12 32 -12 60q0 22 10.5 32.5t36.5 10.5h154q7 131 7 227h-632q-20 36 -20 79q0 37 22 79t310 459.5t301 427.5t48 10h91q50 0 71 -15.5t21 -74.5v-836h135q12 -40 12 -75q0 -29 -10.5 -41.5t-44.5 -12.5h-92
q4 -165 7 -227zM724 459q0 697 -6.5 697t-418.5 -697h425z" />
    <glyph glyph-name="five" unicode="5" 
d="M1014 1365q12 -32 12 -78q0 -29 -15 -40t-50 -11h-512l-35 -435q135 26 238 26q191 0 304.5 -83t113.5 -277q0 -227 -157 -357t-468 -130q-183 0 -239.5 22.5t-56.5 85.5q0 56 43 109q177 -81 314 -81q166 0 243.5 72.5t77.5 205.5q0 157 -82 223.5t-205 66.5
q-94 0 -194 -26h-113q-28 36 -23 100l40 520q3 47 22.5 67t58.5 20h683z" />
    <glyph glyph-name="six" unicode="6" 
d="M698 837q206 0 312 -84t106 -288q0 -226 -140 -355.5t-406 -129.5q-243 0 -343 123t-100 417q0 443 162 654t494 211q153 0 209 -21.5t56 -76.5q0 -56 -44 -115q-154 70 -306 70q-172 0 -249 -139q-62 -108 -74 -330q165 64 323 64zM432 225q62 -99 209 -99q113 0 172 57
t59 202q0 177 -69 246.5t-209 69.5q-116 0 -222 -40q0 -335 60 -436z" />
    <glyph glyph-name="seven" unicode="7" 
d="M232 1365h787q43 0 60 -14.5t17 -43.5q0 -72 -53 -185.5t-252.5 -462t-184.5 -659.5h-139q-109 0 -109 106q0 119 77.5 289.5t236.5 460.5t164 379h-143q-334 0 -541 -84q-42 67 -42 130q0 42 27.5 63t94.5 21z" />
    <glyph glyph-name="eight" unicode="8" 
d="M657 1385q205 0 313 -77.5t108 -204.5q0 -210 -303 -371q183 -74 254 -143q93 -89 93 -211q0 -170 -150.5 -284t-420.5 -114q-233 0 -341 76.5t-108 217.5q0 219 310 416q-269 141 -269 335q0 160 142.5 260t371.5 100zM533 636q-186 -140 -186 -304q0 -93 68.5 -149.5
t200.5 -56.5q122 0 191.5 55.5t69.5 158.5q0 182 -344 296zM833 1047q0 90 -59.5 141t-168.5 51t-163 -49.5t-54 -132.5q0 -175 263 -278q182 114 182 268z" />
    <glyph glyph-name="nine" unicode="9" 
d="M525 528q-228 0 -325 94t-97 274q0 220 139 354.5t386 134.5q257 0 363.5 -136.5t106.5 -442.5q0 -428 -173.5 -627t-560.5 -199q-169 0 -202 19t-33 67q0 58 39 109q118 -49 245 -49q220 0 330 122q81 90 103 322q-155 -42 -321 -42zM854 762q0 237 -64 357t-212 120
q-126 0 -178 -70.5t-52 -195.5q0 -182 97.5 -248.5t406.5 -36.5q2 35 2 74z" />
    <glyph glyph-name="colon" unicode=":" horiz-adv-x="777" 
d="M388 -20q-76 0 -111.5 29.5t-35.5 85.5t39 86t108 30q76 0 112 -30t36 -86t-39 -85.5t-109 -29.5zM388 759q-76 0 -111.5 29.5t-35.5 85.5t39 86t108 30q76 0 112 -30t36 -86t-39 -85.5t-109 -29.5z" />
    <glyph glyph-name="semicolon" unicode=";" horiz-adv-x="777" 
d="M388 759q-76 0 -111.5 29.5t-35.5 85.5t39 86t108 30q76 0 112 -30t36 -86t-39 -85.5t-109 -29.5zM398 211q67 0 101 -28.5t34 -92.5q0 -105 -90.5 -241.5t-154.5 -136.5q-48 0 -64 54q104 96 150 213q-118 25 -118 118q0 55 35.5 84.5t106.5 29.5z" />
    <glyph glyph-name="less" unicode="&#x3c;" 
d="M1003 1114l42 -66q43 -73 -5 -110.5t-707 -290.5l753 -299l-30 -75q-23 -58 -78 -52t-424.5 183t-385.5 198t-12 81z" />
    <glyph glyph-name="equal" unicode="=" 
d="M152 809q-12 46 -12 79q0 41 14.5 57t43.5 16h880q13 -39 13 -84q0 -35 -15 -51.5t-55 -16.5h-869zM152 349q-12 46 -12 79q0 41 14.5 57t43.5 16h880q13 -39 13 -84q0 -35 -15 -51.5t-55 -16.5h-869z" />
    <glyph glyph-name="greater" unicode="&#x3e;" 
d="M1088 683q4 -60 -12 -81t-385.5 -198t-424.5 -183t-78 52l-30 75l753 299q-659 253 -707 290.5t-5 110.5l42 66z" />
    <glyph glyph-name="question" unicode="?" horiz-adv-x="1106" 
d="M515 1249q-97 0 -152 -12q-28 -58 -34 -62t-57.5 -17.5t-72.5 5t-42.5 68.5t-21.5 80q0 20 16.5 31t134.5 27t287 16q174 0 293.5 -65.5t119.5 -234.5q0 -177 -182.5 -327.5t-226 -222t-43.5 -148.5v-34q-72 -17 -153 -17q-70 0 -70 73q0 60 45.5 137.5t216.5 215.5
t171 271q0 111 -64.5 163.5t-164.5 52.5zM473 -20q-76 0 -111.5 29.5t-35.5 85.5t39 86t108 30q76 0 112 -30t36 -86t-39 -85.5t-109 -29.5z" />
    <glyph glyph-name="at" unicode="@" horiz-adv-x="1923" 
d="M891 861q-61 0 -116 -12q-28 -58 -34 -62t-57.5 -17.5t-72.5 5t-42.5 67.5t-21.5 79q0 20 13 27t134.5 27t255.5 20q177 0 261.5 -61t84.5 -224v-388q-1 -120 28 -169.5t109 -49.5q102 0 129 89.5t27 410.5q0 449 -167 568.5t-484 119.5q-350 0 -486.5 -101.5
t-136.5 -413.5q0 -162 30 -289q-64 -26 -133 -26q-56 0 -79 37.5t-23 180.5q0 373 197 559.5t715 186.5q414 2 593 -131.5t179 -615.5q0 -352 -97.5 -520t-326.5 -168q-72 0 -120.5 10t-130.5 80q-85 -49 -173 -74.5t-173 -25.5q-136 0 -202 63.5t-66 188.5q0 153 109.5 234
t337.5 81h147q-7 176 -51 245t-157 69zM1099 418q-87 15 -178 15q-114 0 -160 -38t-46 -120q0 -80 41 -120.5t126 -40.5q65 0 122.5 26t76 72.5t18.5 146.5v59z" />
    <glyph glyph-name="A" unicode="A" horiz-adv-x="1356" 
d="M657 1380q113 0 128 -8.5t202 -559t253 -709.5h88q12 -30 12 -58q0 -25 -10 -35t-35 -10h-415q-13 34 -13 63q0 21 10.5 30.5t34.5 9.5h54q-19 89 -96 342h-451q-70 -251 -84 -342h93q12 -30 12 -58q0 -25 -10 -35t-35 -10h-368q-12 34 -12 63q0 21 10.5 30.5t34.5 9.5
h58q66 182 219 657.5t189 547.5t131 72zM454 574h377q-182 579 -195.5 579t-181.5 -579z" />
    <glyph glyph-name="B" unicode="B" horiz-adv-x="1280" 
d="M145 1365h445q276 0 408 -77.5t132 -233.5q0 -239 -286 -345q351 -53 351 -320q0 -176 -142 -282.5t-498 -106.5l-442 -1q-13 34 -13 64q0 20 10.5 29.5t34.5 9.5h74q7 140 7 604q0 417 -7 556h-106q-13 34 -13 63q0 21 10.5 30.5t34.5 9.5zM448 632v-238
q0 -176 25.5 -212t185.5 -36q156 0 223.5 54.5t67.5 172.5q0 130 -86 199.5t-262 69.5q-84 0 -154 -10zM448 776q58 -8 129 -8q164 0 236 58t72 168q0 116 -71.5 170.5t-223.5 54.5q-72 0 -137 -10q-4 -128 -5 -433z" />
    <glyph glyph-name="C" unicode="C" horiz-adv-x="1212" 
d="M745 126q178 0 320 92q53 -55 53 -115q0 -56 -129 -89.5t-310 -33.5q-289 0 -426 136t-137 494q0 399 161 587t474 188q174 0 263 -28t89 -95q0 -55 -55 -109q-180 86 -345 86q-170 0 -256 -122.5t-86 -414.5q0 -323 90.5 -449.5t293.5 -126.5z" />
    <glyph glyph-name="D" unicode="D" horiz-adv-x="1375" 
d="M585 1219q-76 0 -130 -10q-7 -151 -7 -742q0 -248 26 -284.5t181 -36.5q181 0 270.5 110.5t89.5 411.5q0 309 -104.5 430t-325.5 121zM145 1365h404q403 0 557 -144.5t154 -475.5q0 -371 -156 -558t-515 -187l-476 -1q-13 34 -13 64q0 20 10.5 29.5t34.5 9.5h74
q7 140 7 714q0 307 -7 446h-106q-13 34 -13 63q0 21 10.5 30.5t34.5 9.5z" />
    <glyph glyph-name="E" unicode="E" horiz-adv-x="1198" 
d="M145 1365h856q57 0 78 -16t21 -64q0 -61 -38 -126q-189 77 -520 77h-87q-7 -113 -6 -449h523q13 -39 13 -82q0 -28 -10 -37.5t-39 -9.5h-488q1 -432 7 -529h140q319 0 501 70q32 -55 32 -114q0 -44 -29 -64.5t-118 -20.5l-868 -1q-13 34 -13 64q0 20 10.5 29.5t34.5 9.5
h74q7 140 7 714q0 307 -7 446h-106q-13 34 -13 63q0 21 10.5 30.5t34.5 9.5z" />
    <glyph glyph-name="F" unicode="F" horiz-adv-x="1119" 
d="M145 1365h856q57 0 78 -16t21 -64q0 -61 -38 -126q-189 77 -520 77h-87q-7 -113 -7 -479h494q13 -39 13 -82q0 -28 -10 -37.5t-39 -9.5h-458q1 -410 7 -525h161q12 -30 12 -58q0 -25 -10 -35t-35 -10h-470q-13 34 -13 63q0 21 10.5 30.5t34.5 9.5h74q7 139 7 713
q0 307 -7 446h-106q-13 34 -13 63q0 21 10.5 30.5t34.5 9.5z" />
    <glyph glyph-name="G" unicode="G" horiz-adv-x="1298" 
d="M965 166q0 189 -4.5 256.5t-12.5 88t-24 27.5t-40 7q-13 26 -13 51q0 30 15 41t55 11h164q50 0 66 -16.5t16 -66.5v-246q0 -112 12 -312q-41 -7 -94 -7q-16 0 -60 70q-192 -90 -379 -90q-284 0 -417 143.5t-133 495.5q0 390 163.5 578t481.5 188q187 0 272 -28t85 -90
q0 -63 -49 -124q-191 96 -363 96q-168 0 -256.5 -117.5t-88.5 -412.5q0 -334 87 -458.5t285 -124.5q117 0 232 40z" />
    <glyph glyph-name="H" unicode="H" horiz-adv-x="1502" 
d="M145 1365h421q12 -30 12 -58q0 -25 -10 -35t-35 -10h-71q-7 -139 -7 -475h593q-1 336 -8 475h-103q-13 34 -13 63q0 21 10.5 30.5t34.5 9.5h421q12 -30 12 -58q0 -25 -10 -35t-35 -10h-81q-7 -139 -7 -458q0 -562 8 -701h113q12 -30 12 -58q0 -25 -10 -35t-35 -10h-420
q-13 34 -13 63q0 21 10.5 30.5t34.5 9.5h71q7 118 8 555h-593q1 -436 8 -555h103q12 -30 12 -58q0 -25 -10 -35t-35 -10h-420q-13 34 -13 63q0 21 10.5 30.5t34.5 9.5h81q8 139 8 713q-1 307 -8 446h-113q-13 34 -13 63q0 21 10.5 30.5t34.5 9.5z" />
    <glyph glyph-name="I" unicode="I" horiz-adv-x="708" 
d="M145 1365h451q12 -30 12 -58q0 -25 -10 -35t-35 -10h-91q-7 -139 -7 -458q0 -562 8 -701h123q12 -30 12 -58q0 -25 -10 -35t-35 -10h-450q-13 34 -13 63q0 21 10.5 30.5t34.5 9.5h91q8 139 8 713q-1 307 -8 446h-123q-13 34 -13 63q0 21 10.5 30.5t34.5 9.5z" />
    <glyph glyph-name="J" unicode="J" horiz-adv-x="700" 
d="M152 1365h451q12 -30 12 -58q0 -25 -10 -35t-35 -10l-90 -1q-8 -138 -8 -457v-748q0 -156 -28.5 -234.5t-105 -126.5t-227.5 -48q-97 0 -127 18.5t-30 64.5q0 60 33 106q173 -57 218.5 -30.5t45.5 259.5v751q0 307 -8 446h-123q-13 34 -13 63q0 21 10.5 30.5t34.5 9.5z
" />
    <glyph glyph-name="K" unicode="K" horiz-adv-x="1359" 
d="M939 1364l361 1q13 -30 13 -58q0 -25 -10 -35t-36 -10h-54l-437 -458q285 -447 350 -540.5t104.5 -127t94.5 -33.5q19 -69 -4 -96t-121 -27q-120 0 -163.5 27t-91 122t-300.5 544l-179 -213q1 -246 7 -357h108q12 -30 12 -58q0 -25 -10 -35t-35 -10h-435q-13 34 -13 63
q0 21 10.5 30.5t34.5 9.5h91q8 139 8 713q0 307 -8 446h-123q-12 34 -12 63q0 21 10.5 30.5t34.5 9.5h435q13 -30 13 -58q0 -25 -10 -35t-36 -10h-75q-7 -139 -7 -597q114 120 262 282.5t266 313.5h-87q-13 34 -13 64q0 20 10.5 29.5t34.5 9.5z" />
    <glyph glyph-name="L" unicode="L" horiz-adv-x="1077" 
d="M455 129h85q304 0 486 70q32 -55 32 -114q0 -44 -29 -64.5t-118 -20.5l-798 -1q-13 34 -13 64q0 20 10.5 29.5t34.5 9.5h74q7 140 7 714q0 307 -8 446h-105q-13 34 -13 63q0 21 10.5 30.5t34.5 9.5h433q13 -30 13 -58q0 -25 -10 -35t-36 -10h-90q-7 -139 -7 -458
q0 -562 7 -675z" />
    <glyph glyph-name="M" unicode="M" horiz-adv-x="1722" 
d="M158 1365h411q48 -174 134 -442t134 -437.5t55 -169.5t134 431t170 618h405q12 -30 12 -58q0 -25 -10 -35t-35 -10h-66q-4 -184 6 -602t20 -557h97q13 -30 13 -58q0 -25 -10 -35t-36 -10h-392q-13 34 -13 63q0 21 10.5 30.5t34.5 9.5h59q8 174 -7 1058
q-78 -300 -180 -611t-135 -368t-107 -57q-106 0 -118.5 8t-134 349.5t-213.5 683.5q-3 -889 4 -1063h93q12 -30 12 -58q0 -25 -10 -35t-35 -10h-368q-12 34 -12 63q0 21 10.5 30.5t34.5 9.5h73q11 139 20.5 557t7.5 602h-101q-12 34 -12 63q0 21 10.5 30.5t34.5 9.5z" />
    <glyph glyph-name="N" unicode="N" horiz-adv-x="1507" 
d="M165 1365h318q161 -291 303.5 -530.5t310.5 -571.5v553q0 307 -7 446h-103q-13 34 -13 63q0 21 10.5 30.5t34.5 9.5h376q12 -30 12 -58q0 -25 -10 -35t-35 -10h-81q-7 -139 -7 -458v-723q0 -59 -17.5 -75t-81.5 -16q-124 0 -142.5 9.5t-243 371.5t-376.5 677
q0 -806 7 -945h98q13 -30 13 -58q0 -25 -10 -35t-36 -10h-372q-13 34 -13 63q0 21 10.5 30.5t34.5 9.5h84q7 139 7 713q0 307 -8 446h-95q-13 34 -13 63q0 21 10.5 30.5t34.5 9.5z" />
    <glyph glyph-name="O" unicode="O" horiz-adv-x="1411" 
d="M116 615q0 394 163.5 582t461.5 188q272 0 414 -136.5t142 -498.5q0 -394 -163.5 -582t-461.5 -188q-272 0 -414 136t-142 499zM361 707q0 -334 90.5 -457.5t268.5 -123.5q165 0 248.5 125t83.5 407q0 338 -90.5 459.5t-268.5 121.5q-165 0 -248.5 -125t-83.5 -407z" />
    <glyph glyph-name="P" unicode="P" horiz-adv-x="1237" 
d="M546 641q220 0 308 63t88 213q0 144 -83 223t-272 79q-63 0 -114 -10q-8 -86 -8 -405v-163h81zM236 1262h-116q-12 34 -12 63q0 21 10.5 30.5t34.5 9.5h400q375 0 504.5 -92t129.5 -301q0 -217 -155 -337t-516 -120h-51q2 -308 8 -412h153q12 -30 12 -58q0 -25 -10 -35
t-35 -10h-480q-13 34 -13 63q0 21 10.5 30.5t34.5 9.5h91q8 139 8 713q0 307 -8 446z" />
    <glyph glyph-name="Q" unicode="Q" horiz-adv-x="1413" 
d="M547 -148q95 0 291.5 -20t294.5 -20q91 0 158 20q23 -43 23 -97q0 -61 -28 -79.5t-91 -18.5q-114 0 -335 39.5t-330 39.5q-93 0 -162 -24q-23 44 -23 88q0 34 12 46.5t52.5 19t137.5 6.5zM116 605q0 404 163.5 592t461.5 188q272 0 414 -136.5t142 -508.5
q0 -404 -163.5 -592t-461.5 -188q-272 0 -414 136t-142 509zM361 697q0 -344 90.5 -467.5t268.5 -123.5q165 0 248.5 125t83.5 417q0 348 -90.5 469.5t-268.5 121.5q-165 0 -248.5 -125t-83.5 -417z" />
    <glyph glyph-name="R" unicode="R" horiz-adv-x="1339" 
d="M465 701h84q174 0 263.5 61t89.5 182q0 142 -81 208.5t-232 66.5q-69 0 -116 -10q-8 -86 -8 -405v-103zM473 103h143q12 -30 12 -58q0 -25 -10 -35t-35 -10h-470q-13 34 -13 63q0 21 10.5 30.5t34.5 9.5h91q8 139 8 713q0 307 -8 446h-116q-12 34 -12 63q0 21 10.5 30.5
t34.5 9.5h431q305 0 434 -84t129 -265q0 -277 -332 -378q95 -29 154 -106.5t124.5 -221.5t103 -176.5t106.5 -30.5q21 -72 -5 -97.5t-129 -25.5q-119 0 -171 31t-108.5 220.5t-119.5 266.5t-182 77q-62 0 -123 -10q2 -345 8 -462z" />
    <glyph glyph-name="S" unicode="S" horiz-adv-x="1167" 
d="M621 1385q217 0 301 -25.5t84 -98.5q0 -67 -54 -119q-210 96 -390 96q-127 0 -179.5 -50.5t-52.5 -139.5q0 -93 62.5 -148t237.5 -110q207 -62 313.5 -142.5t112.5 -260.5q0 -201 -137.5 -304t-420.5 -103q-197 0 -299 28t-102 104q0 69 58 122q198 -108 412 -108
q147 0 209 48t62 148q0 120 -89.5 180t-285.5 122q-190 58 -270.5 145.5t-80.5 229.5q0 177 131.5 281.5t377.5 104.5z" />
    <glyph glyph-name="T" unicode="T" horiz-adv-x="1245" 
d="M489 103q8 139 8 713q0 307 -8 420q-355 -15 -401 -15q-44 0 -61 14t-17 53q0 56 28 122q170 -45 493 -45h625q44 0 61.5 -14.5t17.5 -52.5q0 -70 -41 -133q-167 71 -434 71h-34q-8 -113 -8 -432q0 -562 8 -701h143q12 -30 12 -58q0 -25 -10 -35t-35 -10h-490
q-13 34 -13 63q0 21 10.5 30.5t34.5 9.5h111z" />
    <glyph glyph-name="U" unicode="U" horiz-adv-x="1359" 
d="M986 1262h-113q-13 34 -13 63q0 21 10.5 30.5t34.5 9.5h386q12 -30 12 -58q0 -25 -10 -35t-35 -10h-71q-5 -139 -4 -672q0 -359 -139 -484.5t-418 -125.5q-239 0 -336 91t-97 359q0 693 -8 832h-88q-12 34 -12 63q0 21 10.5 30.5t34.5 9.5h390q13 -30 13 -58
q0 -25 -10 -35t-36 -10h-65q-8 -164 -8 -675q0 -288 72.5 -374.5t213.5 -86.5q165 0 228 87t63 328q0 557 -5 721z" />
    <glyph glyph-name="V" unicode="V" horiz-adv-x="1324" 
d="M930 1365h363q12 -30 12 -58q0 -25 -10 -35t-35 -10h-46q-60 -182 -211.5 -666t-189 -547.5t-137.5 -63.5q-116 0 -128.5 8t-190.5 558.5t-246 710.5h-78q-13 34 -13 63q0 21 10.5 30.5t34.5 9.5h403q13 -30 13 -58q0 -25 -10 -35t-36 -10h-50q28 -127 169.5 -591.5
t155.5 -464.5t139 462t137 594h-88q-13 34 -13 63q0 21 10.5 30.5t34.5 9.5z" />
    <glyph glyph-name="W" unicode="W" horiz-adv-x="1870" 
d="M1490 1365h343q13 -30 13 -58q0 -25 -10 -35t-36 -10h-50q-51 -202 -161.5 -676t-146.5 -537.5t-136 -63.5q-123 0 -135.5 8t-116.5 538.5t-110.5 530.5t-100 -475t-129.5 -538.5t-136 -63.5q-116 0 -128.5 8t-143 548.5t-188.5 720.5h-78q-13 34 -13 63q0 21 10.5 30.5
t34.5 9.5h403q13 -30 13 -58q0 -25 -10 -35t-36 -10h-55q18 -147 114.5 -601.5t110.5 -454.5t122 571t120.5 579.5t155.5 8.5q63 0 83.5 -23.5t129 -579.5t122.5 -556t99 452t97 604h-83q-13 34 -13 63q0 21 10.5 30.5t34.5 9.5z" />
    <glyph glyph-name="X" unicode="X" horiz-adv-x="1392" 
d="M412 103h108q13 -30 13 -58q0 -25 -10 -35t-36 -10h-405q-12 34 -12 63q0 21 10.5 30.5t34.5 9.5h68q78 116 357 614q-252 411 -350 545h-80q-12 34 -12 63q0 21 10.5 30.5t34.5 9.5h412q13 -30 13 -58q0 -25 -10 -35t-36 -10h-43q72 -160 248 -458q185 315 238 458h-82
q-13 34 -13 63q0 21 10.5 30.5t34.5 9.5h363q13 -30 13 -58q0 -25 -10 -35t-36 -10h-50q-117 -159 -371 -588q274 -442 341.5 -506.5t134.5 -64.5q12 -23 12 -53q0 -26 -17.5 -38t-75.5 -12q-164 0 -203 7.5t-60 35t-76.5 128.5t-236.5 415q-190 -357 -231 -483z" />
    <glyph glyph-name="Y" unicode="Y" horiz-adv-x="1316" 
d="M1184 1262q-102 -189 -402 -817q0 -203 7 -342h148q13 -30 13 -58q0 -25 -10 -35t-36 -10h-495q-12 34 -12 63q0 21 10.5 30.5t34.5 9.5h110q8 139 8 323q-329 660 -430 836h-78q-12 34 -12 63q0 21 10.5 30.5t34.5 9.5h403q12 -30 12 -58q0 -25 -10 -35t-35 -10h-51
q44 -132 162.5 -404t129.5 -272t115.5 264.5t143.5 411.5h-87q-13 34 -13 63q0 21 10.5 30.5t34.5 9.5h363q12 -30 12 -58q0 -25 -10 -35t-35 -10h-46z" />
    <glyph glyph-name="Z" unicode="Z" horiz-adv-x="1143" 
d="M668 1236q-329 -1 -536 -85q-42 67 -42 130q0 42 27.5 63t94.5 21h740q60 0 77 -16.5t17 -51.5q0 -46 -47.5 -123.5t-194.5 -314t-280.5 -456.5t-138.5 -274h134q312 0 513 92q41 -67 41 -128q0 -52 -29 -72.5t-118 -20.5h-782q-64 0 -64 69q0 37 26 76.5t211.5 331.5
t305.5 488.5t152 270.5h-107z" />
    <glyph glyph-name="bracketleft" unicode="[" horiz-adv-x="855" 
d="M447 1365q-7 -138 -7 -788q0 -602 7 -715h285q13 -27 13 -74q0 -32 -15 -43.5t-50 -11.5h-548q-12 28 -12 51q0 31 14.5 41.5t43.5 10.5h33q7 139 7 768q0 648 -7 787h-33q-29 0 -43.5 10.5t-14.5 41.5q0 23 12 51h548q35 0 50 -12t15 -43q0 -48 -13 -74h-285z" />
    <glyph glyph-name="backslash" unicode="\" horiz-adv-x="786" 
d="M-16 1447q-10 29 -5 46t43 31q68 24 124 32l652 -1788q13 -37 7.5 -55.5t-37.5 -29.5q-86 -31 -129 -34l-42 116z" />
    <glyph glyph-name="bracketright" unicode="]" horiz-adv-x="855" 
d="M408 1365h-285q-13 26 -13 74q0 31 15 43t50 12h548q12 -28 12 -51q0 -31 -14.5 -41.5t-43.5 -10.5h-33q-7 -139 -7 -787q0 -629 7 -768h33q29 0 43.5 -10.5t14.5 -41.5q0 -23 -12 -51h-548q-35 0 -50 11.5t-15 43.5q0 47 13 74h285q7 113 7 715q0 650 -7 788z" />
    <glyph glyph-name="asciicircum" unicode="^" 
d="M615 1172q-65 -35 -281 -189l-40 71q185 228 322 331q136 -103 321 -331l-40 -71q-216 154 -282 189z" />
    <glyph glyph-name="underscore" unicode="_" horiz-adv-x="1074" 
d="M84 0h953q12 -27 12 -72q0 -34 -15 -45t-55 -11h-941q-13 33 -13 66q0 41 14.5 51.5t44.5 10.5z" />
    <glyph glyph-name="grave" unicode="`" horiz-adv-x="378" 
d="M284 1087q-269 171 -269 265q0 75 133 116l215 -311z" />
    <glyph glyph-name="a" unicode="a" horiz-adv-x="1045" 
d="M693 80q-84 -49 -172.5 -74.5t-173.5 -25.5q-135 0 -201 63.5t-66 188.5q0 153 109 234t337 81h147q-6 176 -50.5 245t-157.5 69q-60 0 -115 -12q-29 -58 -34.5 -62t-57.5 -17.5t-72.5 5t-42 67.5t-21.5 79q0 20 16.5 31t134.5 27t251 16q177 0 261.5 -61t84.5 -224v-308
q0 -214 18.5 -261t61.5 -38q12 -22 12 -43q0 -34 -42.5 -52t-114.5 -18q-35 0 -53.5 8.5t-58.5 81.5zM673 418q-86 15 -178 15q-114 0 -159.5 -38t-45.5 -120q0 -80 40.5 -120.5t125.5 -40.5q66 0 123 26t75.5 72.5t18.5 146.5v59z" />
    <glyph glyph-name="b" unicode="b" horiz-adv-x="1120" 
d="M372 496l1 -323q33 -27 84.5 -43t114.5 -16q126 0 179.5 81.5t53.5 290.5q-1 190 -54 287.5t-168 97.5q-75 0 -122 -30.5t-67.5 -86.5t-21.5 -258zM168 573q0 423 -3.5 538.5t-14 150.5t-35 45t-62.5 10q-13 31 -13 61q0 31 25 39t165 8q79 0 107 -7.5t32 -28t4 -70.5
l-14 -404q63 43 143.5 66.5t180.5 23.5q159 0 253.5 -104.5t94.5 -351.5q0 -280 -123.5 -424.5t-360.5 -144.5q-82 0 -149.5 14t-105.5 32l-31 -31q-67 0 -83.5 15t-16.5 56q0 35 3.5 170t3.5 337z" />
    <glyph glyph-name="c" unicode="c" horiz-adv-x="958" 
d="M544 -20q-246 0 -350 103.5t-104 353.5q0 277 131 422.5t399 145.5q131 0 190 -24.5t60 -73.5q0 -60 -42 -114q-150 78 -256 78q-139 0 -197.5 -88.5t-58.5 -277.5q0 -194 57 -292.5t208 -98.5q115 0 267 77q33 -46 33 -94q0 -57 -103.5 -87t-233.5 -30z" />
    <glyph glyph-name="d" unicode="d" horiz-adv-x="1140" 
d="M543 871q-120 0 -173.5 -83.5t-53.5 -288.5q0 -180 51 -282.5t172 -102.5q64 0 117 25.5t72.5 67t19.5 204.5v408q-36 20 -87.5 36t-117.5 16zM776 80q-91 -54 -170 -77t-163 -23q-170 0 -261.5 102t-91.5 354q0 278 122 423.5t365 145.5q58 0 97 -6t74 -15
q0 74 -3.5 158.5t-14 119.5t-35 45t-62.5 10q-13 31 -13 61q0 31 25 39t165 8q79 0 107 -7.5t32 -28t4 -70.5v-716q0 -382 17.5 -445t54.5 -55q14 -23 14 -45q0 -28 -66.5 -53t-108.5 -25q-25 0 -42 17.5t-46 82.5z" />
    <glyph glyph-name="e" unicode="e" horiz-adv-x="1027" 
d="M527 871q-100 0 -152 -71.5t-57 -223.5h103q164 0 223.5 6.5t69 21.5t9.5 56q0 99 -50 155t-146 56zM565 1005q186 0 276 -88t90 -290q0 -89 -32 -124t-140 -35h-442q2 -163 65.5 -256t224.5 -93q150 0 279 78q43 -43 43 -91q0 -67 -110.5 -94t-249.5 -27
q-256 0 -367.5 108.5t-111.5 365.5q0 253 125.5 399.5t349.5 146.5z" />
    <glyph glyph-name="f" unicode="f" horiz-adv-x="774" 
d="M424 103h146q12 -26 12 -56q0 -27 -11 -37t-42 -10h-433q-13 32 -13 60q0 22 11 32.5t36 10.5h74q8 139 8 326v433h-117q-12 36 -12 70q0 25 11 36.5t37 11.5h81q3 251 101 348t310 97q121 0 184 -20t63 -74q0 -48 -41 -101q-168 66 -270 66q-88 0 -115.5 -58.5
t-27.5 -201.5v-56h277q12 -33 12 -70q0 -29 -11 -38.5t-44 -9.5h-234v-433q0 -187 8 -326z" />
    <glyph glyph-name="g" unicode="g" horiz-adv-x="1097" 
d="M502 891q-95 0 -141 -53.5t-46 -193.5q0 -120 44.5 -175t139.5 -55q101 0 149 49.5t48 186.5q0 121 -48.5 181t-145.5 60zM842 890q56 -100 56 -213q0 -169 -108.5 -273t-341.5 -104q-105 0 -136 -22.5t-31 -65.5q0 -52 42 -75t307 -23q261 0 338.5 -53.5t77.5 -158.5
q0 -158 -164.5 -250t-509.5 -92q-168 0 -225 45.5t-57 127.5q0 61 32 124.5t89 122.5q-49 20 -78.5 59.5t-29.5 97.5q0 60 38 110.5t116 88.5q-64 26 -103.5 93t-39.5 175q0 176 108 288.5t325 112.5q120 0 221 -39q130 59 155 59q121 0 132 -6.5t11 -21.5
q0 -26 -23.5 -74.5t-44 -48.5t-132.5 45zM340 -30q-35 -35 -53.5 -79t-18.5 -89q0 -68 41 -98t164 -30q180 0 271.5 43t91.5 125q0 72 -67 100t-429 28z" />
    <glyph glyph-name="h" unicode="h" horiz-adv-x="1181" 
d="M196 984q0 74 -3.5 158.5t-14 119.5t-35 45t-62.5 10q-13 31 -13 61q0 31 25 39t165 8q79 0 107 -7.5t32 -28t4 -70.5v-423q62 41 150.5 72.5t184.5 31.5q123 0 190.5 -61.5t67.5 -234.5q0 -538 15.5 -570t71.5 -31q11 -29 11 -58q0 -27 -17 -36t-63 -9q-139 0 -170 3.5
t-42 21t-11 58.5v431q0 206 -43.5 274t-140.5 68q-83 0 -143.5 -47t-60.5 -169v-211q0 -177 7 -326h111q12 -26 12 -56q0 -27 -11 -37t-42 -10h-393q-13 32 -13 60q0 22 11 32.5t36 10.5h69q8 159 8 346v535z" />
    <glyph glyph-name="i" unicode="i" horiz-adv-x="609" 
d="M278 1161q-65 0 -96 27t-31 78q1 55 40 88t110 33q70 0 100 -28.5t30 -76.5q0 -54 -37 -87.5t-116 -33.5zM420 103h106q13 -26 13 -56q0 -27 -11 -37t-43 -10h-393q-12 32 -12 60q0 22 10.5 32.5t36.5 10.5h74q7 139 7 326q0 228 -3.5 304.5t-16.5 105.5t-36.5 36
t-58.5 7q-13 21 -13 49q0 41 39 50t151 9q79 0 107 -7.5t32 -28t4 -70.5v-455q0 -187 7 -326z" />
    <glyph glyph-name="j" unicode="j" horiz-adv-x="596" 
d="M414 827q2 -269 2.5 -492.5t0.5 -349.5q0 -172 -28.5 -250.5t-103 -126.5t-212.5 -48q-83 0 -113 13t-30 58q0 53 35 98q154 -47 199.5 -20.5t45.5 265.5v455q0 228 -4 303.5t-16 105t-37.5 37t-58.5 7.5q-13 21 -13 49q0 33 30 46t170 13q77 0 101 -8t28 -29t4 -126z
M269 1161q-66 0 -96.5 27t-30.5 78q0 55 39 88t110 33t101 -28.5t30 -76.5q0 -54 -37 -87.5t-116 -33.5z" />
    <glyph glyph-name="k" unicode="k" horiz-adv-x="1135" 
d="M408 103h91q12 -26 12 -56q0 -27 -11 -37t-42 -10h-378q-13 32 -13 60q0 22 11 32.5t36 10.5h74q8 139 8 470q0 423 -4 538.5t-14.5 150.5t-34.5 45t-63 10q-13 31 -13 61q0 31 25.5 39t164.5 8q79 0 107 -7.5t32 -28t4 -70.5v-788q88 68 185 158t174 178h-70
q-13 29 -13 59t11.5 42t38.5 12h312q12 -28 12 -60q0 -31 -12.5 -42t-45.5 -11h-40l-300 -279q149 -227 228 -328.5t115.5 -129t84.5 -27.5q15 -52 -3.5 -77.5t-126.5 -25.5q-98 0 -124.5 15t-52.5 58.5t-81 136t-172 271.5l-120 -112q1 -127 8 -266z" />
    <glyph glyph-name="l" unicode="l" horiz-adv-x="604" 
d="M201 573q0 423 -4 538.5t-14.5 150.5t-34.5 45t-63 10q-13 31 -13 61q0 31 25.5 39t164.5 8q79 0 107 -7.5t32 -28t4 -70.5v-837q1 -240 8 -379h111q12 -26 12 -56q0 -27 -11 -37t-42 -10h-398q-13 32 -13 60q0 22 11 32.5t36 10.5h74q8 139 8 470z" />
    <glyph glyph-name="m" unicode="m" horiz-adv-x="1753" 
d="M992 640q0 -419 7 -537h106q13 -26 13 -56q0 -27 -11 -37t-43 -10h-353q-12 32 -12 60q0 22 10.5 32.5t36.5 10.5h34q7 147 7 411q0 206 -43.5 274t-140.5 68q-63 0 -123.5 -47t-60.5 -169v-211q0 -177 7 -326h81q12 -26 12 -56q0 -27 -11 -37t-42 -10h-363
q-13 32 -13 60q0 22 11 32.5t36 10.5h69q8 159 8 390q0 295 -23 342t-88 47q-13 28 -13 58q0 27 21 34.5t265 15.5q6 -46 0 -118q99 66 190.5 97t169.5 31q99 0 152 -34.5t72 -87.5q90 61 180.5 91.5t166.5 30.5q123 0 190.5 -61.5t67.5 -234.5q0 -538 15.5 -570t71.5 -31
q11 -29 11 -58q0 -27 -17 -36t-63 -9q-139 0 -170 3.5t-42 21t-11 58.5v431q0 206 -43.5 274t-140.5 68q-63 0 -123.5 -47t-60.5 -169z" />
    <glyph glyph-name="n" unicode="n" horiz-adv-x="1199" 
d="M376 872q99 66 195.5 97t172.5 31q133 0 200.5 -61.5t67.5 -234.5q0 -538 15.5 -570t71.5 -31q11 -29 11 -58q0 -27 -17 -36t-63 -9q-139 0 -170 3.5t-42 21t-11 58.5v431q0 206 -43.5 274t-140.5 68q-83 0 -143.5 -47t-60.5 -169v-211q0 -177 7 -326h111q12 -26 12 -56
q0 -27 -11 -37t-42 -10h-393q-13 32 -13 60q0 22 11 32.5t36 10.5h69q8 159 8 390q0 295 -23 342t-88 47q-13 28 -13 58q0 27 21 34.5t265 15.5q6 -46 0 -118z" />
    <glyph glyph-name="o" unicode="o" horiz-adv-x="1080" 
d="M549 114q114 0 165 86t51 265q0 206 -52.5 306t-180.5 100q-114 0 -165 -86t-51 -266q0 -205 52.5 -305t180.5 -100zM511 -20q-217 0 -319 115t-102 347q0 267 123.5 415t356.5 148q217 0 319 -115t102 -348q0 -266 -123.5 -414t-356.5 -148z" />
    <glyph glyph-name="p" unicode="p" horiz-adv-x="1146" 
d="M397 171q37 -25 87 -41t111 -16q133 0 184 81t51 280q0 217 -53.5 306.5t-172.5 89.5q-59 0 -107.5 -23t-74 -77.5t-25.5 -152.5v-447zM345 990q6 -42 0 -88q74 46 159 74.5t191 28.5q182 0 271 -100t89 -333q0 -302 -120.5 -447t-356.5 -145q-64 0 -108 7t-73 16
q1 -191 8 -340h131q12 -26 12 -56q0 -27 -11 -37t-42 -10h-413q-13 32 -13 60q0 22 11 32.5t36 10.5h69q8 149 8 404v426q0 295 -23 342t-88 47q-13 28 -13 58q0 27 21 34.5t255 15.5z" />
    <glyph glyph-name="q" unicode="q" horiz-adv-x="1114" 
d="M548 871q-130 0 -181 -88.5t-51 -268.5q0 -206 52 -303t165 -97q66 0 119.5 24t74.5 73t21 166v442q-38 22 -89 37t-111 15zM741 -337q7 149 7 402q-61 -39 -139 -62t-163 -23q-180 0 -268 108t-88 344q0 290 126 431.5t361 141.5q53 0 102 -7t106 -22l34 81q70 0 96 -9
t33 -31t7 -69l-2 -947q0 -189 7 -338h86q13 -26 13 -56q0 -27 -11 -37t-43 -10h-398q-12 32 -12 60q0 22 10.5 32.5t36.5 10.5h99z" />
    <glyph glyph-name="r" unicode="r" horiz-adv-x="853" 
d="M90 940q0 27 21 34.5t265 15.5q6 -46 0 -123q111 75 213.5 104t186.5 29q28 0 37.5 -6.5t9.5 -28.5q0 -43 -13.5 -92t-32.5 -62t-63 -20t-51.5 -3t-45.5 55q-89 0 -144 -56.5t-55 -227.5q1 -307 8 -456h141q12 -26 12 -56q0 -27 -11 -37t-42 -10h-423q-13 32 -13 60
q0 22 11 32.5t36 10.5h69q8 149 8 390q0 295 -23 342t-88 47q-13 28 -13 58z" />
    <glyph glyph-name="s" unicode="s" horiz-adv-x="928" 
d="M525 1005q132 0 209.5 -25.5t77.5 -82.5q0 -59 -50 -117q-196 91 -310 91q-77 0 -115.5 -29t-38.5 -84q0 -57 43.5 -94t178.5 -87q170 -60 242 -124.5t72 -177.5q0 -143 -110 -219t-313 -76q-155 0 -236.5 22t-81.5 92q0 51 39 100q171 -80 318 -80q92 0 137 30t45 96
q0 71 -68.5 112.5t-214.5 98.5q-144 55 -199 116t-55 155q0 127 109 205t321 78z" />
    <glyph glyph-name="t" unicode="t" horiz-adv-x="802" 
d="M131 980h68l81 284q42 -13 71.5 -31t43.5 -42.5t14 -169.5v-41h329q12 -33 12 -70q0 -29 -11 -38.5t-44 -9.5h-286v-473q0 -169 31 -222.5t93.5 -56.5t153.5 41q22 -33 22 -72q0 -53 -58.5 -71t-184.5 -18q-137 0 -199.5 56t-62.5 209v235q0 192 -11 372h-98
q-12 36 -12 70q0 25 11 36.5t37 11.5z" />
    <glyph glyph-name="u" unicode="u" horiz-adv-x="1118" 
d="M941 402q0 -201 16 -247t64 -41q12 -24 12 -47q0 -37 -57 -57t-111 -20q-35 0 -51 14t-50 76q-80 -46 -165.5 -73t-179.5 -27q-124 0 -192.5 68.5t-68.5 251.5q0 357 -3.5 433.5t-16.5 105.5t-34 36t-46 7q-13 21 -13 47q0 35 49 48t136 13q69 0 94.5 -8.5t32 -28
t6.5 -131.5v-377q0 -205 45.5 -268t126.5 -63q57 0 111 24t72.5 67t18.5 166q0 286 -2.5 360t-14 105.5t-30.5 38.5t-49 7q-13 21 -13 47q0 35 51.5 48t128.5 13q69 0 94.5 -8.5t32 -30.5t6.5 -134v-415z" />
    <glyph glyph-name="v" unicode="v" horiz-adv-x="1081" 
d="M775 867h-54q-12 29 -12 59t11.5 42t37.5 12h262q13 -28 13 -60q0 -31 -13 -42t-45 -11h-16q-37 -101 -153.5 -448t-151 -393t-107.5 -46q-119 0 -127.5 11t-118 354t-133.5 406.5t-40 90.5t-36 33.5t-55 6.5q-13 32 -13 60q0 30 31.5 39t173.5 9q62 0 86 -10t36.5 -35
t30 -117.5t101 -381.5t93 -289t98 302.5t101.5 407.5z" />
    <glyph glyph-name="w" unicode="w" horiz-adv-x="1629" 
d="M1494 867q-33 -101 -142 -452.5t-146 -393t-103 -41.5q-100 0 -109.5 11t-92.5 392t-92 381t-89.5 -350.5t-117 -392t-99.5 -41.5q-125 0 -135 11t-91 352t-102.5 407t-39 92.5t-35 33t-52.5 6.5q-13 28 -13 59q0 33 29 41t150 8q72 0 99.5 -10t39 -35t26 -117.5
t75 -381.5t70 -289t84 330.5t105.5 497.5q182 5 210.5 -2.5t41 -32.5t28 -117t79 -384t73 -292t84 306.5t85.5 403.5h-57q-13 29 -13 59t11.5 42t38.5 12h259q13 -28 13 -60q0 -31 -13 -42t-45 -11h-14z" />
    <glyph glyph-name="x" unicode="x" horiz-adv-x="1087" 
d="M140 103q79 112 273 396q-125 194 -167 255t-67 88t-48 33.5t-53 6.5q-13 21 -13 54q0 36 44 45t156 9q35 0 70.5 -9.5t52.5 -36.5t57 -111t141 -245q119 178 162 279h-46q-13 29 -13 59t11.5 42t38.5 12h257q12 -28 12 -60q0 -31 -12.5 -42t-45.5 -11h-15
q-122 -159 -264 -374q205 -314 242.5 -352t88.5 -38q11 -19 11 -47q0 -36 -26.5 -46t-85.5 -10q-104 0 -132 5.5t-46 27.5t-227 371q-126 -191 -168 -301h69q12 -26 12 -56q0 -27 -11 -37t-42 -10h-288q-13 32 -13 60q0 22 11 32.5t36 10.5h38z" />
    <glyph glyph-name="y" unicode="y" horiz-adv-x="1042" 
d="M932 867q-48 -147 -192.5 -618t-214 -556t-157 -109t-199.5 -24q-109 0 -141.5 16t-32.5 59q0 53 34 96q188 -38 277 -28.5t177 285.5q-83 3 -90 8t-105 337t-122.5 405.5t-39 102t-36.5 35t-57 6.5q-13 33 -13 61q0 34 34 40.5t138 6.5q80 0 108 -9.5t39 -35
t33.5 -141.5t95 -386.5t81.5 -270.5t91 311.5t94 408.5h-54q-12 29 -12 59t11.5 42t37.5 12h282q13 -28 13 -60q0 -31 -13 -42t-45 -11h-22z" />
    <glyph glyph-name="z" unicode="z" horiz-adv-x="957" 
d="M842 924q0 -43 -48 -113.5t-142 -214t-183.5 -286.5t-93.5 -197h181q122 0 297 68q26 -52 26 -106q0 -41 -25 -58t-101 -17h-617q-64 0 -64 54q0 30 26 69.5t166 237.5t211.5 315t100.5 191h-246q-67 0 -213 -73q-42 60 -42 119q0 35 20 51t75 16h596q42 0 59 -12.5
t17 -43.5z" />
    <glyph glyph-name="braceleft" unicode="{" horiz-adv-x="871" 
d="M359 612q105 -52 105 -183q0 -126 -10 -267.5t1 -214t59.5 -94t208.5 35.5q38 -41 38 -101q0 -51 -30 -69.5t-137 -18.5q-146 0 -220 35.5t-102.5 114t-28.5 254.5v206q0 193 -52 242t-52 60t52 61t52 242v180q0 166 28.5 244.5t117.5 132t225 53.5q87 0 117 -18.5
t30 -70.5q0 -59 -38 -100q-160 56 -208.5 35t-59.5 -93.5t-1 -214t10 -268.5q0 -130 -105 -183z" />
    <glyph glyph-name="bar" unicode="|" horiz-adv-x="595" 
d="M365 1550v-1978q-26 -13 -79 -13q-34 0 -45 15t-11 55v1967q40 12 73 12q41 0 51.5 -14.5t10.5 -43.5z" />
    <glyph glyph-name="braceright" unicode="}" horiz-adv-x="871" 
d="M512 612q-105 53 -105 183q0 127 10 268.5t-0.5 214t-59 93.5t-209.5 -35q-38 41 -38 100q0 52 30 70.5t138 18.5q145 0 219.5 -36t103 -114.5t28.5 -254.5v-205q0 -194 51.5 -243t51.5 -60t-51.5 -60.5t-51.5 -241.5v-181q0 -166 -28.5 -244.5t-118 -131.5t-224.5 -53
q-88 0 -118 18.5t-30 69.5q0 60 38 101q161 -57 209.5 -35.5t59 94t0.5 214t-10 267.5q0 131 105 183z" />
    <glyph glyph-name="asciitilde" unicode="~" 
d="M865 503q56 81 121 167q103 -34 103 -104q0 -52 -84 -120.5t-139 -68.5q-85 0 -502 163q-55 -80 -120 -166q-104 33 -104 109q0 46 79 115t144 69q85 0 502 -164z" />
    <glyph glyph-name="uni00A0" unicode="&#xa0;" horiz-adv-x="525" 
 />
    <glyph glyph-name="exclamdown" unicode="&#xa1;" horiz-adv-x="699" 
d="M323 1005q66 0 99 -29.5t33 -85.5t-36.5 -86t-95.5 -30q-66 0 -99.5 30t-33.5 86t36.5 85.5t96.5 29.5zM382 629q37 -816 58 -994q-52 -15 -139 -15q-88 0 -94 56t45 953h130z" />
    <glyph glyph-name="cent" unicode="&#xa2;" 
d="M762 1046v-750q106 8 235 75q34 -46 34 -94q0 -57 -104 -87q-70 -21 -150 -27v-187q-26 -13 -79 -13q-34 0 -45 15t-11 55v128q-207 10 -299 102q-103 104 -103 354q0 277 131 422q97 108 271 136v191q40 13 73 13q41 0 51.5 -14.5t10.5 -44.5v-136q130 0 186 -27t56 -73
q0 -53 -42 -111q-120 63 -215 73zM657 1045q-89 -17 -133 -83q-58 -88 -58 -277q0 -194 57 -293q41 -72 134 -91v744z" />
    <glyph glyph-name="sterling" unicode="&#xa3;" 
d="M838 1425q152 0 215 -20t63 -74q0 -48 -41 -101q-167 66 -300 66q-87 0 -117 -58t-89 -474h347q13 -27 13 -72q0 -34 -15 -45t-55 -11h-306q-49 -330 -61 -388q-15 -71 -59 -119h165q304 0 486 70q32 -55 32 -114q0 -44 -29 -64.5t-118 -20.5l-859 -1q-12 34 -12 64
q0 20 10.5 29.5t46.5 9.5q52 0 84 63q24 47 95 471h-150q-12 33 -12 66q0 41 14.5 51.5t43.5 10.5h125q15 95 33 207q32 258 131.5 356t318.5 98z" />
    <glyph glyph-name="yen" unicode="&#xa5;" 
d="M762 482h298q13 -26 13 -71q0 -35 -15 -46t-55 -11h-259q2 -146 8 -251h128q12 -27 12 -52q0 -29 -15 -40t-55 -11h-430q-13 28 -13 51q0 31 14.5 41.5t44.5 10.5h77q6 108 7 251h-299q-12 33 -12 66q0 41 14.5 51.5t43.5 10.5h225q-293 612 -384 780h-78q-13 26 -13 51
q0 30 15 41t55 11h371q12 -28 12 -51q0 -31 -14.5 -41.5t-43.5 -10.5h-30q39 -132 151 -404t123.5 -272t104.5 264.5t127 411.5h-73q-12 26 -12 51q0 30 15 41t55 11h325q13 -28 13 -51q0 -31 -14.5 -41.5t-44.5 -10.5h-35q-94 -183 -357 -780z" />
    <glyph glyph-name="brokenbar" unicode="&#xa6;" horiz-adv-x="595" 
d="M365 1550v-771q-26 -12 -79 -12q-34 0 -45 15t-11 55v759q40 12 73 12q41 0 51.5 -14.5t10.5 -43.5zM366 342v-770q-27 -13 -79 -13q-35 0 -46 15t-11 55v759q41 13 74 13q41 0 51.5 -14.5t10.5 -44.5z" />
    <glyph glyph-name="section" unicode="&#xa7;" horiz-adv-x="1202" 
d="M827 1385q73 0 113 -19.5t40 -80.5q0 -70 -50 -133q-145 87 -247 87q-72 0 -111 -38.5t-39 -101.5q0 -55 39.5 -99.5t164.5 -116.5q216 -125 293 -212t82 -220q0 -172 -126.5 -303t-317.5 -185q-185 -83 -363 -83q-76 0 -112.5 19t-36.5 77q0 61 42 132q159 -82 292 -82
q98 0 138 37.5t40 98.5q0 60 -55 114t-241 165q-164 101 -223 191.5t-59 199.5q0 173 124.5 309t341.5 186q134 58 271 58zM740 42q94 62 148 147.5t54 187.5q-5 116 -72.5 196t-200.5 162q-221 130 -265.5 183t-44.5 119q0 104 104 207q-91 -50 -152 -145t-61 -211
q0 -91 45 -164t155 -143q237 -144 310 -208.5t73 -152.5q0 -85 -93 -178z" />
    <glyph glyph-name="dieresis" unicode="&#xa8;" horiz-adv-x="733" 
d="M132 1161q-56 0 -86.5 27t-30.5 78q0 55 39 88t100 33t91 -28.5t30 -76.5q0 -54 -37 -87.5t-106 -33.5zM575 1161q-55 0 -86 27t-31 78q1 55 40 88t100 33q60 0 90 -28.5t30 -76.5q0 -54 -37 -87.5t-106 -33.5z" />
    <glyph glyph-name="copyright" unicode="&#xa9;" horiz-adv-x="1845" 
d="M977 306q120 0 230 67q38 -40 38 -83q0 -64 -92.5 -88t-231.5 -24q-216 0 -314 98.5t-98 354.5q0 287 117.5 421.5t346.5 134.5q133 0 197.5 -20.5t64.5 -76.5q0 -42 -40 -93q-130 62 -239 62q-120 0 -178.5 -84t-58.5 -278q0 -209 61 -300t197 -91zM896 1360
q-286 0 -451.5 -184t-165.5 -532q0 -303 168.5 -471.5t503.5 -168.5q287 0 452.5 184t165.5 532q0 303 -168.5 471.5t-504.5 168.5zM965 1490q378 0 572 -198t194 -542q1 -408 -226.5 -642t-621.5 -234q-379 0 -572.5 198t-193.5 542q-1 408 226.5 642t621.5 234z" />
    <glyph glyph-name="ordfeminine" unicode="&#xaa;" horiz-adv-x="825" 
d="M509 893q-65 -29 -122.5 -44.5t-120.5 -15.5q-85 0 -125.5 36.5t-40.5 106.5q0 98 65 146t231 48h84q-4 82 -30 122t-91 40q-40 0 -72 -7q-18 -35 -21.5 -37.5t-44.5 -10.5t-54 3.5t-26 51.5t-13 59q0 11 10 18t81 16.5t176 9.5q169 0 220 -36t51 -133v-139
q0 -121 16 -161.5t53 -32.5q11 -19 11 -38q0 -30 -37.5 -46t-105.5 -16q-31 0 -47 7.5t-47 52.5zM485 1080q-50 9 -108 9q-38 0 -61 -18.5t-23 -62.5q0 -40 18 -60.5t56 -20.5q40 0 68.5 11.5t39 34.5t10.5 77v30z" />
    <glyph glyph-name="guillemotleft" unicode="&#xab;" horiz-adv-x="1414" 
d="M135 571q287 230 419 345q42 -29 83 -88q43 -65 -12 -103.5t-330 -180.5q217 -123 373 -202q-11 -50 -51 -110q-43 -64 -92.5 -37.5t-203.5 155.5t-170 147.5t-16 73.5zM679 571q287 230 419 345q42 -29 82 -88q44 -65 -11 -103.5t-330 -180.5q217 -123 373 -202
q-11 -50 -51 -110q-44 -64 -93.5 -37.5t-203 155.5t-169.5 147.5t-16 73.5z" />
    <glyph glyph-name="logicalnot" unicode="&#xac;" 
d="M258 577h658q41 0 51.5 -14.5t10.5 -43.5v-408q-27 -13 -79 -13q-35 0 -46 15t-11 55v281h-630q-13 33 -13 66q0 41 14.5 51.5t44.5 10.5z" />
    <glyph glyph-name="registered" unicode="&#xae;" horiz-adv-x="1473" 
d="M712 1325q-244 0 -365.5 -146.5t-121.5 -428.5q0 -249 132.5 -378.5t403.5 -129.5q243 0 365 146t122 429q0 249 -133 378.5t-403 129.5zM772 1425q303 0 454 -152.5t151 -429.5q1 -329 -172 -515t-504 -186q-311 0 -458 152t-147 430q-1 328 172 514.5t504 186.5z
M640 808h43q78 0 124 33.5t46 100.5q0 72 -41 106t-105 34q-36 0 -63 -5q-4 -49 -4 -210v-59zM644 489h51q8 -16 8 -40q0 -16 -6 -22t-20 -6h-241q-8 19 -8 43q0 15 6 20t20 5h36q4 74 4 380q0 164 -4 237h-50q-8 20 -8 44q0 14 6 19.5t20 5.5h242q163 0 236.5 -47.5
t73.5 -145.5q0 -146 -186 -209q59 -17 92 -59.5t64 -118t47 -93.5t51 -18q12 -45 -3 -59.5t-66 -14.5q-77 0 -107 17.5t-59 122.5t-60 141.5t-78 36.5q-31 0 -65 -7q1 -170 4 -232z" />
    <glyph glyph-name="macron" unicode="&#xaf;" horiz-adv-x="562" 
d="M73 1326h461q12 -26 12 -71q0 -35 -15 -46t-55 -11h-449q-12 33 -12 66q0 41 14.5 51.5t43.5 10.5z" />
    <glyph glyph-name="degree" unicode="&#xb0;" horiz-adv-x="701" 
d="M345 1269q-65 0 -96.5 -38t-31.5 -113q0 -66 35 -100t105 -34q64 0 96 38.5t32 112.5q0 66 -35.5 100t-104.5 34zM364 1385q122 0 183 -62t61 -173q1 -131 -68.5 -206.5t-202.5 -75.5q-125 0 -184.5 61.5t-59.5 174.5q-1 130 68.5 205.5t202.5 75.5z" />
    <glyph glyph-name="plusminus" unicode="&#xb1;" 
d="M152 0q-12 45 -12 78q0 41 14.5 57t43.5 16h880q13 -39 13 -84q0 -34 -15 -50.5t-55 -16.5h-869zM697 659v-411q-45 -12 -98 -12q-34 0 -50 15t-16 55v353h-381q-12 46 -12 79q0 41 14.5 57t43.5 16h335v411q59 12 92 12q41 0 56.5 -14.5t15.5 -43.5v-365h381
q13 -39 13 -84q0 -35 -15 -51.5t-55 -16.5h-324z" />
    <glyph glyph-name="twosuperior" unicode="&#xb2;" horiz-adv-x="1027" 
d="M757 620h-571q-13 31 -13 79q0 71 50.5 129.5t209 156.5t158.5 174q0 46 -34.5 72.5t-121.5 26.5q-66 0 -102 -8q-15 -33 -18 -35.5t-47 -9.5t-56.5 3.5t-24 58.5t-11.5 75q0 15 8.5 19.5t81 14t214.5 9.5q183 0 262 -43.5t79 -138.5q0 -74 -43 -135.5t-198 -163
t-161 -156.5h55q211 0 341 42q18 -46 18 -95q0 -43 -16.5 -59t-59.5 -16z" />
    <glyph glyph-name="threesuperior" unicode="&#xb3;" horiz-adv-x="1027" 
d="M498 1385q158 0 238 -39.5t80 -136.5q0 -137 -187 -196q207 -41 207 -170q0 -111 -110 -173.5t-341 -62.5q-146 0 -172.5 18t-26.5 64q0 45 20 82q116 -36 235 -36q89 0 127 24.5t38 83.5q0 61 -38.5 88.5t-129.5 27.5h-42q-14 0 -20.5 8.5t-6.5 24.5q0 29 11 59h41
q86 0 125 22t39 76q0 56 -33 82.5t-108 26.5q-54 0 -92 -8q-14 -33 -17 -35t-47 -9.5t-56 3t-23 66.5t-11 73q0 10 9.5 16t88 13.5t202.5 7.5z" />
    <glyph glyph-name="acute" unicode="&#xb4;" horiz-adv-x="378" 
d="M15 1157l214 311q134 -41 134 -116q0 -94 -270 -265z" />
    <glyph glyph-name="mu" unicode="&#xb5;" horiz-adv-x="1118" 
d="M243 990q91 0 135 -15q-30 -383 -30 -600q0 -165 46.5 -213.5t126.5 -47.5q72 0 126 24t72 67t18 166q0 286 -2.5 360t-9 105.5t-20 38.5t-33.5 7q-13 21 -13 47q0 35 39 48t111 13q69 0 94.5 -8.5t32 -30.5t6.5 -134v-531q0 -119 14.5 -151.5t69.5 -31.5q12 -29 12 -52
q0 -32 -22.5 -46.5t-83.5 -14.5q-79 0 -93 5.5t-74 84.5q-81 -46 -152.5 -73t-144.5 -27q-74 0 -125 28q20 -228 20 -346q0 -102 -109 -102q-66 0 -125 10q30 334 30 688q0 190 -12.5 369.5t-12.5 260.5q0 102 109 102z" />
    <glyph glyph-name="mu" unicode="&#x3bc;" horiz-adv-x="1118" 
d="M243 990q91 0 135 -15q-30 -383 -30 -600q0 -165 46.5 -213.5t126.5 -47.5q72 0 126 24t72 67t18 166q0 286 -2.5 360t-9 105.5t-20 38.5t-33.5 7q-13 21 -13 47q0 35 39 48t111 13q69 0 94.5 -8.5t32 -30.5t6.5 -134v-531q0 -119 14.5 -151.5t69.5 -31.5q12 -29 12 -52
q0 -32 -22.5 -46.5t-83.5 -14.5q-79 0 -93 5.5t-74 84.5q-81 -46 -152.5 -73t-144.5 -27q-74 0 -125 28q20 -228 20 -346q0 -102 -109 -102q-66 0 -125 10q30 334 30 688q0 190 -12.5 369.5t-12.5 260.5q0 102 109 102z" />
    <glyph glyph-name="paragraph" unicode="&#xb6;" horiz-adv-x="1410" 
d="M1093 982l-1 -495q1 -245 8 -487h-155q8 242 8 982h-148v-1276q0 -100 -29.5 -133t-95.5 -33q-81 0 -135 44q71 164 71 608v146q-49 -31 -111 -49.5t-130 -18.5q-145 0 -215 83.5t-70 258.5q0 241 116 359.5t382 118.5h339q230 0 375 45q28 -42 28 -91q0 -32 -16 -47
t-62 -15h-159z" />
    <glyph glyph-name="periodcentered" unicode="&#xb7;" horiz-adv-x="309" 
d="M142 528q-66 0 -96.5 27t-30.5 78q0 55 39 88t105 33q76 0 106 -28.5t30 -76.5q0 -54 -37 -87.5t-116 -33.5z" />
    <glyph glyph-name="cedilla" unicode="&#xb8;" horiz-adv-x="262" 
d="M240 0l-57 -106q148 0 198.5 -34t50.5 -98q0 -82 -79 -134.5t-223 -52.5q-81 0 -113 11t-32 44q0 38 27 70q70 -37 149 -37q46 0 66.5 15.5t20.5 52.5q0 42 -26 63.5t-80 21.5q-24 0 -38 -1.5t-27.5 15t-11 27t46.5 143.5h128z" />
    <glyph glyph-name="onesuperior" unicode="&#xb9;" horiz-adv-x="1027" 
d="M422 733q6 147 6 238q0 139 -5.5 179.5t-22 59.5t-48.5 26.5t-110 7.5q-10 29 -10 52q0 46 108 67t177 21q50 0 75 -12t34 -44.5t9 -102.5q0 -271 6 -492h171q15 -24 15 -55q0 -33 -13 -45.5t-51 -12.5h-513q-14 32 -14 60t12.5 40.5t42.5 12.5h131z" />
    <glyph glyph-name="ordmasculine" unicode="&#xba;" horiz-adv-x="800" 
d="M404 935q53 0 77 33t24 149q0 125 -27.5 170t-83.5 45q-52 0 -76.5 -33.5t-24.5 -149.5q0 -126 28 -170t83 -44zM371 831q-150 0 -210.5 67.5t-60.5 204.5q0 157 78.5 244.5t249.5 87.5q150 0 210.5 -68t60.5 -204q0 -157 -78.5 -244.5t-249.5 -87.5z" />
    <glyph glyph-name="guillemotright" unicode="&#xbb;" horiz-adv-x="1414" 
d="M1279 571q0 -55 -16 -73.5t-170 -147.5t-203.5 -155.5t-92.5 37.5q-40 60 -51 110q156 79 373 202q-275 142 -330 180.5t-12 103.5q41 59 83 88q132 -115 419 -345zM735 571q0 -55 -16 -73.5t-169.5 -147.5t-203 -155.5t-93.5 37.5q-40 60 -51 110q156 79 373 202
q-275 142 -330 180.5t-11 103.5q40 59 82 88q132 -115 419 -345z" />
    <glyph glyph-name="onequarter" unicode="&#xbc;" horiz-adv-x="2310" 
d="M422 733q6 147 6 238q0 139 -5.5 179.5t-22 59.5t-48.5 26.5t-110 7.5q-10 29 -10 52q0 46 108 67t177 21q50 0 75 -12t34 -44.5t9 -102.5q0 -271 6 -492h171q15 -24 15 -55q0 -33 -13 -45.5t-51 -12.5h-513q-14 32 -14 60t12.5 40.5t42.5 12.5h131zM2079 131v-131h-153
q-42 0 -42 58v73h-416q-22 29 -22 74q0 30 11.5 69t174.5 477q118 0 147.5 -4t29.5 -31q0 -33 -64 -233.5t-64 -230.5h210v241h145q43 0 43 -58v-183h67q7 -37 7 -72q0 -27 -4.5 -38t-20.5 -11h-49zM887 -54l-52 -110q-29 -1 -77 22q-31 14 -34.5 32t12.5 55l742 1590
q42 -6 72 -20q37 -18 40.5 -35.5t-8.5 -43.5z" />
    <glyph glyph-name="onehalf" unicode="&#xbd;" horiz-adv-x="2305" 
d="M422 733q6 147 6 238q0 139 -5.5 179.5t-22 59.5t-48.5 26.5t-110 7.5q-10 29 -10 52q0 46 108 67t177 21q50 0 75 -12t34 -44.5t9 -102.5q0 -271 6 -492h171q15 -24 15 -55q0 -33 -13 -45.5t-51 -12.5h-513q-14 32 -14 60t12.5 40.5t42.5 12.5h131zM2035 0h-571
q-13 30 -13 79q0 71 50.5 129.5t209 156.5t158.5 173q0 47 -34.5 73t-121.5 26q-66 0 -102 -8q-15 -33 -18 -35t-47 -9.5t-56.5 3.5t-24 59t-11.5 75q0 15 8.5 19.5t81 13.5t214.5 9q183 0 262 -43.5t79 -138.5q0 -74 -43 -135t-198 -163t-161 -156h55q211 0 341 42
q18 -47 18 -96q0 -42 -16.5 -58t-59.5 -16zM874 -54l-51 -110q-30 -1 -77 22q-31 14 -35 32t13 55l741 1590q43 -6 73 -20q36 -18 39.5 -35.5t-8.5 -43.5z" />
    <glyph glyph-name="threequarters" unicode="&#xbe;" horiz-adv-x="2310" 
d="M498 1385q158 0 238 -39.5t80 -136.5q0 -137 -187 -196q207 -41 207 -170q0 -111 -110 -173.5t-341 -62.5q-146 0 -172.5 18t-26.5 64q0 45 20 82q116 -36 235 -36q89 0 127 24.5t38 83.5q0 61 -38.5 88.5t-129.5 27.5h-42q-14 0 -20.5 8.5t-6.5 24.5q0 29 11 59h41
q86 0 125 22t39 76q0 56 -33 82.5t-108 26.5q-54 0 -92 -8q-14 -33 -17 -35t-47 -9.5t-56 3t-23 66.5t-11 73q0 10 9.5 16t88 13.5t202.5 7.5zM2079 131v-131h-153q-42 0 -42 58v73h-416q-22 29 -22 74q0 30 11.5 69t174.5 477q118 0 147.5 -4t29.5 -31q0 -33 -64 -233.5
t-64 -230.5h210v241h145q43 0 43 -58v-183h67q7 -37 7 -72q0 -27 -4.5 -38t-20.5 -11h-49zM890 -54l-51 -110q-30 -1 -77 22q-31 14 -35 32t13 55l741 1590q43 -6 73 -20q36 -18 39.5 -35.5t-8.5 -43.5z" />
    <glyph glyph-name="questiondown" unicode="&#xbf;" horiz-adv-x="1106" 
d="M591 -264q96 0 151 12q29 58 34.5 62t57.5 17.5t72.5 -5t42 -68.5t21.5 -80q0 -20 -16.5 -31t-134.5 -27t-286 -16q-175 0 -294.5 65.5t-119.5 234.5q0 177 182.5 327.5t226.5 222t44 148.5v34q72 17 152 17q70 0 70 -73q0 -60 -45 -137.5t-216 -215.5t-171 -271
q0 -111 64.5 -163.5t164.5 -52.5zM632 1005q77 0 112.5 -29.5t35.5 -85.5t-39 -86t-109 -30q-76 0 -111.5 30t-35.5 86t39 85.5t108 29.5z" />
    <glyph glyph-name="Agrave" unicode="&#xc0;" horiz-adv-x="1356" 
d="M657 1380q113 0 128 -8.5t202 -559t253 -709.5h88q12 -30 12 -58q0 -25 -10 -35t-35 -10h-415q-13 34 -13 63q0 21 10.5 30.5t34.5 9.5h54q-19 89 -96 342h-451q-70 -251 -84 -342h93q12 -30 12 -58q0 -25 -10 -35t-35 -10h-368q-12 34 -12 63q0 21 10.5 30.5t34.5 9.5
h58q66 182 219 657.5t189 547.5t131 72zM454 574h377q-182 579 -195.5 579t-181.5 -579zM778 1449q-360 87 -360 180q0 66 98 126l308 -229z" />
    <glyph glyph-name="Aacute" unicode="&#xc1;" horiz-adv-x="1356" 
d="M657 1380q113 0 128 -8.5t202 -559t253 -709.5h88q12 -30 12 -58q0 -25 -10 -35t-35 -10h-415q-13 34 -13 63q0 21 10.5 30.5t34.5 9.5h54q-19 89 -96 342h-451q-70 -251 -84 -342h93q12 -30 12 -58q0 -25 -10 -35t-35 -10h-368q-12 34 -12 63q0 21 10.5 30.5t34.5 9.5
h58q66 182 219 657.5t189 547.5t131 72zM454 574h377q-182 579 -195.5 579t-181.5 -579zM510 1526l308 230q98 -61 98 -126q0 -94 -360 -180z" />
    <glyph glyph-name="Acircumflex" unicode="&#xc2;" horiz-adv-x="1356" 
d="M657 1380q113 0 128 -8.5t202 -559t253 -709.5h88q12 -30 12 -58q0 -25 -10 -35t-35 -10h-415q-13 34 -13 63q0 21 10.5 30.5t34.5 9.5h54q-19 89 -96 342h-451q-70 -251 -84 -342h93q12 -30 12 -58q0 -25 -10 -35t-35 -10h-368q-12 34 -12 63q0 21 10.5 30.5t34.5 9.5
h58q66 182 219 657.5t189 547.5t131 72zM454 574h377q-182 579 -195.5 579t-181.5 -579zM673 1584q-66 -30 -221 -134l-51 76q136 143 272 255q137 -113 272 -255l-51 -76q-155 104 -221 134z" />
    <glyph glyph-name="Atilde" unicode="&#xc3;" horiz-adv-x="1356" 
d="M657 1380q113 0 128 -8.5t202 -559t253 -709.5h88q12 -30 12 -58q0 -25 -10 -35t-35 -10h-415q-13 34 -13 63q0 21 10.5 30.5t34.5 9.5h54q-19 89 -96 342h-451q-70 -251 -84 -342h93q12 -30 12 -58q0 -25 -10 -35t-35 -10h-368q-12 34 -12 63q0 21 10.5 30.5t34.5 9.5
h58q66 182 219 657.5t189 547.5t131 72zM805 1594q70 81 125 157q104 -34 104 -104q0 -57 -84 -123t-149 -66q-60 0 -197 153q-71 -85 -126 -161q-103 33 -103 109q0 51 79 117.5t154 66.5q60 0 197 -149zM454 574h377q-182 579 -195.5 579t-181.5 -579z" />
    <glyph glyph-name="Adieresis" unicode="&#xc4;" horiz-adv-x="1356" 
d="M657 1380q113 0 128 -8.5t202 -559t253 -709.5h88q12 -30 12 -58q0 -25 -10 -35t-35 -10h-415q-13 34 -13 63q0 21 10.5 30.5t34.5 9.5h54q-19 89 -96 342h-451q-70 -251 -84 -342h93q12 -30 12 -58q0 -25 -10 -35t-35 -10h-368q-12 34 -12 63q0 21 10.5 30.5t34.5 9.5
h58q66 182 219 657.5t189 547.5t131 72zM454 574h377q-182 579 -195.5 579t-181.5 -579zM907 1465q-61 0 -91.5 27t-30.5 83q0 60 39 93t105 33t96 -28.5t30 -81.5q0 -59 -37 -92.5t-111 -33.5zM423 1465q-60 0 -91 27t-31 83q1 60 40 93t105 33q65 0 95 -28.5t30 -81.5
q0 -59 -37 -92.5t-111 -33.5z" />
    <glyph glyph-name="Aring" unicode="&#xc5;" horiz-adv-x="1356" 
d="M657 1380q113 0 128 -8.5t202 -559t253 -709.5h88q12 -30 12 -58q0 -25 -10 -35t-35 -10h-415q-13 34 -13 63q0 21 10.5 30.5t34.5 9.5h54q-19 89 -96 342h-451q-70 -251 -84 -342h93q12 -30 12 -58q0 -25 -10 -35t-35 -10h-368q-12 34 -12 63q0 21 10.5 30.5t34.5 9.5
h58q66 182 219 657.5t189 547.5t131 72zM669 1445q-143 0 -201.5 46t-58.5 138q0 93 71.5 155.5t215.5 62.5q138 0 196.5 -46t58.5 -139q0 -92 -71.5 -154.5t-210.5 -62.5zM454 574h377q-182 579 -195.5 579t-181.5 -579zM680 1553q71 0 101.5 25t30.5 68t-33 68t-99 25
q-72 0 -102 -25t-30 -68t33 -68t99 -25z" />
    <glyph glyph-name="AE" unicode="&#xc6;" horiz-adv-x="1806" 
d="M1589 0l-828 -1q-13 34 -13 64q0 20 10.5 29.5t34.5 9.5h74q5 95 6 343h-384q-131 -269 -154 -342h88q12 -30 12 -58q0 -25 -10 -35t-35 -10h-373q-12 34 -12 63q0 21 10.5 30.5t34.5 9.5h63q101 184 379.5 703.5t304 539t90.5 19.5h722q57 0 78 -16t21 -64
q0 -61 -38 -126q-189 77 -520 77h-47q-7 -113 -7 -449h484q13 -39 13 -82q0 -28 -10 -37.5t-39 -9.5h-448q1 -432 7 -529h100q319 0 501 70q32 -55 32 -114q0 -44 -29 -64.5t-118 -20.5zM554 574h320v138q0 302 -7 471q-191 -365 -313 -609z" />
    <glyph glyph-name="Ccedilla" unicode="&#xc7;" horiz-adv-x="1212" 
d="M591 -16q-218 11 -338 132q-137 136 -137 494q0 399 161 587t474 188q174 0 263 -28t89 -95q0 -55 -55 -109q-180 86 -345 86q-170 0 -256 -122.5t-86 -414.5q0 -323 90.5 -449.5t293.5 -126.5q178 0 320 92q53 -55 53 -115q0 -56 -130 -90q-107 -27 -251 -32l-37 -87
q159 0 210 -34t51 -98q0 -87 -79.5 -144.5t-235.5 -57.5q-81 0 -113 11t-32 54t28 75q70 -37 148 -37q46 0 66.5 15.5t20.5 52.5q0 42 -25.5 63.5t-79.5 21.5q-30 0 -48.5 -1.5t-32 15t-12 27t24.5 127.5z" />
    <glyph glyph-name="Egrave" unicode="&#xc8;" horiz-adv-x="1198" 
d="M145 1365h856q57 0 78 -16t21 -64q0 -61 -38 -126q-189 77 -520 77h-87q-7 -113 -6 -449h523q13 -39 13 -82q0 -28 -10 -37.5t-39 -9.5h-488q1 -432 7 -529h140q319 0 501 70q32 -55 32 -114q0 -44 -29 -64.5t-118 -20.5l-868 -1q-13 34 -13 64q0 20 10.5 29.5t34.5 9.5
h74q7 140 7 714q0 307 -7 446h-106q-13 34 -13 63q0 21 10.5 30.5t34.5 9.5zM768 1449q-359 87 -359 180q0 66 97 126l309 -229z" />
    <glyph glyph-name="Eacute" unicode="&#xc9;" horiz-adv-x="1198" 
d="M145 1365h856q57 0 78 -16t21 -64q0 -61 -38 -126q-189 77 -520 77h-87q-7 -113 -6 -449h523q13 -39 13 -82q0 -28 -10 -37.5t-39 -9.5h-488q1 -432 7 -529h140q319 0 501 70q32 -55 32 -114q0 -44 -29 -64.5t-118 -20.5l-868 -1q-13 34 -13 64q0 20 10.5 29.5t34.5 9.5
h74q7 140 7 714q0 307 -7 446h-106q-13 34 -13 63q0 21 10.5 30.5t34.5 9.5zM410 1526l309 230q97 -61 97 -126q0 -94 -359 -180z" />
    <glyph glyph-name="Ecircumflex" unicode="&#xca;" horiz-adv-x="1198" 
d="M145 1365h856q57 0 78 -16t21 -64q0 -61 -38 -126q-189 77 -520 77h-87q-7 -113 -6 -449h523q13 -39 13 -82q0 -28 -10 -37.5t-39 -9.5h-488q1 -432 7 -529h140q319 0 501 70q32 -55 32 -114q0 -44 -29 -64.5t-118 -20.5l-868 -1q-13 34 -13 64q0 20 10.5 29.5t34.5 9.5
h74q7 140 7 714q0 307 -7 446h-106q-13 34 -13 63q0 21 10.5 30.5t34.5 9.5zM648 1584q-65 -30 -221 -134l-50 76q135 143 272 255q136 -113 271 -255l-50 -76q-156 104 -222 134z" />
    <glyph glyph-name="Edieresis" unicode="&#xcb;" horiz-adv-x="1198" 
d="M145 1365h856q57 0 78 -16t21 -64q0 -61 -38 -126q-189 77 -520 77h-87q-7 -113 -6 -449h523q13 -39 13 -82q0 -28 -10 -37.5t-39 -9.5h-488q1 -432 7 -529h140q319 0 501 70q32 -55 32 -114q0 -44 -29 -64.5t-118 -20.5l-868 -1q-13 34 -13 64q0 20 10.5 29.5t34.5 9.5
h74q7 140 7 714q0 307 -7 446h-106q-13 34 -13 63q0 21 10.5 30.5t34.5 9.5zM364 1465q-61 0 -91.5 27t-30.5 83q0 60 39 93t105 33t96 -28.5t30 -81.5q0 -59 -37 -92.5t-111 -33.5zM847 1465q-60 0 -91 27t-31 83q1 60 40 93t105 33q65 0 95 -28.5t30 -81.5
q0 -59 -37 -92.5t-111 -33.5z" />
    <glyph glyph-name="Igrave" unicode="&#xcc;" horiz-adv-x="680" 
d="M147 1365h450q13 -30 13 -58q0 -25 -10 -35t-36 -10h-90q-8 -139 -7 -458q0 -562 7 -701h123q13 -30 13 -58q0 -25 -10 -35t-36 -10h-450q-12 34 -12 63q0 21 10.5 30.5t34.5 9.5h91q7 139 7 713q0 307 -8 446h-123q-12 34 -12 63q0 21 10.5 30.5t34.5 9.5zM467 1449
q-360 87 -360 180q0 66 98 126l308 -229z" />
    <glyph glyph-name="Iacute" unicode="&#xcd;" horiz-adv-x="708" 
d="M145 1365h451q12 -30 12 -58q0 -25 -10 -35t-35 -10h-91q-7 -139 -7 -458q0 -562 8 -701h123q12 -30 12 -58q0 -25 -10 -35t-35 -10h-450q-13 34 -13 63q0 21 10.5 30.5t34.5 9.5h91q8 139 8 713q-1 307 -8 446h-123q-13 34 -13 63q0 21 10.5 30.5t34.5 9.5zM177 1526
l309 230q97 -61 97 -126q0 -94 -359 -180z" />
    <glyph glyph-name="Icircumflex" unicode="&#xce;" horiz-adv-x="676" 
d="M140 1365h450q13 -30 13 -58q0 -25 -10 -35t-36 -10h-90q-8 -139 -7 -458q0 -562 7 -701h123q13 -30 13 -58q0 -25 -10 -35t-36 -10h-450q-12 34 -12 63q0 21 10.5 30.5t34.5 9.5h91q7 139 7 713q0 307 -8 446h-123q-12 34 -12 63q0 21 10.5 30.5t34.5 9.5zM350 1584
q-66 -30 -221 -134l-51 76q136 143 272 255q137 -113 272 -255l-51 -76q-155 104 -221 134z" />
    <glyph glyph-name="Idieresis" unicode="&#xcf;" horiz-adv-x="729" 
d="M154 1365h451q12 -30 12 -58q0 -25 -10 -35t-35 -10h-91q-7 -139 -7 -458q0 -562 8 -701h123q12 -30 12 -58q0 -25 -10 -35t-35 -10h-450q-13 34 -13 63q0 21 10.5 30.5t34.5 9.5h91q8 139 8 713q-1 307 -8 446h-123q-13 34 -13 63q0 21 10.5 30.5t34.5 9.5zM115 1465
q-61 0 -91.5 27t-30.5 83q0 60 39 93t105 33t96 -28.5t30 -81.5q0 -59 -37 -92.5t-111 -33.5zM598 1465q-60 0 -91 27t-31 83q1 60 40 93t105 33q65 0 95 -28.5t30 -81.5q0 -59 -37 -92.5t-111 -33.5z" />
    <glyph glyph-name="Eth" unicode="&#xd0;" horiz-adv-x="1391" 
d="M163 1365h403q403 0 557 -144.5t154 -475.5q0 -371 -155.5 -558t-514.5 -187l-477 -1q-12 34 -12 64q0 20 10.5 29.5t34.5 9.5h73q7 119 8 556h-131q-13 43 -13 81q0 26 9.5 36.5t34.5 10.5h100q0 337 -8 476h-106q-12 34 -12 63q0 21 10.5 30.5t34.5 9.5zM602 1219
q-76 0 -130 -10q-5 -105 -7 -423h230q12 -36 12 -81q0 -30 -12.5 -38.5t-42.5 -8.5h-187v-191q0 -248 26.5 -284.5t180.5 -36.5q182 0 271 110.5t89 411.5q0 309 -104.5 430t-325.5 121z" />
    <glyph glyph-name="Ntilde" unicode="&#xd1;" horiz-adv-x="1507" 
d="M165 1365h318q161 -291 303.5 -530.5t310.5 -571.5v553q0 307 -7 446h-103q-13 34 -13 63q0 21 10.5 30.5t34.5 9.5h376q12 -30 12 -58q0 -25 -10 -35t-35 -10h-81q-7 -139 -7 -458v-723q0 -59 -17.5 -75t-81.5 -16q-124 0 -142.5 9.5t-243 371.5t-376.5 677
q0 -806 7 -945h98q13 -30 13 -58q0 -25 -10 -35t-36 -10h-372q-13 34 -13 63q0 21 10.5 30.5t34.5 9.5h84q7 139 7 713q0 307 -8 446h-95q-13 34 -13 63q0 21 10.5 30.5t34.5 9.5zM838 1594q70 81 125 157q104 -34 104 -104q0 -57 -84 -123t-149 -66q-60 0 -197 153
q-71 -85 -126 -161q-103 33 -103 109q0 51 79 117.5t154 66.5q60 0 197 -149z" />
    <glyph glyph-name="Ograve" unicode="&#xd2;" horiz-adv-x="1411" 
d="M116 615q0 394 163.5 582t461.5 188q272 0 414 -136.5t142 -498.5q0 -394 -163.5 -582t-461.5 -188q-272 0 -414 136t-142 499zM361 707q0 -334 90.5 -457.5t268.5 -123.5q165 0 248.5 125t83.5 407q0 338 -90.5 459.5t-268.5 121.5q-165 0 -248.5 -125t-83.5 -407z
M855 1449q-359 87 -359 180q0 66 97 126l309 -229z" />
    <glyph glyph-name="Oacute" unicode="&#xd3;" horiz-adv-x="1411" 
d="M116 615q0 394 163.5 582t461.5 188q272 0 414 -136.5t142 -498.5q0 -394 -163.5 -582t-461.5 -188q-272 0 -414 136t-142 499zM361 707q0 -334 90.5 -457.5t268.5 -123.5q165 0 248.5 125t83.5 407q0 338 -90.5 459.5t-268.5 121.5q-165 0 -248.5 -125t-83.5 -407z
M542 1526l309 230q97 -61 97 -126q0 -94 -359 -180z" />
    <glyph glyph-name="Ocircumflex" unicode="&#xd4;" horiz-adv-x="1411" 
d="M116 615q0 394 163.5 582t461.5 188q272 0 414 -136.5t142 -498.5q0 -394 -163.5 -582t-461.5 -188q-272 0 -414 136t-142 499zM361 707q0 -334 90.5 -457.5t268.5 -123.5q165 0 248.5 125t83.5 407q0 338 -90.5 459.5t-268.5 121.5q-165 0 -248.5 -125t-83.5 -407z
M735 1584q-65 -30 -221 -134l-50 76q135 143 272 255q136 -113 271 -255l-50 -76q-156 104 -222 134z" />
    <glyph glyph-name="Otilde" unicode="&#xd5;" horiz-adv-x="1411" 
d="M116 615q0 394 163.5 582t461.5 188q272 0 414 -136.5t142 -498.5q0 -394 -163.5 -582t-461.5 -188q-272 0 -414 136t-142 499zM361 707q0 -334 90.5 -457.5t268.5 -123.5q165 0 248.5 125t83.5 407q0 338 -90.5 459.5t-268.5 121.5q-165 0 -248.5 -125t-83.5 -407z
M857 1594q71 81 126 157q103 -34 103 -104q0 -57 -84 -123t-149 -66q-60 0 -197 153q-70 -85 -125 -161q-104 33 -104 109q0 51 79 117.5t154 66.5q60 0 197 -149z" />
    <glyph glyph-name="Odieresis" unicode="&#xd6;" horiz-adv-x="1411" 
d="M116 615q0 394 163.5 582t461.5 188q272 0 414 -136.5t142 -498.5q0 -394 -163.5 -582t-461.5 -188q-272 0 -414 136t-142 499zM361 707q0 -334 90.5 -457.5t268.5 -123.5q165 0 248.5 125t83.5 407q0 338 -90.5 459.5t-268.5 121.5q-165 0 -248.5 -125t-83.5 -407z
M476 1465q-61 0 -91.5 27t-30.5 83q0 60 39 93t105 33t96 -28.5t30 -81.5q0 -59 -37 -92.5t-111 -33.5zM959 1465q-60 0 -91 27t-31 83q1 60 40 93t105 33q65 0 95 -28.5t30 -81.5q0 -59 -37 -92.5t-111 -33.5z" />
    <glyph glyph-name="multiply" unicode="&#xd7;" 
d="M731 685l276 -276q-24 -40 -61 -78q-24 -24 -46 -24.5t-50 27.5l-235 235l-269 -269q-47 28 -70 52q-32 32 -33.5 53.5t19.5 42.5l237 237l-275 275q33 51 56 74q29 30 50 30.5t42 -20.5l243 -243l269 269q43 -24 74 -55q28 -28 29 -50.5t-27 -51.5z" />
    <glyph glyph-name="Oslash" unicode="&#xd8;" horiz-adv-x="1411" 
d="M116 615q0 394 163.5 582t461.5 188q60 0 112 -10l71 195q57 -7 124 -32q39 -14 44 -31.5t-5 -44.5l-49 -134q67 -31 117 -80q142 -136 142 -498q0 -394 -163.5 -582t-461.5 -188q-66 0 -122 11l-25 -71l-42 -116q-43 3 -129 34q-33 12 -38 30t8 55l43 117
q-62 30 -109 76q-142 136 -142 499zM720 126q165 0 248.5 125t83.5 407q0 337 -113 477l-353 -985q65 -24 134 -24zM361 707q0 -325 106 -466l351 976q-61 22 -125 22q-165 0 -248.5 -125t-83.5 -407z" />
    <glyph glyph-name="Ugrave" unicode="&#xd9;" horiz-adv-x="1359" 
d="M986 1262h-113q-13 34 -13 63q0 21 10.5 30.5t34.5 9.5h386q12 -30 12 -58q0 -25 -10 -35t-35 -10h-71q-5 -139 -4 -672q0 -359 -139 -484.5t-418 -125.5q-239 0 -336 91t-97 359q0 693 -8 832h-88q-12 34 -12 63q0 21 10.5 30.5t34.5 9.5h390q13 -30 13 -58
q0 -25 -10 -35t-36 -10h-65q-8 -164 -8 -675q0 -288 72.5 -374.5t213.5 -86.5q165 0 228 87t63 328q0 557 -5 721zM810 1449q-360 87 -360 180q0 66 98 126l308 -229z" />
    <glyph glyph-name="Uacute" unicode="&#xda;" horiz-adv-x="1359" 
d="M986 1262h-113q-13 34 -13 63q0 21 10.5 30.5t34.5 9.5h386q12 -30 12 -58q0 -25 -10 -35t-35 -10h-71q-5 -139 -4 -672q0 -359 -139 -484.5t-418 -125.5q-239 0 -336 91t-97 359q0 693 -8 832h-88q-12 34 -12 63q0 21 10.5 30.5t34.5 9.5h390q13 -30 13 -58
q0 -25 -10 -35t-36 -10h-65q-8 -164 -8 -675q0 -288 72.5 -374.5t213.5 -86.5q165 0 228 87t63 328q0 557 -5 721zM532 1526l308 230q98 -61 98 -126q0 -94 -360 -180z" />
    <glyph glyph-name="Ucircumflex" unicode="&#xdb;" horiz-adv-x="1359" 
d="M986 1262h-113q-13 34 -13 63q0 21 10.5 30.5t34.5 9.5h386q12 -30 12 -58q0 -25 -10 -35t-35 -10h-71q-5 -139 -4 -672q0 -359 -139 -484.5t-418 -125.5q-239 0 -336 91t-97 359q0 693 -8 832h-88q-12 34 -12 63q0 21 10.5 30.5t34.5 9.5h390q13 -30 13 -58
q0 -25 -10 -35t-36 -10h-65q-8 -164 -8 -675q0 -288 72.5 -374.5t213.5 -86.5q165 0 228 87t63 328q0 557 -5 721zM705 1584q-66 -30 -221 -134l-51 76q136 143 272 255q137 -113 272 -255l-51 -76q-155 104 -221 134z" />
    <glyph glyph-name="Udieresis" unicode="&#xdc;" horiz-adv-x="1359" 
d="M986 1262h-113q-13 34 -13 63q0 21 10.5 30.5t34.5 9.5h386q12 -30 12 -58q0 -25 -10 -35t-35 -10h-71q-5 -139 -4 -672q0 -359 -139 -484.5t-418 -125.5q-239 0 -336 91t-97 359q0 693 -8 832h-88q-12 34 -12 63q0 21 10.5 30.5t34.5 9.5h390q13 -30 13 -58
q0 -25 -10 -35t-36 -10h-65q-8 -164 -8 -675q0 -288 72.5 -374.5t213.5 -86.5q165 0 228 87t63 328q0 557 -5 721zM450 1465q-60 0 -91 27t-31 83q1 60 40 93t105 33q65 0 95 -28.5t30 -81.5q0 -59 -37 -92.5t-111 -33.5zM934 1465q-61 0 -91.5 27t-30.5 83q0 60 39 93
t105 33t96 -28.5t30 -81.5q0 -59 -37 -92.5t-111 -33.5z" />
    <glyph glyph-name="Yacute" unicode="&#xdd;" horiz-adv-x="1330" 
d="M1184 1262q-102 -189 -402 -817q0 -203 7 -342h148q13 -30 13 -58q0 -25 -10 -35t-36 -10h-495q-12 34 -12 63q0 21 10.5 30.5t34.5 9.5h110q8 139 8 323q-329 660 -430 836h-78q-12 34 -12 63q0 21 10.5 30.5t34.5 9.5h403q12 -30 12 -58q0 -25 -10 -35t-35 -10h-51
q44 -132 162.5 -404t129.5 -272t115.5 264.5t143.5 411.5h-87q-13 34 -13 63q0 21 10.5 30.5t34.5 9.5h363q12 -30 12 -58q0 -25 -10 -35t-35 -10h-46zM495 1526l309 230q97 -61 97 -126q0 -94 -359 -180z" />
    <glyph glyph-name="Thorn" unicode="&#xde;" horiz-adv-x="1239" 
d="M548 405q200 0 288 63.5t88 213.5q0 143 -83 222t-252 79q-63 0 -114 -10q-8 -86 -8 -405v-163h81zM145 1365h451q12 -30 12 -58q0 -25 -10 -35t-35 -10h-88q-8 -99 -8 -133h88q355 0 484.5 -92t129.5 -301q0 -217 -145 -337t-506 -120h-51q0 -63 6 -176h158
q12 -30 12 -58q0 -25 -10 -35t-35 -10h-485q-13 34 -13 63q0 21 10.5 30.5t34.5 9.5h91q8 139 8 713q-1 307 -8 446h-123q-13 34 -13 63q0 21 10.5 30.5t34.5 9.5z" />
    <glyph glyph-name="germandbls" unicode="&#xdf;" horiz-adv-x="1237" 
d="M650 1425q168 0 254 -71t86 -198q0 -64 -21 -128.5t-59 -130.5q-32 -57 -49.5 -90.5t-17.5 -47.5q0 -15 33 -45t119 -107q102 -87 152 -162t50 -164q0 -140 -106.5 -220.5t-299.5 -80.5q-72 0 -116.5 12t-44.5 58q0 60 29 103q86 -39 157 -39q76 0 115.5 39.5t39.5 113.5
q0 71 -47.5 131t-131.5 138q-63 60 -108.5 103t-45.5 72q0 24 21 61t50 94q27 52 48.5 116t21.5 125q0 94 -50 139t-129 45q-99 0 -138 -52.5t-39 -191.5v-618q1 -177 8 -326h91q12 -27 12 -52q0 -29 -15 -40t-50 -11h-366q-13 28 -13 51q0 26 13.5 39t40.5 13h67
q8 149 7 326q0 228 -4 304.5t-15 104.5t-29 36t-67 8q-13 30 -13 59q0 31 27.5 40t100.5 9q0 238 115 336.5t317 98.5z" />
    <glyph glyph-name="agrave" unicode="&#xe0;" horiz-adv-x="1045" 
d="M693 80q-84 -49 -172.5 -74.5t-173.5 -25.5q-135 0 -201 63.5t-66 188.5q0 153 109 234t337 81h147q-6 176 -50.5 245t-157.5 69q-60 0 -115 -12q-29 -58 -34.5 -62t-57.5 -17.5t-72.5 5t-42 67.5t-21.5 79q0 20 16.5 31t134.5 27t251 16q177 0 261.5 -61t84.5 -224v-308
q0 -214 18.5 -261t61.5 -38q12 -22 12 -43q0 -34 -42.5 -52t-114.5 -18q-35 0 -53.5 8.5t-58.5 81.5zM673 418q-86 15 -178 15q-114 0 -159.5 -38t-45.5 -120q0 -80 40.5 -120.5t125.5 -40.5q66 0 123 26t75.5 72.5t18.5 146.5v59zM562 1087q-269 171 -269 265q0 75 133 116
l215 -311z" />
    <glyph glyph-name="aacute" unicode="&#xe1;" horiz-adv-x="1045" 
d="M693 80q-84 -49 -172.5 -74.5t-173.5 -25.5q-135 0 -201 63.5t-66 188.5q0 153 109 234t337 81h147q-6 176 -50.5 245t-157.5 69q-60 0 -115 -12q-29 -58 -34.5 -62t-57.5 -17.5t-72.5 5t-42 67.5t-21.5 79q0 20 16.5 31t134.5 27t251 16q177 0 261.5 -61t84.5 -224v-308
q0 -214 18.5 -261t61.5 -38q12 -22 12 -43q0 -34 -42.5 -52t-114.5 -18q-35 0 -53.5 8.5t-58.5 81.5zM673 418q-86 15 -178 15q-114 0 -159.5 -38t-45.5 -120q0 -80 40.5 -120.5t125.5 -40.5q66 0 123 26t75.5 72.5t18.5 146.5v59zM363 1157l214 311q134 -41 134 -116
q0 -94 -270 -265z" />
    <glyph glyph-name="acircumflex" unicode="&#xe2;" horiz-adv-x="1045" 
d="M693 80q-84 -49 -172.5 -74.5t-173.5 -25.5q-135 0 -201 63.5t-66 188.5q0 153 109 234t337 81h147q-6 176 -50.5 245t-157.5 69q-60 0 -115 -12q-29 -58 -34.5 -62t-57.5 -17.5t-72.5 5t-42 67.5t-21.5 79q0 20 16.5 31t134.5 27t251 16q177 0 261.5 -61t84.5 -224v-308
q0 -214 18.5 -261t61.5 -38q12 -22 12 -43q0 -34 -42.5 -52t-114.5 -18q-35 0 -53.5 8.5t-58.5 81.5zM673 418q-86 15 -178 15q-114 0 -159.5 -38t-45.5 -120q0 -80 40.5 -120.5t125.5 -40.5q66 0 123 26t75.5 72.5t18.5 146.5v59zM492 1262q-66 -35 -221 -134l-41 61
q126 148 262 281q137 -133 262 -281l-41 -61q-155 99 -221 134z" />
    <glyph glyph-name="atilde" unicode="&#xe3;" horiz-adv-x="1045" 
d="M693 80q-84 -49 -172.5 -74.5t-173.5 -25.5q-135 0 -201 63.5t-66 188.5q0 153 109 234t337 81h147q-6 176 -50.5 245t-157.5 69q-60 0 -115 -12q-29 -58 -34.5 -62t-57.5 -17.5t-72.5 5t-42 67.5t-21.5 79q0 20 16.5 31t134.5 27t251 16q177 0 261.5 -61t84.5 -224v-308
q0 -214 18.5 -261t61.5 -38q12 -22 12 -43q0 -34 -42.5 -52t-114.5 -18q-35 0 -53.5 8.5t-58.5 81.5zM673 418q-86 15 -178 15q-114 0 -159.5 -38t-45.5 -120q0 -80 40.5 -120.5t125.5 -40.5q66 0 123 26t75.5 72.5t18.5 146.5v59zM598 1279q50 61 105 147q99 -29 99 -99
q0 -57 -84 -118t-139 -61q-50 0 -192 138q-51 -63 -106 -151q-98 28 -98 104q0 51 79 112.5t144 61.5q50 0 192 -134z" />
    <glyph glyph-name="adieresis" unicode="&#xe4;" horiz-adv-x="1045" 
d="M693 80q-84 -49 -172.5 -74.5t-173.5 -25.5q-135 0 -201 63.5t-66 188.5q0 153 109 234t337 81h147q-6 176 -50.5 245t-157.5 69q-60 0 -115 -12q-29 -58 -34.5 -62t-57.5 -17.5t-72.5 5t-42 67.5t-21.5 79q0 20 16.5 31t134.5 27t251 16q177 0 261.5 -61t84.5 -224v-308
q0 -214 18.5 -261t61.5 -38q12 -22 12 -43q0 -34 -42.5 -52t-114.5 -18q-35 0 -53.5 8.5t-58.5 81.5zM673 418q-86 15 -178 15q-114 0 -159.5 -38t-45.5 -120q0 -80 40.5 -120.5t125.5 -40.5q66 0 123 26t75.5 72.5t18.5 146.5v59zM258 1161q-56 0 -86.5 27t-30.5 78
q0 55 39 88t100 33t91 -28.5t30 -76.5q0 -54 -37 -87.5t-106 -33.5zM701 1161q-55 0 -86 27t-31 78q1 55 40 88t100 33q60 0 90 -28.5t30 -76.5q0 -54 -37 -87.5t-106 -33.5z" />
    <glyph glyph-name="aring" unicode="&#xe5;" horiz-adv-x="1045" 
d="M693 80q-84 -49 -172.5 -74.5t-173.5 -25.5q-135 0 -201 63.5t-66 188.5q0 153 109 234t337 81h147q-6 176 -50.5 245t-157.5 69q-60 0 -115 -12q-29 -58 -34.5 -62t-57.5 -17.5t-72.5 5t-42 67.5t-21.5 79q0 20 16.5 31t134.5 27t251 16q177 0 261.5 -61t84.5 -224v-308
q0 -214 18.5 -261t61.5 -38q12 -22 12 -43q0 -34 -42.5 -52t-114.5 -18q-35 0 -53.5 8.5t-58.5 81.5zM673 418q-86 15 -178 15q-114 0 -159.5 -38t-45.5 -120q0 -80 40.5 -120.5t125.5 -40.5q66 0 123 26t75.5 72.5t18.5 146.5v59zM492 1196q65 0 93 24.5t28 68.5t-30 69
t-91 25q-65 0 -92.5 -25t-27.5 -69t30 -68.5t90 -24.5zM483 1108q-122 0 -172 39.5t-50 127.5t61.5 141.5t183.5 53.5q118 0 168 -39.5t50 -127.5t-61.5 -141.5t-179.5 -53.5z" />
    <glyph glyph-name="ae" unicode="&#xe6;" horiz-adv-x="1579" 
d="M465 861q-60 0 -115 -12q-29 -58 -34.5 -62t-57.5 -17.5t-72.5 5t-42 67.5t-21.5 79q0 20 16.5 31t134.5 27t229 16q221 0 293 -129q133 139 332 139q176 0 266 -88t90 -290q0 -89 -32 -124t-140 -35h-442q2 -163 65.5 -256t224.5 -93q150 0 279 78q43 -43 43 -91
q0 -67 -110.5 -94t-244.5 -27q-265 0 -371 132q-121 -78 -221.5 -107.5t-186.5 -29.5q-135 0 -201 63.5t-66 188.5q0 153 109 234t337 81h147q-6 176 -50.5 245t-157.5 69zM673 418q-86 15 -178 15q-114 0 -159.5 -38t-45.5 -120q0 -80 40.5 -120.5t125.5 -40.5q66 0 123 26
t75.5 72.5t18.5 146.5v59zM1079 871q-100 0 -152 -71.5t-57 -223.5h103q164 0 223.5 6.5t69 21.5t9.5 56q0 99 -50 155t-146 56z" />
    <glyph glyph-name="ccedilla" unicode="&#xe7;" horiz-adv-x="958" 
d="M194 83q-104 104 -104 354q0 277 131 422.5t399 145.5q131 0 190 -24.5t60 -73.5q0 -60 -42 -114q-150 78 -256 78q-139 0 -197.5 -88.5t-58.5 -277.5q0 -194 57 -292.5t208 -98.5q115 0 267 77q33 -46 33 -94q0 -57 -104 -87q-96 -28 -213 -30l-46 -86q147 0 198 -34
t51 -98q0 -82 -79.5 -134.5t-223.5 -52.5q-81 0 -113 11t-32 44q0 38 28 70q70 -37 148 -37q46 0 66.5 15.5t20.5 52.5q0 42 -25.5 63.5t-79.5 21.5q-25 0 -38.5 -1.5t-27 15t-11.5 27t41 128.5q-166 17 -247 98z" />
    <glyph glyph-name="egrave" unicode="&#xe8;" horiz-adv-x="1027" 
d="M527 871q-100 0 -152 -71.5t-57 -223.5h103q164 0 223.5 6.5t69 21.5t9.5 56q0 99 -50 155t-146 56zM565 1005q186 0 276 -88t90 -290q0 -89 -32 -124t-140 -35h-442q2 -163 65.5 -256t224.5 -93q150 0 279 78q43 -43 43 -91q0 -67 -110.5 -94t-249.5 -27
q-256 0 -367.5 108.5t-111.5 365.5q0 253 125.5 399.5t349.5 146.5zM597 1087q-269 171 -269 265q0 75 133 116l215 -311z" />
    <glyph glyph-name="eacute" unicode="&#xe9;" horiz-adv-x="1027" 
d="M527 871q-100 0 -152 -71.5t-57 -223.5h103q164 0 223.5 6.5t69 21.5t9.5 56q0 99 -50 155t-146 56zM565 1005q186 0 276 -88t90 -290q0 -89 -32 -124t-140 -35h-442q2 -163 65.5 -256t224.5 -93q150 0 279 78q43 -43 43 -91q0 -67 -110.5 -94t-249.5 -27
q-256 0 -367.5 108.5t-111.5 365.5q0 253 125.5 399.5t349.5 146.5zM408 1157l214 311q134 -41 134 -116q0 -94 -270 -265z" />
    <glyph glyph-name="ecircumflex" unicode="&#xea;" horiz-adv-x="1027" 
d="M527 871q-100 0 -152 -71.5t-57 -223.5h103q164 0 223.5 6.5t69 21.5t9.5 56q0 99 -50 155t-146 56zM565 1005q186 0 276 -88t90 -290q0 -89 -32 -124t-140 -35h-442q2 -163 65.5 -256t224.5 -93q150 0 279 78q43 -43 43 -91q0 -67 -110.5 -94t-249.5 -27
q-256 0 -367.5 108.5t-111.5 365.5q0 253 125.5 399.5t349.5 146.5zM540 1262q-66 -35 -221 -134l-41 61q126 148 262 281q137 -133 262 -281l-41 -61q-155 99 -221 134z" />
    <glyph glyph-name="edieresis" unicode="&#xeb;" horiz-adv-x="1027" 
d="M527 871q-100 0 -152 -71.5t-57 -223.5h103q164 0 223.5 6.5t69 21.5t9.5 56q0 99 -50 155t-146 56zM565 1005q186 0 276 -88t90 -290q0 -89 -32 -124t-140 -35h-442q2 -163 65.5 -256t224.5 -93q150 0 279 78q43 -43 43 -91q0 -67 -110.5 -94t-249.5 -27
q-256 0 -367.5 108.5t-111.5 365.5q0 253 125.5 399.5t349.5 146.5zM302 1161q-56 0 -86.5 27t-30.5 78q0 55 39 88t100 33t91 -28.5t30 -76.5q0 -54 -37 -87.5t-106 -33.5zM745 1161q-55 0 -86 27t-31 78q1 55 40 88t100 33q60 0 90 -28.5t30 -76.5q0 -54 -37 -87.5
t-106 -33.5z" />
    <glyph glyph-name="igrave" unicode="&#xec;" horiz-adv-x="609" 
d="M434 103h106q13 -26 13 -56q0 -27 -11 -37t-43 -10h-393q-12 32 -12 60q0 22 10.5 32.5t36.5 10.5h74q7 139 7 326q0 228 -3.5 304.5t-16.5 105.5t-36.5 36t-58.5 7q-13 21 -13 49q0 41 39 50t151 9q79 0 107 -7.5t32 -28t4 -70.5v-455q0 -187 7 -326zM306 1087
q-269 171 -269 265q0 75 133 116l215 -311z" />
    <glyph glyph-name="iacute" unicode="&#xed;" horiz-adv-x="609" 
d="M420 103h106q13 -26 13 -56q0 -27 -11 -37t-43 -10h-393q-12 32 -12 60q0 22 10.5 32.5t36.5 10.5h74q7 139 7 326q0 228 -3.5 304.5t-16.5 105.5t-36.5 36t-58.5 7q-13 21 -13 49q0 41 39 50t151 9q79 0 107 -7.5t32 -28t4 -70.5v-455q0 -187 7 -326zM173 1157l214 311
q134 -41 134 -116q0 -94 -270 -265z" />
    <glyph glyph-name="icircumflex" unicode="&#xee;" horiz-adv-x="609" 
d="M433 103h106q12 -26 12 -56q0 -27 -11 -37t-42 -10h-393q-13 32 -13 60q0 22 11 32.5t36 10.5h74q8 139 8 326q0 228 -4 304.5t-16.5 105.5t-36.5 36t-59 7q-13 21 -13 49q0 41 39 50t151 9q79 0 107 -7.5t32 -28t4 -70.5v-455q1 -187 8 -326zM287 1262
q-66 -35 -221 -134l-41 61q126 148 262 281q137 -133 262 -281l-41 -61q-155 99 -221 134z" />
    <glyph glyph-name="idieresis" unicode="&#xef;" horiz-adv-x="754" 
d="M495 103h106q12 -26 12 -56q0 -27 -11 -37t-42 -10h-393q-13 32 -13 60q0 22 11 32.5t36 10.5h74q8 139 8 326q0 228 -4 304.5t-16.5 105.5t-36.5 36t-59 7q-13 21 -13 49q0 41 39 50t151 9q79 0 107 -7.5t32 -28t4 -70.5v-455q1 -187 8 -326zM127 1161q-55 0 -86 27
t-31 78q1 55 40 88t100 33q60 0 90 -28.5t30 -76.5q0 -54 -37 -87.5t-106 -33.5zM571 1161q-56 0 -86.5 27t-30.5 78q0 55 39 88t100 33t91 -28.5t30 -76.5q0 -54 -37 -87.5t-106 -33.5z" />
    <glyph glyph-name="eth" unicode="&#xf0;" horiz-adv-x="1080" 
d="M768 1432l96 45q23 -19 38 -52q10 -23 5 -34t-29 -22l-120 -57q233 -298 233 -734q0 -302 -123.5 -450t-356.5 -148q-217 0 -319 115t-102 347q0 267 123.5 415t358.5 148q93 0 169 -31q-49 144 -138 267l-179 -84q-27 26 -38 51q-9 20 -5.5 32t27.5 24l128 60
q-84 95 -194 175l128 72q122 -80 216 -177zM765 482q0 225 -25 346q-85 43 -204 43q-118 0 -169 -86t-51 -266q0 -205 52.5 -305t180.5 -100q114 0 165 86t51 282z" />
    <glyph glyph-name="ntilde" unicode="&#xf1;" horiz-adv-x="1199" 
d="M376 872q99 66 195.5 97t172.5 31q133 0 200.5 -61.5t67.5 -234.5q0 -538 15.5 -570t71.5 -31q11 -29 11 -58q0 -27 -17 -36t-63 -9q-139 0 -170 3.5t-42 21t-11 58.5v431q0 206 -43.5 274t-140.5 68q-83 0 -143.5 -47t-60.5 -169v-211q0 -177 7 -326h111q12 -26 12 -56
q0 -27 -11 -37t-42 -10h-393q-13 32 -13 60q0 22 11 32.5t36 10.5h69q8 159 8 390q0 295 -23 342t-88 47q-13 28 -13 58q0 27 21 34.5t265 15.5q6 -46 0 -118zM710 1279q51 61 106 147q98 -29 98 -99q0 -57 -84 -118t-139 -61q-50 0 -192 138q-50 -63 -105 -151
q-99 28 -99 104q0 51 79 112.5t144 61.5q50 0 192 -134z" />
    <glyph glyph-name="ograve" unicode="&#xf2;" horiz-adv-x="1080" 
d="M549 114q114 0 165 86t51 265q0 206 -52.5 306t-180.5 100q-114 0 -165 -86t-51 -266q0 -205 52.5 -305t180.5 -100zM511 -20q-217 0 -319 115t-102 347q0 267 123.5 415t356.5 148q217 0 319 -115t102 -348q0 -266 -123.5 -414t-356.5 -148zM574 1087q-269 171 -269 265
q0 75 133 116l215 -311z" />
    <glyph glyph-name="oacute" unicode="&#xf3;" horiz-adv-x="1080" 
d="M549 114q114 0 165 86t51 265q0 206 -52.5 306t-180.5 100q-114 0 -165 -86t-51 -266q0 -205 52.5 -305t180.5 -100zM511 -20q-217 0 -319 115t-102 347q0 267 123.5 415t356.5 148q217 0 319 -115t102 -348q0 -266 -123.5 -414t-356.5 -148zM425 1157l214 311
q134 -41 134 -116q0 -94 -270 -265z" />
    <glyph glyph-name="ocircumflex" unicode="&#xf4;" horiz-adv-x="1080" 
d="M549 114q114 0 165 86t51 265q0 206 -52.5 306t-180.5 100q-114 0 -165 -86t-51 -266q0 -205 52.5 -305t180.5 -100zM511 -20q-217 0 -319 115t-102 347q0 267 123.5 415t356.5 148q217 0 319 -115t102 -348q0 -266 -123.5 -414t-356.5 -148zM552 1262q-66 -35 -221 -134
l-41 61q126 148 262 281q137 -133 262 -281l-41 -61q-155 99 -221 134z" />
    <glyph glyph-name="otilde" unicode="&#xf5;" horiz-adv-x="1080" 
d="M549 114q114 0 165 86t51 265q0 206 -52.5 306t-180.5 100q-114 0 -165 -86t-51 -266q0 -205 52.5 -305t180.5 -100zM511 -20q-217 0 -319 115t-102 347q0 267 123.5 415t356.5 148q217 0 319 -115t102 -348q0 -266 -123.5 -414t-356.5 -148zM659 1279q51 61 106 147
q98 -29 98 -99q0 -57 -84 -118t-139 -61q-50 0 -192 138q-50 -63 -105 -151q-99 28 -99 104q0 51 79 112.5t144 61.5q50 0 192 -134z" />
    <glyph glyph-name="odieresis" unicode="&#xf6;" horiz-adv-x="1080" 
d="M549 114q114 0 165 86t51 265q0 206 -52.5 306t-180.5 100q-114 0 -165 -86t-51 -266q0 -205 52.5 -305t180.5 -100zM511 -20q-217 0 -319 115t-102 347q0 267 123.5 415t356.5 148q217 0 319 -115t102 -348q0 -266 -123.5 -414t-356.5 -148zM311 1161q-56 0 -86.5 27
t-30.5 78q0 55 39 88t100 33t91 -28.5t30 -76.5q0 -54 -37 -87.5t-106 -33.5zM754 1161q-55 0 -86 27t-31 78q1 55 40 88t100 33q60 0 90 -28.5t30 -76.5q0 -54 -37 -87.5t-106 -33.5z" />
    <glyph glyph-name="divide" unicode="&#xf7;" 
d="M152 609q-12 46 -12 79q0 41 14.5 57t43.5 16h880q13 -39 13 -84q0 -35 -15 -51.5t-55 -16.5h-869zM615 170q-76 0 -111.5 29.5t-35.5 85.5t39 86t108 30q76 0 112 -30t36 -86t-39 -85.5t-109 -29.5zM615 970q-76 0 -111.5 29.5t-35.5 85.5t39 86t108 30q76 0 112 -30
t36 -86t-39 -85.5t-109 -29.5z" />
    <glyph glyph-name="oslash" unicode="&#xf8;" horiz-adv-x="1080" 
d="M511 -20q-32 0 -59 4l-67 -187q-43 3 -129 35q-32 12 -37.5 29.5t7.5 54.5l42 118q-44 24 -76 60q-102 116 -102 348q0 267 123.5 415t355.5 148q28 0 52 -4l70 192q56 -8 124 -33q38 -14 43 -31t-5 -45l-47 -130q48 -25 83 -65q102 -114 102 -347q0 -266 -123.5 -414
t-356.5 -148zM559 114q114 0 165 86t51 268q0 230 -81 336l-242 -674q45 -16 107 -16zM522 871q-114 0 -165 -86t-51 -266q0 -221 75 -333l240 671q-42 14 -99 14z" />
    <glyph glyph-name="ugrave" unicode="&#xf9;" horiz-adv-x="1118" 
d="M941 402q0 -201 16 -247t64 -41q12 -24 12 -47q0 -37 -57 -57t-111 -20q-35 0 -51 14t-50 76q-80 -46 -165.5 -73t-179.5 -27q-124 0 -192.5 68.5t-68.5 251.5q0 357 -3.5 433.5t-16.5 105.5t-34 36t-46 7q-13 21 -13 47q0 35 49 48t136 13q69 0 94.5 -8.5t32 -28
t6.5 -131.5v-377q0 -205 45.5 -268t126.5 -63q57 0 111 24t72.5 67t18.5 166q0 286 -2.5 360t-14 105.5t-30.5 38.5t-49 7q-13 21 -13 47q0 35 51.5 48t128.5 13q69 0 94.5 -8.5t32 -30.5t6.5 -134v-415zM578 1087q-269 171 -269 265q0 75 133 116l215 -311z" />
    <glyph glyph-name="uacute" unicode="&#xfa;" horiz-adv-x="1118" 
d="M941 402q0 -201 16 -247t64 -41q12 -24 12 -47q0 -37 -57 -57t-111 -20q-35 0 -51 14t-50 76q-80 -46 -165.5 -73t-179.5 -27q-124 0 -192.5 68.5t-68.5 251.5q0 357 -3.5 433.5t-16.5 105.5t-34 36t-46 7q-13 21 -13 47q0 35 49 48t136 13q69 0 94.5 -8.5t32 -28
t6.5 -131.5v-377q0 -205 45.5 -268t126.5 -63q57 0 111 24t72.5 67t18.5 166q0 286 -2.5 360t-14 105.5t-30.5 38.5t-49 7q-13 21 -13 47q0 35 51.5 48t128.5 13q69 0 94.5 -8.5t32 -30.5t6.5 -134v-415zM394 1157l214 311q134 -41 134 -116q0 -94 -270 -265z" />
    <glyph glyph-name="ucircumflex" unicode="&#xfb;" horiz-adv-x="1118" 
d="M941 402q0 -201 16 -247t64 -41q12 -24 12 -47q0 -37 -57 -57t-111 -20q-35 0 -51 14t-50 76q-80 -46 -165.5 -73t-179.5 -27q-124 0 -192.5 68.5t-68.5 251.5q0 357 -3.5 433.5t-16.5 105.5t-34 36t-46 7q-13 21 -13 47q0 35 49 48t136 13q69 0 94.5 -8.5t32 -28
t6.5 -131.5v-377q0 -205 45.5 -268t126.5 -63q57 0 111 24t72.5 67t18.5 166q0 286 -2.5 360t-14 105.5t-30.5 38.5t-49 7q-13 21 -13 47q0 35 51.5 48t128.5 13q69 0 94.5 -8.5t32 -30.5t6.5 -134v-415zM518 1262q-65 -35 -221 -134l-40 61q125 148 262 281
q136 -133 261 -281l-40 -61q-156 99 -222 134z" />
    <glyph glyph-name="udieresis" unicode="&#xfc;" horiz-adv-x="1118" 
d="M941 402q0 -201 16 -247t64 -41q12 -24 12 -47q0 -37 -57 -57t-111 -20q-35 0 -51 14t-50 76q-80 -46 -165.5 -73t-179.5 -27q-124 0 -192.5 68.5t-68.5 251.5q0 357 -3.5 433.5t-16.5 105.5t-34 36t-46 7q-13 21 -13 47q0 35 49 48t136 13q69 0 94.5 -8.5t32 -28
t6.5 -131.5v-377q0 -205 45.5 -268t126.5 -63q57 0 111 24t72.5 67t18.5 166q0 286 -2.5 360t-14 105.5t-30.5 38.5t-49 7q-13 21 -13 47q0 35 51.5 48t128.5 13q69 0 94.5 -8.5t32 -30.5t6.5 -134v-415zM284 1161q-56 0 -86.5 27t-30.5 78q0 55 39 88t100 33t91 -28.5
t30 -76.5q0 -54 -37 -87.5t-106 -33.5zM727 1161q-55 0 -86 27t-31 78q1 55 40 88t100 33q60 0 90 -28.5t30 -76.5q0 -54 -37 -87.5t-106 -33.5z" />
    <glyph glyph-name="yacute" unicode="&#xfd;" horiz-adv-x="1042" 
d="M932 867q-48 -147 -192.5 -618t-214 -556t-157 -109t-199.5 -24q-109 0 -141.5 16t-32.5 59q0 53 34 96q188 -38 277 -28.5t177 285.5q-83 3 -90 8t-105 337t-122.5 405.5t-39 102t-36.5 35t-57 6.5q-13 33 -13 61q0 34 34 40.5t138 6.5q80 0 108 -9.5t39 -35
t33.5 -141.5t95 -386.5t81.5 -270.5t91 311.5t94 408.5h-54q-12 29 -12 59t11.5 42t37.5 12h282q13 -28 13 -60q0 -31 -13 -42t-45 -11h-22zM369 1157l214 311q134 -41 134 -116q0 -94 -270 -265z" />
    <glyph glyph-name="thorn" unicode="&#xfe;" horiz-adv-x="1146" 
d="M397 171q37 -25 87 -41t111 -16q133 0 184 81t51 280q0 217 -53.5 306.5t-172.5 89.5q-59 0 -107.5 -23t-74 -77.5t-25.5 -152.5v-447zM397 902q46 44 122.5 73.5t175.5 29.5q182 0 271 -100t89 -333q0 -302 -120.5 -447t-356.5 -145q-64 0 -108 7t-73 16q1 -191 8 -340
h131q12 -26 12 -56q0 -27 -11 -37t-42 -10h-413q-13 32 -13 60q0 22 11 32.5t36 10.5h69q8 149 8 404v506q0 423 -4 538.5t-14.5 150.5t-34.5 45t-63 10q-13 31 -13 61q0 31 25.5 39t164.5 8q79 0 107 -7.5t32 -28t4 -70.5v-417z" />
    <glyph glyph-name="ydieresis" unicode="&#xff;" horiz-adv-x="1042" 
d="M932 867q-48 -147 -192.5 -618t-214 -556t-157 -109t-199.5 -24q-109 0 -141.5 16t-32.5 59q0 53 34 96q188 -38 277 -28.5t177 285.5q-83 3 -90 8t-105 337t-122.5 405.5t-39 102t-36.5 35t-57 6.5q-13 33 -13 61q0 34 34 40.5t138 6.5q80 0 108 -9.5t39 -35
t33.5 -141.5t95 -386.5t81.5 -270.5t91 311.5t94 408.5h-54q-12 29 -12 59t11.5 42t37.5 12h282q13 -28 13 -60q0 -31 -13 -42t-45 -11h-22zM298 1161q-56 0 -86.5 27t-30.5 78q0 55 39 88t100 33t91 -28.5t30 -76.5q0 -54 -37 -87.5t-106 -33.5zM741 1161q-55 0 -86 27
t-31 78q1 55 40 88t100 33q60 0 90 -28.5t30 -76.5q0 -54 -37 -87.5t-106 -33.5z" />
    <glyph glyph-name="dotlessi" unicode="&#x131;" horiz-adv-x="609" 
d="M420 103h106q13 -26 13 -56q0 -27 -11 -37t-43 -10h-393q-12 32 -12 60q0 22 10.5 32.5t36.5 10.5h74q7 139 7 326q0 228 -3.5 304.5t-16.5 105.5t-36.5 36t-58.5 7q-13 21 -13 49q0 41 39 50t151 9q79 0 107 -7.5t32 -28t4 -70.5v-455q0 -187 7 -326z" />
    <glyph glyph-name="Lslash" unicode="&#x141;" horiz-adv-x="1099" 
d="M468 813l173 57q22 -32 35 -75q8 -28 -1.5 -39.5t-38.5 -20.5l-168 -56q0 -451 7 -550h85q304 0 486 70q32 -55 32 -114q0 -44 -29 -64.5t-118 -20.5l-798 -1q-13 34 -13 64q0 20 10.5 29.5t34.5 9.5h74q6 113 7 513l-124 -40q-24 37 -35 73q-7 25 -1 38t29 20l131 42
q0 375 -8 514h-105q-13 34 -13 63q0 21 10.5 30.5t34.5 9.5h433q13 -30 13 -58q0 -25 -10 -35t-36 -10h-90q-7 -135 -7 -449z" />
    <glyph glyph-name="lslash" unicode="&#x142;" horiz-adv-x="612" 
d="M442 872l100 36q21 -20 33 -55q7 -23 1.5 -34t-30.5 -19l-140 -52q0 -506 7 -645h111q12 -26 12 -56q0 -27 -11 -37t-42 -10h-398q-13 32 -13 60q0 22 11 32.5t36 10.5h74q8 139 7 571l-125 -46q-24 29 -33 54q-8 21 -3.5 33t30.5 22l131 47q0 244 -3.5 343.5t-14 134.5
t-34.5 45t-63 10q-13 31 -13 61q0 31 25.5 39t164.5 8q79 0 107 -7.5t32 -28t4 -70.5l1 -461z" />
    <glyph glyph-name="OE" unicode="&#x152;" horiz-adv-x="1818" 
d="M1216 129q319 0 501 70q32 -55 32 -114q0 -44 -29 -64.5t-118 -20.5h-792q-410 0 -552 136t-142 479q0 374 163.5 562t598.5 188h743q57 0 78 -16t21 -64q0 -61 -38 -126q-189 77 -567 77q-7 -113 -7 -449h484q13 -39 13 -82q0 -28 -10 -37.5t-39 -9.5h-448
q1 -432 7 -529h101zM879 146q7 96 7 566q0 318 -7 507q-351 0 -434.5 -125t-83.5 -387q0 -314 90.5 -437.5t427.5 -123.5z" />
    <glyph glyph-name="oe" unicode="&#x153;" horiz-adv-x="1700" 
d="M549 114q114 0 165 86t51 265q0 206 -52.5 306t-180.5 100q-114 0 -165 -86t-51 -266q0 -205 52.5 -305t180.5 -100zM857 135q-120 -155 -351 -155q-212 0 -314 115t-102 347q0 267 123.5 415t356.5 148q235 0 332 -152q122 152 342 152q180 0 270 -88t91 -290
q0 -89 -32 -124t-141 -35h-441q2 -163 65.5 -256t223.5 -93q151 0 280 78q43 -43 43 -91q0 -67 -111 -94t-244 -27q-289 0 -391 150zM1200 871q-99 0 -151.5 -71.5t-57.5 -223.5h104q164 0 223 6.5t68.5 21.5t9.5 56q0 99 -50 155t-146 56z" />
    <glyph glyph-name="Scaron" unicode="&#x160;" horiz-adv-x="1167" 
d="M621 1385q217 0 301 -25.5t84 -98.5q0 -67 -54 -119q-210 96 -390 96q-127 0 -179.5 -50.5t-52.5 -139.5q0 -93 62.5 -148t237.5 -110q207 -62 313.5 -142.5t112.5 -260.5q0 -201 -137.5 -304t-420.5 -103q-197 0 -299 28t-102 104q0 69 58 122q198 -108 412 -108
q147 0 209 48t62 148q0 120 -89.5 180t-285.5 122q-190 58 -270.5 145.5t-80.5 229.5q0 177 131.5 281.5t377.5 104.5zM568 1647q66 30 222 134l50 -76q-135 -142 -271 -255q-137 112 -272 255l50 76q156 -104 221 -134z" />
    <glyph glyph-name="scaron" unicode="&#x161;" horiz-adv-x="928" 
d="M525 1005q132 0 209.5 -25.5t77.5 -82.5q0 -59 -50 -117q-196 91 -310 91q-77 0 -115.5 -29t-38.5 -84q0 -57 43.5 -94t178.5 -87q170 -60 242 -124.5t72 -177.5q0 -143 -110 -219t-313 -76q-155 0 -236.5 22t-81.5 92q0 51 39 100q171 -80 318 -80q92 0 137 30t45 96
q0 71 -68.5 112.5t-214.5 98.5q-144 55 -199 116t-55 155q0 127 109 205t321 78zM463 1356q66 40 221 129l41 -71q-125 -147 -262 -280q-136 132 -262 280l41 71q155 -89 221 -129z" />
    <glyph glyph-name="Ydieresis" unicode="&#x178;" horiz-adv-x="1330" 
d="M1184 1262q-102 -189 -402 -817q0 -203 7 -342h148q13 -30 13 -58q0 -25 -10 -35t-36 -10h-495q-12 34 -12 63q0 21 10.5 30.5t34.5 9.5h110q8 139 8 323q-329 660 -430 836h-78q-12 34 -12 63q0 21 10.5 30.5t34.5 9.5h403q12 -30 12 -58q0 -25 -10 -35t-35 -10h-51
q44 -132 162.5 -404t129.5 -272t115.5 264.5t143.5 411.5h-87q-13 34 -13 63q0 21 10.5 30.5t34.5 9.5h363q12 -30 12 -58q0 -25 -10 -35t-35 -10h-46zM417 1465q-61 0 -91.5 27t-30.5 83q0 60 39 93t105 33t96 -28.5t30 -81.5q0 -59 -37 -92.5t-111 -33.5zM900 1465
q-60 0 -91 27t-31 83q1 60 40 93t105 33q65 0 95 -28.5t30 -81.5q0 -59 -37 -92.5t-111 -33.5z" />
    <glyph glyph-name="Zcaron" unicode="&#x17d;" horiz-adv-x="1143" 
d="M668 1236q-329 -1 -536 -85q-42 67 -42 130q0 42 27.5 63t94.5 21h740q60 0 77 -16.5t17 -51.5q0 -46 -47.5 -123.5t-194.5 -314t-280.5 -456.5t-138.5 -274h134q312 0 513 92q41 -67 41 -128q0 -52 -29 -72.5t-118 -20.5h-782q-64 0 -64 69q0 37 26 76.5t211.5 331.5
t305.5 488.5t152 270.5h-107zM572 1647q66 30 222 134l50 -76q-135 -142 -271 -255q-137 112 -272 255l50 76q156 -104 221 -134z" />
    <glyph glyph-name="zcaron" unicode="&#x17e;" horiz-adv-x="957" 
d="M842 924q0 -43 -48 -113.5t-142 -214t-183.5 -286.5t-93.5 -197h181q122 0 297 68q26 -52 26 -106q0 -41 -25 -58t-101 -17h-617q-64 0 -64 54q0 30 26 69.5t166 237.5t211.5 315t100.5 191h-246q-67 0 -213 -73q-42 60 -42 119q0 35 20 51t75 16h596q42 0 59 -12.5
t17 -43.5zM472 1356q66 40 221 129l41 -71q-125 -147 -262 -280q-136 132 -262 280l41 71q155 -89 221 -129z" />
    <glyph glyph-name="florin" unicode="&#x192;" 
d="M501 -15q-21 -172 -59 -250.5t-118.5 -126.5t-215.5 -48q-82 0 -110.5 13t-22.5 58q6 53 46 98q148 -47 196.5 -20.5t77.5 265t56 455.5l38 313h-116q-8 36 -4 70q3 25 15.5 36.5t38.5 11.5h80l15 118q31 251 142.5 349t324.5 98q120 0 180.5 -20t54.5 -74
q-6 -48 -54 -101q-159 66 -262 66q-87 0 -121.5 -58.5t-52.5 -201.5l-22 -176h277q8 -33 4 -70q-4 -29 -16.5 -38.5t-45.5 -9.5h-233z" />
    <glyph glyph-name="circumflex" unicode="&#x2c6;" horiz-adv-x="554" 
d="M276 1262q-65 -35 -221 -134l-40 61q125 148 262 281q136 -133 261 -281l-40 -61q-156 99 -222 134z" />
    <glyph glyph-name="caron" unicode="&#x2c7;" horiz-adv-x="554" 
d="M276 1356q66 40 222 129l40 -71q-125 -147 -261 -280q-137 132 -262 280l40 71q156 -89 221 -129z" />
    <glyph glyph-name="breve" unicode="&#x2d8;" horiz-adv-x="563" 
d="M281 1296q106 0 197 124l70 -51q-95 -225 -271 -225q-182 0 -262 225l70 51q96 -124 196 -124z" />
    <glyph glyph-name="dotaccent" unicode="&#x2d9;" horiz-adv-x="309" 
d="M142 1161q-66 0 -96.5 27t-30.5 78q0 55 39 88t110 33t101 -28.5t30 -76.5q0 -54 -37 -87.5t-116 -33.5z" />
    <glyph glyph-name="ring" unicode="&#x2da;" horiz-adv-x="523" 
d="M262 1196q65 0 92.5 24.5t27.5 68.5t-30 69t-90 25q-65 0 -93 -25t-28 -69t30 -68.5t91 -24.5zM252 1108q-122 0 -172 39.5t-50 127.5t61.5 141.5t184.5 53.5q117 0 167 -39.5t50 -127.5t-61.5 -141.5t-179.5 -53.5z" />
    <glyph glyph-name="ogonek" unicode="&#x2db;" horiz-adv-x="1027" 
d="M886 197q43 -41 43 -91q0 -77 -133 -136.5t-133 -183.5q0 -60 27 -91.5t85 -31.5q64 0 131 45q28 -32 28 -66q0 -38 -72.5 -52.5t-175.5 -14.5q-110 0 -159 36t-49 113q0 98 102 198.5t306 274.5z" />
    <glyph glyph-name="tilde" unicode="&#x2dc;" horiz-adv-x="649" 
d="M430 1279q50 61 105 147q99 -29 99 -99q0 -57 -84 -118t-139 -61q-50 0 -192 138q-51 -63 -106 -151q-98 28 -98 104q0 51 79 112.5t144 61.5q50 0 192 -134z" />
    <glyph glyph-name="hungarumlaut" unicode="&#x2dd;" horiz-adv-x="692" 
d="M15 1131q36 192 72 347q186 15 186 -76q0 -75 -152 -302zM434 1131q36 192 72 347q186 15 186 -76q0 -75 -152 -302z" />
    <glyph glyph-name="Delta" unicode="&#x394;" horiz-adv-x="1353" 
d="M40 0v103q526 1238 552.5 1251t183.5 13l538 -1264v-103h-1274zM219 103h832q-410 1026 -413.5 1026t-418.5 -1026z" />
    <glyph glyph-name="Delta" unicode="&#x2206;" horiz-adv-x="1353" 
d="M40 0v103q526 1238 552.5 1251t183.5 13l538 -1264v-103h-1274zM219 103h832q-410 1026 -413.5 1026t-418.5 -1026z" />
    <glyph glyph-name="Omega" unicode="&#x3a9;" horiz-adv-x="1761" 
d="M1020 129q311 302 311 625q0 262 -120.5 373.5t-340.5 111.5q-208 0 -321.5 -115t-113.5 -351q0 -345 306 -644v-129h-600q-63 0 -82 19.5t-19 63.5q0 52 27 116q187 -70 453 -70q-330 282 -330 600q0 300 193.5 478t531.5 178q317 0 489 -126.5t172 -433.5
q0 -368 -330 -696q261 0 443 70q32 -55 32 -114q0 -44 -29 -64.5t-118 -20.5h-554v129z" />
    <glyph glyph-name="Omega" unicode="&#x2126;" horiz-adv-x="1761" 
d="M1020 129q311 302 311 625q0 262 -120.5 373.5t-340.5 111.5q-208 0 -321.5 -115t-113.5 -351q0 -345 306 -644v-129h-600q-63 0 -82 19.5t-19 63.5q0 52 27 116q187 -70 453 -70q-330 282 -330 600q0 300 193.5 478t531.5 178q317 0 489 -126.5t172 -433.5
q0 -368 -330 -696q261 0 443 70q32 -55 32 -114q0 -44 -29 -64.5t-118 -20.5h-554v129z" />
    <glyph glyph-name="pi" unicode="&#x3c0;" horiz-adv-x="1364" 
d="M1058 867v-581q0 -119 14.5 -151.5t70.5 -31.5q12 -29 12 -52q0 -32 -22.5 -46.5t-110.5 -14.5q-113 0 -141 47t-28 156v674h-303v-775q0 -102 -109 -102q-67 0 -126 10q30 218 30 434v433q-67 0 -212 -73q-43 60 -43 119q0 35 20 51t76 16h650q237 0 412 68
q26 -52 26 -106q0 -41 -25 -58t-101 -17h-90z" />
    <glyph glyph-name="uni1200" unicode="&#x1200;" horiz-adv-x="1422" 
d="M421 1509q30 0 42.5 -12.5t12.5 -50.5q0 -281 -10 -673t-10 -512q0 -201 45 -270.5t169 -69.5q119 0 199 77.5t103.5 281.5t23.5 485q0 424 -51 709q84 35 162 35q65 0 87.5 -40.5t22.5 -385.5q0 -879 -153 -1083.5t-477 -204.5q-213 0 -282.5 67.5t-69.5 228.5
q-2 128 9 359.5t11 445.5q0 357 -13.5 424.5t-47.5 67.5q-9 14 -9 35q0 35 89.5 60.5t146.5 25.5z" />
    <glyph glyph-name="uni1201" unicode="&#x1201;" horiz-adv-x="1845" 
d="M421 1509q30 0 42.5 -12.5t12.5 -50.5q0 -281 -10 -673t-10 -512q0 -201 45 -270.5t169 -69.5q119 0 199 77.5t103.5 281.5t23.5 485q0 424 -51 709q84 35 162 35q65 0 87.5 -40.5t22.5 -385.5q0 -90 -2 -173q207 5 307 24q138 25 159 25q15 0 29.5 -11.5t14.5 -23.5
t-7.5 -54.5t-7.5 -68.5q0 -24 11.5 -31.5t31.5 -3.5q7 -15 7 -35q0 -30 -24.5 -42t-100.5 -22.5t-112 -10.5q-28 0 -41 12t-13 38q0 33 17 106q-169 -11 -274 -16q-22 -628 -148 -796q-153 -205 -477 -205q-213 0 -282.5 67.5t-69.5 228.5q-2 128 9 359.5t11 445.5
q0 357 -13.5 424.5t-47.5 67.5q-9 14 -9 35q0 35 89.5 60.5t146.5 25.5z" />
    <glyph glyph-name="uni1202" unicode="&#x1202;" horiz-adv-x="1320" 
d="M184 1388q-9 14 -9 35q0 35 89.5 60.5t146.5 25.5q30 0 42.5 -12.5t12.5 -50.5q0 -136 -10 -267.5t-10 -226.5q0 -98 39.5 -135.5t147.5 -37.5q92 0 130 40t102 239t64 340q0 37 -5 76q96 35 185 35q44 0 60.5 -14t16.5 -45q0 -107 -138.5 -480.5t-246.5 -648
t-108 -358.5q0 -17 9.5 -23t31.5 -6q115 0 253 25t159 25q14 0 29 -11.5t15 -23.5t-7.5 -54.5t-7.5 -68.5q0 -24 11.5 -31.5t30.5 -3.5q8 -15 8 -35q0 -30 -24.5 -42t-101 -22.5t-112.5 -10.5q-28 0 -41 12t-13 38q0 33 18 106q-346 -22 -440 -22q-43 0 -58.5 16.5
t-15.5 52.5q0 72 63 228.5t238 588.5q-190 -48 -336 -48q-95 0 -136.5 37.5t-41.5 131.5q0 72 10.5 199t10.5 206q0 90 -16 125.5t-45 35.5z" />
    <glyph glyph-name="uni1203" unicode="&#x1203;" horiz-adv-x="1361" 
d="M693 -36q0 -16 5.5 -24.5t24.5 -0.5q12 -18 12 -39q0 -33 -87 -59t-149 -26q-31 0 -46.5 16.5t-15.5 52.5q0 72 63 228.5t238 588.5q-190 -48 -336 -48q-95 0 -136.5 37.5t-41.5 131.5q0 72 10.5 199t10.5 206q0 90 -16 125.5t-45 35.5q-9 14 -9 35q0 35 89.5 60.5
t146.5 25.5q30 0 42.5 -12.5t12.5 -50.5q0 -136 -10 -267.5t-10 -226.5q0 -98 39.5 -135.5t147.5 -37.5q92 0 130 40t102 239t64 340q0 37 -5 76q96 35 185 35q44 0 60.5 -14t16.5 -45q0 -107 -138.5 -480.5t-246.5 -648t-108 -357.5z" />
    <glyph glyph-name="uni1204" unicode="&#x1204;" horiz-adv-x="1339" 
d="M736 169q-44 -126 -20.5 -187t117.5 -61q73 0 123.5 34.5t50.5 115.5q-1 63 -37.5 99t-103.5 36q-70 0 -130 -37zM738 701q-190 -47 -336 -47q-95 0 -136.5 37t-41.5 132q0 72 10.5 199t10.5 206q0 89 -16 125t-45 36q-9 14 -9 34q0 35 89.5 60.5t146.5 25.5
q30 0 42.5 -12t12.5 -50q0 -137 -10 -268t-10 -226q0 -98 39.5 -135.5t147.5 -37.5q92 0 130 40t102 238.5t64 339.5q0 38 -5 76q96 36 185 36q44 0 60.5 -14t16.5 -46q0 -107 -125.5 -444t-268.5 -734q116 60 226 60q98 0 154.5 -45.5t56.5 -131.5q0 -153 -159 -256.5
t-387 -103.5q-114 0 -165 37.5t-51 117.5q0 74 63.5 231.5t207.5 519.5z" />
    <glyph glyph-name="uni1205" unicode="&#x1205;" horiz-adv-x="1492" 
d="M747 -79q112 0 192 77.5t103.5 281.5t23.5 485q0 424 -51 709q84 35 162 35q65 0 87.5 -40.5t22.5 -385.5q0 -879 -153 -1083.5t-477 -204.5q-195 0 -263 73.5t-68 256.5q0 263 46 652q-94 0 -116 12t-22 58q0 43 10.5 162.5t10.5 202.5q0 76 -13.5 126t-47.5 50
q-9 14 -9 35q0 35 89.5 60.5t146.5 25.5q30 0 42.5 -12.5t12.5 -50.5q0 -113 -10 -260.5t-10 -231.5q0 -35 16 -41.5t54 -6.5q35 0 47.5 -9.5t12.5 -29.5q0 -32 -19 -226.5t-20 -381.5q0 -183 44 -260.5t156 -77.5z" />
    <glyph glyph-name="uni1206" unicode="&#x1206;" horiz-adv-x="1838" 
d="M1217 1140q106 -23 190 -23q70 0 99.5 26t29.5 97q0 80 -47 121.5t-127 41.5q-89 0 -117 -44t-28 -219zM421 1509q30 0 42.5 -12.5t12.5 -50.5q0 -281 -10 -673t-10 -512q0 -201 42 -270.5t172 -69.5q119 0 194 75t103 228.5t28 437.5l1 471q0 228 115.5 312t309.5 84
q177 0 257 -59t80 -188q0 -138 -70.5 -214.5t-201.5 -76.5q-108 0 -269 46v-388q0 -474 -158 -664t-473 -190q-213 0 -282.5 65t-69.5 231q-1 128 10 359.5t11 445.5q0 357 -13.5 424.5t-47.5 67.5q-9 14 -9 35q0 35 89.5 60.5t146.5 25.5z" />
    <glyph glyph-name="uni1207" unicode="&#x1207;" horiz-adv-x="2231" 
d="M814 1509q30 0 43 -12.5t13 -50.5q-1 -281 -11 -673t-10 -512q0 -201 42.5 -270.5t171.5 -69.5q119 0 194.5 75t103.5 228.5t28 437.5v471q0 228 116 312t309 84q178 0 257.5 -59t79.5 -188q0 -138 -70 -214.5t-202 -76.5q-108 0 -269 46v-388q0 -474 -157.5 -664
t-472.5 -190q-208 0 -280 65t-72 231q-2 128 9 359q8 176 10 341q-221 -1 -279 -8q18 -67 18 -97q0 -25 -18 -40t-104 -31t-129 -16q-20 0 -30 10.5t-10 34.5q0 19 7 44q25 -3 33.5 5t8.5 28q0 28 -7 64.5t-7 51.5q0 16 17.5 25.5t93.5 25.5t97 19t310 3q0 344 -13 410
q-13 68 -48 68q-8 14 -9 35q0 35 90 60.5t146 25.5zM1611 1140q105 -23 189 -23q71 0 100.5 26t29.5 97q0 80 -47 121.5t-128 41.5q-89 0 -116.5 -44t-27.5 -219z" />
    <glyph glyph-name="uni1208" unicode="&#x1208;" horiz-adv-x="1326" 
d="M553 1509q32 0 55 -23.5t180 -252t231 -357t96.5 -277t24.5 -364t16 -260t40 -36.5q15 -21 15 -41q0 -34 -83.5 -58.5t-145.5 -24.5q-34 0 -47.5 19t-13.5 104q-2 500 -52 680.5t-200 375.5q-156 -131 -224 -330t-68 -470q0 -193 33 -349q-74 -30 -161 -30
q-61 0 -77.5 42.5t-16.5 199.5q0 260 51 463t149.5 349t231.5 251q-178 234 -202.5 251t-55.5 17q-9 21 -9 38q0 35 97 59t136 24z" />
    <glyph glyph-name="uni1209" unicode="&#x1209;" horiz-adv-x="1702" 
d="M553 1509q32 0 55 -23.5t180 -252.5q137 -200 211 -324q262 3 380 25q138 25 159 25q14 0 29 -11.5t15 -23.5t-7.5 -54.5t-7.5 -68.5q0 -24 11.5 -31.5t30.5 -3.5q8 -15 8 -35q0 -30 -24.5 -42t-101 -22.5t-112.5 -10.5q-28 0 -41 12t-13 38q0 33 18 106
q-177 -11 -284 -17q41 -93 56 -196q23 -148 25 -363.5t16 -260t40 -36.5q15 -21 15 -41q0 -34 -83.5 -58.5t-145.5 -24.5q-34 0 -47.5 19t-13.5 104q-2 500 -52 680.5t-200 375.5q-156 -131 -224 -330t-68 -470q0 -193 33 -349q-74 -30 -161 -30q-61 0 -77.5 42.5
t-16.5 199.5q0 260 51 463t149.5 349t231.5 251q-178 234 -202.5 251t-55.5 17q-9 21 -9 38q0 35 97 59t136 24z" />
    <glyph glyph-name="uni120A" unicode="&#x120a;" horiz-adv-x="1699" 
d="M986 -185q-38 0 -51.5 19t-13.5 104q-2 500 -52 680.5t-200 375.5q-156 -131 -224 -330t-68 -470q0 -193 33 -349q-74 -30 -161 -30q-61 0 -77.5 42.5t-16.5 199.5q0 260 51 463t149.5 349t231.5 251q-178 234 -202.5 251t-55.5 17q-9 21 -9 38q0 35 97 59t136 24
q32 0 55 -23.5t180 -252t231 -357t96.5 -277t24.5 -364t12.5 -258.5t45.5 -43q76 0 196 25t141 25q14 0 29 -11.5t15 -23.5t-7.5 -54.5t-7.5 -68.5q0 -24 11.5 -31.5t30.5 -3.5q8 -15 8 -35q0 -30 -24.5 -42t-101 -22.5t-112.5 -10.5q-28 0 -41 12t-13 38q0 33 18 106
q-268 -22 -354 -22z" />
    <glyph glyph-name="uni120B" unicode="&#x120b;" horiz-adv-x="1326" 
d="M659 1003q-168 -136 -235 -268.5t-67 -309.5q0 -107 28 -219q-69 -30 -156 -30q-61 0 -77.5 37t-16.5 131q0 147 47.5 285.5t149.5 262t247 233.5q-170 229 -194.5 246t-55.5 17q-9 21 -9 38q0 35 97 59t136 24q32 0 55 -23.5t180 -252t231 -357t96.5 -277t24.5 -364
t16 -260t40 -36.5q15 -21 15 -41q0 -34 -83.5 -58.5t-145.5 -24.5q-34 0 -47.5 19t-13.5 104q-2 500 -52 680.5t-210 384.5z" />
    <glyph glyph-name="uni120C" unicode="&#x120c;" horiz-adv-x="1753" 
d="M1132 172q0 -151 34 -201t114 -50q83 0 127 36t44 110q-1 70 -45 105t-113 35q-76 0 -161 -35zM1132 260q164 73 302 73q113 0 176 -50.5t63 -137.5q0 -152 -165.5 -251t-396.5 -99q-104 0 -152 46t-48 187q0 419 -46 595t-196 371q-156 -131 -224 -330t-68 -470
q0 -193 33 -349q-74 -30 -161 -30q-61 0 -77.5 42.5t-16.5 199.5q0 260 51 463t149.5 349t231.5 251q-178 234 -202.5 251t-55.5 17q-9 21 -9 38q0 35 97 59t136 24q33 0 55.5 -23.5t179.5 -252t227 -348.5t94 -279.5t23 -345.5z" />
    <glyph glyph-name="uni120D" unicode="&#x120d;" horiz-adv-x="1501" 
d="M356 172q0 -151 34 -201t114 -50q83 0 127 36t44 110q-1 70 -45 105t-113 35q-76 0 -161 -35zM356 260q164 73 302 73q113 0 176 -50.5t63 -137.5q0 -152 -165.5 -251t-396.5 -99q-104 0 -152 61t-48 249q0 179 49.5 361t177 340t410.5 314q-178 234 -202.5 251t-55.5 17
q-9 21 -9 38q0 35 97 59t136 24q32 0 55 -23.5t180 -252t227 -348.5t94 -279.5t24 -372.5t14 -257.5t39 -36.5q15 -21 15 -41q0 -34 -83.5 -58.5t-145.5 -24.5q-34 0 -47.5 19t-13.5 104q0 509 -46 685t-196 371q-293 -156 -390.5 -335t-107.5 -399z" />
    <glyph glyph-name="uni120E" unicode="&#x120e;" horiz-adv-x="2157" 
d="M553 1509q32 0 55 -23.5t180 -252t231 -357.5q10 -18 20 -37q201 0 249 3q52 4 146.5 25.5t129.5 21.5q22 0 54 -60q138 60 250 60q96 0 150 -47.5t54 -133.5q0 -142 -158 -249t-381 -107q-121 0 -172 42.5t-51 115.5q0 94 77 217q-141 -6 -300 -7q19 -59 28 -121
q23 -148 25 -363.5t16 -260t40 -36.5q15 -21 15 -41q0 -34 -83.5 -58.5t-145.5 -24.5q-34 0 -47.5 19t-13.5 104q-2 500 -52 680.5t-200 375.5q-156 -131 -224 -330t-68 -470q0 -193 33 -349q-74 -30 -161 -30q-61 0 -77.5 42.5t-16.5 199.5q0 260 51 463t149.5 349
t231.5 251q-178 234 -202.5 251t-55.5 17q-9 21 -9 38q0 35 97 59t136 24zM1577 726q-35 -72 -35 -135q0 -58 31 -85.5t100 -27.5q79 0 128 38.5t49 117.5q-1 60 -36 94.5t-102 34.5q-60 0 -135 -37z" />
    <glyph glyph-name="uni120F" unicode="&#x120f;" horiz-adv-x="1764" 
d="M659 1003q-168 -136 -235 -268.5t-67 -309.5q0 -107 28 -219q-69 -30 -156 -30q-61 0 -77.5 37t-16.5 131q0 147 47.5 285.5t149.5 262t247 233.5q-170 229 -194.5 246t-55.5 17q-9 21 -9 38q0 35 97 59t136 24q32 0 55 -23.5t180 -252t231 -357t96.5 -277t24.5 -365.5
t16 -261q8 -28 22 -35q177 6 263 21q138 25 159 25q14 0 29 -11.5t15 -23.5t-7.5 -54.5t-7.5 -68.5q0 -24 11.5 -31.5t30.5 -3.5q8 -15 8 -35q0 -30 -24.5 -42t-101 -22.5t-112.5 -10.5q-28 0 -41 12t-13 38q0 33 18 101q-315 -17 -522 -17q-128 0 -191 -8q18 -67 18 -97
q0 -25 -18 -40t-104 -31t-128 -16q-20 0 -30.5 10.5t-10.5 34.5q0 19 8 44q25 -3 33 5t8 28q0 28 -6.5 64.5t-6.5 51.5q0 16 17.5 25.5t93.5 25.5t97 19q20 3 258 3v4q-2 500 -52 680.5t-210 384.5z" />
    <glyph glyph-name="uni1210" unicode="&#x1210;" horiz-adv-x="2091" 
d="M1857 74q0 -79 14 -111t40 -24q15 -18 15 -40q0 -37 -88 -60.5t-146 -23.5q-31 0 -44 13.5t-13 63.5q0 75 5 198t5 243q0 231 -116 312.5t-413 81.5v-55q0 -584 44 -827q-79 -30 -156 -30q-75 0 -92.5 44.5t-17.5 484.5v382q-274 -6 -397 -111q-131 -111 -131 -405
q2 -212 36 -365q-68 -30 -146 -30q-69 0 -90 35.5t-21 178.5q0 443 198 633q171 165 550 187q-3 426 -12 471q-13 68 -48 68q-8 14 -9 35q0 35 90 60.5t146 25.5q30 0 43 -12.5t13 -50.5v-593q457 0 604 -80.5t147 -278.5q0 -120 -5 -227t-5 -193z" />
    <glyph glyph-name="uni1211" unicode="&#x1211;" horiz-adv-x="2494" 
d="M1857 74q0 -79 14 -111t40 -24q15 -18 15 -40q0 -37 -88 -60.5t-146 -23.5q-31 0 -44 13.5t-13 63.5q0 75 5 198t5 243q0 231 -116 312.5t-413 81.5v-55q0 -584 44 -827q-79 -30 -156 -30q-75 0 -92.5 44.5t-17.5 484.5v382q-274 -6 -397 -111q-131 -111 -131 -405
q2 -212 36 -365q-68 -30 -146 -30q-69 0 -90 35.5t-21 178.5q0 443 198 633q171 165 550 187q-3 426 -12 471q-13 68 -48 68q-8 14 -9 35q0 35 90 60.5t146 25.5q30 0 43 -12.5t13 -50.5v-593q457 0 604 -81q129 -70 144 -232q207 5 307 24q138 25 159 25q15 0 29.5 -11.5
t14.5 -23.5t-7.5 -54.5t-7.5 -68.5q0 -24 11.5 -31.5t31.5 -3.5q7 -15 7 -35q0 -30 -24.5 -42t-100.5 -22.5t-112 -10.5q-28 0 -41 12t-13 38q0 33 17 106q-164 -11 -269 -16q-1 -83 -4 -159q-5 -107 -5 -193z" />
    <glyph glyph-name="uni1212" unicode="&#x1212;" horiz-adv-x="2493" 
d="M1635 -118q0 85 5 208t5 243q0 231 -116 312.5t-413 81.5v-55q0 -584 44 -827q-79 -30 -156 -30q-75 0 -92.5 44.5t-17.5 484.5v382q-274 -6 -397 -111q-131 -111 -131 -405q2 -212 36 -365q-68 -30 -146 -30q-69 0 -90 35.5t-21 178.5q0 443 198 633q171 165 550 187
q-3 426 -12 471q-13 68 -48 68q-8 14 -9 35q0 35 90 60.5t146 25.5q30 0 43 -12.5t13 -50.5v-593q457 0 604 -80.5t147 -278.5q0 -120 -5 -227t-5 -264q0 -46 9 -57.5t31 -11.5q136 0 273.5 25t158.5 25q15 0 29.5 -11.5t14.5 -23.5t-7.5 -54.5t-7.5 -68.5q0 -24 11.5 -31.5
t31.5 -3.5q7 -15 7 -35q0 -30 -24.5 -42t-100.5 -22.5t-112 -10.5q-28 0 -41 12t-13 38q0 33 17 106q-331 -22 -426 -22q-41 0 -57 16.5t-16 50.5z" />
    <glyph glyph-name="uni1213" unicode="&#x1213;" horiz-adv-x="2091" 
d="M894 428v298q-301 -6 -410 -91q-118 -92 -118 -263q0 -72 24 -166q-56 -30 -138 -30q-65 0 -86 28t-21 102q0 268 202 407q172 118 546 137q-2 423 -12 470q-13 68 -48 68q-8 14 -9 35q0 35 90 60.5t146 25.5q30 0 43 -12.5t13 -50.5v-593q457 0 604 -80.5t147 -278.5
q0 -120 -5 -227t-5 -193q0 -79 14 -111t40 -24q15 -18 15 -40q0 -37 -88 -60.5t-146 -23.5q-31 0 -44 13.5t-13 63.5q0 75 5 198t5 243q0 231 -116 312.5t-413 81.5v-19q0 -281 39 -502q-74 -30 -151 -30q-75 0 -92.5 37t-17.5 215z" />
    <glyph glyph-name="uni1214" unicode="&#x1214;" horiz-adv-x="2482" 
d="M894 344v382q-274 -6 -397 -111q-131 -111 -131 -405q2 -212 36 -365q-68 -30 -146 -30q-69 0 -90 35.5t-21 178.5q0 443 198 633q171 165 550 187q-3 426 -12 471q-13 68 -48 68q-8 14 -9 35q0 35 90 60.5t146 25.5q30 0 43 -12.5t13 -50.5v-593q457 0 604 -80.5
t147 -278.5q0 -97 -10 -234q164 73 302 73q112 0 175 -50.5t63 -137.5q0 -152 -165.5 -251t-395.5 -99q-105 0 -153 46t-48 157q0 66 5 146.5t5 188.5q0 231 -116 312.5t-413 81.5v-55q0 -584 44 -827q-79 -30 -156 -30q-75 0 -92.5 44.5t-17.5 484.5zM1857 172
q0 -151 34 -201t113 -50q84 0 128 36t44 110q-1 70 -45.5 105t-113.5 35q-75 0 -160 -35z" />
    <glyph glyph-name="uni1215" unicode="&#x1215;" horiz-adv-x="2091" 
d="M875 1423h159q53 0 67.5 -13t14.5 -56v-501q457 0 604 -80.5t147 -278.5q0 -120 -5 -227t-5 -193q0 -79 14 -111t40 -24q15 -18 15 -40q0 -37 -88 -60.5t-146 -23.5q-31 0 -44 13.5t-13 63.5q0 75 5 198t5 243q0 231 -116 312.5t-413 81.5v-55q0 -584 44 -827
q-79 -30 -156 -30q-75 0 -92.5 44.5t-17.5 484.5v382q-274 -6 -397 -111q-131 -111 -131 -405q2 -212 36 -365q-68 -30 -146 -30q-69 0 -90 35.5t-21 178.5q0 443 198 633q172 166 551 187v455h-162q-36 0 -50 11t-14 50q1 100 -12.5 145.5t-47.5 45.5q-9 14 -9 34
q0 35 89.5 60.5t146.5 25.5q30 0 42.5 -12t12.5 -50q0 -58 -15 -191z" />
    <glyph glyph-name="uni1216" unicode="&#x1216;" horiz-adv-x="2101" 
d="M894 428v298q-274 -6 -397 -111q-131 -111 -131 -405q2 -212 36 -365q-68 -30 -146 -30q-69 0 -90 35.5t-21 178.5q0 443 198 633q172 166 550 187q-2 424 -12 471q-13 68 -48 68q-8 14 -9 35q0 35 90 60.5t146 25.5q30 0 43 -12.5t13 -50.5v-593q468 0 609.5 -74
t141.5 -276q0 -147 14 -178.5t40 -24.5q15 -18 15 -40q0 -36 -88 -60t-146 -24q-31 0 -44 13.5t-13 63.5v127q0 191 -103.5 269t-425.5 78v-19q0 -281 39 -502q-74 -30 -151 -30q-75 0 -92.5 37t-17.5 215z" />
    <glyph glyph-name="uni1217" unicode="&#x1217;" horiz-adv-x="2508" 
d="M894 428v298q-301 -6 -410 -91q-118 -92 -118 -263q0 -72 24 -166q-56 -30 -138 -30q-65 0 -86 28t-21 102q0 268 202 407q172 118 546 137q-2 423 -12 470q-13 68 -48 68q-8 14 -9 35q0 35 90 60.5t146 25.5q30 0 43 -12.5t13 -50.5v-593q457 0 604 -80.5t147 -278.5
q0 -120 -5 -227t-5 -193q0 -84 14 -116q7 -15 16 -21q204 5 298 22q138 25 159 25q14 0 29 -11.5t15 -23.5t-7.5 -54.5t-7.5 -68.5q0 -24 11.5 -31.5t30.5 -3.5q8 -15 8 -35q0 -30 -24.5 -42t-101 -22.5t-112.5 -10.5q-28 0 -41 12t-13 38q0 33 18 101q-315 -17 -522 -17
q-128 0 -191 -8q18 -67 18 -97q0 -25 -18 -40t-104 -31t-128 -16q-20 0 -30.5 10.5t-10.5 34.5q0 19 8 44q25 -3 33 5t8 28q0 28 -6.5 64.5t-6.5 51.5q0 16 17.5 25.5t93.5 25.5t97 19q19 3 228 3q1 58 5 156q5 123 5 243q0 231 -116 312.5t-413 81.5v-19q0 -281 39 -502
q-74 -30 -151 -30q-75 0 -92.5 37t-17.5 215z" />
    <glyph glyph-name="uni1218" unicode="&#x1218;" horiz-adv-x="2227" 
d="M846 1052q-105 26 -200 26q-154 0 -215 -91.5t-61 -368.5q0 -197 42 -279.5t144 -82.5q104 -1 148.5 93.5t141.5 702.5zM1667 481q124 0 172 82t48 247q0 203 -53 268t-169 65q-82 0 -154 -25q0 -64 -10 -188.5t-10 -213.5q0 -133 36 -184t140 -51zM1527 355
q-143 0 -200 45t-57 169q0 101 15 272t6.5 236.5t-80.5 65.5q-82 0 -122.5 -66.5t-125.5 -545.5q-48 -238 -159 -319.5t-313 -81.5q-188 0 -277 84.5t-89 305.5q0 338 119.5 511t365.5 173q175 0 323 -48q182 113 342 113q142 0 205 -53q206 53 342 53q162 0 236 -69
t74 -240q0 -285 -141 -445t-464 -160z" />
    <glyph glyph-name="uni1219" unicode="&#x1219;" horiz-adv-x="2760" 
d="M1527 355q-143 0 -200 45t-57 169q0 101 15 272t6.5 236.5t-80.5 65.5q-82 0 -122.5 -66.5t-125.5 -545.5q-48 -238 -159 -319.5t-313 -81.5q-188 0 -277 84.5t-89 305.5q0 338 119.5 511t365.5 173q175 0 323 -48q182 113 342 113q142 0 205 -53q206 53 342 53
q162 0 236 -69t74 -240q0 -25 -2 -50q206 5 307 24q138 25 159 25q14 0 29 -11.5t15 -23.5t-7.5 -54.5t-7.5 -68.5q0 -24 11.5 -31.5t30.5 -3.5q8 -15 8 -35q0 -30 -24.5 -42t-101 -22.5t-112.5 -10.5q-28 0 -41 12t-13 38q0 33 18 106q-176 -11 -283 -17
q-30 -170 -127 -280q-141 -160 -464 -160zM846 1052q-105 26 -200 26q-154 0 -215 -91.5t-61 -368.5q0 -197 42 -279.5t144 -82.5q104 -1 148.5 93.5t141.5 702.5zM1667 481q124 0 172 82t48 247q0 203 -53 268t-169 65q-82 0 -154 -25q0 -64 -10 -188.5t-10 -213.5
q0 -133 36 -184t140 -51z" />
    <glyph glyph-name="uni121A" unicode="&#x121a;" horiz-adv-x="2351" 
d="M1670 741q78 0 113 25t69.5 136.5t34.5 239.5q0 145 -53 203t-169 58q-82 0 -154 -24q0 -64 -10 -189t-10 -214q0 -133 36 -184t141 -51h2zM846 1312q-105 26 -200 26q-154 0 -215 -91t-61 -369q0 -196 42 -279t144 -83q104 -1 148.5 94t141.5 702zM1734 -37
q0 -17 9.5 -23t31.5 -6q115 0 253 25t159 25q14 0 29 -11.5t15 -23.5t-7.5 -54.5t-7.5 -68.5q0 -24 11.5 -31.5t30.5 -3.5q8 -15 8 -35q0 -30 -24.5 -42t-101 -22.5t-112.5 -10.5q-28 0 -41 12t-13 38q0 33 18 106q-346 -22 -440 -22q-43 0 -58.5 16.5t-15.5 52.5
q0 72 62 224t211 533q-98 -26 -216 -26q-151 0 -208 45t-57 170q0 100 15 271t6.5 236.5t-80.5 65.5q-82 0 -122.5 -66.5t-125.5 -545.5q-48 -238 -159 -319.5t-313 -81.5q-188 0 -277 84.5t-89 305.5q0 338 119.5 511t365.5 173q175 0 323 -48q182 113 342 113
q142 0 205 -52q206 52 350 52q159 0 230.5 -72t71.5 -214q0 -148 -99.5 -408.5t-199 -524t-99.5 -347.5z" />
    <glyph glyph-name="uni121B" unicode="&#x121b;" horiz-adv-x="2227" 
d="M1670 741q78 0 113 25t69.5 136.5t34.5 239.5q0 145 -53 203t-169 58q-82 0 -154 -24q0 -64 -10 -189t-10 -214q0 -133 36 -184t141 -51h2zM846 1312q-105 26 -200 26q-154 0 -215 -91t-61 -369q0 -196 42 -279t144 -83q104 -1 148.5 94t141.5 702zM1734 -36
q0 -16 5.5 -24.5t24.5 -0.5q12 -18 12 -39q0 -33 -87 -59t-149 -26q-31 0 -46.5 16.5t-15.5 52.5q0 72 62 224t211 533q-98 -26 -216 -26q-151 0 -208 45t-57 170q0 100 15 271t6.5 236.5t-80.5 65.5q-82 0 -122.5 -66.5t-125.5 -545.5q-48 -238 -159 -319.5t-313 -81.5
q-188 0 -277 84.5t-89 305.5q0 338 119.5 511t365.5 173q175 0 323 -48q182 113 342 113q142 0 205 -52q206 52 350 52q159 0 230.5 -72t71.5 -214q0 -148 -99.5 -408.5t-199 -524t-99.5 -346.5z" />
    <glyph glyph-name="uni121C" unicode="&#x121c;" horiz-adv-x="2345" 
d="M1670 741q78 0 113 25t69.5 136.5t34.5 239.5q0 145 -53 203t-169 58q-82 0 -154 -24q0 -64 -10 -189t-10 -214q0 -133 36 -184t141 -51h2zM846 1312q-105 26 -200 26q-154 0 -215 -91t-61 -369q0 -196 42 -279t144 -83q104 -1 148.5 94t141.5 702zM1498 -50
q0 71 52 190.5t201 500.5q-98 -26 -216 -26q-151 0 -208 45t-57 170q0 100 15 271t6.5 236.5t-80.5 65.5q-82 0 -122.5 -66.5t-125.5 -545.5q-48 -238 -159 -319.5t-313 -81.5q-188 0 -277 84.5t-89 305.5q0 338 119.5 511t365.5 173q175 0 323 -48q182 113 342 113
q142 0 205 -52q206 52 350 52q159 0 230.5 -72t71.5 -214q0 -148 -99.5 -408.5t-214.5 -562.5q121 60 231 60q98 0 154.5 -45.5t56.5 -131.5q0 -153 -159 -256.5t-387 -103.5q-114 0 -165 37.5t-51 117.5zM1767 169q-44 -126 -20.5 -187t121.5 -61q69 0 119.5 34t50.5 116
q-1 63 -37.5 99t-103.5 36q-70 0 -130 -37z" />
    <glyph glyph-name="uni121D" unicode="&#x121d;" horiz-adv-x="2227" 
d="M861 1312q-120 26 -215 26q-154 0 -215 -91t-61 -369q0 -214 42 -288t144 -74q123 -1 200.5 100.5t104.5 695.5zM1682 741q124 0 172 82.5t48 247.5q0 203 -53 267.5t-169 64.5q-82 0 -154 -24q0 -64 -10 -189t-10 -214q0 -133 36 -184t140 -51zM223 -184q-39 62 -39 121
q0 53 33.5 73t142.5 20q264 0 339.5 73.5t102.5 420.5q-128 -134 -341 -134q-168 0 -252 79t-84 321q0 328 119.5 501t365.5 173q175 0 336 -48q171 113 349 113q137 0 200 -52q206 52 342 52q162 0 236 -69t74 -239q0 -285 -141 -445.5t-464 -160.5q-143 0 -200 45t-57 170
q0 100 15 271t6.5 236.5t-75.5 65.5q-71 0 -117.5 -68.5t-80.5 -543t-74.5 -613t-103.5 -195t-152.5 -80.5t-195.5 -24q-82 1 -145.5 -11t-138.5 -52z" />
    <glyph glyph-name="uni121E" unicode="&#x121e;" horiz-adv-x="2227" 
d="M846 1312q-105 26 -200 26q-154 0 -215 -91t-61 -369q0 -214 42 -288t144 -74q136 -1 203.5 124t86.5 672zM1677 741q124 0 172 82.5t48 247.5q0 203 -53 267.5t-169 64.5q-82 0 -154 -24q0 -64 -10 -189t-10 -214q0 -133 36 -184t140 -51zM1043 662q0 -574 49 -817
q-83 -30 -156 -30q-75 0 -92 32t-17 113q0 86 7.5 295.5t7.5 307.5q-119 -173 -376 -173q-173 0 -257 79t-84 321q0 328 119.5 501t365.5 173q175 0 333 -48q172 113 347 113q137 0 200 -52q206 52 342 52q162 0 236 -69t74 -239q0 -285 -141 -445.5t-464 -160.5
q-143 0 -200 45t-57 170q0 100 15 271t6.5 236.5t-75.5 65.5q-112 0 -147 -141.5t-36 -599.5z" />
    <glyph glyph-name="uni121F" unicode="&#x121f;" horiz-adv-x="2349" 
d="M1468 -185q-128 0 -190 -8q18 -67 18 -97q0 -25 -18 -40t-104 -31t-129 -16q-20 0 -30 10.5t-10 34.5q0 19 7 44q25 -3 33.5 5t8.5 28q0 28 -7 64.5t-7 51.5q0 16 17.5 25.5t93.5 25.5t97 19q20 3 235 3q13 67 57 174q62 152 211 513q-98 -26 -216 -26q-151 0 -208 45
t-57 169q0 101 15 272t6.5 236.5t-80.5 65.5q-82 0 -122.5 -66.5t-125.5 -545.5q-48 -238 -159 -319.5t-313 -81.5q-188 0 -277 84.5t-89 305.5q0 338 119.5 511t365.5 173q175 0 323 -48q182 113 342 113q142 0 205 -53q206 53 350 53q159 0 230.5 -72t71.5 -215
q0 -147 -99.5 -408t-199 -514t-99.5 -341q0 -14 4 -22q197 6 288 22q138 25 159 25q15 0 29.5 -11.5t14.5 -23.5t-7.5 -54.5t-7.5 -68.5q0 -24 11.5 -31.5t31.5 -3.5q7 -15 7 -35q0 -30 -24.5 -42t-100.5 -22.5t-112 -10.5q-28 0 -41 12t-13 38q0 33 17 101
q-315 -17 -522 -17zM846 1292q-105 26 -200 26q-154 0 -215 -91.5t-61 -368.5q0 -197 42 -279.5t144 -82.5q104 -1 148.5 93.5t141.5 702.5zM1670 721q78 0 113 24.5t69.5 136.5t34.5 239q0 145 -53 203.5t-169 58.5q-82 0 -154 -25q0 -64 -10 -188.5t-10 -213.5
q0 -133 36 -184t141 -51h2z" />
    <glyph glyph-name="uni1220" unicode="&#x1220;" horiz-adv-x="2024" 
d="M194 1128q-9 14 -9 35q0 35 89.5 60.5t146.5 25.5q30 0 42.5 -12.5t12.5 -50.5q0 -185 -10 -366t-10 -296q0 -144 42 -206t135 -62q121 0 193.5 63.5t100.5 167t28 297.5q0 210 -51 429q84 35 175 36q63 0 80.5 -32.5t17.5 -367.5q0 -241 41 -304.5t145 -63.5
q110 0 172 44t91.5 130.5t29.5 195.5q0 194 -51 362q84 35 162 35q65 0 87.5 -40.5t22.5 -209.5q2 -301 -146 -472t-428 -171q-137 0 -220 55q-191 -280 -560 -280q-162 0 -225.5 61.5t-63.5 202.5q0 93 10.5 228.5t10.5 246.5q0 122 -15.5 190.5t-45.5 68.5z" />
    <glyph glyph-name="uni1221" unicode="&#x1221;" horiz-adv-x="2506" 
d="M194 1128q-9 14 -9 35q0 35 89.5 60.5t146.5 25.5q30 0 42.5 -12.5t12.5 -50.5q0 -185 -10 -366t-10 -296q0 -144 42 -206t135 -62q121 0 193.5 63.5t100.5 167t28 297.5q0 210 -51 429q84 35 175 36q63 0 80.5 -32.5t17.5 -367.5q0 -241 41 -304.5t145 -63.5
q110 0 172 44t91.5 130.5t29.5 195.5q0 194 -51 362q84 35 162 35q65 0 87.5 -40.5t22.5 -209.5q0 -45 -3 -88q207 5 309 24q138 25 159 25q14 0 29 -11.5t15 -23.5t-7.5 -54.5t-7.5 -68.5q0 -24 11.5 -31.5t30.5 -3.5q8 -15 8 -35q0 -30 -24.5 -42t-101 -22.5t-112.5 -10.5
q-28 0 -41 12t-13 38q0 33 18 106q-181 -12 -289 -17q-33 -161 -127 -269q-148 -171 -428 -171q-137 0 -220 55q-191 -280 -560 -280q-162 0 -225.5 61.5t-63.5 202.5q0 93 10.5 228.5t10.5 246.5q0 122 -15.5 190.5t-45.5 68.5z" />
    <glyph glyph-name="uni1222" unicode="&#x1222;" horiz-adv-x="2066" 
d="M476 1446q0 -185 -10 -366t-10 -296q0 -144 42 -206t135 -62q121 0 193.5 63.5t100.5 167t28 290.5q0 217 -51 436q84 35 175 36q63 0 80.5 -32.5t17.5 -401.5q0 -207 43.5 -270.5t161.5 -63.5q89 0 134 44.5t88.5 184.5t43.5 293q0 97 -28 211q75 35 159 35
q57 0 77.5 -29t20.5 -102q0 -233 -109.5 -517.5t-213.5 -549t-104 -348.5q0 -17 9 -23t31 -6q116 0 253.5 25t158.5 25q15 0 29.5 -11.5t14.5 -23.5t-7.5 -54.5t-7.5 -68.5q0 -24 11.5 -31.5t31.5 -3.5q7 -15 7 -35q0 -30 -24.5 -42t-100.5 -22.5t-112 -10.5q-28 0 -41 12
t-13 38q0 33 17 106q-346 -22 -439 -22q-44 0 -59.5 16.5t-15.5 52.5q0 72 63.5 228.5t211.5 528.5q-82 -26 -178 -26q-114 0 -207 50q-191 -275 -560 -275q-162 0 -225.5 61.5t-63.5 202.5q0 93 10.5 226t10.5 249q0 122 -15.5 190.5t-45.5 68.5q-9 14 -9 35
q0 35 89.5 60.5t146.5 25.5q30 0 42.5 -12.5t12.5 -50.5z" />
    <glyph glyph-name="uni1223" unicode="&#x1223;" horiz-adv-x="2022" 
d="M255 1129q0 122 -15.5 190.5t-45.5 68.5q-9 14 -9 35q0 35 89.5 60.5t146.5 25.5q30 0 42.5 -12.5t12.5 -50.5q0 -185 -10 -366t-10 -296q0 -144 42 -206t135 -62q121 0 193.5 63.5t100.5 167t28 290.5q0 217 -51 436q84 35 175 36q63 0 80.5 -32.5t17.5 -401.5
q0 -207 43.5 -270.5t161.5 -63.5q89 0 134 44.5t88.5 184.5t43.5 293q0 97 -28 211q75 35 159 35q57 0 77.5 -29t20.5 -102q0 -233 -109.5 -517.5t-213.5 -549t-104 -347.5q0 -16 5.5 -24.5t23.5 -0.5q13 -18 13 -39q0 -33 -87 -59t-149 -26q-32 0 -47.5 16.5t-15.5 52.5
q0 72 63.5 228.5t211.5 528.5q-82 -26 -178 -26q-114 0 -207 50q-191 -275 -560 -275q-162 0 -225.5 61.5t-63.5 202.5q0 93 10.5 226t10.5 249z" />
    <glyph glyph-name="uni1224" unicode="&#x1224;" horiz-adv-x="2070" 
d="M1492 169q-43 -126 -19.5 -187t120.5 -61q70 0 120.5 34t50.5 116q-1 63 -38 99t-104 36q-70 0 -130 -37zM255 1129q0 122 -15.5 190.5t-45.5 68.5q-9 14 -9 35q0 35 89.5 60.5t146.5 25.5q30 0 42.5 -12.5t12.5 -50.5q0 -185 -10 -366t-10 -296q0 -144 42 -206t135 -62
q121 0 193.5 63.5t100.5 167t28 290.5q0 217 -51 436q84 35 175 36q63 0 80.5 -32.5t17.5 -401.5q0 -207 43.5 -270.5t161.5 -63.5q89 0 134 44.5t88.5 184.5t43.5 293q0 97 -28 211q75 35 159 35q57 0 77.5 -29t20.5 -133q0 -202 -109.5 -486.5t-234.5 -588.5
q132 60 242 60q98 0 154 -45.5t56 -131.5q0 -153 -158.5 -256.5t-387.5 -103.5q-113 0 -164.5 37.5t-51.5 117.5q0 71 48.5 195t196.5 496q-82 -26 -178 -26q-114 0 -207 50q-191 -275 -560 -275q-162 0 -225.5 61.5t-63.5 202.5q0 93 10.5 226t10.5 249z" />
    <glyph glyph-name="uni1225" unicode="&#x1225;" horiz-adv-x="2267" 
d="M1900 1119q0 187 -50 355q83 35 161 35q66 0 88.5 -40.5t22.5 -195.5q0 -336 -139.5 -528t-402.5 -192q-188 0 -284 120q-206 -283 -510 -283q-167 0 -267 98q-177 -441 -177 -560q0 -42 13 -83q-68 -30 -163 -30q-65 0 -86 16.5t-21 52.5q0 67 63.5 226t163 391
t185.5 491t86 344q0 33 -15.5 42.5t-45.5 9.5q-9 14 -9 35q0 35 107.5 60.5t163.5 25.5q30 0 43 -12.5t13 -50.5q-1 -93 -101.5 -390.5t-68.5 -419.5t171 -122q92 0 179 62.5t140 172t53 308.5q0 202 -51 416q84 35 175 36q63 0 80.5 -32.5t17.5 -401.5q0 -250 39.5 -323
t146.5 -73q99 0 156 47t90 142t33 251z" />
    <glyph glyph-name="uni1226" unicode="&#x1226;" horiz-adv-x="1994" 
d="M1129 1509q54 0 73.5 -13t19.5 -48q0 -96 -68.5 -318t-37 -315.5t158.5 -93.5q112 0 185.5 51.5t120 161t46.5 259.5q0 143 -50 281q83 35 161 35q66 0 88.5 -40.5t22.5 -161.5q0 -329 -169 -520.5t-449 -191.5q-130 0 -237 62q-229 -610 -229 -729q0 -42 13 -83
q-67 -30 -163 -30q-65 0 -86 16.5t-21 52.5q0 67 55 207t181 456q-145 -40 -291 -40q-122 2 -168 58.5t-46 164.5q0 90 8 198t8 219q0 104 -15.5 172.5t-45.5 68.5q-9 14 -9 35q0 35 89.5 60.5t146.5 25.5q30 0 42.5 -12.5t12.5 -50.5q0 -160 -7.5 -318.5t-7.5 -238.5
q0 -137 37 -196.5t117 -59.5q107 0 165 59.5t122 295t64 357.5q0 64 -18 129q88 35 181 35z" />
    <glyph glyph-name="uni1227" unicode="&#x1227;" horiz-adv-x="2065" 
d="M1184 -185q-128 0 -191 -8q18 -67 18 -97q0 -25 -18 -40t-104 -31t-128 -16q-20 0 -30.5 10.5t-10.5 34.5q0 19 8 44q25 -3 33 5t8 28q0 28 -6.5 64.5t-6.5 51.5q0 16 17.5 25.5t93.5 25.5t97 19q19 3 234 3q13 68 58 178q64 157 212 529q-82 -26 -178 -26
q-114 0 -207 50q-191 -275 -560 -275q-162 0 -225.5 61.5t-63.5 202.5q0 93 10.5 226t10.5 249q0 122 -15.5 190.5t-45.5 68.5q-9 14 -9 35q0 35 89.5 60.5t146.5 25.5q30 0 42.5 -12.5t12.5 -50.5q0 -185 -10 -366t-10 -296q0 -144 42 -206t135 -62q121 0 193.5 63.5
t100.5 167t28 290.5q0 217 -51 436q84 35 175 36q63 0 80.5 -32.5t17.5 -401.5q0 -207 43.5 -270.5t161.5 -63.5q89 0 134 44.5t88.5 184.5t43.5 293q0 97 -28 211q75 35 159 35q57 0 77.5 -29t20.5 -102q0 -233 -109.5 -517.5t-213.5 -549t-104 -352.5q0 -14 4 -22
q196 6 288 22q138 25 159 25q14 0 29 -11.5t15 -23.5t-7.5 -54.5t-7.5 -68.5q0 -24 11.5 -31.5t30.5 -3.5q8 -15 8 -35q0 -30 -24.5 -42t-101 -22.5t-112.5 -10.5q-28 0 -41 12t-13 38q0 33 18 101q-315 -17 -522 -17z" />
    <glyph glyph-name="uni1228" unicode="&#x1228;" horiz-adv-x="1255" 
d="M457 -185q-176 0 -239 54t-63 169q0 147 118.5 415t220.5 504.5t102 377.5q0 30 -8.5 42t-28.5 12q-7 13 -8 31q0 33 91.5 61t152.5 28q36 0 47 -15t11 -57q-1 -231 -227 -694t-226 -644q0 -96 57.5 -130.5t178.5 -34.5q158 0 296 25t159 25q14 0 29 -11.5t15 -23.5
t-7.5 -54.5t-7.5 -68.5q0 -24 11.5 -31.5t30.5 -3.5q8 -15 8 -35q0 -30 -24.5 -42t-101 -22.5t-112.5 -10.5q-28 0 -41 12t-13 38q0 33 18 106q-321 -22 -439 -22z" />
    <glyph glyph-name="uni1229" unicode="&#x1229;" horiz-adv-x="1455" 
d="M457 73q-176 0 -239 54t-63 169q0 142 120.5 344t220.5 381.5t100 313.5q0 30 -8.5 42t-28.5 12q-7 13 -8 31q0 33 91.5 61t152.5 28q36 0 47 -15t11 -57q-1 -231 -227 -577.5t-226 -508.5q0 -90 57.5 -124.5t275.5 -34.5q261 0 399 25t159 25q14 0 29 -11.5t15 -23.5
t-7.5 -54.5t-7.5 -68.5q0 -24 11.5 -31.5t30.5 -3.5q8 -15 8 -35q0 -30 -24.5 -42t-101 -22.5t-112.5 -10.5q-28 0 -41 12t-13 38q0 33 18 106q-143 -10 -284 -16q3 -252 44 -426q-78 -30 -156 -30q-75 0 -92 35.5t-17 165.5v250q-67 -1 -134 -1z" />
    <glyph glyph-name="uni122A" unicode="&#x122a;" horiz-adv-x="1416" 
d="M1038 337q0 169 -50 337q83 35 161 35q66 0 88.5 -40.5t22.5 -200.5q1 -276 -147 -464.5t-528 -188.5q-268 0 -349 72.5t-81 203.5q0 167 120.5 408t220 466t99.5 370q0 30 -8 42t-28 12q-8 13 -8 31q0 33 91.5 61t152.5 28q35 0 46 -15t11 -57q0 -245 -226 -678
t-226 -595q0 -110 65.5 -170t209.5 -60q145 0 218.5 44.5t109 136t35.5 222.5z" />
    <glyph glyph-name="uni122B" unicode="&#x122b;" horiz-adv-x="1847" 
d="M998 336q0 95 -13 173q42 30 118 30h14q273 0 407 25q138 25 159 25q15 0 29.5 -11.5t14.5 -23.5t-7.5 -54.5t-7.5 -68.5q0 -24 11.5 -31.5t31.5 -3.5q7 -15 7 -35q0 -30 -24.5 -42t-100.5 -22.5t-112 -10.5q-28 0 -41 12t-13 38q0 33 17 106q-180 -12 -269 -17
q-11 -249 -146 -422q-148 -188 -508 -188q-248 0 -329 72.5t-81 203.5q0 167 120.5 408t220 466t99.5 370q0 30 -8 42t-28 12q-8 13 -8 31q0 33 91.5 61t152.5 28q35 0 46 -15t11 -57q0 -245 -226 -678t-226 -595q0 -110 65.5 -170t189.5 -60q125 0 198.5 44.5t109 136
t35.5 221.5z" />
    <glyph glyph-name="uni122C" unicode="&#x122c;" horiz-adv-x="1705" 
d="M348 -186q-106 0 -149.5 44.5t-43.5 145.5q0 165 118.5 441t220.5 512.5t102 377.5q0 30 -8.5 42t-28.5 12q-7 13 -8 31q0 33 91.5 61t152.5 28q36 0 47 -15t11 -57q-1 -231 -227 -702t-226 -663q0 -74 33 -106t93 -32q127 0 325.5 103t218 113t40.5 10q25 0 57 -60
q132 60 244 60q102 0 155.5 -47.5t53.5 -133.5q0 -142 -157.5 -249t-386.5 -107q-117 0 -167.5 38.5t-50.5 107.5q0 89 78 196q-333 -151 -588 -151zM1126 -3q-36 -72 -36 -135q0 -58 31 -85.5t101 -27.5q78 0 127.5 38.5t49.5 117.5q-1 60 -36 94.5t-98 34.5
q-65 0 -139 -37z" />
    <glyph glyph-name="uni122D" unicode="&#x122d;" horiz-adv-x="1275" 
d="M690 1390q-183 0 -237.5 -152t-54.5 -627q0 -515 55 -596t205 -81q156 0 294 25t159 25q14 0 29 -11.5t15 -23.5t-7.5 -54.5t-7.5 -68.5q0 -24 11.5 -31.5t30.5 -3.5q8 -15 8 -35q0 -30 -24.5 -42t-101 -22.5t-112.5 -10.5q-28 0 -41 12t-13 38q0 33 18 106
q-321 -22 -400 -22q-202 0 -270.5 99.5t-68.5 590.5q-2 635 132.5 819.5t412.5 184.5q131 0 249.5 4t139.5 4q14 0 29 -11.5t15 -24.5q0 -12 -7.5 -54t-7.5 -68q0 -24 11.5 -32t30.5 -4q8 -14 8 -35q0 -30 -24.5 -42t-101 -22.5t-112.5 -10.5q-28 0 -41 12.5t-13 37.5
q0 33 18 107q-115 20 -226 20z" />
    <glyph glyph-name="uni122E" unicode="&#x122e;" horiz-adv-x="1675" 
d="M690 1390q-183 0 -237.5 -152t-54.5 -627q0 -515 55 -596t205 -81q156 0 294 25t159 25q14 0 29 -11.5t15 -23.5t-7.5 -54.5t-7.5 -68.5q0 -24 11.5 -31.5t30.5 -3.5q8 -15 8 -35q0 -30 -24.5 -42t-101 -22.5t-112.5 -10.5q-28 0 -41 12t-13 38q0 33 18 106
q-321 -22 -400 -22q-202 0 -270.5 99.5t-68.5 590.5q-2 635 132.5 819.5t412.5 184.5q62 0 120.5 3.5t132 11.5t107.5 8q23 0 55 -61q132 61 249 61q97 0 150.5 -47.5t53.5 -133.5q0 -142 -157.5 -249.5t-380.5 -107.5q-121 0 -172.5 42.5t-51.5 115.5q0 94 78 218
q-115 20 -216 20zM1096 1368q-36 -72 -36 -135q0 -57 31 -85t101 -28q78 0 127.5 39t49.5 118q-1 59 -36 94t-98 35q-65 0 -139 -38z" />
    <glyph glyph-name="uni122F" unicode="&#x122f;" horiz-adv-x="1847" 
d="M998 336q0 95 -13 173q42 30 118 30h14q273 0 407 25q138 25 159 25q15 0 29.5 -11.5t14.5 -23.5t-7.5 -54.5t-7.5 -68.5q0 -24 11.5 -31.5t31.5 -3.5q7 -15 7 -35q0 -30 -24.5 -42t-100.5 -22.5t-112 -10.5q-28 0 -41 12t-13 38q0 33 17 106q-180 -12 -269 -17
q-11 -249 -146 -422q-148 -188 -508 -188q-248 0 -329 72.5t-81 203.5q0 167 120.5 408t258 491t137.5 425q0 27 -7 39h-116q-128 0 -190 -8q18 -67 18 -97q0 -25 -18 -40t-104 -31t-129 -16q-20 0 -30 10.5t-10 34.5q0 19 7 44q25 -3 33.5 5t8.5 28q0 28 -7 64.5t-7 51.5
q0 16 17.5 25.5t93.5 25.5t97.5 19t269.5 3q506 0 643.5 25t158.5 25q15 0 29.5 -11.5t14.5 -23.5t-7.5 -54.5t-7.5 -68.5q0 -24 11.5 -31.5t31.5 -3.5q7 -15 7 -35q0 -30 -24.5 -42t-100.5 -22.5t-112 -10.5q-28 0 -41 12t-13 38q0 33 17 101q-140 -8 -284 -12
q-16 -247 -260 -675q-261 -458 -261 -620q0 -110 65.5 -170t189.5 -60q125 0 198.5 44.5t109 136t35.5 221.5z" />
    <glyph glyph-name="uni1230" unicode="&#x1230;" horiz-adv-x="1384" 
d="M580 1320q-13 68 -48 68q-8 14 -9 35q0 35 90 60.5t146 25.5q30 0 43 -12.5t13 -50.5v-251q182 -11 262 -77q98 -79 98 -338q0 -143 -7.5 -303t-7.5 -306q1 -160 15 -200t39 -32q15 -18 15 -40q0 -37 -87.5 -60.5t-146.5 -23.5q-31 0 -43.5 13.5t-12.5 63.5
q0 130 7.5 297.5t7.5 381.5q0 285 -57 393t-241 108q-140 0 -195 -142.5t-55 -492.5q0 -349 49 -592q-83 -30 -161 -30q-75 0 -92 57.5t-17 430.5q0 513 131 704q97 140 276 177q-2 86 -12 136z" />
    <glyph glyph-name="uni1231" unicode="&#x1231;" horiz-adv-x="1803" 
d="M580 1320q-13 68 -48 68q-8 14 -9 35q0 35 90 60.5t146 25.5q30 0 43 -12.5t13 -50.5v-251q182 -11 262 -77q98 -79 98 -338q0 -34 -1 -70q206 5 306 24q138 25 159 25q15 0 29.5 -11.5t14.5 -23.5t-7.5 -54.5t-7.5 -68.5q0 -24 11.5 -31.5t31.5 -3.5q7 -15 7 -35
q0 -30 -24.5 -42t-100.5 -22.5t-112 -10.5q-28 0 -41 12t-13 38q0 33 17 106q-167 -11 -272 -16q-2 -58 -5 -119q-7 -160 -7 -306q1 -160 15 -200t39 -32q15 -18 15 -40q0 -37 -87.5 -60.5t-146.5 -23.5q-31 0 -43.5 13.5t-12.5 63.5q0 130 7.5 297.5t7.5 381.5
q0 285 -57 393t-241 108q-140 0 -195 -142.5t-55 -492.5q0 -349 49 -592q-83 -30 -161 -30q-75 0 -92 57.5t-17 430.5q0 513 131 704q97 140 276 177q-2 86 -12 136z" />
    <glyph glyph-name="uni1232" unicode="&#x1232;" horiz-adv-x="1797" 
d="M1160 -10q0 -33 9.5 -44.5t31.5 -11.5q135 0 273 25t159 25q14 0 29 -11.5t15 -23.5t-7.5 -54.5t-7.5 -68.5q0 -24 11.5 -31.5t30.5 -3.5q8 -15 8 -35q0 -30 -24.5 -42t-101 -22.5t-112.5 -10.5q-28 0 -41 12t-13 38q0 33 18 106q-331 -22 -426 -22q-41 0 -57 16.5
t-16 65.5q0 125 7.5 292.5t7.5 381.5q0 285 -57 393t-241 108q-140 0 -195 -142.5t-55 -492.5q0 -349 49 -592q-83 -30 -161 -30q-75 0 -92 57.5t-17 430.5q0 513 131 704q97 140 276 177q-2 86 -12 136q-13 68 -48 68q-8 14 -9 35q0 35 90 60.5t146 25.5q30 0 43 -12.5
t13 -50.5v-251q182 -11 262 -77q98 -79 98 -338q0 -143 -7.5 -329t-7.5 -461z" />
    <glyph glyph-name="uni1233" unicode="&#x1233;" horiz-adv-x="1384" 
d="M407 437q0 -137 23 -231q-56 -30 -138 -30q-65 0 -86 25.5t-21 124.5q0 490 131 681q97 140 276 177q-2 86 -12 136q-13 68 -48 68q-8 14 -9 35q0 35 90 60.5t146 25.5q30 0 43 -12.5t13 -50.5v-251q182 -11 262 -77q98 -79 98 -338q0 -143 -7.5 -303t-7.5 -306
q1 -160 15 -200t39 -32q15 -18 15 -40q0 -37 -87.5 -60.5t-146.5 -23.5q-31 0 -43.5 13.5t-12.5 63.5q0 130 7.5 297.5t7.5 381.5q0 285 -57 393t-241 108q-140 0 -195 -142.5t-54 -492.5z" />
    <glyph glyph-name="uni1234" unicode="&#x1234;" horiz-adv-x="1785" 
d="M1160 260q164 73 302 73q112 0 175 -50.5t63 -137.5q0 -152 -165.5 -251t-395.5 -99q-105 0 -153 46t-48 157q0 58 8 217t8 356q0 285 -57 393t-241 108q-140 0 -195 -142.5t-55 -492.5q0 -349 49 -592q-83 -30 -161 -30q-75 0 -92 57.5t-17 430.5q0 513 131 704
q97 140 276 177q-2 86 -12 136q-13 68 -48 68q-8 14 -9 35q0 35 90 60.5t146 25.5q30 0 43 -12.5t13 -50.5v-251q182 -11 262 -77q98 -79 98 -338q0 -143 -15 -520zM1160 172q0 -151 34 -201t113 -50q84 0 128 36t44 110q-1 70 -45.5 105t-113.5 35q-75 0 -160 -35z" />
    <glyph glyph-name="uni1235" unicode="&#x1235;" horiz-adv-x="1384" 
d="M369 1388q-8 14 -9 35q0 35 90 60.5t146 25.5q33 0 52 -24q16 -20 158 -289q189 -10 271 -78q98 -79 98 -338q0 -143 -7.5 -303t-7.5 -306q1 -160 15 -200t39 -32q15 -18 15 -40q0 -37 -87.5 -60.5t-146.5 -23.5q-31 0 -43.5 13.5t-12.5 63.5q0 130 7.5 297.5t7.5 381.5
q0 285 -57 393t-241 108q-140 0 -195 -142.5t-55 -492.5q0 -349 49 -592q-83 -30 -161 -30q-75 0 -92 57.5t-17 430.5q0 513 131 704q88 126 243 169q-97 157 -121 182q-29 30 -69 30z" />
    <glyph glyph-name="uni1236" unicode="&#x1236;" horiz-adv-x="1384" 
d="M580 1320q-13 68 -48 68q-8 14 -9 35q0 35 90 60.5t146 25.5q30 0 43 -12.5t13 -50.5v-251q182 -11 262 -77q98 -79 98 -327q0 -108 -7.5 -209.5t-7.5 -175.5q1 -54 15 -84t39 -22q15 -18 15 -40q0 -37 -87.5 -60.5t-146.5 -23.5q-31 0 -43.5 13.5t-12.5 56.5
q0 42 7.5 157.5t7.5 213.5q0 239 -57 347t-241 108q-140 0 -195 -142.5t-55 -492.5q0 -349 49 -592q-83 -30 -161 -30q-75 0 -92 57.5t-17 430.5q0 513 131 704q97 140 276 177q-2 86 -12 136z" />
    <glyph glyph-name="uni1237" unicode="&#x1237;" horiz-adv-x="1812" 
d="M931 -185q-128 0 -191 -8q18 -67 18 -97q0 -25 -18 -40t-104 -31t-128 -16q-20 0 -30.5 10.5t-10.5 34.5q0 19 8 44q25 -3 33 5t8 28q0 28 -6.5 64.5t-6.5 51.5q0 16 17.5 25.5t93.5 25.5t97 19q19 3 228 3q1 114 7 255q8 168 8 382q0 285 -57 393t-241 108
q-140 0 -195 -142.5t-54 -492.5q0 -137 23 -231q-56 -30 -138 -30q-65 0 -86 25.5t-21 124.5q0 490 131 681q97 140 276 177q-2 86 -12 136q-13 68 -48 68q-8 14 -9 35q0 35 90 60.5t146 25.5q30 0 43 -12.5t13 -50.5v-251q182 -11 262 -77q98 -79 98 -338q0 -143 -7.5 -303
t-7.5 -311q1 -160 15 -200q7 -22 18 -29q202 5 296 22q138 25 159 25q14 0 29 -11.5t15 -23.5t-7.5 -54.5t-7.5 -68.5q0 -24 11.5 -31.5t30.5 -3.5q8 -15 8 -35q0 -30 -24.5 -42t-101 -22.5t-112.5 -10.5q-28 0 -41 12t-13 38q0 33 18 101q-315 -17 -522 -17z" />
    <glyph glyph-name="uni1238" unicode="&#x1238;" horiz-adv-x="1559" 
d="M663 1454q-203 0 -265 -8q18 -67 18 -97q0 -25 -18 -40t-104 -31t-129 -16q-20 0 -30 10.5t-10 34.5q0 19 7 44q25 -3 33.5 5t8.5 28q0 28 -7 64.5t-7 51.5q0 16 17.5 25.5t93.5 25.5t97.5 19t338.5 3q382 0 519.5 25t158.5 25q15 0 29.5 -11.5t14.5 -23.5t-7.5 -54.5
t-7.5 -68.5q0 -24 11.5 -31.5t31.5 -3.5q7 -15 7 -35q0 -30 -24.5 -42t-100.5 -22.5t-112 -10.5q-28 0 -41 12t-13 38q0 33 17 101q-163 -9 -296 -13v-263q182 -11 262 -77q98 -79 98 -338q0 -143 -7.5 -303t-7.5 -306q1 -160 15 -200t39 -32q15 -18 15 -40
q0 -37 -87.5 -60.5t-146.5 -23.5q-31 0 -43.5 13.5t-12.5 63.5q0 130 7.5 297.5t7.5 381.5q0 285 -57 393t-241 108q-140 0 -195 -142.5t-55 -492.5q0 -349 49 -592q-83 -30 -161 -30q-75 0 -92 57.5t-17 430.5q0 513 131 704q97 140 276 177q-1 109 -5 270h-3z" />
    <glyph glyph-name="uni1239" unicode="&#x1239;" horiz-adv-x="1882" 
d="M663 1454q-203 0 -265 -8q18 -67 18 -97q0 -25 -18 -40t-104 -31t-129 -16q-20 0 -30 10.5t-10 34.5q0 19 7 44q25 -3 33.5 5t8.5 28q0 28 -7 64.5t-7 51.5q0 16 17.5 25.5t93.5 25.5t97.5 19t338.5 3q382 0 519.5 25t158.5 25q15 0 29.5 -11.5t14.5 -23.5t-7.5 -54.5
t-7.5 -68.5q0 -24 11.5 -31.5t31.5 -3.5q7 -15 7 -35q0 -30 -24.5 -42t-100.5 -22.5t-112 -10.5q-28 0 -41 12t-13 38q0 33 17 101q-163 -9 -296 -13v-263q182 -11 262 -77q98 -79 98 -338q0 -34 -1 -70q206 5 306 24q138 25 159 25q15 0 29.5 -11.5t14.5 -23.5t-7.5 -54.5
t-7.5 -68.5q0 -24 11.5 -31.5t31.5 -3.5q7 -15 7 -35q0 -30 -24.5 -42t-100.5 -22.5t-112 -10.5q-28 0 -41 12t-13 38q0 33 17 106q-167 -11 -272 -16q-2 -58 -5 -119q-7 -160 -7 -306q1 -160 15 -200t39 -32q15 -18 15 -40q0 -37 -87.5 -60.5t-146.5 -23.5
q-31 0 -43.5 13.5t-12.5 63.5q0 130 7.5 297.5t7.5 381.5q0 285 -57 393t-241 108q-140 0 -195 -142.5t-55 -492.5q0 -349 49 -592q-83 -30 -161 -30q-75 0 -92 57.5t-17 430.5q0 513 131 704q97 140 276 177q-1 109 -5 270h-3z" />
    <glyph glyph-name="uni123A" unicode="&#x123a;" horiz-adv-x="1876" 
d="M663 1454q-203 0 -265 -8q18 -67 18 -97q0 -25 -18 -40t-104 -31t-129 -16q-20 0 -30 10.5t-10 34.5q0 19 7 44q25 -3 33.5 5t8.5 28q0 28 -7 64.5t-7 51.5q0 16 17.5 25.5t93.5 25.5t97.5 19t338.5 3q382 0 519.5 25t158.5 25q15 0 29.5 -11.5t14.5 -23.5t-7.5 -54.5
t-7.5 -68.5q0 -24 11.5 -31.5t31.5 -3.5q7 -15 7 -35q0 -30 -24.5 -42t-100.5 -22.5t-112 -10.5q-28 0 -41 12t-13 38q0 33 17 101q-163 -9 -296 -13v-263q182 -11 262 -77q98 -79 98 -338q0 -143 -7.5 -329t-7.5 -461q0 -33 9.5 -44.5t31.5 -11.5q135 0 273 25t159 25
q14 0 29 -11.5t15 -23.5t-7.5 -54.5t-7.5 -68.5q0 -24 11.5 -31.5t30.5 -3.5q8 -15 8 -35q0 -30 -24.5 -42t-101 -22.5t-112.5 -10.5q-28 0 -41 12t-13 38q0 33 18 106q-331 -22 -426 -22q-41 0 -57 16.5t-16 65.5q0 125 7.5 292.5t7.5 381.5q0 285 -57 393t-241 108
q-140 0 -195 -142.5t-55 -492.5q0 -349 49 -592q-83 -30 -161 -30q-75 0 -92 57.5t-17 430.5q0 513 131 704q97 140 276 177q-1 109 -5 270h-3z" />
    <glyph glyph-name="uni123B" unicode="&#x123b;" horiz-adv-x="1559" 
d="M663 1454q-203 0 -265 -8q18 -67 18 -97q0 -25 -18 -40t-104 -31t-129 -16q-20 0 -30 10.5t-10 34.5q0 19 7 44q25 -3 33.5 5t8.5 28q0 28 -7 64.5t-7 51.5q0 16 17.5 25.5t93.5 25.5t97.5 19t338.5 3q382 0 519.5 25t158.5 25q15 0 29.5 -11.5t14.5 -23.5t-7.5 -54.5
t-7.5 -68.5q0 -24 11.5 -31.5t31.5 -3.5q7 -15 7 -35q0 -30 -24.5 -42t-100.5 -22.5t-112 -10.5q-28 0 -41 12t-13 38q0 33 17 101q-163 -9 -296 -13v-263q182 -11 262 -77q98 -79 98 -338q0 -143 -7.5 -303t-7.5 -306q1 -160 15 -200t39 -32q15 -18 15 -40
q0 -37 -87.5 -60.5t-146.5 -23.5q-31 0 -43.5 13.5t-12.5 63.5q0 130 7.5 297.5t7.5 381.5q0 285 -57 393t-241 108q-140 0 -195 -142.5t-54 -492.5q0 -137 23 -231q-56 -30 -138 -30q-65 0 -86 25.5t-21 124.5q0 490 131 681q97 140 276 177q-1 109 -5 270h-3z" />
    <glyph glyph-name="uni123C" unicode="&#x123c;" horiz-adv-x="1864" 
d="M663 1454q-203 0 -265 -8q18 -67 18 -97q0 -25 -18 -40t-104 -31t-129 -16q-20 0 -30 10.5t-10 34.5q0 19 7 44q25 -3 33.5 5t8.5 28q0 28 -7 64.5t-7 51.5q0 16 17.5 25.5t93.5 25.5t97.5 19t338.5 3q382 0 519.5 25t158.5 25q15 0 29.5 -11.5t14.5 -23.5t-7.5 -54.5
t-7.5 -68.5q0 -24 11.5 -31.5t31.5 -3.5q7 -15 7 -35q0 -30 -24.5 -42t-100.5 -22.5t-112 -10.5q-28 0 -41 12t-13 38q0 33 17 101q-163 -9 -296 -13v-263q182 -11 262 -77q98 -79 98 -338q0 -143 -15 -520q164 73 302 73q112 0 175 -50.5t63 -137.5q0 -152 -165.5 -251
t-395.5 -99q-105 0 -153 46t-48 157q0 58 8 217t8 356q0 285 -57 393t-241 108q-140 0 -195 -142.5t-55 -492.5q0 -349 49 -592q-83 -30 -161 -30q-75 0 -92 57.5t-17 430.5q0 513 131 704q97 140 276 177q-1 109 -5 270h-3zM1239 172q0 -151 34 -201t113 -50q84 0 128 36
t44 110q-1 70 -45.5 105t-113.5 35q-75 0 -160 -35z" />
    <glyph glyph-name="uni123D" unicode="&#x123d;" horiz-adv-x="1639" 
d="M996 1196q182 -12 263 -78q98 -79 98 -338q0 -143 -7.5 -303t-7.5 -306q1 -160 15 -200t39 -32q15 -18 15 -40q0 -37 -87.5 -60.5t-146.5 -23.5q-31 0 -43.5 13.5t-12.5 63.5q0 130 7.5 297.5t7.5 381.5q0 285 -57 393t-241 108q-140 0 -195 -142.5t-55 -492.5
q0 -349 49 -592q-83 -30 -161 -30q-75 0 -92 57.5t-17 430.5q0 513 131 704q89 129 250 171q-81 170 -146 276q-174 0 -234 -8q18 -67 18 -97q0 -25 -18 -40t-104 -31t-129 -16q-20 0 -30 10.5t-10 34.5q0 19 7 44q25 -3 33.5 5t8.5 28q0 28 -7 64.5t-7 51.5q0 16 17.5 25.5
t93.5 25.5t97.5 19t318.5 3q457 0 594.5 25t158.5 25q15 0 29.5 -11.5t14.5 -23.5t-7.5 -54.5t-7.5 -68.5q0 -24 11.5 -31.5t31.5 -3.5q7 -15 7 -35q0 -30 -24.5 -42t-100.5 -22.5t-112 -10.5q-28 0 -41 12t-13 38q0 33 17 101q-192 -8 -339 -13q48 -95 120 -262z" />
    <glyph glyph-name="uni123E" unicode="&#x123e;" horiz-adv-x="1559" 
d="M663 1454q-203 0 -265 -8q18 -67 18 -97q0 -25 -18 -40t-104 -31t-129 -16q-20 0 -30 10.5t-10 34.5q0 19 7 44q25 -3 33.5 5t8.5 28q0 28 -7 64.5t-7 51.5q0 16 17.5 25.5t93.5 25.5t97.5 19t338.5 3q382 0 519.5 25t158.5 25q15 0 29.5 -11.5t14.5 -23.5t-7.5 -54.5
t-7.5 -68.5q0 -24 11.5 -31.5t31.5 -3.5q7 -15 7 -35q0 -30 -24.5 -42t-100.5 -22.5t-112 -10.5q-28 0 -41 12t-13 38q0 33 17 101q-163 -9 -296 -13v-263q182 -11 262 -77q98 -79 98 -327q0 -108 -7.5 -209.5t-7.5 -175.5q1 -54 15 -84t39 -22q15 -18 15 -40
q0 -37 -87.5 -60.5t-146.5 -23.5q-31 0 -43.5 13.5t-12.5 56.5q0 42 7.5 157.5t7.5 213.5q0 239 -57 347t-241 108q-140 0 -195 -142.5t-55 -492.5q0 -349 49 -592q-83 -30 -161 -30q-75 0 -92 57.5t-17 430.5q0 513 131 704q97 140 276 177q-1 109 -5 270h-3z" />
    <glyph glyph-name="uni123F" unicode="&#x123f;" horiz-adv-x="1891" 
d="M663 1454q-203 0 -265 -8q18 -67 18 -97q0 -25 -18 -40t-104 -31t-129 -16q-20 0 -30 10.5t-10 34.5q0 19 7 44q25 -3 33.5 5t8.5 28q0 28 -7 64.5t-7 51.5q0 16 17.5 25.5t93.5 25.5t97.5 19t338.5 3q382 0 519.5 25t158.5 25q15 0 29.5 -11.5t14.5 -23.5t-7.5 -54.5
t-7.5 -68.5q0 -24 11.5 -31.5t31.5 -3.5q7 -15 7 -35q0 -30 -24.5 -42t-100.5 -22.5t-112 -10.5q-28 0 -41 12t-13 38q0 33 17 101q-163 -9 -296 -13v-263q182 -11 262 -77q98 -79 98 -338q0 -143 -7.5 -303t-7.5 -311q1 -160 15 -200q7 -22 18 -29q202 5 296 22
q138 25 159 25q14 0 29 -11.5t15 -23.5t-7.5 -54.5t-7.5 -68.5q0 -24 11.5 -31.5t30.5 -3.5q8 -15 8 -35q0 -30 -24.5 -42t-101 -22.5t-112.5 -10.5q-28 0 -41 12t-13 38q0 33 18 101q-315 -17 -522 -17q-128 0 -191 -8q18 -67 18 -97q0 -25 -18 -40t-104 -31t-128 -16
q-20 0 -30.5 10.5t-10.5 34.5q0 19 8 44q25 -3 33 5t8 28q0 28 -6.5 64.5t-6.5 51.5q0 16 17.5 25.5t93.5 25.5t97 19q19 3 228 3q1 114 7 255q8 168 8 382q0 285 -57 393t-241 108q-140 0 -195 -142.5t-54 -492.5q0 -137 23 -231q-56 -30 -138 -30q-65 0 -86 25.5
t-21 124.5q0 490 131 681q97 140 276 177q-1 109 -5 270h-3z" />
    <glyph glyph-name="uni1240" unicode="&#x1240;" horiz-adv-x="1742" 
d="M750 1320q-16 68 -51 68q-8 14 -9 35q0 35 90 60.5t146 25.5q30 0 43 -12.5t13 -50.5q0 -157 -15 -421q156 139 383 139q156 0 226.5 -68.5t70.5 -210.5q0 -178 -90 -291.5t-262 -113.5q-139 0 -328 80q4 -494 49 -715q-83 -30 -161 -30q-75 0 -92 57.5t2 660.5
q-157 -143 -398 -143q-143 0 -207.5 71.5t-64.5 239.5q0 192 85 305t244 113q164 0 341 -95q1 229 -15 296zM501 993q-85 0 -125.5 -53.5t-40.5 -166.5q0 -130 44.5 -193.5t136.5 -63.5q113 0 178.5 77t65.5 327q-159 73 -259 73zM1216 606q100 0 145.5 46t45.5 157
q0 110 -49 169.5t-149 59.5q-103 0 -172.5 -78.5t-69.5 -301.5q155 -52 249 -52z" />
    <glyph glyph-name="uni1241" unicode="&#x1241;" horiz-adv-x="1742" 
d="M750 1320q-16 68 -51 68q-8 14 -9 35q0 35 90 60.5t146 25.5q30 0 43 -12.5t13 -50.5q0 -157 -15 -421q156 139 383 139q156 0 226.5 -68.5t70.5 -210.5q0 -178 -90 -291.5t-262 -113.5q-139 0 -328 80q2 -175 8 -315q199 5 297 23q138 25 159 25q15 0 29.5 -11.5
t14.5 -23.5t-7.5 -54.5t-7.5 -68.5q0 -24 11.5 -31.5t31.5 -3.5q7 -15 7 -35q0 -30 -24.5 -42t-100.5 -22.5t-112 -10.5q-28 0 -41 12t-13 38q0 33 17 106q-153 -10 -255 -16q13 -175 35 -285q-83 -30 -161 -30q-75 0 -92 57.5t2 660.5q-157 -143 -398 -143
q-143 0 -207.5 71.5t-64.5 239.5q0 192 85 305t244 113q164 0 341 -95q1 229 -15 296zM501 993q-85 0 -125.5 -53.5t-40.5 -166.5q0 -130 44.5 -193.5t136.5 -63.5q113 0 178.5 77t65.5 327q-159 73 -259 73zM1216 606q100 0 145.5 46t45.5 157q0 110 -49 169.5t-149 59.5
q-103 0 -172.5 -78.5t-69.5 -301.5q155 -52 249 -52z" />
    <glyph glyph-name="uni1242" unicode="&#x1242;" horiz-adv-x="1742" 
d="M1064 -66q82 0 214 25t153 25q15 0 29.5 -11.5t14.5 -23.5t-7.5 -54.5t-7.5 -68.5q0 -24 11.5 -31.5t31.5 -3.5q7 -15 7 -35q0 -30 -24.5 -42t-100.5 -22.5t-112 -10.5q-28 0 -41 12t-13 38q0 33 17 106q-273 -22 -381 -22q-75 0 -92 57.5t2 660.5q-157 -143 -398 -143
q-143 0 -207.5 71.5t-64.5 239.5q0 192 85 305t244 113q164 0 341 -95q1 229 -15 296.5t-51 67.5q-8 14 -9 35q0 35 90 60.5t146 25.5q30 0 43 -12.5t13 -50.5q0 -157 -15 -421q156 139 383 139q156 0 226.5 -68.5t70.5 -210.5q0 -178 -90 -291.5t-262 -113.5
q-139 0 -328 80q1 -460 12 -539q12 -87 85 -87zM501 993q-85 0 -125.5 -53.5t-40.5 -166.5q0 -130 44.5 -193.5t136.5 -63.5q113 0 178.5 77t65.5 327q-159 73 -259 73zM1216 606q100 0 145.5 46t45.5 157q0 110 -49 169.5t-149 59.5q-103 0 -172.5 -78.5t-69.5 -301.5
q155 -52 249 -52z" />
    <glyph glyph-name="uni1243" unicode="&#x1243;" horiz-adv-x="1742" 
d="M1350 1164q156 0 226.5 -68.5t70.5 -210.5q0 -178 -90 -291.5t-262 -113.5q-138 0 -326 79q5 -443 -67 -585q-79 -159 -407 -159q-31 0 -68 -8q18 -67 18 -97q0 -25 -18 -40t-104 -31t-128 -16q-20 0 -30.5 10.5t-10.5 34.5q0 19 8 44q25 -3 33 5t8 28q0 28 -6.5 64.5
t-6.5 51.5q0 16 17.5 25.5t93.5 25.5t97 19t93 3q214 0 244 149q31 149 30 450q-157 -143 -398 -143q-143 0 -207.5 71.5t-64.5 239.5q0 192 85 305t244 113q164 0 341 -95q1 229 -15 296.5t-51 67.5q-8 14 -9 35q0 35 90 60.5t146 25.5q30 0 43 -12.5t13 -50.5
q0 -157 -15 -421q156 139 383 139zM501 993q-85 0 -125.5 -53.5t-40.5 -166.5q0 -130 44.5 -193.5t136.5 -63.5q113 0 178.5 77t65.5 327q-159 73 -259 73zM1216 606q100 0 145.5 46t45.5 157q0 110 -49 169.5t-149 59.5q-103 0 -173 -79q-66 -74 -69 -279v-22
q155 -52 249 -52z" />
    <glyph glyph-name="uni1244" unicode="&#x1244;" horiz-adv-x="1742" 
d="M765 1024q1 229 -15 296.5t-51 67.5q-8 14 -9 35q0 35 90 60.5t146 25.5q30 0 43 -12.5t13 -50.5q0 -199 -15 -421q156 139 383 139q156 0 226.5 -68.5t70.5 -210.5q0 -178 -90 -291.5t-262 -113.5q-139 0 -328 80q2 -187 15 -300q148 73 286 73q112 0 175 -50.5
t63 -137.5q0 -152 -165.5 -251t-395.5 -99q-105 0 -153 46t-48 157q1 111 11 271q10 159 10 264q-157 -143 -398 -143q-143 0 -207.5 71.5t-64.5 239.5q0 192 85 305t244 113q164 0 341 -95zM501 993q-85 0 -125.5 -53.5t-40.5 -166.5q0 -130 44.5 -193.5t136.5 -63.5
q113 0 178.5 77t65.5 327q-159 73 -259 73zM1216 606q100 0 145.5 46t45.5 157q0 110 -49 169.5t-149 59.5q-103 0 -173 -79q-66 -74 -69 -279v-22q155 -52 249 -52zM966 172q0 -151 34 -201t113 -50q84 0 128 36t44 110q-1 70 -45.5 105t-113.5 35q-75 0 -160 -35z" />
    <glyph glyph-name="uni1245" unicode="&#x1245;" horiz-adv-x="1742" 
d="M745 1304h-147q-36 0 -50 11t-14 50q1 100 -12.5 145.5t-47.5 45.5q-9 14 -9 34q0 35 89.5 60.5t146.5 25.5q30 0 42.5 -12t12.5 -50q0 -58 -15 -191h159q53 0 67.5 -13t14.5 -56q0 -114 -15 -333v-15q197 158 392 158q154 0 221 -71.5t67 -204.5q0 -177 -86 -292.5
t-249 -115.5q-155 0 -345 75q4 -490 49 -710q-83 -30 -161 -30q-75 0 -92 58q-17 56 1 635q-205 -118 -402 -118q-131 0 -199 70t-68 222q0 215 84.5 326t228.5 111q206 0 357 -139v22q0 179 -20 302zM520 516q97 0 245 97v20q-4 186 -77 271q-76 89 -198 89
q-86 0 -120.5 -53.5t-34.5 -165.5q0 -133 42.5 -195.5t142.5 -62.5zM1231 1038q-115 0 -264 -148v-237q152 -47 251 -47q100 0 144.5 43.5t44.5 150.5q0 130 -47.5 184t-128.5 54z" />
    <glyph glyph-name="uni1246" unicode="&#x1246;" horiz-adv-x="1742" 
d="M967 442q10 -500 -7.5 -565t-102.5 -65q-77 0 -156 30q55 213 63 553q-205 -118 -402 -118q-131 0 -199 70t-68 222q0 215 84.5 326t228.5 111q208 0 359 -141q-7 40 -20 61q-27 46 -139 149.5t-112 200.5q0 108 118 176t307 68q170 0 242 -52t72 -135q0 -186 -314 -332
q27 -45 38 -114q201 164 400 164q154 0 221 -71.5t67 -204.5q0 -177 -86 -292.5t-249 -115.5q-155 0 -345 75zM520 403q97 0 245 97v1q0 201 -76.5 290t-198.5 89q-86 0 -120.5 -53.5t-34.5 -165.5q0 -133 42.5 -195.5t142.5 -62.5zM1231 925q-115 0 -264 -148v-237
q152 -47 251 -47q100 0 144.5 43.5t44.5 150.5q0 130 -47.5 184t-128.5 54zM885 1395q-75 0 -110 -27.5t-35 -76.5q0 -100 143 -223q168 107 168 203q0 61 -43 92.5t-123 31.5z" />
    <glyph glyph-name="uni1247" unicode="&#x1247;" horiz-adv-x="1742" 
d="M967 442q10 -500 -7.5 -565t-102.5 -65q-25 0 -51 3q-265 0 -321 -8q18 -67 18 -97q0 -25 -18 -40t-104 -31t-129 -16q-20 0 -30 10.5t-10 34.5q0 19 7 44q25 -3 33.5 5t8.5 28q0 28 -7 64.5t-7 51.5q0 16 17.5 25.5t93.5 25.5t97 19q17 3 266 3q37 190 43 461
q-205 -118 -402 -118q-131 0 -199 70t-68 222q0 215 84.5 326t228.5 111q208 0 359 -141q-7 40 -20 61q-27 46 -139 149.5t-112 200.5q0 108 118 176t307 68q170 0 242 -52t72 -135q0 -186 -314 -332q27 -45 38 -114q201 164 400 164q154 0 221 -71.5t67 -204.5
q0 -177 -86 -292.5t-249 -115.5q-155 0 -345 75zM520 403q97 0 245 97v1q0 201 -76.5 290t-198.5 89q-86 0 -120.5 -53.5t-34.5 -165.5q0 -133 42.5 -195.5t142.5 -62.5zM1231 925q-115 0 -264 -148v-237q152 -47 251 -47q100 0 144.5 43.5t44.5 150.5q0 130 -47.5 184
t-128.5 54zM885 1395q-75 0 -110 -27.5t-35 -76.5q0 -100 143 -223q168 107 168 203q0 61 -43 92.5t-123 31.5z" />
    <glyph glyph-name="uni1248" unicode="&#x1248;" horiz-adv-x="1986" 
d="M1453 233q137 60 249 60q97 0 150.5 -47.5t53.5 -133.5q0 -142 -157.5 -249t-380.5 -107q-121 0 -172.5 42.5t-51.5 115.5q0 94 78 217q-122 -5 -240 -7q12 -171 34 -279q-83 -30 -161 -30q-75 0 -92 57.5t2 660.5q-157 -143 -398 -143q-143 0 -207.5 71.5t-64.5 239.5
q0 192 85 305t244 113q164 0 341 -95q1 229 -15 296.5t-51 67.5q-8 14 -9 35q0 35 90 60.5t146 25.5q30 0 43 -12.5t13 -50.5q0 -157 -15 -421q156 139 383 139q156 0 226.5 -68.5t70.5 -210.5q0 -178 -90 -291.5t-262 -113.5q-139 0 -328 80q2 -176 8 -317q110 1 147 3
q52 4 147 25.5t129 21.5q23 0 55 -60zM501 993q-85 0 -125.5 -53.5t-40.5 -166.5q0 -130 44.5 -193.5t136.5 -63.5q113 0 178.5 77t65.5 327q-159 73 -259 73zM1216 606q100 0 145.5 46t45.5 157q0 110 -49 169.5t-149 59.5q-103 0 -173 -79q-66 -74 -69 -279v-22
q155 -52 249 -52zM1412 130q-36 -72 -36 -135q0 -58 31 -85.5t101 -27.5q78 0 127.5 38.5t49.5 117.5q-1 60 -36 94.5t-103 34.5q-60 0 -134 -37z" />
    <glyph glyph-name="uni124A" unicode="&#x124a;" horiz-adv-x="2507" 
d="M2105 663q34 0 128 25t115 25q14 0 29 -11.5t15 -23.5t-7.5 -54.5t-7.5 -68.5q0 -24 11.5 -31.5t30.5 -3.5q8 -15 8 -35q0 -30 -24.5 -42t-101 -22.5t-112.5 -10.5q-28 0 -41 12t-13 38q0 33 18 106q-181 -22 -234 -22q-26 0 -30.5 15t-4.5 55q0 80 1 146
q-159 -8 -254 -12q-22 -88 -74 -155q-90 -113 -262 -113q-139 0 -328 80q4 -494 49 -715q-83 -30 -161 -30q-75 0 -92 57.5t2 660.5q-157 -143 -398 -143q-143 0 -207.5 71.5t-64.5 239.5q0 192 85 305t244 113q164 0 341 -95q1 229 -15 296.5t-51 67.5q-8 14 -9 35
q0 35 90 60.5t146 25.5q30 0 43 -12.5t13 -50.5q0 -157 -15 -421q156 139 383 139q156 0 226.5 -68.5t70.5 -210.5v-20q142 6 240 24q4 203 15 230q16 43 91 43q78 0 156 -30q-44 -249 -44 -469zM501 993q-85 0 -125.5 -53.5t-40.5 -166.5q0 -130 44.5 -193.5t136.5 -63.5
q113 0 178.5 77t65.5 327q-159 73 -259 73zM1216 606q100 0 145.5 46t45.5 157q0 110 -49 169.5t-149 59.5q-103 0 -172.5 -78.5t-69.5 -301.5q155 -52 249 -52z" />
    <glyph glyph-name="uni124B" unicode="&#x124b;" horiz-adv-x="1742" 
d="M668 116q-128 0 -190 -8q18 -67 18 -97q0 -25 -18 -40t-104 -31t-129 -16q-20 0 -30 10.5t-10 34.5q0 19 7 44q25 -3 33.5 5t8.5 28q0 28 -7 64.5t-7 51.5q0 16 17.5 25.5t93.5 25.5t97.5 19t263.5 3h53v298q-157 -143 -398 -143q-143 0 -207.5 71.5t-64.5 239.5
q0 192 85 305t244 113q164 0 341 -95q1 229 -15 296.5t-51 67.5q-8 14 -9 35q0 35 90 60.5t146 25.5q30 0 43 -12.5t13 -50.5q0 -157 -15 -421q156 139 383 139q156 0 226.5 -68.5t70.5 -210.5q0 -178 -90 -291.5t-262 -113.5q-139 0 -328 80v-325h498q32 0 48 -12.5
t16 -43.5q0 -44 -50 -178t-50 -177q0 -16 5.5 -22.5t23.5 1.5q13 -18 13 -39q0 -33 -79.5 -59t-146.5 -26q-33 0 -45 10t-12 35q0 48 49 176t49 170q0 24 -25 35t-593 11zM501 993q-85 0 -125.5 -53.5t-40.5 -166.5q0 -130 44.5 -193.5t136.5 -63.5q113 0 178.5 77t65.5 327
q-159 73 -259 73zM1216 606q100 0 145.5 46t45.5 157q0 110 -49 169.5t-149 59.5q-103 0 -172.5 -78.5t-69.5 -301.5q155 -52 249 -52z" />
    <glyph glyph-name="uni124C" unicode="&#x124c;" horiz-adv-x="1742" 
d="M765 1024q1 229 -15 296.5t-51 67.5q-8 14 -9 35q0 35 90 60.5t146 25.5q30 0 43 -12.5t13 -50.5q0 -199 -15 -421q156 139 383 139q156 0 226.5 -68.5t70.5 -210.5q0 -178 -90 -291.5t-262 -113.5q-139 0 -328 80v-300q163 73 301 73q112 0 175 -50.5t63 -137.5
q0 -152 -165.5 -251t-395.5 -99q-69 0 -114 20q-297 0 -357 -8q18 -67 18 -97q0 -25 -18 -40t-104 -31t-128 -16q-20 0 -30.5 10.5t-10.5 34.5q0 19 8 44q25 -3 33 5t8 28q0 28 -6.5 64.5t-6.5 51.5q0 16 17.5 25.5t93.5 25.5t97 19q17 3 304 3q-5 29 -5 64q1 111 11 271
q10 159 10 264q-157 -143 -398 -143q-143 0 -207.5 71.5t-64.5 239.5q0 192 85 305t244 113q164 0 341 -95zM501 993q-85 0 -125.5 -53.5t-40.5 -166.5q0 -130 44.5 -193.5t136.5 -63.5q113 0 178.5 77t65.5 327q-159 73 -259 73zM1216 606q100 0 145.5 46t45.5 157
q0 110 -49 169.5t-149 59.5q-103 0 -172.5 -78.5t-69.5 -301.5q155 -52 249 -52zM966 172q0 -151 34 -201t113 -50q84 0 128 36t44 110q-1 70 -45.5 105t-113.5 35q-75 0 -160 -35z" />
    <glyph glyph-name="uni124D" unicode="&#x124d;" horiz-adv-x="2512" 
d="M2060 863q79 0 173 25t115 25q14 0 29 -11.5t15 -23.5t-7.5 -54.5t-7.5 -68.5q0 -24 11.5 -31.5t30.5 -3.5q8 -15 8 -35q0 -30 -24.5 -42t-101 -22.5t-112.5 -10.5q-28 0 -41 12t-13 38q0 33 18 91q-87 -7 -254 -7h-12h-257q-22 -86 -73 -151q-90 -113 -262 -113
q-139 0 -328 80q4 -494 49 -715q-83 -30 -161 -30q-75 0 -92 57.5t2 660.5q-157 -143 -398 -143q-143 0 -207.5 71.5t-64.5 239.5q0 192 85 305t244 113q164 0 341 -95q1 229 -15 296.5t-51 67.5q-8 14 -9 35q0 35 90 60.5t146 25.5q30 0 43 -12.5t13 -50.5q0 -157 -15 -421
q156 139 383 139q156 0 226.5 -68.5t70.5 -210.5q0 -11 -1 -22h193q3 218 18 256q16 43 91 43q78 0 156 -30q-44 -158 -44 -269zM501 993q-85 0 -125.5 -53.5t-40.5 -166.5q0 -130 44.5 -193.5t136.5 -63.5q113 0 178.5 77t65.5 327q-159 73 -259 73zM1216 606
q100 0 145.5 46t45.5 157q0 110 -49 169.5t-149 59.5q-103 0 -172.5 -78.5t-69.5 -301.5q155 -52 249 -52z" />
    <glyph glyph-name="uni1250" unicode="&#x1250;" horiz-adv-x="1802" 
d="M717 1454q-178 0 -241 -8q18 -67 18 -97q0 -25 -18 -40t-104 -31t-128 -16q-20 0 -30.5 10.5t-10.5 34.5q0 19 8 44q25 -3 33 5t8 28q0 28 -6.5 64.5t-6.5 51.5q0 16 17.5 25.5t93.5 25.5t97 19t314 3q486 0 624 25t159 25q14 0 29 -11.5t15 -23.5t-7.5 -54.5t-7.5 -68.5
q0 -24 11.5 -31.5t30.5 -3.5q8 -15 8 -35q0 -30 -24.5 -42t-101 -22.5t-112.5 -10.5q-28 0 -41 12t-13 38q0 33 18 101q-168 -9 -337 -14q-1 -179 -15 -432q156 139 383 139q156 0 226.5 -68.5t70.5 -210.5q0 -178 -90 -291.5t-262 -113.5q-139 0 -328 80q4 -494 49 -715
q-83 -30 -161 -30q-75 0 -92 57.5t2 660.5q-157 -143 -398 -143q-143 0 -207.5 71.5t-64.5 239.5q0 192 85 305t244 113q164 0 341 -95q1 206 -11 430h-67zM531 993q-85 0 -125.5 -53.5t-40.5 -166.5q0 -130 44.5 -193.5t136.5 -63.5q113 0 178.5 77t65.5 327
q-159 73 -259 73zM1246 606q100 0 145.5 46t45.5 157q0 110 -49 169.5t-149 59.5q-103 0 -172.5 -78.5t-69.5 -301.5q155 -52 249 -52z" />
    <glyph glyph-name="uni1251" unicode="&#x1251;" horiz-adv-x="1802" 
d="M717 1454q-178 0 -241 -8q18 -67 18 -97q0 -25 -18 -40t-104 -31t-128 -16q-20 0 -30.5 10.5t-10.5 34.5q0 19 8 44q25 -3 33 5t8 28q0 28 -6.5 64.5t-6.5 51.5q0 16 17.5 25.5t93.5 25.5t97 19t314 3q486 0 624 25t159 25q14 0 29 -11.5t15 -23.5t-7.5 -54.5t-7.5 -68.5
q0 -24 11.5 -31.5t30.5 -3.5q8 -15 8 -35q0 -30 -24.5 -42t-101 -22.5t-112.5 -10.5q-28 0 -41 12t-13 38q0 33 18 101q-168 -9 -337 -14q-1 -179 -15 -432q156 139 383 139q156 0 226.5 -68.5t70.5 -210.5q0 -178 -90 -291.5t-262 -113.5q-139 0 -328 80q2 -175 8 -315
q199 5 297 23q138 25 159 25q15 0 29.5 -11.5t14.5 -23.5t-7.5 -54.5t-7.5 -68.5q0 -24 11.5 -31.5t31.5 -3.5q7 -15 7 -35q0 -30 -24.5 -42t-100.5 -22.5t-112 -10.5q-28 0 -41 12t-13 38q0 33 17 106q-153 -10 -255 -16q13 -175 35 -285q-83 -30 -161 -30q-75 0 -92 57.5
t2 660.5q-157 -143 -398 -143q-143 0 -207.5 71.5t-64.5 239.5q0 192 85 305t244 113q164 0 341 -95q1 206 -11 430h-67zM531 993q-85 0 -125.5 -53.5t-40.5 -166.5q0 -130 44.5 -193.5t136.5 -63.5q113 0 178.5 77t65.5 327q-159 73 -259 73zM1246 606q100 0 145.5 46
t45.5 157q0 110 -49 169.5t-149 59.5q-103 0 -172.5 -78.5t-69.5 -301.5q155 -52 249 -52z" />
    <glyph glyph-name="uni1252" unicode="&#x1252;" horiz-adv-x="1802" 
d="M707 1454q-178 0 -241 -8q18 -67 18 -97q0 -25 -18 -40t-104 -31t-128 -16q-20 0 -30.5 10.5t-10.5 34.5q0 19 8 44q25 -3 33 5t8 28q0 28 -6.5 64.5t-6.5 51.5q0 16 17.5 25.5t93.5 25.5t97 19t314 3q486 0 624 25t159 25q14 0 29 -11.5t15 -23.5t-7.5 -54.5t-7.5 -68.5
q0 -24 11.5 -31.5t30.5 -3.5q8 -15 8 -35q0 -30 -24.5 -42t-101 -22.5t-112.5 -10.5q-28 0 -41 12t-13 38q0 33 18 101q-163 -9 -327 -14q-1 -179 -15 -432q156 139 383 139q156 0 226.5 -68.5t70.5 -210.5q0 -178 -90 -291.5t-262 -113.5q-139 0 -328 80q1 -460 12 -539
q12 -87 85 -87q82 0 214 25t153 25q15 0 29.5 -11.5t14.5 -23.5t-7.5 -54.5t-7.5 -68.5q0 -24 11.5 -31.5t31.5 -3.5q7 -15 7 -35q0 -30 -24.5 -42t-100.5 -22.5t-112 -10.5q-28 0 -41 12t-13 38q0 33 17 106q-273 -22 -381 -22q-75 0 -92 57.5t2 660.5q-157 -143 -398 -143
q-143 0 -207.5 71.5t-64.5 239.5q0 192 85 305t244 113q164 0 341 -95q1 206 -11 430h-77zM531 993q-85 0 -125.5 -53.5t-40.5 -166.5q0 -130 44.5 -193.5t136.5 -63.5q113 0 178.5 77t65.5 327q-159 73 -259 73zM1246 606q100 0 145.5 46t45.5 157q0 110 -49 169.5
t-149 59.5q-103 0 -173 -79q-66 -74 -69 -279v-22q155 -52 249 -52z" />
    <glyph glyph-name="uni1253" unicode="&#x1253;" horiz-adv-x="1802" 
d="M727 1454q-178 0 -241 -8q18 -67 18 -97q0 -25 -18 -40t-104 -31t-128 -16q-20 0 -30.5 10.5t-10.5 34.5q0 19 8 44q25 -3 33 5t8 28q0 28 -6.5 64.5t-6.5 51.5q0 16 17.5 25.5t93.5 25.5t97 19t314 3q486 0 624 25t159 25q14 0 29 -11.5t15 -23.5t-7.5 -54.5t-7.5 -68.5
q0 -24 11.5 -31.5t30.5 -3.5q8 -15 8 -35q0 -30 -24.5 -42t-101 -22.5t-112.5 -10.5q-28 0 -41 12t-13 38q0 33 18 101q-173 -10 -347 -14q-1 -179 -15 -432q156 139 383 139q156 0 226.5 -68.5t70.5 -210.5q0 -178 -90 -291.5t-262 -113.5q-138 0 -326 79q5 -443 -67 -585
q-79 -159 -407 -159q-31 0 -68 -8q18 -67 18 -97q0 -25 -18 -40t-104 -31t-128 -16q-20 0 -30.5 10.5t-10.5 34.5q0 19 8 44q25 -3 33 5t8 28q0 28 -6.5 64.5t-6.5 51.5q0 16 17.5 25.5t93.5 25.5t97 19t93 3q214 0 244 149q31 149 30 450q-157 -143 -398 -143
q-143 0 -207.5 71.5t-64.5 239.5q0 192 85 305t244 113q164 0 341 -95q1 206 -11 430h-57zM531 993q-85 0 -125.5 -53.5t-40.5 -166.5q0 -130 44.5 -193.5t136.5 -63.5q113 0 178.5 77t65.5 327q-159 73 -259 73zM1246 606q100 0 145.5 46t45.5 157q0 110 -49 169.5
t-149 59.5q-103 0 -173 -79q-66 -74 -69 -279v-22q155 -52 249 -52z" />
    <glyph glyph-name="uni1254" unicode="&#x1254;" horiz-adv-x="1802" 
d="M727 1454q-178 0 -241 -8q18 -67 18 -97q0 -25 -18 -40t-104 -31t-128 -16q-20 0 -30.5 10.5t-10.5 34.5q0 19 8 44q25 -3 33 5t8 28q0 28 -6.5 64.5t-6.5 51.5q0 16 17.5 25.5t93.5 25.5t97 19t314 3q486 0 624 25t159 25q14 0 29 -11.5t15 -23.5t-7.5 -54.5t-7.5 -68.5
q0 -24 11.5 -31.5t30.5 -3.5q8 -15 8 -35q0 -30 -24.5 -42t-101 -22.5t-112.5 -10.5q-28 0 -41 12t-13 38q0 33 18 101q-173 -10 -347 -14q-1 -179 -15 -432q156 139 383 139q156 0 226.5 -68.5t70.5 -210.5q0 -178 -90 -291.5t-262 -113.5q-139 0 -328 80v-300
q163 73 301 73q112 0 175 -50.5t63 -137.5q0 -152 -165.5 -251t-395.5 -99q-105 0 -153 46t-48 157q1 111 11 271q10 159 10 264q-157 -143 -398 -143q-143 0 -207.5 71.5t-64.5 239.5q0 192 85 305t244 113q164 0 341 -95q1 206 -11 430h-57zM531 993q-85 0 -125.5 -53.5
t-40.5 -166.5q0 -130 44.5 -193.5t136.5 -63.5q113 0 178.5 77t65.5 327q-159 73 -259 73zM1246 606q100 0 145.5 46t45.5 157q0 110 -49 169.5t-149 59.5q-103 0 -172.5 -78.5t-69.5 -301.5q155 -52 249 -52zM996 172q0 -151 34 -201t113 -50q84 0 128 36t44 110
q-1 70 -45.5 105t-113.5 35q-75 0 -160 -35z" />
    <glyph glyph-name="uni1255" unicode="&#x1255;" horiz-adv-x="1985" 
d="M708 1454q-233 0 -295 -8q18 -67 18 -97q0 -25 -18 -40t-104 -31t-129 -16q-20 0 -30 10.5t-10 34.5q0 19 7 44q25 -3 33.5 5t8.5 28q0 28 -7 64.5t-7 51.5q0 16 17.5 25.5t93.5 25.5t97.5 19t368.5 3q537 0 674.5 25t158.5 25q15 0 29.5 -11.5t14.5 -23.5t-7.5 -54.5
t-7.5 -68.5q0 -24 11.5 -31.5t31.5 -3.5q7 -15 7 -35q0 -30 -24.5 -42t-100.5 -22.5t-112 -10.5q-28 0 -41 12t-13 38q0 33 17 101q-207 -11 -437 -15v-220h159q53 0 67.5 -12.5t14.5 -56.5t-7 -245q-1 -33 -3 -62q195 154 388 154q153 0 220.5 -71.5t67.5 -204.5
q0 -177 -86 -292.5t-250 -115.5q-153 0 -342 74q9 -374 47 -559q-84 -30 -161 -30q-75 0 -93 58q-14 48 -3 483q-202 -116 -398 -116q-131 0 -199 70t-68 222q0 215 85 326t228 111q206 0 355 -136l-3 284h-162q-36 0 -50 11.5t-14 49.5q0 125 -11 276h-27zM732 366
q97 0 243 95q1 23 2 47q-8 167 -76 246q-77 89 -198 89q-87 0 -121.5 -53.5t-34.5 -165.5q0 -133 42.5 -195.5t142.5 -62.5zM1443 888q-114 0 -262 -147q0 -15 -1 -27v-194v-17q152 -47 251 -47q100 0 144.5 43.5t44.5 150.5q0 130 -48 184t-129 54z" />
    <glyph glyph-name="uni1256" unicode="&#x1256;" horiz-adv-x="1802" 
d="M426 1573q21 0 35 -12.5t14 -33.5q0 -37 -26 -122q26 -10 66 -15q26 -3 49 -4q29 37 80 66q118 68 307 68q170 0 242 -52q43 -32 60 -75q17 4 34 10q45 16 78 40q-22 75 -22 94q0 15 11 23t103 35.5t122 27.5q11 0 19.5 -5t8.5 -21q0 -21 -5 -64.5t-5 -65.5
q0 -17 6 -24.5t23 -3.5q8 -21 8 -38q0 -28 -73.5 -57t-103.5 -29q-21 0 -38 26q-58 -23 -160 -56q-35 -157 -308 -284q27 -45 38 -114q201 164 400 164q154 0 221 -71.5t67 -204.5q0 -177 -86 -292.5t-249 -115.5q-155 0 -345 75q10 -500 -7.5 -565t-102.5 -65
q-77 0 -156 30q55 213 63 553q-205 -118 -402 -118q-131 0 -199 70t-68 222q0 215 84.5 326t228.5 111q208 0 359 -141q-7 40 -20 61q-27 46 -139 149.5t-112 200.5v1q-90 13 -156 17q-113 -42 -152 -42q-19 0 -26.5 8.5t-7.5 31.5q0 29 8 65q17 -4 21.5 5.5t4.5 27.5
q0 26 -6.5 64t-6.5 56q0 15 10.5 22t94.5 24t116 17zM550 403q97 0 245 97q0 202 -76.5 291t-198.5 89q-86 0 -120.5 -53.5t-34.5 -165.5q0 -133 42.5 -195.5t142.5 -62.5zM1261 925q-115 0 -264 -148v-237q152 -47 251 -47q100 0 144.5 43.5t44.5 150.5q0 130 -47.5 184
t-128.5 54zM915 1395q-75 0 -110 -27.5t-35 -76.5q0 -100 143 -223q168 107 168 203q0 61 -43 92.5t-123 31.5z" />
    <glyph glyph-name="uni1258" unicode="&#x1258;" horiz-adv-x="2021" 
d="M1483 233q137 60 249 60q97 0 150.5 -47.5t53.5 -133.5q0 -142 -157.5 -249t-380.5 -107q-121 0 -172.5 42.5t-51.5 115.5q0 94 78 217q-122 -5 -240 -7q12 -171 34 -279q-83 -30 -161 -30q-75 0 -92 57.5t2 660.5q-157 -143 -398 -143q-143 0 -207.5 71.5t-64.5 239.5
q0 192 85 305t244 113q164 0 341 -95q1 206 -11 430h-67q-178 0 -241 -8q18 -67 18 -97q0 -25 -18 -40t-104 -31t-128 -16q-20 0 -30.5 10.5t-10.5 34.5q0 19 8 44q25 -3 33 5t8 28q0 28 -6.5 64.5t-6.5 51.5q0 16 17.5 25.5t93.5 25.5t97 19t314 3q486 0 624 25t159 25
q14 0 29 -11.5t15 -23.5t-7.5 -54.5t-7.5 -68.5q0 -24 11.5 -31.5t30.5 -3.5q8 -15 8 -35q0 -30 -24.5 -42t-101 -22.5t-112.5 -10.5q-28 0 -41 12t-13 38q0 33 18 101q-168 -9 -337 -14q-1 -179 -15 -432q156 139 383 139q156 0 226.5 -68.5t70.5 -210.5q0 -178 -90 -291.5
t-262 -113.5q-139 0 -328 80q2 -176 8 -317q110 1 147 3q52 4 147 25.5t129 21.5q23 0 55 -60zM531 993q-85 0 -125.5 -53.5t-40.5 -166.5q0 -130 44.5 -193.5t136.5 -63.5q113 0 178.5 77t65.5 327q-159 73 -259 73zM1246 606q100 0 145.5 46t45.5 157q0 110 -49 169.5
t-149 59.5q-103 0 -173 -79q-66 -74 -69 -279v-22q155 -52 249 -52zM1442 130q-36 -72 -36 -135q0 -58 31 -85.5t101 -27.5q78 0 127.5 38.5t49.5 117.5q-1 60 -36 94.5t-103 34.5q-60 0 -134 -37z" />
    <glyph glyph-name="uni125A" unicode="&#x125a;" horiz-adv-x="2542" 
d="M2135 763q34 0 128 25t115 25q14 0 29 -11.5t15 -23.5t-7.5 -54.5t-7.5 -68.5q0 -24 11.5 -31.5t30.5 -3.5q8 -15 8 -35q0 -30 -24.5 -42t-101 -22.5t-112.5 -10.5q-28 0 -41 12t-13 38q0 33 18 106q-181 -22 -234 -22q-26 0 -30.5 15t-4.5 45v56q-159 -8 -253 -12
q-22 -88 -74 -155q-90 -113 -262 -113q-139 0 -328 80q4 -494 49 -715q-83 -30 -161 -30q-75 0 -92 57.5t2 660.5q-157 -143 -398 -143q-143 0 -207.5 71.5t-64.5 239.5q0 192 85 305t244 113q164 0 341 -95q1 206 -11 430h-67q-178 0 -241 -8q18 -67 18 -97q0 -25 -18 -40
t-104 -31t-128 -16q-20 0 -30.5 10.5t-10.5 34.5q0 19 8 44q25 -3 33 5t8 28q0 28 -6.5 64.5t-6.5 51.5q0 16 17.5 25.5t93.5 25.5t97 19t314 3q486 0 624 25t159 25q14 0 29 -11.5t15 -23.5t-7.5 -54.5t-7.5 -68.5q0 -24 11.5 -31.5t30.5 -3.5q8 -15 8 -35q0 -30 -24.5 -42
t-101 -22.5t-112.5 -10.5q-28 0 -41 12t-13 38q0 33 18 101q-168 -9 -337 -14q-1 -179 -15 -432q156 139 383 139q156 0 226.5 -68.5t70.5 -210.5v-20q141 6 239 23q4 201 16 231q16 43 91 43q78 0 156 -30q-44 -249 -44 -369zM531 993q-85 0 -125.5 -53.5t-40.5 -166.5
q0 -130 44.5 -193.5t136.5 -63.5q113 0 178.5 77t65.5 327q-159 73 -259 73zM1246 606q100 0 145.5 46t45.5 157q0 110 -49 169.5t-149 59.5q-103 0 -172.5 -78.5t-69.5 -301.5q155 -52 249 -52z" />
    <glyph glyph-name="uni125B" unicode="&#x125b;" horiz-adv-x="1802" 
d="M698 116q-128 0 -190 -8q18 -67 18 -97q0 -25 -18 -40t-104 -31t-129 -16q-20 0 -30 10.5t-10 34.5q0 19 7 44q25 -3 33.5 5t8.5 28q0 28 -7 64.5t-7 51.5q0 16 17.5 25.5t93.5 25.5t97.5 19t263.5 3h53v298q-157 -143 -398 -143q-143 0 -207.5 71.5t-64.5 239.5
q0 192 85 305t244 113q164 0 341 -95q1 206 -11 430h-67q-178 0 -241 -8q18 -67 18 -97q0 -25 -18 -40t-104 -31t-128 -16q-20 0 -30.5 10.5t-10.5 34.5q0 19 8 44q25 -3 33 5t8 28q0 28 -6.5 64.5t-6.5 51.5q0 16 17.5 25.5t93.5 25.5t97 19t314 3q486 0 624 25t159 25
q14 0 29 -11.5t15 -23.5t-7.5 -54.5t-7.5 -68.5q0 -24 11.5 -31.5t30.5 -3.5q8 -15 8 -35q0 -30 -24.5 -42t-101 -22.5t-112.5 -10.5q-28 0 -41 12t-13 38q0 33 18 101q-168 -9 -337 -14q-1 -179 -15 -432q156 139 383 139q156 0 226.5 -68.5t70.5 -210.5q0 -178 -90 -291.5
t-262 -113.5q-139 0 -328 80v-325h498q32 0 48 -12.5t16 -43.5q0 -44 -50 -178t-50 -177q0 -16 5.5 -22.5t23.5 1.5q13 -18 13 -39q0 -33 -79.5 -59t-146.5 -26q-33 0 -45 10t-12 35q0 48 50 176t50 170q0 24 -25 35t-595 11zM531 993q-85 0 -125.5 -53.5t-40.5 -166.5
q0 -130 44.5 -193.5t136.5 -63.5q113 0 178.5 77t65.5 327q-159 73 -259 73zM1246 606q100 0 145.5 46t45.5 157q0 110 -49 169.5t-149 59.5q-103 0 -173 -79q-66 -74 -69 -279v-22q155 -52 249 -52z" />
    <glyph glyph-name="uni125C" unicode="&#x125c;" horiz-adv-x="1802" 
d="M727 1454q-178 0 -241 -8q18 -67 18 -97q0 -25 -18 -40t-104 -31t-128 -16q-20 0 -30.5 10.5t-10.5 34.5q0 19 8 44q25 -3 33 5t8 28q0 28 -6.5 64.5t-6.5 51.5q0 16 17.5 25.5t93.5 25.5t97 19t314 3q486 0 624 25t159 25q14 0 29 -11.5t15 -23.5t-7.5 -54.5t-7.5 -68.5
q0 -24 11.5 -31.5t30.5 -3.5q8 -15 8 -35q0 -30 -24.5 -42t-101 -22.5t-112.5 -10.5q-28 0 -41 12t-13 38q0 33 18 101q-173 -10 -347 -14q-1 -179 -15 -432q156 139 383 139q156 0 226.5 -68.5t70.5 -210.5q0 -178 -90 -291.5t-262 -113.5q-139 0 -328 80v-300
q163 73 301 73q112 0 175 -50.5t63 -137.5q0 -152 -165.5 -251t-395.5 -99q-69 0 -114 20q-303 -1 -356 -8q18 -67 18 -97q0 -25 -18 -40t-104 -31t-129 -16q-20 0 -30 10.5t-10 34.5q0 19 7 44q25 -3 33.5 5t8.5 28q0 28 -7 64.5t-7 51.5q0 16 17.5 25.5t93.5 25.5t97 19
q17 3 304 3q-5 29 -5 64q1 111 11 271q10 159 10 264q-157 -143 -398 -143q-143 0 -207.5 71.5t-64.5 239.5q0 192 85 305t244 113q164 0 341 -95q1 206 -11 430h-57zM531 993q-85 0 -125.5 -53.5t-40.5 -166.5q0 -130 44.5 -193.5t136.5 -63.5q113 0 178.5 77t65.5 327
q-159 73 -259 73zM1246 606q100 0 145.5 46t45.5 157q0 110 -49 169.5t-149 59.5q-103 0 -172.5 -78.5t-69.5 -301.5q155 -52 249 -52zM996 172q0 -151 34 -201t113 -50q84 0 128 36t44 110q-1 70 -45.5 105t-113.5 35q-75 0 -160 -35z" />
    <glyph glyph-name="uni125D" unicode="&#x125d;" horiz-adv-x="2184" 
d="M708 1454q-233 0 -295 -8q18 -67 18 -97q0 -25 -18 -40t-104 -31t-129 -16q-20 0 -30 10.5t-10 34.5q0 19 7 44q25 -3 33.5 5t8.5 28q0 28 -7 64.5t-7 51.5q0 16 17.5 25.5t93.5 25.5t97.5 19t368.5 3q537 0 674.5 25t158.5 25q15 0 29.5 -11.5t14.5 -23.5t-7.5 -54.5
t-7.5 -68.5q0 -24 11.5 -31.5t31.5 -3.5q7 -15 7 -35q0 -30 -24.5 -42t-100.5 -22.5t-112 -10.5q-28 0 -41 12t-13 38q0 33 17 101q-216 -12 -457 -16v-219h159q53 0 67.5 -12.5t14.5 -56.5t-7 -245q-1 -33 -3 -62q195 154 388 154q153 0 220.5 -71.5t67.5 -204.5
q0 -177 -86 -292.5t-250 -115.5q-153 0 -342 74q4 -169 14 -299q170 3 216 16q63 17 119.5 38.5t77.5 21.5q25 0 57 -61q132 61 244 61q102 0 155.5 -47.5t53.5 -133.5q0 -142 -157.5 -249.5t-386.5 -107.5q-117 0 -167.5 39t-50.5 108q0 88 78 195h-228q10 -80 22 -140
q-84 -30 -161 -30q-75 0 -93 58q-14 48 -3 483q-202 -116 -398 -116q-131 0 -199 70t-68 222q0 215 85 326t228 111q206 0 355 -136l-3 284h-162q-36 0 -50 11.5t-14 49.5q0 125 -11 276h-7zM712 366q97 0 243 95q1 23 2 47q-8 167 -76 246q-77 89 -198 89
q-87 0 -121.5 -53.5t-34.5 -165.5q0 -133 42.5 -195.5t142.5 -62.5zM1423 888q-114 0 -262 -147q0 -15 -1 -27v-211q152 -47 251 -47q100 0 144.5 43.5t44.5 150.5q0 130 -48 184t-129 54zM1605 17q-36 -72 -36 -135q0 -57 31 -85t101 -28q78 0 127.5 39t49.5 118
q-1 59 -36 94t-98 35q-65 0 -139 -38z" />
    <glyph glyph-name="uni1260" unicode="&#x1260;" horiz-adv-x="1459" 
d="M765 1529q255 0 352.5 -89t97.5 -334q0 -151 -7.5 -375t-7.5 -461q1 -259 15 -299t39 -32q15 -18 15 -40q0 -37 -87.5 -60.5t-146.5 -23.5q-31 0 -43.5 13.5t-12.5 63.5q0 143 7.5 467t7.5 534q0 294 -57 402t-251 108q-150 0 -205 -142.5t-55 -588.5q0 -584 49 -827
q-83 -30 -161 -30q-75 0 -92 57.5t-17 538.5q0 730 131.5 924t428.5 194z" />
    <glyph glyph-name="uni1261" unicode="&#x1261;" horiz-adv-x="1843" 
d="M765 1529q255 0 352.5 -89t97.5 -334q0 -86 -3 -196q207 5 308 24q138 25 159 25q15 0 29.5 -11.5t14.5 -23.5t-7.5 -54.5t-7.5 -68.5q0 -24 11.5 -31.5t31.5 -3.5q7 -15 7 -35q0 -30 -24.5 -42t-100.5 -22.5t-112 -10.5q-28 0 -41 12t-13 38q0 33 17 106
q-169 -11 -275 -17q-1 -31 -2 -64q-7 -224 -7 -461q1 -259 15 -299t39 -32q15 -18 15 -40q0 -37 -87.5 -60.5t-146.5 -23.5q-31 0 -43.5 13.5t-12.5 63.5q0 143 7.5 467t7.5 534q0 294 -57 402t-251 108q-150 0 -205 -142.5t-55 -588.5q0 -584 49 -827q-83 -30 -161 -30
q-75 0 -92 57.5t-17 538.5q0 730 131.5 924t428.5 194z" />
    <glyph glyph-name="uni1262" unicode="&#x1262;" horiz-adv-x="1837" 
d="M1200 -10q0 -33 9.5 -44.5t31.5 -11.5q136 0 273.5 25t158.5 25q15 0 29.5 -11.5t14.5 -23.5t-7.5 -54.5t-7.5 -68.5q0 -24 11.5 -31.5t31.5 -3.5q7 -15 7 -35q0 -30 -24.5 -42t-100.5 -22.5t-112 -10.5q-28 0 -41 12t-13 38q0 33 17 106q-331 -22 -426 -22
q-41 0 -57 16.5t-16 65.5q0 138 7.5 462t7.5 534q0 294 -57 402t-251 108q-150 0 -205 -142.5t-55 -588.5q0 -584 49 -827q-83 -30 -161 -30q-75 0 -92 57.5t-17 538.5q0 730 131.5 924t428.5 194q255 0 352.5 -89t97.5 -334q0 -151 -7.5 -375t-7.5 -741z" />
    <glyph glyph-name="uni1263" unicode="&#x1263;" horiz-adv-x="1460" 
d="M205 425q0 716 132 910t429 194q255 0 352.5 -89t97.5 -334q0 -151 -7.5 -375t-7.5 -461q0 -259 14 -299t40 -32q15 -18 15 -40q0 -37 -88 -60.5t-146 -23.5q-31 0 -44 13.5t-13 63.5q0 143 7.5 467t7.5 534q0 294 -56.5 402t-251.5 108q-150 0 -204.5 -142.5
t-54.5 -588.5q0 -334 23 -466q-56 -30 -138 -30q-65 0 -86 25.5t-21 223.5z" />
    <glyph glyph-name="uni1264" unicode="&#x1264;" horiz-adv-x="1826" 
d="M1200 172q0 -151 34 -201t114 -50q83 0 127 36t44 110q-1 70 -45 105t-113 35q-76 0 -161 -35zM1200 260q164 73 302 73q113 0 176 -50.5t63 -137.5q0 -152 -165.5 -251t-396.5 -99q-104 0 -152 46t-48 167q0 111 7.5 393t7.5 492q0 294 -57 402t-251 108
q-150 0 -205 -142.5t-55 -588.5q0 -584 49 -827q-83 -30 -161 -30q-75 0 -92 57.5t-17 538.5q0 730 131.5 924t428.5 194q255 0 352.5 -89t97.5 -334q0 -151 -7.5 -375t-7.5 -471z" />
    <glyph glyph-name="uni1265" unicode="&#x1265;" horiz-adv-x="1897" 
d="M1203 1529q255 0 352.5 -89t97.5 -334q0 -151 -7.5 -375t-7.5 -461q0 -259 14 -299t40 -32q15 -18 15 -40q0 -37 -88 -60.5t-146 -23.5q-31 0 -44 13.5t-13 63.5q0 143 7.5 467t7.5 534q0 294 -56.5 402t-251.5 108q-150 0 -204.5 -142.5t-54.5 -588.5q0 -584 49 -827
q-84 -30 -161 -30q-75 0 -92.5 57.5t-17.5 538.5q0 213 11 380q-240 -1 -295 -8q18 -67 18 -97q0 -25 -18 -40t-104 -31t-129 -16q-20 0 -30 10.5t-10 34.5q0 19 7 44q25 -3 33.5 5t8.5 28q0 28 -7 64.5t-7 51.5q0 16 17.5 25.5t93.5 25.5t97 19q20 3 335 3q32 309 111 425
q132 194 429 194z" />
    <glyph glyph-name="uni1266" unicode="&#x1266;" horiz-adv-x="1459" 
d="M1200 406q1 -54 15 -84t39 -22q15 -18 15 -40q0 -37 -87.5 -60.5t-146.5 -23.5q-31 0 -43.5 13.5t-12.5 56.5q0 77 7.5 278t7.5 369q0 294 -57 402t-251 108q-150 0 -205 -142.5t-55 -588.5q0 -584 49 -827q-83 -30 -161 -30q-75 0 -92 57.5t-17 538.5q0 730 131.5 924
t428.5 194q255 0 352.5 -89t97.5 -334q0 -151 -7 -362.5t-8 -337.5z" />
    <glyph glyph-name="uni1267" unicode="&#x1267;" horiz-adv-x="1852" 
d="M971 -185q-128 0 -190 -8q18 -67 18 -97q0 -25 -18 -40t-104 -31t-129 -16q-20 0 -30 10.5t-10 34.5q0 19 7 44q25 -3 33.5 5t8.5 28q0 28 -7 64.5t-7 51.5q0 16 17.5 25.5t93.5 25.5t97 19q20 3 228 3q1 144 7 425q8 324 8 534q0 294 -56.5 402t-251.5 108
q-150 0 -204.5 -142.5t-54.5 -588.5q0 -334 23 -466q-56 -30 -138 -30q-65 0 -86 25.5t-21 223.5q0 716 132 910t429 194q255 0 352.5 -89t97.5 -334q0 -151 -7.5 -375t-7.5 -461q0 -259 14 -304q6 -20 15 -29q205 5 299 22q138 25 159 25q15 0 29.5 -11.5t14.5 -23.5
t-7.5 -54.5t-7.5 -68.5q0 -24 11.5 -31.5t31.5 -3.5q7 -15 7 -35q0 -30 -24.5 -42t-100.5 -22.5t-112 -10.5q-28 0 -41 12t-13 38q0 33 17 101q-315 -17 -522 -17z" />
    <glyph glyph-name="uni1268" unicode="&#x1268;" horiz-adv-x="1559" 
d="M814 1198q245 0 342.5 -79.5t97.5 -338.5q0 -143 -7.5 -303t-7.5 -306q1 -160 15 -200t39 -32q15 -18 15 -40q0 -37 -87.5 -60.5t-146.5 -23.5q-31 0 -43.5 13.5t-12.5 63.5q0 130 7.5 297.5t7.5 381.5q0 285 -57 393t-241 108q-140 0 -195 -142.5t-55 -492.5
q0 -349 49 -592q-83 -30 -161 -30q-75 0 -92 57.5t-17 430.5q0 513 131.5 704t418.5 191zM663 1454q-203 0 -265 -8q18 -67 18 -97q0 -25 -18 -40t-104 -31t-129 -16q-20 0 -30 10.5t-10 34.5q0 19 7 44q25 -3 33.5 5t8.5 28q0 28 -7 64.5t-7 51.5q0 16 17.5 25.5t93.5 25.5
t97.5 19t338.5 3q382 0 519.5 25t158.5 25q15 0 29.5 -11.5t14.5 -23.5t-7.5 -54.5t-7.5 -68.5q0 -24 11.5 -31.5t31.5 -3.5q7 -15 7 -35q0 -30 -24.5 -42t-100.5 -22.5t-112 -10.5q-28 0 -41 12t-13 38q0 33 17 101q-320 -17 -527 -17z" />
    <glyph glyph-name="uni1269" unicode="&#x1269;" horiz-adv-x="1882" 
d="M814 1198q245 0 342.5 -79.5t97.5 -338.5q0 -34 -1 -70q206 5 306 24q138 25 159 25q15 0 29.5 -11.5t14.5 -23.5t-7.5 -54.5t-7.5 -68.5q0 -24 11.5 -31.5t31.5 -3.5q7 -15 7 -35q0 -30 -24.5 -42t-100.5 -22.5t-112 -10.5q-28 0 -41 12t-13 38q0 33 17 106
q-167 -11 -272 -16q-2 -58 -5 -119q-7 -160 -7 -306q1 -160 15 -200t39 -32q15 -18 15 -40q0 -37 -87.5 -60.5t-146.5 -23.5q-31 0 -43.5 13.5t-12.5 63.5q0 130 7.5 297.5t7.5 381.5q0 285 -57 393t-241 108q-140 0 -195 -142.5t-55 -492.5q0 -349 49 -592
q-83 -30 -161 -30q-75 0 -92 57.5t-17 430.5q0 513 131.5 704t418.5 191zM663 1454q-203 0 -265 -8q18 -67 18 -97q0 -25 -18 -40t-104 -31t-129 -16q-20 0 -30 10.5t-10 34.5q0 19 7 44q25 -3 33.5 5t8.5 28q0 28 -7 64.5t-7 51.5q0 16 17.5 25.5t93.5 25.5t97.5 19
t338.5 3q382 0 519.5 25t158.5 25q15 0 29.5 -11.5t14.5 -23.5t-7.5 -54.5t-7.5 -68.5q0 -24 11.5 -31.5t31.5 -3.5q7 -15 7 -35q0 -30 -24.5 -42t-100.5 -22.5t-112 -10.5q-28 0 -41 12t-13 38q0 33 17 101q-320 -17 -527 -17z" />
    <glyph glyph-name="uni126A" unicode="&#x126a;" horiz-adv-x="1876" 
d="M1239 -10q0 -33 9.5 -44.5t31.5 -11.5q135 0 273 25t159 25q14 0 29 -11.5t15 -23.5t-7.5 -54.5t-7.5 -68.5q0 -24 11.5 -31.5t30.5 -3.5q8 -15 8 -35q0 -30 -24.5 -42t-101 -22.5t-112.5 -10.5q-28 0 -41 12t-13 38q0 33 18 106q-331 -22 -426 -22q-41 0 -57 16.5
t-16 65.5q0 125 7.5 292.5t7.5 381.5q0 285 -57 393t-241 108q-140 0 -195 -142.5t-55 -492.5q0 -349 49 -592q-83 -30 -161 -30q-75 0 -92 57.5t-17 430.5q0 513 131.5 704t418.5 191q245 0 342.5 -79.5t97.5 -338.5q0 -143 -7.5 -329t-7.5 -461zM663 1454q-203 0 -265 -8
q18 -67 18 -97q0 -25 -18 -40t-104 -31t-129 -16q-20 0 -30 10.5t-10 34.5q0 19 7 44q25 -3 33.5 5t8.5 28q0 28 -7 64.5t-7 51.5q0 16 17.5 25.5t93.5 25.5t97.5 19t338.5 3q382 0 519.5 25t158.5 25q15 0 29.5 -11.5t14.5 -23.5t-7.5 -54.5t-7.5 -68.5q0 -24 11.5 -31.5
t31.5 -3.5q7 -15 7 -35q0 -30 -24.5 -42t-100.5 -22.5t-112 -10.5q-28 0 -41 12t-13 38q0 33 17 101q-320 -17 -527 -17z" />
    <glyph glyph-name="uni126B" unicode="&#x126b;" horiz-adv-x="1559" 
d="M486 437q0 -137 23 -231q-56 -30 -138 -30q-65 0 -86 25.5t-21 124.5q0 490 131.5 681t418.5 191q245 0 342.5 -79.5t97.5 -338.5q0 -143 -7.5 -303t-7.5 -306q1 -160 15 -200t39 -32q15 -18 15 -40q0 -37 -87.5 -60.5t-146.5 -23.5q-31 0 -43.5 13.5t-12.5 63.5
q0 130 7.5 297.5t7.5 381.5q0 285 -57 393t-241 108q-140 0 -195 -142.5t-54 -492.5zM663 1454q-203 0 -265 -8q18 -67 18 -97q0 -25 -18 -40t-104 -31t-129 -16q-20 0 -30 10.5t-10 34.5q0 19 7 44q25 -3 33.5 5t8.5 28q0 28 -7 64.5t-7 51.5q0 16 17.5 25.5t93.5 25.5
t97.5 19t338.5 3q382 0 519.5 25t158.5 25q15 0 29.5 -11.5t14.5 -23.5t-7.5 -54.5t-7.5 -68.5q0 -24 11.5 -31.5t31.5 -3.5q7 -15 7 -35q0 -30 -24.5 -42t-100.5 -22.5t-112 -10.5q-28 0 -41 12t-13 38q0 33 17 101q-320 -17 -527 -17z" />
    <glyph glyph-name="uni126C" unicode="&#x126c;" horiz-adv-x="1864" 
d="M663 1454q-203 0 -265 -8q18 -67 18 -97q0 -25 -18 -40t-104 -31t-129 -16q-20 0 -30 10.5t-10 34.5q0 19 7 44q25 -3 33.5 5t8.5 28q0 28 -7 64.5t-7 51.5q0 16 17.5 25.5t93.5 25.5t97.5 19t338.5 3q382 0 519.5 25t158.5 25q15 0 29.5 -11.5t14.5 -23.5t-7.5 -54.5
t-7.5 -68.5q0 -24 11.5 -31.5t31.5 -3.5q7 -15 7 -35q0 -30 -24.5 -42t-100.5 -22.5t-112 -10.5q-28 0 -41 12t-13 38q0 33 17 101q-320 -17 -527 -17zM1239 172q0 -151 34 -201t113 -50q84 0 128 36t44 110q-1 70 -45.5 105t-113.5 35q-75 0 -160 -35zM1239 260
q164 73 302 73q112 0 175 -50.5t63 -137.5q0 -152 -165.5 -251t-395.5 -99q-105 0 -153 46t-48 157q0 58 8 217t8 356q0 285 -57 393t-241 108q-140 0 -195 -142.5t-55 -492.5q0 -349 49 -592q-83 -30 -161 -30q-75 0 -92 57.5t-17 430.5q0 513 131.5 704t418.5 191
q245 0 342.5 -79.5t97.5 -338.5q0 -143 -15 -520z" />
    <glyph glyph-name="uni126D" unicode="&#x126d;" horiz-adv-x="1938" 
d="M1193 1198q245 0 342.5 -79.5t97.5 -338.5q0 -143 -7.5 -303t-7.5 -306q0 -160 14 -200t40 -32q15 -18 15 -40q0 -37 -88 -60.5t-146 -23.5q-31 0 -44 13.5t-13 63.5q0 130 7.5 297.5t7.5 381.5q0 285 -56.5 393t-241.5 108q-140 0 -194.5 -142.5t-54.5 -492.5
q0 -349 49 -592q-84 -30 -161 -30q-75 0 -92.5 57.5t-17.5 430.5q0 159 13 287q-242 -1 -297 -8q18 -67 18 -97q0 -25 -18 -40t-104 -31t-129 -16q-20 0 -30 10.5t-10 34.5q0 19 7 44q25 -3 33.5 5t8.5 28q0 28 -7 64.5t-7 51.5q0 16 17.5 25.5t93.5 25.5t97 19q20 3 342 3
q33 195 104 298q132 191 419 191zM1042 1454q-203 0 -266 -8q18 -67 18 -97q0 -25 -18 -40t-104 -31t-128 -16q-20 0 -30.5 10.5t-10.5 34.5q0 19 8 44q25 -3 33 5t8 28q0 28 -6.5 64.5t-6.5 51.5q0 16 17.5 25.5t93.5 25.5t97 19t339 3q381 0 519 25t159 25q14 0 29 -11.5
t15 -23.5t-7.5 -54.5t-7.5 -68.5q0 -24 11.5 -31.5t30.5 -3.5q8 -15 8 -35q0 -30 -24.5 -42t-101 -22.5t-112.5 -10.5q-28 0 -41 12t-13 38q0 33 18 101q-320 -17 -527 -17z" />
    <glyph glyph-name="uni126E" unicode="&#x126e;" horiz-adv-x="1559" 
d="M814 1198q245 0 342.5 -79.5t97.5 -327.5q0 -108 -7.5 -209.5t-7.5 -175.5q1 -54 15 -84t39 -22q15 -18 15 -40q0 -37 -87.5 -60.5t-146.5 -23.5q-31 0 -43.5 13.5t-12.5 56.5q0 42 7.5 157.5t7.5 213.5q0 239 -57 347t-241 108q-140 0 -195 -142.5t-55 -492.5
q0 -349 49 -592q-83 -30 -161 -30q-75 0 -92 57.5t-17 430.5q0 513 131.5 704t418.5 191zM663 1454q-203 0 -265 -8q18 -67 18 -97q0 -25 -18 -40t-104 -31t-129 -16q-20 0 -30 10.5t-10 34.5q0 19 7 44q25 -3 33.5 5t8.5 28q0 28 -7 64.5t-7 51.5q0 16 17.5 25.5t93.5 25.5
t97.5 19t338.5 3q382 0 519.5 25t158.5 25q15 0 29.5 -11.5t14.5 -23.5t-7.5 -54.5t-7.5 -68.5q0 -24 11.5 -31.5t31.5 -3.5q7 -15 7 -35q0 -30 -24.5 -42t-100.5 -22.5t-112 -10.5q-28 0 -41 12t-13 38q0 33 17 101q-320 -17 -527 -17z" />
    <glyph glyph-name="uni126F" unicode="&#x126f;" horiz-adv-x="1891" 
d="M1010 -185q-128 0 -191 -8q18 -67 18 -97q0 -25 -18 -40t-104 -31t-128 -16q-20 0 -30.5 10.5t-10.5 34.5q0 19 8 44q25 -3 33 5t8 28q0 28 -6.5 64.5t-6.5 51.5q0 16 17.5 25.5t93.5 25.5t97 19q19 3 228 3q1 114 7 255q8 168 8 382q0 285 -57 393t-241 108
q-140 0 -195 -142.5t-54 -492.5q0 -137 23 -231q-56 -30 -138 -30q-65 0 -86 25.5t-21 124.5q0 490 131.5 681t418.5 191q245 0 342.5 -79.5t97.5 -338.5q0 -143 -7.5 -303t-7.5 -311q1 -160 15 -200q7 -22 18 -29q202 5 296 22q138 25 159 25q14 0 29 -11.5t15 -23.5
t-7.5 -54.5t-7.5 -68.5q0 -24 11.5 -31.5t30.5 -3.5q8 -15 8 -35q0 -30 -24.5 -42t-101 -22.5t-112.5 -10.5q-28 0 -41 12t-13 38q0 33 18 101q-315 -17 -522 -17zM663 1454q-203 0 -265 -8q18 -67 18 -97q0 -25 -18 -40t-104 -31t-129 -16q-20 0 -30 10.5t-10 34.5
q0 19 7 44q25 -3 33.5 5t8.5 28q0 28 -7 64.5t-7 51.5q0 16 17.5 25.5t93.5 25.5t97.5 19t338.5 3q382 0 519.5 25t158.5 25q15 0 29.5 -11.5t14.5 -23.5t-7.5 -54.5t-7.5 -68.5q0 -24 11.5 -31.5t31.5 -3.5q7 -15 7 -35q0 -30 -24.5 -42t-100.5 -22.5t-112 -10.5
q-28 0 -41 12t-13 38q0 33 17 101q-320 -17 -527 -17z" />
    <glyph glyph-name="uni1270" unicode="&#x1270;" horiz-adv-x="1589" 
d="M598 790q-178 0 -240 -8q18 -67 18 -97q0 -25 -18 -40t-104 -31t-129 -16q-20 0 -30 10.5t-10 34.5q0 19 7 44q25 -3 33.5 5t8.5 28q0 28 -7 64.5t-7 51.5q0 16 17.5 25.5t93.5 25.5t97.5 19t313.5 3h28q-3 369 -12 411q-13 68 -47 68q-9 14 -9 35q0 35 89.5 60.5
t146.5 25.5q30 0 42.5 -12.5t12.5 -50.5v-535q275 5 373 23q138 25 159 25q15 0 29.5 -11.5t14.5 -23.5t-7.5 -54.5t-7.5 -68.5q0 -24 11.5 -31.5t31.5 -3.5q7 -15 7 -35q0 -30 -24.5 -42t-100.5 -22.5t-112 -10.5q-28 0 -41 12t-13 38q0 33 17 101q-168 -9 -337 -14v-121
q0 -584 44 -827q-78 -30 -156 -30q-75 0 -92 44.5t-17 484.5q0 257 -1 446h-73z" />
    <glyph glyph-name="uni1271" unicode="&#x1271;" horiz-adv-x="1589" 
d="M598 790q-178 0 -240 -8q18 -67 18 -97q0 -25 -18 -40t-104 -31t-129 -16q-20 0 -30 10.5t-10 34.5q0 19 7 44q25 -3 33.5 5t8.5 28q0 28 -7 64.5t-7 51.5q0 16 17.5 25.5t93.5 25.5t97.5 19t313.5 3h28q-3 369 -12 411q-13 68 -47 68q-9 14 -9 35q0 35 89.5 60.5
t146.5 25.5q30 0 42.5 -12.5t12.5 -50.5v-535q275 5 373 23q138 25 159 25q15 0 29.5 -11.5t14.5 -23.5t-7.5 -54.5t-7.5 -68.5q0 -24 11.5 -31.5t31.5 -3.5q7 -15 7 -35q0 -30 -24.5 -42t-100.5 -22.5t-112 -10.5q-28 0 -41 12t-13 38q0 33 17 101q-168 -9 -337 -14v-121
q0 -244 7 -428q220 5 326 24q138 25 159 25q14 0 29 -11.5t15 -23.5t-7.5 -54.5t-7.5 -68.5q0 -24 11.5 -31.5t30.5 -3.5q8 -15 8 -35q0 -30 -24.5 -42t-101 -22.5t-112.5 -10.5q-28 0 -41 12t-13 38q0 33 18 106q-177 -12 -284 -17q11 -175 31 -284q-78 -30 -156 -30
q-75 0 -92 44.5t-17 484.5q0 257 -1 446h-73z" />
    <glyph glyph-name="uni1272" unicode="&#x1272;" horiz-adv-x="1589" 
d="M598 790q-178 0 -240 -8q18 -67 18 -97q0 -25 -18 -40t-104 -31t-129 -16q-20 0 -30 10.5t-10 34.5q0 19 7 44q25 -3 33.5 5t8.5 28q0 28 -7 64.5t-7 51.5q0 16 17.5 25.5t93.5 25.5t97.5 19t313.5 3h28q-3 369 -12 411q-13 68 -47 68q-9 14 -9 35q0 35 89.5 60.5
t146.5 25.5q30 0 42.5 -12.5t12.5 -50.5v-535q275 5 373 23q138 25 159 25q15 0 29.5 -11.5t14.5 -23.5t-7.5 -54.5t-7.5 -68.5q0 -24 11.5 -31.5t31.5 -3.5q7 -15 7 -35q0 -30 -24.5 -42t-100.5 -22.5t-112 -10.5q-28 0 -41 12t-13 38q0 33 17 101q-168 -9 -337 -14v-132
q1 -553 13 -640t84 -87q82 0 214.5 25t153.5 25q14 0 29 -11.5t15 -23.5t-7.5 -54.5t-7.5 -68.5q0 -24 11.5 -31.5t30.5 -3.5q8 -15 8 -35q0 -30 -24.5 -42t-101 -22.5t-112.5 -10.5q-28 0 -41 12t-13 38q0 33 18 106q-274 -22 -381 -22q-76 0 -93 57.5t-17 471.5
q0 257 -1 446h-73z" />
    <glyph glyph-name="uni1273" unicode="&#x1273;" horiz-adv-x="1602" 
d="M684 663v127h-73q-178 0 -241 -8q18 -67 18 -97q0 -25 -18 -40t-104 -31t-128 -16q-20 0 -30.5 10.5t-10.5 34.5q0 19 8 44q25 -3 33 5t8 28q0 28 -6.5 64.5t-6.5 51.5q0 16 17.5 25.5t93.5 25.5t97 19t314 3h29q-2 359 -13 411q-13 68 -48 68q-8 14 -9 35q0 35 90 60.5
t146 25.5q30 0 43 -12.5t13 -50.5v-535q274 5 373 23q138 25 159 25q14 0 29 -11.5t15 -23.5t-7.5 -54.5t-7.5 -68.5q0 -24 11.5 -31.5t30.5 -3.5q8 -15 8 -35q0 -30 -24.5 -42t-101 -22.5t-112.5 -10.5q-28 0 -41 12t-13 38q0 33 18 101q-168 -9 -337 -14
q-3 -601 -100 -787q-100 -190 -378 -190q-30 0 -62 -8q18 -67 18 -97q0 -25 -18 -40t-104 -31t-128 -16q-20 0 -30.5 10.5t-10.5 34.5q0 19 8 44q25 -3 33 5t8 28q0 28 -6.5 64.5t-6.5 51.5q0 16 17.5 25.5t93.5 25.5t97 19t82 3q148 0 206.5 129.5t58.5 598.5z" />
    <glyph glyph-name="uni1274" unicode="&#x1274;" horiz-adv-x="1609" 
d="M598 790q-178 0 -240 -8q18 -67 18 -97q0 -25 -18 -40t-104 -31t-129 -16q-20 0 -30 10.5t-10 34.5q0 19 7 44q25 -3 33.5 5t8.5 28q0 28 -7 64.5t-7 51.5q0 16 17.5 25.5t93.5 25.5t97.5 19t313.5 3h29q-3 362 -13 411q-13 68 -47 68q-9 14 -9 35q0 35 89.5 60.5
t146.5 25.5q30 0 42.5 -12.5t12.5 -50.5v-535q275 5 373 23q138 25 159 25q15 0 29.5 -11.5t14.5 -23.5t-7.5 -54.5t-7.5 -68.5q0 -24 11.5 -31.5t31.5 -3.5q7 -15 7 -35q0 -30 -24.5 -42t-100.5 -22.5t-112 -10.5q-28 0 -41 12t-13 38q0 33 17 101q-168 -9 -337 -14v-533
q163 73 301 73q113 0 176 -50.5t63 -137.5q0 -152 -165.5 -251t-396.5 -99q-104 0 -152 46t-48 172q0 106 0.5 278.5t0.5 304.5v194h-74zM892 172q0 -151 34 -201t114 -50q83 0 127 36t44 110q-1 70 -45 105t-113 35q-76 0 -161 -35z" />
    <glyph glyph-name="uni1275" unicode="&#x1275;" horiz-adv-x="1589" 
d="M652 1423h159q53 0 67.5 -13t14.5 -56v-443q275 5 373 23q138 25 159 25q15 0 29.5 -11.5t14.5 -23.5t-7.5 -54.5t-7.5 -68.5q0 -24 11.5 -31.5t31.5 -3.5q7 -15 7 -35q0 -30 -24.5 -42t-100.5 -22.5t-112 -10.5q-28 0 -41 12t-13 38q0 33 17 101q-168 -9 -337 -14v-121
q0 -584 44 -827q-79 -30 -156 -30q-75 0 -92.5 44.5t-17.5 484.5v446h-73q-178 0 -240 -8q18 -67 18 -97q0 -25 -18 -40t-104 -31t-129 -16q-20 0 -30 10.5t-10 34.5q0 19 7 44q25 -3 33.5 5t8.5 28q0 28 -7 64.5t-7 51.5q0 16 17.5 25.5t93.5 25.5t97.5 19t313.5 3h29v395
h-162q-36 0 -50 11t-14 50q1 100 -12.5 145.5t-47.5 45.5q-9 14 -9 34q0 35 89.5 60.5t146.5 25.5q30 0 42.5 -12t12.5 -50q0 -58 -15 -191z" />
    <glyph glyph-name="uni1276" unicode="&#x1276;" horiz-adv-x="1589" 
d="M598 790q-178 0 -240 -8q18 -67 18 -97q0 -25 -18 -40t-104 -31t-129 -16q-20 0 -30 10.5t-10 34.5q0 19 7 44q25 -3 33.5 5t8.5 28q0 28 -7 64.5t-7 51.5q0 16 17.5 25.5t93.5 25.5t97.5 19t313.5 3h17q-2 11 -5 17q-23 46 -135 149.5t-112 200.5q0 108 118.5 176
t307.5 68q169 0 241.5 -52t72.5 -135q0 -186 -315 -332q43 -36 55 -91q280 6 379 24q138 25 159 25q15 0 29.5 -11.5t14.5 -23.5t-7.5 -54.5t-7.5 -68.5q0 -24 11.5 -31.5t31.5 -3.5q7 -15 7 -35q0 -30 -24.5 -42t-100.5 -22.5t-112 -10.5q-28 0 -41 12t-13 38q0 33 17 101
q-168 -9 -337 -14q2 -716 44 -948q-78 -30 -156 -30q-75 0 -92 44.5t-17 647.5q2 179 -2 283h-72zM796 1395q-74 0 -109 -27.5t-35 -76.5q0 -100 143 -223q167 107 167 203q0 61 -43 92.5t-123 31.5z" />
    <glyph glyph-name="uni1277" unicode="&#x1277;" horiz-adv-x="1589" 
d="M598 790q-178 0 -240 -8q18 -67 18 -97q0 -25 -18 -40t-104 -31t-129 -16q-20 0 -30 10.5t-10 34.5q0 19 7 44q25 -3 33.5 5t8.5 28q0 28 -7 64.5t-7 51.5q0 16 17.5 25.5t93.5 25.5t97.5 19t313.5 3h27q-4 376 -11 411q-13 68 -47 68q-9 14 -9 35q0 35 89.5 60.5
t146.5 25.5q30 0 42.5 -12.5t12.5 -50.5v-535q275 5 373 23q138 25 159 25q15 0 29.5 -11.5t14.5 -23.5t-7.5 -54.5t-7.5 -68.5q0 -24 11.5 -31.5t31.5 -3.5q7 -15 7 -35q0 -30 -24.5 -42t-100.5 -22.5t-112 -10.5q-28 0 -41 12t-13 38q0 33 17 101q-168 -9 -337 -14v-121
q0 -486 30 -735q206 5 299 22q138 25 159 25q14 0 29 -11.5t15 -23.5t-7.5 -54.5t-7.5 -68.5q0 -24 11.5 -31.5t30.5 -3.5q8 -15 8 -35q0 -30 -24.5 -42t-101 -22.5t-112.5 -10.5q-28 0 -41 12t-13 38q0 33 18 101q-315 -17 -537 -17q-128 0 -191 -8q18 -67 18 -97
q0 -25 -18 -40t-104 -31t-128 -16q-20 0 -30.5 10.5t-10.5 34.5q0 19 8 44q25 -3 33 5t8 28q0 28 -6.5 64.5t-6.5 51.5q0 16 17.5 25.5t93.5 25.5t97 19q20 3 243 3q0 529 -2 856h-72z" />
    <glyph glyph-name="uni1278" unicode="&#x1278;" horiz-adv-x="1589" 
d="M598 790q-178 0 -240 -8q18 -67 18 -97q0 -25 -18 -40t-104 -31t-129 -16q-20 0 -30 10.5t-10 34.5q0 19 7 44q25 -3 33.5 5t8.5 28q0 28 -7 64.5t-7 51.5q0 16 17.5 25.5t93.5 25.5t97.5 19t313.5 3h30v209q0 121 -7 336h-67q-178 0 -240 -8q18 -67 18 -97
q0 -25 -18 -40t-104 -31t-129 -16q-20 0 -30 10.5t-10 34.5q0 19 7 44q25 -3 33.5 5t8.5 28q0 28 -7 64.5t-7 51.5q0 16 17.5 25.5t93.5 25.5t97.5 19t313.5 3q487 0 624.5 25t158.5 25q15 0 29.5 -11.5t14.5 -23.5t-7.5 -54.5t-7.5 -68.5q0 -24 11.5 -31.5t31.5 -3.5
q7 -15 7 -35q0 -30 -24.5 -42t-100.5 -22.5t-112 -10.5q-28 0 -41 12t-13 38q0 33 17 101q-168 -9 -337 -14v-546q275 5 373 23q138 25 159 25q15 0 29.5 -11.5t14.5 -23.5t-7.5 -54.5t-7.5 -68.5q0 -24 11.5 -31.5t31.5 -3.5q7 -15 7 -35q0 -30 -24.5 -42t-100.5 -22.5
t-112 -10.5q-28 0 -41 12t-13 38q0 33 17 101q-168 -9 -337 -14v-121q0 -584 44 -827q-78 -30 -156 -30q-75 0 -92 44.5t-17 484.5v446h-74z" />
    <glyph glyph-name="uni1279" unicode="&#x1279;" horiz-adv-x="1592" 
d="M598 790q-178 0 -240 -8q18 -67 18 -97q0 -25 -18 -40t-104 -31t-129 -16q-20 0 -30 10.5t-10 34.5q0 19 7 44q25 -3 33.5 5t8.5 28q0 28 -7 64.5t-7 51.5q0 16 17.5 25.5t93.5 25.5t97.5 19t313.5 3h30v209q0 121 -7 336h-67q-178 0 -240 -8q18 -67 18 -97
q0 -25 -18 -40t-104 -31t-129 -16q-20 0 -30 10.5t-10 34.5q0 19 7 44q25 -3 33.5 5t8.5 28q0 28 -7 64.5t-7 51.5q0 16 17.5 25.5t93.5 25.5t97.5 19t313.5 3q487 0 624.5 25t158.5 25q15 0 29.5 -11.5t14.5 -23.5t-7.5 -54.5t-7.5 -68.5q0 -24 11.5 -31.5t31.5 -3.5
q7 -15 7 -35q0 -30 -24.5 -42t-100.5 -22.5t-112 -10.5q-28 0 -41 12t-13 38q0 33 17 101q-168 -9 -337 -14v-546q275 5 373 23q138 25 159 25q15 0 29.5 -11.5t14.5 -23.5t-7.5 -54.5t-7.5 -68.5q0 -24 11.5 -31.5t31.5 -3.5q7 -15 7 -35q0 -30 -24.5 -42t-100.5 -22.5
t-112 -10.5q-28 0 -41 12t-13 38q0 33 17 101q-168 -9 -337 -14v-121q0 -244 7 -428q222 4 329 24q138 25 159 25q14 0 29 -11.5t15 -23.5t-7.5 -54.5t-7.5 -68.5q0 -24 11.5 -31.5t30.5 -3.5q8 -15 8 -35q0 -30 -24.5 -42t-101 -22.5t-112.5 -10.5q-28 0 -41 12t-13 38
q0 33 18 106q-179 -12 -287 -17q11 -175 31 -284q-78 -30 -156 -30q-75 0 -92 44.5t-17 484.5v446h-74z" />
    <glyph glyph-name="uni127A" unicode="&#x127a;" horiz-adv-x="1589" 
d="M598 1454q-178 0 -240 -8q18 -67 18 -97q0 -25 -18 -40t-104 -31t-129 -16q-20 0 -30 10.5t-10 34.5q0 19 7 44q25 -3 33.5 5t8.5 28q0 28 -7 64.5t-7 51.5q0 16 17.5 25.5t93.5 25.5t97.5 19t313.5 3q487 0 624.5 25t158.5 25q15 0 29.5 -11.5t14.5 -23.5t-7.5 -54.5
t-7.5 -68.5q0 -24 11.5 -31.5t31.5 -3.5q7 -15 7 -35q0 -30 -24.5 -42t-100.5 -22.5t-112 -10.5q-28 0 -41 12t-13 38q0 33 17 101q-168 -9 -337 -14v-546q275 5 373 23q138 25 159 25q15 0 29.5 -11.5t14.5 -23.5t-7.5 -54.5t-7.5 -68.5q0 -24 11.5 -31.5t31.5 -3.5
q7 -15 7 -35q0 -30 -24.5 -42t-100.5 -22.5t-112 -10.5q-28 0 -41 12t-13 38q0 33 17 101q-168 -9 -337 -14v-132q1 -553 13 -640t84 -87q82 0 214.5 25t153.5 25q14 0 29 -11.5t15 -23.5t-7.5 -54.5t-7.5 -68.5q0 -24 11.5 -31.5t30.5 -3.5q8 -15 8 -35q0 -30 -24.5 -42
t-101 -22.5t-112.5 -10.5q-28 0 -41 12t-13 38q0 33 18 106q-274 -22 -381 -22q-76 0 -93 57.5t-17 471.5v446h-74q-178 0 -240 -8q18 -67 18 -97q0 -25 -18 -40t-104 -31t-129 -16q-20 0 -30 10.5t-10 34.5q0 19 7 44q25 -3 33.5 5t8.5 28q0 28 -7 64.5t-7 51.5
q0 16 17.5 25.5t93.5 25.5t97.5 19t313.5 3h30v209q0 121 -7 336h-67z" />
    <glyph glyph-name="uni127B" unicode="&#x127b;" horiz-adv-x="1602" 
d="M611 1454q-178 0 -241 -8q18 -67 18 -97q0 -25 -18 -40t-104 -31t-128 -16q-20 0 -30.5 10.5t-10.5 34.5q0 19 8 44q25 -3 33 5t8 28q0 28 -6.5 64.5t-6.5 51.5q0 16 17.5 25.5t93.5 25.5t97 19t314 3q486 0 624 25t159 25q14 0 29 -11.5t15 -23.5t-7.5 -54.5t-7.5 -68.5
q0 -24 11.5 -31.5t30.5 -3.5q8 -15 8 -35q0 -30 -24.5 -42t-101 -22.5t-112.5 -10.5q-28 0 -41 12t-13 38q0 33 18 101q-168 -9 -337 -14v-546q274 5 373 23q138 25 159 25q14 0 29 -11.5t15 -23.5t-7.5 -54.5t-7.5 -68.5q0 -24 11.5 -31.5t30.5 -3.5q8 -15 8 -35
q0 -30 -24.5 -42t-101 -22.5t-112.5 -10.5q-28 0 -41 12t-13 38q0 33 18 101q-168 -9 -337 -14q-3 -602 -100 -788q-100 -190 -378 -190q-30 0 -62 -8q18 -67 18 -97q0 -25 -18 -40t-104 -31t-128 -16q-20 0 -30.5 10.5t-10.5 34.5q0 19 8 44q25 -3 33 5t8 28
q0 28 -6.5 64.5t-6.5 51.5q0 16 17.5 25.5t93.5 25.5t97 19t82 3q148 0 206.5 129.5t58.5 599.5v127h-73q-178 0 -241 -8q18 -67 18 -97q0 -25 -18 -40t-104 -31t-128 -16q-20 0 -30.5 10.5t-10.5 34.5q0 19 8 44q25 -3 33 5t8 28q0 28 -6.5 64.5t-6.5 51.5q0 16 17.5 25.5
t93.5 25.5t97 19t314 3h29v209q0 121 -6 336h-67z" />
    <glyph glyph-name="uni127C" unicode="&#x127c;" horiz-adv-x="1589" 
d="M598 1454q-178 0 -240 -8q18 -67 18 -97q0 -25 -18 -40t-104 -31t-129 -16q-20 0 -30 10.5t-10 34.5q0 19 7 44q25 -3 33.5 5t8.5 28q0 28 -7 64.5t-7 51.5q0 16 17.5 25.5t93.5 25.5t97.5 19t313.5 3q487 0 624.5 25t158.5 25q15 0 29.5 -11.5t14.5 -23.5t-7.5 -54.5
t-7.5 -68.5q0 -24 11.5 -31.5t31.5 -3.5q7 -15 7 -35q0 -30 -24.5 -42t-100.5 -22.5t-112 -10.5q-28 0 -41 12t-13 38q0 33 17 101q-168 -9 -337 -14v-546q275 5 373 23q138 25 159 25q15 0 29.5 -11.5t14.5 -23.5t-7.5 -54.5t-7.5 -68.5q0 -24 11.5 -31.5t31.5 -3.5
q7 -15 7 -35q0 -30 -24.5 -42t-100.5 -22.5t-112 -10.5q-28 0 -41 12t-13 38q0 33 17 101q-168 -9 -337 -14v-533q163 73 301 73q113 0 176 -50.5t63 -137.5q0 -152 -165.5 -251t-396.5 -99q-104 0 -152 46t-48 172q0 106 0.5 278.5t0.5 255.5v243h-74q-178 0 -240 -8
q18 -67 18 -97q0 -25 -18 -40t-104 -31t-129 -16q-20 0 -30 10.5t-10 34.5q0 19 7 44q25 -3 33.5 5t8.5 28q0 28 -7 64.5t-7 51.5q0 16 17.5 25.5t93.5 25.5t97.5 19t313.5 3h30v209q0 121 -7 336h-67zM892 172q0 -151 34 -201t114 -50q83 0 127 36t44 110q-1 70 -45 105
t-113 35q-76 0 -161 -35z" />
    <glyph glyph-name="uni127D" unicode="&#x127d;" horiz-adv-x="1870" 
d="M653 1454q-233 0 -295 -8q18 -67 18 -97q0 -25 -18 -40t-104 -31t-129 -16q-20 0 -30 10.5t-10 34.5q0 19 7 44q25 -3 33.5 5t8.5 28q0 28 -7 64.5t-7 51.5q0 16 17.5 25.5t93.5 25.5t97.5 19t368.5 3q572 0 709.5 25t158.5 25q15 0 29.5 -11.5t14.5 -23.5t-7.5 -54.5
t-7.5 -68.5q0 -24 11.5 -31.5t31.5 -3.5q7 -15 7 -35q0 -30 -24.5 -42t-100.5 -22.5t-112 -10.5q-28 0 -41 12t-13 38q0 33 17 101q-201 -11 -437 -15v-220h159q53 0 67.5 -12.5t14.5 -56.5v-256q275 5 373 23q138 25 159 25q15 0 29.5 -11.5t14.5 -23.5t-7.5 -54.5
t-7.5 -68.5q0 -24 11.5 -31.5t31.5 -3.5q7 -15 7 -35q0 -30 -24.5 -42t-100.5 -22.5t-112 -10.5q-28 0 -41 12t-13 38q0 33 17 101q-168 -9 -337 -14v-121q0 -584 44 -827q-79 -30 -156 -30q-75 0 -92.5 44.5t-17.5 484.5v446h-73q-178 0 -240 -8q18 -67 18 -97
q0 -25 -18 -40t-104 -31t-129 -16q-20 0 -30 10.5t-10 34.5q0 19 7 44q25 -3 33.5 5t8.5 28q0 28 -7 64.5t-7 51.5q0 16 17.5 25.5t93.5 25.5t97.5 19t313.5 3h29v208h-162q-36 0 -50 11.5t-14 49.5q0 125 -11 276h-62z" />
    <glyph glyph-name="uni127E" unicode="&#x127e;" horiz-adv-x="1619" 
d="M1480 1623q10 0 18.5 -5t8.5 -21q0 -21 -4.5 -64.5t-4.5 -65.5q0 -17 5.5 -24.5t23.5 -3.5q7 -21 7 -38q0 -28 -73.5 -57t-103.5 -29q-20 0 -38 26q-58 -23 -159 -56q-35 -157 -309 -284q43 -36 55 -91q280 6 379 24q138 25 159 25q15 0 29.5 -11.5t14.5 -23.5
t-7.5 -54.5t-7.5 -68.5q0 -24 11.5 -31.5t31.5 -3.5q7 -15 7 -35q0 -30 -24.5 -42t-100.5 -22.5t-112 -10.5q-28 0 -41 12t-13 38q0 33 17 101q-168 -9 -337 -14q2 -716 44 -948q-78 -30 -156 -30q-75 0 -92 44.5t-17 647.5q2 179 -2 283h-72q-178 0 -240 -8q18 -67 18 -97
q0 -25 -18 -40t-104 -31t-129 -16q-20 0 -30 10.5t-10 34.5q0 19 7 44q25 -3 33.5 5t8.5 28q0 28 -7 64.5t-7 51.5q0 16 17.5 25.5t93.5 25.5t97.5 19t313.5 3h17q-2 11 -5 17q-23 46 -135 149.5t-112 200.5v1q-90 13 -156 17q-112 -42 -151 -42q-20 0 -27 8.5t-7 31.5
q0 29 7 65q17 -4 22 5.5t5 27.5q0 26 -6.5 64t-6.5 56q0 15 10.5 22t94 24t116.5 17q20 0 34 -12.5t14 -33.5q0 -37 -25 -122q25 -10 66 -15q26 -3 48 -4q29 37 80 66q119 68 308 68q169 0 241 -52q44 -32 61 -75q16 5 33 10q45 16 78 40q-21 75 -21 94q0 15 11 23
t102.5 35.5t122.5 27.5zM815 1395q-74 0 -109 -27.5t-35 -76.5q0 -100 143 -223q167 107 167 203q0 61 -43 92.5t-123 31.5z" />
    <glyph glyph-name="uni127F" unicode="&#x127f;" horiz-adv-x="1589" 
d="M649 -185q-128 0 -191 -8q18 -67 18 -97q0 -25 -18 -40t-104 -31t-128 -16q-20 0 -30.5 10.5t-10.5 34.5q0 19 8 44q25 -3 33 5t8 28q0 28 -6.5 64.5t-6.5 51.5q0 16 17.5 25.5t93.5 25.5t97 19q20 3 244 3q-1 21 -1 47v809h-74q-178 0 -240 -8q18 -67 18 -97
q0 -25 -18 -40t-104 -31t-129 -16q-20 0 -30 10.5t-10 34.5q0 19 7 44q25 -3 33.5 5t8.5 28q0 28 -7 64.5t-7 51.5q0 16 17.5 25.5t93.5 25.5t97.5 19t313.5 3h30v209q0 121 -7 336h-67q-178 0 -240 -8q18 -67 18 -97q0 -25 -18 -40t-104 -31t-129 -16q-20 0 -30 10.5
t-10 34.5q0 19 7 44q25 -3 33.5 5t8.5 28q0 28 -7 64.5t-7 51.5q0 16 17.5 25.5t93.5 25.5t97.5 19t313.5 3q487 0 624.5 25t158.5 25q15 0 29.5 -11.5t14.5 -23.5t-7.5 -54.5t-7.5 -68.5q0 -24 11.5 -31.5t31.5 -3.5q7 -15 7 -35q0 -30 -24.5 -42t-100.5 -22.5t-112 -10.5
q-28 0 -41 12t-13 38q0 33 17 101q-168 -9 -337 -14v-546q275 5 373 23q138 25 159 25q15 0 29.5 -11.5t14.5 -23.5t-7.5 -54.5t-7.5 -68.5q0 -24 11.5 -31.5t31.5 -3.5q7 -15 7 -35q0 -30 -24.5 -42t-100.5 -22.5t-112 -10.5q-28 0 -41 12t-13 38q0 33 17 101
q-168 -9 -337 -14v-121q0 -493 31 -735q205 6 298 22q138 25 159 25q14 0 29 -11.5t15 -23.5t-7.5 -54.5t-7.5 -68.5q0 -24 11.5 -31.5t30.5 -3.5q8 -15 8 -35q0 -30 -24.5 -42t-101 -22.5t-112.5 -10.5q-28 0 -41 12t-13 38q0 33 18 101q-315 -17 -537 -17z" />
    <glyph glyph-name="uni1280" unicode="&#x1280;" horiz-adv-x="1420" 
d="M804 -108q0 129 50 497.5t50 453.5q0 19 -6 25.5t-21 7.5q-24 0 -101.5 -23t-101.5 -23q-18 0 -27 8.5t-9 37.5v104q-222 -1 -280 -8q18 -67 18 -97q0 -25 -18 -40t-104 -31t-129 -16q-20 0 -30 10.5t-10 34.5q0 19 7 44q25 -3 33.5 5t8.5 28q0 28 -7 64.5t-7 51.5
q0 16 17.5 25.5t93.5 25.5t97 19t308 3q-3 176 -12 221q-13 68 -47 68q-9 14 -9 34q0 35 89.5 60.5t146.5 25.5q30 0 42.5 -12t12.5 -50l1 -427q0 -26 7 -33t20 -7q24 0 109 25t109 25q21 0 30.5 -8t9.5 -36q0 -96 -50 -457.5t-50 -482.5q0 -59 14 -86.5t40 -19.5
q15 -18 15 -40q0 -37 -97.5 -60.5t-156.5 -23.5q-31 0 -43.5 13.5t-12.5 63.5z" />
    <glyph glyph-name="uni1281" unicode="&#x1281;" horiz-adv-x="1773" 
d="M804 -108q0 129 50 497.5t50 453.5q0 19 -6 25.5t-21 7.5q-24 0 -101.5 -23t-101.5 -23q-18 0 -27 8.5t-9 37.5v104q-222 -1 -280 -8q18 -67 18 -97q0 -25 -18 -40t-104 -31t-129 -16q-20 0 -30 10.5t-10 34.5q0 19 7 44q25 -3 33.5 5t8.5 28q0 28 -7 64.5t-7 51.5
q0 16 17.5 25.5t93.5 25.5t97 19t308 3q-3 176 -12 221q-13 68 -47 68q-9 14 -9 34q0 35 89.5 60.5t146.5 25.5q30 0 42.5 -12t12.5 -50l1 -427q0 -26 7 -33t20 -7q24 0 109 25t109 25q21 0 30.5 -8t9.5 -36q0 -69 -26 -275q225 4 331 24q138 25 159 25q15 0 29.5 -11.5
t14.5 -23.5t-7.5 -54.5t-7.5 -68.5q0 -24 11.5 -31.5t31.5 -3.5q7 -15 7 -35q0 -30 -24.5 -42t-100.5 -22.5t-112 -10.5q-28 0 -41 12t-13 38q0 33 17 106q-199 -13 -310 -18q-4 -32 -9 -67q-50 -361 -50 -482q0 -59 14 -86.5t40 -19.5q15 -18 15 -40q0 -37 -97.5 -60.5
t-156.5 -23.5q-31 0 -43.5 13.5t-12.5 63.5z" />
    <glyph glyph-name="uni1282" unicode="&#x1282;" horiz-adv-x="1673" 
d="M804 -98q0 119 50 487.5t50 453.5q0 19 -6 25.5t-21 7.5q-24 0 -101.5 -23t-101.5 -23q-18 0 -27 8.5t-9 37.5v104q-222 -1 -280 -8q18 -67 18 -97q0 -25 -18 -40t-104 -31t-129 -16q-20 0 -30 10.5t-10 34.5q0 19 7 44q25 -3 33.5 5t8.5 28q0 28 -7 64.5t-7 51.5
q0 16 17.5 25.5t93.5 25.5t97 19t308 3q-3 176 -12 221q-13 68 -47 68q-9 14 -9 34q0 35 89.5 60.5t146.5 25.5q30 0 42.5 -12t12.5 -50l1 -427q0 -26 7 -33t20 -7q24 0 109 25t109 25q21 0 30.5 -8t9.5 -36q0 -96 -50 -457.5t-50 -482.5q0 -51 12 -81t85 -30q82 0 214 25
t153 25q15 0 29.5 -11.5t14.5 -23.5t-7.5 -54.5t-7.5 -68.5q0 -24 11.5 -31.5t31.5 -3.5q7 -15 7 -35q0 -30 -24.5 -42t-100.5 -22.5t-112 -10.5q-28 0 -41 12t-13 38q0 33 17 106q-273 -22 -400 -22q-76 0 -93 18t-17 69z" />
    <glyph glyph-name="uni1283" unicode="&#x1283;" horiz-adv-x="1421" 
d="M1146 965q0 -709 -122 -929.5t-451 -220.5q-30 0 -67 -8q18 -67 18 -97q0 -25 -18 -40t-104 -31t-129 -16q-20 0 -30 10.5t-10 34.5q0 19 7 44q25 -3 33.5 5t8.5 28q0 28 -7 64.5t-7 51.5q0 16 17.5 25.5t93.5 25.5t97.5 19t93.5 3q209 0 271.5 167t62.5 742
q0 19 -6 25.5t-21 7.5q-24 0 -101.5 -23t-101.5 -23q-18 0 -27 8.5t-9 37.5v104q-222 -1 -280 -8q18 -67 18 -97q0 -25 -18 -40t-104 -31t-129 -16q-20 0 -30 10.5t-10 34.5q0 19 7 44q25 -3 33.5 5t8.5 28q0 28 -7 64.5t-7 51.5q0 16 17.5 25.5t93.5 25.5t97 19t308 3
q-3 176 -12 221q-13 68 -47 68q-9 14 -9 34q0 35 89.5 60.5t146.5 25.5q30 0 42.5 -12t12.5 -50l1 -427q0 -26 7 -33t20 -7q24 0 109 25t109 25q21 0 30.5 -8t10.5 -56z" />
    <glyph glyph-name="uni1284" unicode="&#x1284;" horiz-adv-x="1651" 
d="M1056 260q133 73 271 73q113 0 176 -50.5t63 -137.5q0 -152 -165.5 -251t-396.5 -99q-104 0 -152 46t-48 142q0 128 50 446.5t50 413.5q0 19 -6 25.5t-21 7.5q-24 0 -101.5 -23t-101.5 -23q-18 0 -27 8.5t-9 37.5v104q-222 -1 -280 -8q18 -67 18 -97q0 -25 -18 -40
t-104 -31t-129 -16q-20 0 -30 10.5t-10 34.5q0 19 7 44q25 -3 33.5 5t8.5 28q0 28 -7 64.5t-7 51.5q0 16 17.5 25.5t93.5 25.5t97 19t308 3q-3 176 -12 221q-13 68 -47 68q-9 14 -9 34q0 35 89.5 60.5t146.5 25.5q30 0 42.5 -12t12.5 -50l1 -427q0 -26 7 -33t20 -7
q24 0 109 25t109 25q21 0 30.5 -8t9.5 -36q0 -96 -44.5 -381t-44.5 -344zM1035 172q-10 -151 24 -201t114 -50q83 0 127 36t44 110q-1 70 -45 105t-113 35q-76 0 -151 -35z" />
    <glyph glyph-name="uni1285" unicode="&#x1285;" horiz-adv-x="1370" 
d="M105 480q0 154 51.5 281.5t162.5 226.5q101 90 267 150q-4 142 -12 182q-13 68 -47 68q-9 14 -9 34q0 35 89.5 60.5t146.5 25.5q30 0 42.5 -12t12.5 -50l1 -427q0 -26 7 -33t20 -7q24 0 109 25t109 25q21 0 30.5 -8t9.5 -36q0 -96 -50 -457.5t-50 -482.5q0 -59 14 -86.5
t40 -19.5q15 -18 15 -40q0 -37 -97.5 -60.5t-156.5 -23.5q-31 0 -43.5 13.5t-12.5 63.5q0 129 50 497.5t50 453.5q0 19 -6 25.5t-21 7.5q-24 0 -101.5 -23t-101.5 -23q-18 0 -27 8.5t-9 37.5q0 78 -1 142q-126 -51 -189 -155q-71 -115 -71 -277q0 -99 23 -181
q-56 -30 -160 -30q-49 0 -67 17t-18 88z" />
    <glyph glyph-name="uni1286" unicode="&#x1286;" horiz-adv-x="2094" 
d="M1121 -108q0 139 37.5 391.5t37.5 301.5q0 31 -11.5 41t-51.5 10q-56 0 -216.5 -25t-224.5 -25q-52 0 -73 36t-21 184q0 93 8 174q-194 -1 -248 -8q18 -67 18 -97q0 -25 -18 -40t-104 -31t-129 -16q-20 0 -30 10.5t-10 34.5q0 19 7 44q25 -3 33.5 5t8.5 28q0 28 -7 64.5
t-7 51.5q0 16 17.5 25.5t93.5 25.5t97 19q20 3 296 3q31 153 102 244q128 166 479 166q32 0 59 3.5t114.5 25t118.5 21.5q26 0 58 -60q133 60 245 60q96 0 152.5 -47.5t56.5 -133.5q0 -142 -158 -249t-381 -107q-121 0 -172 42.5t-51 115.5q0 94 77 217q-83 -7 -162 -7
q-222 0 -274.5 -108t-51.5 -330q0 -149 18 -183t72 -34q79 0 240.5 22.5t206.5 22.5q32 0 48 -12.5t16 -43.5q0 -55 -37.5 -305.5t-37.5 -373.5q0 -59 14 -86.5t40 -19.5q15 -18 15 -40q0 -37 -97.5 -60.5t-156.5 -23.5q-31 0 -43.5 13.5t-12.5 63.5zM1514 1396
q-35 -72 -35 -135q0 -58 31 -85.5t100 -27.5q79 0 128 38.5t49 117.5q-1 57 -36 93t-97 36q-60 0 -140 -37z" />
    <glyph glyph-name="uni1287" unicode="&#x1287;" horiz-adv-x="2094" 
d="M1177 -185q-264 0 -327 -8q18 -67 18 -97q0 -25 -18 -40t-104 -31t-128 -16q-20 0 -30.5 10.5t-10.5 34.5q0 19 8 44q25 -3 33 5t8 28q0 28 -6.5 64.5t-6.5 51.5q0 16 17.5 25.5t93.5 25.5t97 19q19 3 300 3q5 133 37 349q38 253 38 302q0 31 -11.5 41t-51.5 10
q-56 0 -216.5 -25t-224.5 -25q-52 0 -73 36t-21 184q0 93 8 174q-194 -1 -248 -8q18 -67 18 -97q0 -25 -18 -40t-104 -31t-129 -16q-20 0 -30 10.5t-10 34.5q0 19 7 44q25 -3 33.5 5t8.5 28q0 28 -7 64.5t-7 51.5q0 16 17.5 25.5t93.5 25.5t97 19q20 3 296 3q31 153 102 244
q128 166 479 166q32 0 59 3.5t114.5 25t118.5 21.5q26 0 58 -60q133 60 245 60q96 0 152.5 -47.5t56.5 -133.5q0 -142 -158 -249t-381 -107q-121 0 -172 42.5t-51 115.5q0 94 77 217q-83 -7 -162 -7q-222 0 -274.5 -108t-51.5 -330q0 -149 18 -183t72 -34q79 0 240.5 22.5
t206.5 22.5q32 0 48 -12.5t16 -43.5q0 -55 -37.5 -305.5t-37.5 -373.5q0 -59 14 -86.5t40 -19.5q15 -18 15 -40q0 -37 -97.5 -60.5t-156.5 -23.5zM1514 1396q-35 -72 -35 -135q0 -58 31 -85.5t100 -27.5q79 0 128 38.5t49 117.5q-1 57 -36 93t-97 36q-60 0 -140 -37z" />
    <glyph glyph-name="uni1288" unicode="&#x1288;" horiz-adv-x="2120" 
d="M1582 699q137 60 249 60q97 0 150.5 -47.5t53.5 -133.5q0 -142 -157.5 -249t-380.5 -107q-121 0 -172.5 42.5t-51.5 115.5q0 94 78 217q-126 -5 -248 -7q-4 -30 -8 -63q-50 -361 -50 -482q0 -59 14 -86.5t40 -19.5q15 -18 15 -40q0 -37 -97.5 -60.5t-156.5 -23.5
q-31 0 -43.5 13.5t-12.5 63.5q0 129 50 497.5t50 453.5q0 19 -6 25.5t-21 7.5q-24 0 -101.5 -23t-101.5 -23q-18 0 -27 8.5t-9 37.5v104q-222 -1 -280 -8q18 -67 18 -97q0 -25 -18 -40t-104 -31t-129 -16q-20 0 -30 10.5t-10 34.5q0 19 7 44q25 -3 33.5 5t8.5 28
q0 28 -7 64.5t-7 51.5q0 16 17.5 25.5t93.5 25.5t97 19t308 3q-3 176 -12 221q-13 68 -47 68q-9 14 -9 34q0 35 89.5 60.5t146.5 25.5q30 0 42.5 -12t12.5 -50l1 -427q0 -26 7 -33t20 -7q24 0 109 25t109 25q21 0 30.5 -8t9.5 -36q0 -69 -26 -276q98 1 132 3q52 4 147 25.5
t129 21.5q23 0 55 -60zM1541 596q-36 -72 -36 -135q0 -58 31 -85.5t101 -27.5q78 0 127.5 38.5t49.5 117.5q-1 60 -36 94.5t-103 34.5q-60 0 -134 -37z" />
    <glyph glyph-name="uni128A" unicode="&#x128a;" horiz-adv-x="2010" 
d="M1603 509q34 0 128 25t115 25q14 0 29 -11.5t15 -23.5t-7.5 -54.5t-7.5 -68.5q0 -24 11.5 -31.5t30.5 -3.5q8 -15 8 -35q0 -30 -24.5 -42t-101 -22.5t-112.5 -10.5q-28 0 -41 12t-13 38q0 33 18 106q-181 -22 -234 -22q-26 0 -30.5 15t-4.5 55q0 80 1 146
q-179 -9 -279 -13q-5 -32 -9 -66q-50 -361 -50 -482q0 -59 14 -86.5t40 -19.5q15 -18 15 -40q0 -37 -97.5 -60.5t-156.5 -23.5q-31 0 -43.5 13.5t-12.5 63.5q0 129 50 497.5t50 453.5q0 19 -6 25.5t-21 7.5q-24 0 -101.5 -23t-101.5 -23q-18 0 -27 8.5t-9 37.5v104
q-222 -1 -280 -8q18 -67 18 -97q0 -25 -18 -40t-104 -31t-129 -16q-20 0 -30 10.5t-10 34.5q0 19 7 44q25 -3 33.5 5t8.5 28q0 28 -7 64.5t-7 51.5q0 16 17.5 25.5t93.5 25.5t97 19t308 3q-3 176 -12 221q-13 68 -47 68q-9 14 -9 34q0 35 89.5 60.5t146.5 25.5
q30 0 42.5 -12t12.5 -50l1 -427q0 -26 7 -33t20 -7q24 0 109 25t109 25q21 0 30.5 -8t9.5 -36q0 -69 -26 -274q159 5 266 24q4 203 15 230q16 43 91 43q78 0 156 -30q-44 -249 -44 -469z" />
    <glyph glyph-name="uni128B" unicode="&#x128b;" horiz-adv-x="1552" 
d="M846 116q-128 0 -190 -8q18 -67 18 -97q0 -25 -18 -40t-104 -31t-129 -16q-20 0 -30 10.5t-10 34.5q0 19 7 44q25 -3 33.5 5t8.5 28q0 28 -7 64.5t-7 51.5q0 16 17.5 25.5t93.5 25.5t97 19q19 2 201 3q8 84 37 278q40 260 40 330q0 19 -6 25.5t-21 7.5q-24 0 -101.5 -23
t-101.5 -23q-18 0 -27 8.5t-9 37.5v104q-222 -1 -280 -8q18 -67 18 -97q0 -25 -18 -40t-104 -31t-129 -16q-20 0 -30 10.5t-10 34.5q0 19 7 44q25 -3 33.5 5t8.5 28q0 28 -7 64.5t-7 51.5q0 16 17.5 25.5t93.5 25.5t97 19t308 3q-3 176 -12 221q-13 68 -47 68q-9 14 -9 34
q0 35 89.5 60.5t146.5 25.5q30 0 42.5 -12t12.5 -50l1 -427q0 -26 7 -33t20 -7q24 0 109 25t109 25q21 0 30.5 -8t9.5 -36q0 -81 -48 -382q-39 -248 -46 -368h352q32 0 48 -12.5t16 -43.5q0 -44 -50 -178t-50 -177q0 -16 5.5 -22.5t23.5 1.5q13 -18 13 -39q0 -33 -79.5 -59
t-146.5 -26q-33 0 -45 10t-12 35q0 48 50 176t50 170q0 24 -25 35t-355 11z" />
    <glyph glyph-name="uni128C" unicode="&#x128c;" horiz-adv-x="1651" 
d="M1056 260q133 73 271 73q113 0 176 -50.5t63 -137.5q0 -152 -165.5 -251t-396.5 -99q-69 0 -113 20q-303 -1 -357 -8q18 -67 18 -97q0 -25 -18 -40t-104 -31t-128 -16q-20 0 -30.5 10.5t-10.5 34.5q0 19 8 44q25 -3 33 5t8 28q0 28 -6.5 64.5t-6.5 51.5q0 16 17.5 25.5
t93.5 25.5t97 19q16 3 302 3q-3 23 -3 49q0 128 50 446.5t50 413.5q0 19 -6 25.5t-21 7.5q-24 0 -101.5 -23t-101.5 -23q-18 0 -27 8.5t-9 37.5v104q-222 -1 -280 -8q18 -67 18 -97q0 -25 -18 -40t-104 -31t-129 -16q-20 0 -30 10.5t-10 34.5q0 19 7 44q25 -3 33.5 5t8.5 28
q0 28 -7 64.5t-7 51.5q0 16 17.5 25.5t93.5 25.5t97 19t308 3q-3 176 -12 221q-13 68 -47 68q-9 14 -9 34q0 35 89.5 60.5t146.5 25.5q30 0 42.5 -12t12.5 -50l1 -427q0 -26 7 -33t20 -7q24 0 109 25t109 25q21 0 30.5 -8t9.5 -36q0 -96 -44.5 -381t-44.5 -344zM1035 172
q-10 -151 24 -201t114 -50q83 0 127 36t44 110q-1 70 -45 105t-113 35q-76 0 -151 -35z" />
    <glyph glyph-name="uni128D" unicode="&#x128d;" horiz-adv-x="2009" 
d="M1558 709q79 0 172.5 25.5t114.5 25.5q15 0 29.5 -11.5t14.5 -24.5q0 -12 -7.5 -54t-7.5 -68q0 -24 11.5 -32t31.5 -4q7 -14 7 -35q0 -30 -24.5 -42t-100.5 -22.5t-112 -10.5q-28 0 -41 12.5t-13 37.5q0 33 17 92q-86 -8 -253 -8h-294q-4 -30 -8 -63q-50 -361 -50 -482
q0 -59 14 -86.5t40 -19.5q15 -18 15 -40q0 -37 -97.5 -60.5t-156.5 -23.5q-31 0 -43.5 13.5t-12.5 63.5q0 129 50 497.5t50 453.5q0 19 -6 25.5t-21 7.5q-24 0 -101.5 -23t-101.5 -23q-18 0 -27 8.5t-9 37.5v104q-222 -1 -280 -8q18 -67 18 -97q0 -25 -18 -40t-104 -31
t-129 -16q-20 0 -30 10.5t-10 34.5q0 19 7 44q25 -3 33.5 5t8.5 28q0 28 -7 64.5t-7 51.5q0 16 17.5 25.5t93.5 25.5t97 19t308 3q-3 176 -12 221q-13 68 -47 68q-9 14 -9 34q0 35 89.5 60.5t146.5 25.5q30 0 42.5 -12t12.5 -50l1 -427q0 -26 7 -33t20 -7q24 0 109 25
t109 25q21 0 30.5 -8t9.5 -36q0 -69 -26 -276h217q3 219 18 257q17 43 92 43q77 0 156 -30q-44 -159 -44 -270z" />
    <glyph glyph-name="uni1290" unicode="&#x1290;" horiz-adv-x="1087" 
d="M305 955q0 297 -13.5 365t-47.5 68q-9 14 -9 34q0 35 89.5 60.5t146.5 25.5q30 0 42.5 -12t12.5 -50l1 -347q0 -82 20 -100.5t81 -18.5h120q32 0 48 -12.5t16 -43.5q0 -55 -50 -405.5t-50 -473.5q0 -59 14 -86.5t40 -19.5q15 -18 15 -40q0 -37 -97.5 -60.5t-156.5 -23.5
q-31 0 -43.5 13.5t-12.5 63.5q0 139 50 509t50 417q0 31 -10.5 42t-52.5 11h-127q-40 0 -58 15.5t-18 68.5z" />
    <glyph glyph-name="uni1291" unicode="&#x1291;" horiz-adv-x="1440" 
d="M305 955q0 297 -13.5 365t-47.5 68q-9 14 -9 34q0 35 89.5 60.5t146.5 25.5q30 0 42.5 -12t12.5 -50l1 -347q0 -82 20 -100.5t81 -18.5h120q32 0 48 -12.5t16 -43.5q0 -38 -24 -214q223 4 329 24q138 25 159 25q15 0 29.5 -11.5t14.5 -23.5t-7.5 -54.5t-7.5 -68.5
q0 -24 11.5 -31.5t31.5 -3.5q7 -15 7 -35q0 -30 -24.5 -42t-100.5 -22.5t-112 -10.5q-28 0 -41 12t-13 38q0 33 17 106q-198 -13 -309 -18q-5 -36 -10 -76q-50 -350 -50 -473q0 -59 14 -86.5t40 -19.5q15 -18 15 -40q0 -37 -97.5 -60.5t-156.5 -23.5q-31 0 -43.5 13.5
t-12.5 63.5q0 139 50 509t50 417q0 31 -10.5 42t-52.5 11h-127q-40 0 -58 15.5t-18 68.5z" />
    <glyph glyph-name="uni1292" unicode="&#x1292;" horiz-adv-x="1340" 
d="M471 -103q0 134 50 504t50 417q0 31 -10.5 42t-52.5 11h-127q-40 0 -58 15.5t-18 68.5q0 297 -13.5 365t-47.5 68q-9 14 -9 34q0 35 89.5 60.5t146.5 25.5q30 0 42.5 -12t12.5 -50l1 -347q0 -82 20 -100.5t81 -18.5h120q32 0 48 -12.5t16 -43.5q0 -55 -50 -405.5
t-50 -484.5q0 -52 14.5 -76t82.5 -24q82 0 214 25t153 25q15 0 29.5 -11.5t14.5 -23.5t-7.5 -54.5t-7.5 -68.5q0 -24 11.5 -31.5t31.5 -3.5q7 -15 7 -35q0 -30 -24.5 -42t-100.5 -22.5t-112 -10.5q-28 0 -41 12t-13 38q0 33 17 106q-273 -22 -400 -22q-76 0 -93 15.5
t-17 66.5z" />
    </font>
</defs>
</svg>
